<?xml version="1.0" standalone="no"?>
<!DOCTYPE svg PUBLIC "-//W3C//DTD SVG 1.1//EN" "http://www.w3.org/Graphics/SVG/1.1/DTD/svg11.dtd" >
<svg>
<metadata>
Created by FontForge 20100429 at Wed Aug 19 17:30:43 2015
 By fontface

</metadata>
<defs>
<font id="MetaPro-BoldItalic" horiz-adv-x="570" >
  <font-face 
    font-family="MetaPro-BoldItalic"
    font-weight="700"
    font-style="italic"
    font-stretch="normal"
    units-per-em="1000"
    panose-1="2 0 5 3 5 0 0 2 0 4"
    ascent="754"
    descent="-246"
    x-height="512"
    cap-height="695"
    bbox="-246 -307 1450 967"
    underline-thickness="20"
    underline-position="-122"
    stemh="114"
    stemv="150"
    unicode-range="U+000D-FB06"
  />
<missing-glyph horiz-adv-x="551" 
d="M25 0v695h501v-695h-501zM82 57h387v581h-387v-581z" />
    <glyph glyph-name="IJ" unicode="IJ" horiz-adv-x="574" 
d="M313 695l-148 -695h-145l148 695h145zM600 695l-119 -560c-19 -90 -26 -108 -39 -136c-38 -85 -133 -142 -201 -166l-49 75c41 22 81 56 99 84c17 25 26 53 42 128l122 575h145z" />
    <glyph glyph-name="ij" unicode="ij" horiz-adv-x="528" 
d="M265 524l-111 -524h-134l107 503zM309 653c0 -46 -37 -83 -83 -83c-45 0 -82 37 -82 83s38 83 84 83c45 0 81 -37 81 -83zM525 524l-108 -510c-21 -97 -49 -136 -72 -159c-30 -31 -70 -56 -120 -75l-42 78c23 9 49 36 63 54c17 22 27 50 37 98l105 493zM569 653
c0 -46 -37 -83 -83 -83c-45 0 -82 37 -82 83s38 83 84 83c45 0 81 -37 81 -83z" />
    <glyph glyph-name="uniFB00" unicode="ff" horiz-adv-x="623" 
d="M765 709l-58 -81c-19 10 -36 15 -54 15c-34 0 -61 -21 -69 -58l-15 -73h130l-54 -92h-91l-82 -420c-19 -95 -76 -178 -128 -224l-82 74c28 28 66 95 77 150l84 420h-168l-82 -420c-19 -95 -76 -178 -128 -224l-82 74c28 28 66 95 77 150l84 420h-50l20 92h49
c1 21 7 47 12 70c22 107 92 159 197 159c44 0 87 -14 114 -32l-58 -81c-19 10 -36 15 -54 15c-34 0 -61 -21 -69 -58l-15 -73h172c1 21 7 47 12 70c22 107 92 159 197 159c44 0 87 -14 114 -32z" />
    <glyph glyph-name="fi" unicode="fi" horiz-adv-x="595" 
d="M582 512l-108 -512h-134l89 420h-174l-82 -420c-19 -95 -76 -178 -128 -224l-82 74c28 28 66 95 77 150l84 420h-50l20 92h49c1 21 7 47 12 70c22 107 92 159 197 159c43 0 82 -6 110 -25l-58 -81c-10 5 -33 8 -50 8c-34 0 -61 -21 -69 -58l-15 -73h312zM629 653
c0 -46 -37 -83 -83 -83c-45 0 -82 37 -82 83s38 83 84 83c45 0 81 -37 81 -83z" />
    <glyph glyph-name="fl" unicode="fl" horiz-adv-x="614" 
d="M461 715l-59 -82c-13 7 -32 10 -48 10c-34 0 -61 -21 -69 -58l-15 -73h125l-54 -92h-86l-82 -420c-19 -95 -76 -178 -128 -224l-82 74c28 28 66 95 77 150l84 420h-50l20 92h49c1 21 7 47 12 70c22 107 92 159 197 159c42 0 81 -10 109 -26zM622 740
c0 -28 -11 -88 -25 -153l-81 -379c-13 -60 -17 -85 -17 -99c0 -19 8 -29 26 -29c5 0 10 0 15 2l6 -80c-24 -9 -54 -14 -83 -14c-72 0 -106 39 -106 92c0 18 7 56 15 93l81 382c14 67 25 133 25 154z" />
    <glyph glyph-name="uniFB03" unicode="ffi" horiz-adv-x="896" 
d="M883 512l-108 -512h-132l89 420h-174l-82 -420c-19 -95 -76 -178 -128 -224l-82 74c28 28 66 95 77 150l84 420h-172l-82 -420c-19 -95 -76 -178 -128 -224l-82 74c28 28 66 95 77 150l84 420h-50l20 92h49c1 21 7 47 12 70c22 107 92 159 197 159c44 0 87 -14 114 -32
l-58 -81c-19 10 -36 15 -54 15c-34 0 -61 -21 -69 -58l-15 -73h176c1 21 7 47 12 70c22 107 92 159 197 159c41 0 80 -10 108 -26l-59 -82c-16 8 -31 10 -47 10c-34 0 -61 -21 -69 -58l-15 -73h310zM930 653c0 -46 -37 -83 -83 -83c-45 0 -82 37 -82 83s38 83 84 83
c45 0 81 -37 81 -83z" />
    <glyph glyph-name="uniFB04" unicode="ffl" horiz-adv-x="911" 
d="M756 715l-59 -82c-15 7 -29 10 -44 10c-34 0 -61 -21 -69 -58l-15 -73h125l-53 -92h-87l-82 -420c-19 -95 -76 -178 -128 -224l-82 74c28 28 66 95 77 150l84 420h-168l-82 -420c-19 -95 -76 -178 -128 -224l-82 74c28 28 66 95 77 150l84 420h-50l20 92h49
c1 21 7 47 12 70c22 107 92 159 197 159c44 0 87 -14 114 -32l-58 -81c-19 10 -36 15 -54 15c-34 0 -61 -21 -69 -58l-15 -73h172c1 21 7 47 12 70c22 107 92 159 197 159c39 0 79 -11 105 -26zM919 740c2 -22 -10 -88 -24 -153l-81 -379c-13 -60 -17 -85 -17 -99
c0 -19 8 -29 26 -29c5 0 10 0 15 2l6 -80c-24 -9 -54 -14 -83 -14c-72 0 -106 39 -106 92c0 18 7 56 15 93l81 382c14 67 24 128 24 154z" />
    <glyph glyph-name=".notdef" horiz-adv-x="551" 
d="M25 0v695h501v-695h-501zM82 57h387v581h-387v-581z" />
    <glyph glyph-name=".null" horiz-adv-x="0" 
 />
    <glyph glyph-name=".null" horiz-adv-x="0" 
 />
    <glyph glyph-name="CR" unicode="&#xd;" horiz-adv-x="225" 
 />
    <glyph glyph-name="space" unicode=" " horiz-adv-x="225" 
 />
    <glyph glyph-name="exclam" unicode="!" horiz-adv-x="313" 
d="M323 710l-132 -489h-102l69 466zM193 70c0 -46 -38 -83 -84 -83c-45 0 -81 37 -81 83s37 83 83 83c45 0 82 -37 82 -83z" />
    <glyph glyph-name="quotedbl" unicode="&#x22;" horiz-adv-x="416" 
d="M442 708l-59 -282h-126l59 282h126zM210 708l-59 -282h-126l59 282h126z" />
    <glyph glyph-name="numbersign" unicode="#" horiz-adv-x="532" 
d="M559 417h-103l-36 -126h79v-90h-103l-57 -201h-97l57 201h-99l-57 -201h-97l57 201h-78v90h102l36 126h-78v90h102l56 201h97l-56 -201h99l56 201h97l-56 -201h79v-90zM359 417h-99l-36 -126h99z" />
    <glyph glyph-name="dollar" unicode="$" horiz-adv-x="593" 
d="M624 646l-85 -97c-55 38 -101 50 -153 50c-63 0 -116 -42 -116 -94c0 -28 17 -43 64 -59l80 -27c90 -30 137 -80 137 -159c0 -140 -112 -258 -299 -273l-17 -81h-86l17 81c-65 7 -130 28 -181 61l74 107c58 -34 110 -54 180 -54c88 0 145 46 145 115c0 35 -24 56 -74 73
l-73 25c-79 27 -127 59 -127 145c0 134 110 238 255 255c1 0 16 72 16 72h86l-15 -73c68 -7 130 -31 172 -67z" />
    <glyph glyph-name="percent" unicode="%" horiz-adv-x="830" 
d="M433 575c0 -112 -74 -216 -214 -216c-86 0 -137 46 -137 122c0 137 91 224 211 224c88 0 140 -51 140 -130zM794 207c0 -112 -74 -216 -214 -216c-86 0 -137 46 -137 122c0 137 91 224 211 224c88 0 140 -51 140 -130zM748 695l-512 -695h-107l512 695h107zM685 215
c0 35 -14 48 -44 48c-61 0 -90 -68 -90 -156c0 -31 18 -41 48 -41c56 0 86 71 86 149zM324 583c0 35 -14 48 -44 48c-61 0 -90 -68 -90 -156c0 -31 18 -41 48 -41c56 0 86 71 86 149z" />
    <glyph glyph-name="ampersand" unicode="&#x26;" horiz-adv-x="711" 
d="M661 0h-177l-34 44c-49 -34 -108 -58 -205 -58c-139 0 -216 69 -216 160c0 84 58 158 168 204c-41 38 -52 71 -52 115c0 111 103 201 238 201c103 0 168 -51 168 -124c0 -77 -28 -135 -154 -193l-13 -6l92 -111c18 28 32 89 34 108h112c-12 -68 -40 -146 -76 -196z
M384 120l-130 156c-50 -27 -78 -68 -78 -119c0 -46 34 -73 94 -73c48 0 87 13 114 36zM414 524c0 29 -20 49 -50 49c-44 0 -81 -37 -81 -82c0 -21 9 -44 40 -80c57 23 91 68 91 113z" />
    <glyph glyph-name="quotesingle" unicode="'" horiz-adv-x="265" 
d="M290 708l-59 -282h-126l59 282h126z" />
    <glyph glyph-name="parenleft" unicode="(" horiz-adv-x="345" 
d="M470 699c-97 -61 -128 -93 -166 -162c-30 -55 -54 -137 -70 -213c-14 -66 -31 -163 -31 -223c0 -95 20 -149 95 -196l-48 -74c-111 41 -179 137 -179 282c0 58 10 133 26 209c31 148 88 270 186 357c49 43 106 78 167 102z" />
    <glyph glyph-name="parenright" unicode=")" horiz-adv-x="345" 
d="M302 500c0 -57 -12 -144 -25 -207c-31 -148 -87 -271 -186 -359c-49 -44 -105 -78 -168 -102l-17 85c96 60 126 89 165 159c30 55 54 139 71 215c15 67 28 161 28 222c0 87 -16 148 -91 195l47 74c110 -42 176 -135 176 -282z" />
    <glyph glyph-name="asterisk" unicode="*" horiz-adv-x="472" 
d="M517 518l-131 -42l83 -114l-83 -61l-84 115l-81 -110l-81 61l84 109l-133 46l32 95l131 -47v138h102v-138l131 43z" />
    <glyph glyph-name="plus" unicode="+" horiz-adv-x="629" 
d="M605 366l-27 -126h-206l-45 -211h-137l45 211h-204l27 126h204l45 211h137l-45 -211h206z" />
    <glyph glyph-name="comma" unicode="," horiz-adv-x="289" 
d="M192 48c0 -94 -97 -174 -181 -195l-38 57c44 16 82 37 82 58c0 11 -5 22 -14 27c-20 12 -34 39 -34 72c0 51 41 89 89 89c58 0 96 -38 96 -108z" />
    <glyph glyph-name="hyphen" unicode="-" horiz-adv-x="359" 
d="M319 329l-25 -110h-240l25 110h240z" />
    <glyph glyph-name="period" unicode="." horiz-adv-x="288" 
d="M194 73c0 -49 -40 -89 -88 -89c-49 0 -88 40 -88 89c0 48 39 87 87 87c49 0 89 -39 89 -87z" />
    <glyph glyph-name="slash" unicode="/" horiz-adv-x="415" 
d="M503 764l-463 -918h-96l463 918h96z" />
    <glyph glyph-name="zero" unicode="0" horiz-adv-x="582" 
d="M539 323c0 -151 -109 -335 -304 -335c-121 0 -188 68 -188 200c0 152 108 334 303 334c121 0 189 -64 189 -199zM394 346c0 62 -28 78 -65 78c-101 0 -138 -170 -138 -256c0 -66 27 -82 65 -82c101 0 138 174 138 260z" />
    <glyph glyph-name="one" unicode="1" horiz-adv-x="462" 
d="M393 522l-88 -413h86l-23 -109h-323l23 109h108l55 259c-42 -23 -85 -45 -132 -60l-19 78l223 136h90z" />
    <glyph glyph-name="two" unicode="2" horiz-adv-x="557" 
d="M513 396c0 -81 -49 -146 -123 -194c-42 -27 -83 -48 -135 -73l-46 -22c22 3 78 5 111 5h157l-53 -112h-417l26 122c39 18 48 21 114 55c178 90 211 136 211 182c0 32 -28 51 -68 51c-43 0 -84 -21 -149 -67l-63 86c86 64 170 99 273 99c102 0 162 -56 162 -132z" />
    <glyph glyph-name="three" unicode="3" horiz-adv-x="542" 
d="M503 383c0 -76 -42 -146 -136 -181c56 -11 91 -64 91 -119c0 -150 -172 -267 -406 -267c-31 0 -45 0 -82 5l-13 98c29 -6 42 -7 74 -7c161 0 270 75 270 174c0 45 -31 63 -120 63c-13 0 -37 0 -52 -1l24 112c24 -3 45 -4 68 -4c84 0 132 41 132 101c0 32 -23 54 -71 54
c-67 0 -126 -32 -162 -57l-52 85c81 53 167 84 254 84c110 0 181 -58 181 -140z" />
    <glyph glyph-name="four" unicode="4" horiz-adv-x="554" 
d="M494 115l-25 -115h-45c-19 0 -30 2 -30 2s2 -13 -3 -36l-30 -141l-130 -16l36 169c2 9 7 25 7 25s-13 -3 -33 -3h-265l20 91l284 427h138l-213 -324c-9 -14 -47 -68 -62 -81c10 2 15 2 21 2h113c12 0 24 -1 24 -1s1 10 3 18c5 28 14 58 29 107l36 117l110 24l-37 -177
c-5 -23 -9 -41 -14 -59l-8 -30s20 1 32 1h42z" />
    <glyph glyph-name="five" unicode="5" horiz-adv-x="495" 
d="M470 512l-44 -114h-196l-44 -139c22 4 30 5 48 5c110 0 173 -64 173 -156c0 -154 -146 -292 -373 -292c-32 0 -44 1 -75 7l-8 102c36 -10 62 -14 91 -14c129 0 215 83 215 172c0 46 -46 76 -100 76c-45 0 -99 -7 -138 -17l110 370h341z" />
    <glyph glyph-name="six" unicode="6" horiz-adv-x="569" 
d="M549 619c-109 -33 -232 -87 -309 -227c32 22 71 33 114 33c105 0 174 -69 174 -164c0 -152 -128 -275 -287 -275c-130 0 -199 75 -199 208c0 144 79 278 209 380c71 56 202 121 290 145zM386 243c0 46 -27 74 -73 74c-32 0 -66 -10 -111 -33c-8 -20 -21 -74 -21 -108
c0 -54 29 -87 78 -87c69 0 127 75 127 154z" />
    <glyph glyph-name="seven" unicode="7" horiz-adv-x="477" 
d="M518 512l-35 -117c-104 -115 -283 -380 -335 -558l-159 -38c84 214 223 447 361 596c-12 -3 -27 -4 -41 -4h-252l47 121h414z" />
    <glyph glyph-name="eight" unicode="8" horiz-adv-x="593" 
d="M586 535c0 -73 -67 -157 -158 -180c54 -20 116 -72 116 -139c0 -132 -106 -236 -318 -236c-129 0 -197 65 -197 155c0 91 68 174 158 208c-39 17 -70 62 -70 113c0 130 122 221 277 221c119 0 192 -59 192 -142zM391 189c0 46 -44 71 -122 99c-55 -28 -92 -70 -92 -131
c0 -49 33 -78 93 -78c71 0 121 51 121 110zM440 525c0 35 -26 54 -77 54c-62 0 -108 -40 -108 -91c0 -33 29 -52 81 -78c42 19 104 55 104 115z" />
    <glyph glyph-name="nine" unicode="9" horiz-adv-x="535" 
d="M497 341c0 -152 -79 -309 -239 -422c-72 -51 -168 -99 -245 -124l-54 84c114 28 260 128 308 212c-33 -14 -56 -19 -85 -19c-105 0 -168 72 -168 173c0 160 134 284 292 284c122 0 191 -59 191 -188zM356 339c0 55 -26 87 -74 87c-68 0 -125 -77 -125 -168
c0 -48 31 -78 79 -78c33 0 56 10 88 37c19 38 32 84 32 122z" />
    <glyph glyph-name="colon" unicode=":" horiz-adv-x="302" 
d="M265 368c0 -48 -39 -86 -87 -86s-87 38 -87 86s39 87 87 87s87 -39 87 -87zM201 70c0 -48 -39 -86 -87 -86s-87 38 -87 86s39 87 87 87s87 -39 87 -87z" />
    <glyph glyph-name="semicolon" unicode=";" horiz-adv-x="325" 
d="M212 48c0 -94 -97 -174 -181 -195l-38 57c44 16 82 37 82 58c0 11 -5 22 -14 27c-20 12 -34 39 -34 72c0 51 41 89 89 89c58 0 96 -38 96 -108zM272 368c0 -48 -39 -86 -87 -86s-87 38 -87 86s39 87 87 87s87 -39 87 -87z" />
    <glyph glyph-name="less" unicode="&#x3c;" horiz-adv-x="379" 
d="M414 515l-220 -223l119 -218l-119 -86l-175 311l307 311z" />
    <glyph glyph-name="equal" unicode="=" horiz-adv-x="676" 
d="M679 469l-27 -126h-548l27 126h548zM634 263l-26 -126h-548l26 126h548z" />
    <glyph glyph-name="greater" unicode="&#x3e;" horiz-adv-x="379" 
d="M389 299l-308 -311l-87 95l220 223l-119 218l119 86z" />
    <glyph glyph-name="question" unicode="?" horiz-adv-x="454" 
d="M488 563c0 -78 -49 -140 -127 -184c-89 -50 -109 -118 -114 -168h-115c-6 102 48 175 133 228c38 23 86 50 86 99c0 37 -29 53 -68 53c-56 0 -100 -36 -120 -51l-42 89c30 26 104 76 207 76c95 0 160 -60 160 -142zM257 70c0 -46 -38 -83 -84 -83c-45 0 -81 37 -81 83
s37 83 83 83c45 0 82 -37 82 -83z" />
    <glyph glyph-name="at" unicode="@" horiz-adv-x="906" 
d="M860 276c0 -176 -104 -295 -227 -295c-100 0 -111 46 -115 92c-35 -42 -91 -80 -150 -80c-81 0 -131 51 -131 150c0 166 103 315 284 315c49 0 99 -18 142 -41c-27 -89 -44 -179 -63 -269c-5 -24 -8 -42 -8 -55c0 -28 13 -35 44 -35c61 0 106 90 106 218
c0 158 -101 264 -269 264c-159 0 -305 -162 -305 -349c0 -184 122 -279 277 -279c54 0 102 8 144 22l18 -85c-49 -16 -106 -28 -162 -28c-228 0 -396 131 -396 370c0 235 184 439 424 439c223 0 387 -142 387 -354zM548 372c-11 5 -19 7 -36 7c-119 0 -165 -129 -165 -240
c0 -40 12 -63 42 -63c41 0 105 45 122 125z" />
    <glyph glyph-name="A" unicode="A" horiz-adv-x="588" 
d="M543 0h-145l-14 165h-204l-84 -165h-151l376 697h151zM375 281l-10 145c-4 59 -3 118 -3 118s-37 -84 -61 -134l-62 -129h136z" />
    <glyph glyph-name="B" unicode="B" horiz-adv-x="598" 
d="M601 545c0 -68 -43 -146 -146 -176c64 -14 104 -70 104 -135c0 -44 -18 -112 -65 -160c-51 -52 -109 -74 -217 -74h-252l148 695h247c105 0 181 -50 181 -150zM405 237c0 49 -27 65 -89 65h-87l-40 -188h91c29 0 54 8 72 20c31 21 53 64 53 103zM450 515
c0 43 -19 61 -77 61h-87l-33 -159h82c38 0 56 8 73 20c22 16 42 44 42 78z" />
    <glyph glyph-name="C" unicode="C" horiz-adv-x="551" 
d="M613 655l-81 -92c-29 26 -66 36 -105 36c-47 0 -98 -25 -130 -62c-61 -68 -96 -229 -96 -309c0 -92 45 -132 123 -132c41 0 80 15 128 48l48 -91c-64 -45 -130 -65 -209 -65c-156 0 -246 88 -246 244c0 108 41 239 105 324c75 101 187 154 299 154c69 0 133 -22 164 -55z
" />
    <glyph glyph-name="D" unicode="D" horiz-adv-x="628" 
d="M617 458c0 -114 -41 -263 -127 -354c-73 -77 -143 -104 -296 -104h-169l148 695h160c116 0 187 -13 231 -68c32 -41 53 -87 53 -169zM466 460c0 64 -18 125 -111 125h-63l-100 -471h69c60 0 105 33 130 72c62 97 75 237 75 274z" />
    <glyph glyph-name="E" unicode="E" horiz-adv-x="495" 
d="M569 695l-43 -114h-236l-34 -161h197l-24 -114h-196l-39 -186h262l-26 -120h-405l148 695h396z" />
    <glyph glyph-name="F" unicode="F" horiz-adv-x="438" 
d="M550 695l-40 -113h-219l-34 -159h175l-24 -114h-175l-66 -309h-142l148 695h377z" />
    <glyph glyph-name="G" unicode="G" horiz-adv-x="665" 
d="M663 626l-90 -85c-38 37 -83 52 -136 52c-41 0 -81 -14 -109 -37c-80 -63 -119 -246 -119 -330c0 -91 45 -129 125 -129c31 0 57 5 82 17l34 158h-103v114h272l-72 -336c-79 -42 -161 -58 -243 -58c-162 0 -248 96 -248 240c0 159 72 310 162 385c82 68 150 89 241 89
c84 0 154 -27 204 -80z" />
    <glyph glyph-name="H" unicode="H" horiz-adv-x="633" 
d="M654 695l-148 -695h-142l66 310h-200l-66 -310h-139l148 695h139l-58 -270h200l58 270h142z" />
    <glyph glyph-name="I" unicode="I" horiz-adv-x="297" 
d="M318 695l-148 -695h-145l148 695h145z" />
    <glyph glyph-name="J" unicode="J" horiz-adv-x="297" 
d="M318 695l-119 -560c-19 -90 -26 -108 -39 -136c-38 -85 -133 -142 -201 -166l-49 75c41 22 81 56 99 84c17 25 26 53 42 128l122 575h145z" />
    <glyph glyph-name="K" unicode="K" horiz-adv-x="600" 
d="M686 695l-294 -327l168 -368h-178l-137 363l-77 -363h-143l148 695h143l-68 -317l263 317h175z" />
    <glyph glyph-name="L" unicode="L" horiz-adv-x="472" 
d="M442 116l-50 -116h-367l148 695h143l-123 -579h249z" />
    <glyph glyph-name="M" unicode="M" horiz-adv-x="827" 
d="M809 695l-86 -695h-135l53 371c6 44 12 79 20 116c-17 -40 -28 -65 -49 -107l-191 -380h-119l-21 365c-2 34 -4 83 -2 123c-9 -41 -20 -82 -32 -125l-101 -363h-141l213 695h177l17 -348c2 -50 2 -74 0 -110c14 36 29 72 49 113l168 345h180z" />
    <glyph glyph-name="N" unicode="N" horiz-adv-x="635" 
d="M656 695l-148 -695h-144l-62 266c-20 87 -44 187 -48 230c-7 -57 -23 -141 -35 -199l-59 -297h-135l148 695h153l74 -278c20 -74 32 -150 36 -200c6 54 19 147 29 194l58 284h133z" />
    <glyph glyph-name="O" unicode="O" horiz-adv-x="694" 
d="M682 454c0 -175 -89 -365 -230 -432c-46 -22 -99 -33 -157 -33c-172 0 -238 104 -238 249c0 197 95 338 185 403c41 30 98 63 204 63c153 0 236 -95 236 -250zM525 483c0 68 -28 113 -104 113c-47 0 -93 -24 -121 -61c-55 -72 -92 -225 -92 -318c0 -89 38 -121 108 -121
c40 0 81 13 113 52c60 74 96 239 96 335z" />
    <glyph glyph-name="P" unicode="P" horiz-adv-x="571" 
d="M606 536c0 -120 -57 -208 -161 -256c-35 -16 -94 -24 -149 -24h-74l-54 -256h-143l148 695h183c94 0 146 -10 180 -32c44 -27 70 -73 70 -127zM455 509c0 46 -25 73 -77 73h-86l-45 -212h70c54 0 84 12 102 34c21 25 36 65 36 105z" />
    <glyph glyph-name="Q" unicode="Q" horiz-adv-x="695" 
d="M683 454c0 -175 -87 -357 -223 -430c18 -7 37 -22 51 -32c22 -15 56 -31 87 -31c30 0 62 6 62 6l-46 -88s-24 -9 -61 -9c-50 0 -97 25 -129 49c-34 25 -80 55 -128 70c-170 0 -238 103 -238 249c0 197 93 337 183 402c41 30 100 64 206 64c153 0 236 -95 236 -250z
M526 483c0 68 -28 113 -104 113c-47 0 -93 -24 -121 -61c-55 -72 -92 -225 -92 -318c0 -89 38 -121 108 -121c40 0 81 13 113 52c60 74 96 239 96 335z" />
    <glyph glyph-name="R" unicode="R" horiz-adv-x="576" 
d="M598 543c0 -137 -94 -225 -200 -243c12 -8 23 -24 30 -35c33 -58 104 -265 104 -265h-165l-36 113c-41 128 -63 162 -86 173c-6 3 -12 4 -17 4l-62 -290h-141l148 695h259c105 0 166 -59 166 -152zM448 515c0 48 -31 68 -89 68h-69l-40 -188h43c60 0 87 6 110 24
c27 21 45 65 45 96z" />
    <glyph glyph-name="S" unicode="S" horiz-adv-x="612" 
d="M634 646l-84 -96c-45 34 -94 49 -154 49c-63 0 -116 -40 -116 -88c0 -28 18 -50 64 -67l80 -30c89 -33 137 -85 137 -164c0 -151 -129 -265 -337 -265c-98 0 -171 26 -229 63l74 107c58 -34 110 -54 180 -54c88 0 145 46 145 115c0 35 -24 57 -74 75l-73 27
c-78 29 -127 73 -127 154c0 140 132 244 297 244c85 0 166 -26 217 -70z" />
    <glyph glyph-name="T" unicode="T" horiz-adv-x="501" 
d="M612 695l-48 -116h-164l-123 -579h-144l123 579h-170l25 116h501z" />
    <glyph glyph-name="U" unicode="U" horiz-adv-x="644" 
d="M670 695l-100 -468c-19 -89 -35 -136 -89 -177c-27 -20 -79 -63 -209 -63c-135 0 -213 60 -213 150c0 23 3 50 8 74l103 484h143l-97 -457c-6 -26 -8 -47 -8 -63c0 -50 41 -68 87 -68c64 0 107 35 123 84c5 14 7 22 15 59l95 445h142z" />
    <glyph glyph-name="V" unicode="V" horiz-adv-x="595" 
d="M696 695l-391 -700h-127l-87 700h149l36 -372c3 -31 6 -70 6 -121c18 43 49 101 70 139l193 354h151z" />
    <glyph glyph-name="W" unicode="W" horiz-adv-x="822" 
d="M923 695l-317 -699h-153l-2 281c-1 111 11 205 13 224c0 0 -39 -120 -82 -222l-118 -283h-156l-17 699h145l1 -274c0 -130 -11 -233 -11 -233c9 27 42 130 84 226l122 281h151l-2 -311c0 -67 -9 -188 -9 -188c6 22 53 154 88 235l113 264h150z" />
    <glyph glyph-name="X" unicode="X" horiz-adv-x="538" 
d="M634 695l-250 -329l134 -366h-164l-74 240l-171 -240h-180l300 375l-122 320h163l61 -194l136 194h167z" />
    <glyph glyph-name="Y" unicode="Y" horiz-adv-x="554" 
d="M665 695l-309 -409l-61 -286h-146l61 286l-129 409h162l48 -190c10 -38 14 -63 16 -89l56 87l131 192h171z" />
    <glyph glyph-name="Z" unicode="Z" horiz-adv-x="540" 
d="M598 695l-22 -101l-346 -435c-20 -25 -43 -45 -43 -45s38 2 66 2h228l-48 -116h-444l21 98l342 423c26 32 54 61 54 61s-28 -3 -70 -3h-207l45 116h424z" />
    <glyph glyph-name="bracketleft" unicode="[" horiz-adv-x="315" 
d="M369 732l-20 -90h-90l-150 -708h90l-19 -90h-210l189 888h210z" />
    <glyph glyph-name="backslash" unicode="\" horiz-adv-x="425" 
d="M364 -23l-122 -26l-135 779l124 26z" />
    <glyph glyph-name="bracketright" unicode="]" horiz-adv-x="315" 
d="M346 732l-189 -888h-210l19 90h90l150 708h-90l20 90h210z" />
    <glyph glyph-name="asciicircum" unicode="^" horiz-adv-x="598" 
d="M561 343h-141l-61 238l-162 -238h-142l257 365h146z" />
    <glyph glyph-name="underscore" unicode="_" horiz-adv-x="473" 
d="M423 -75l-14 -57h-501l14 57h501z" />
    <glyph glyph-name="grave" unicode="`" horiz-adv-x="302" 
d="M366 629l-46 -72l-216 100l66 106z" />
    <glyph glyph-name="a" unicode="a" horiz-adv-x="529" 
d="M508 487c-11 -31 -25 -87 -33 -126l-41 -194c-3 -14 -4 -26 -4 -38c0 -25 7 -44 23 -62l-111 -83c-24 16 -35 43 -39 63c-38 -40 -80 -61 -136 -61c-93 0 -141 57 -141 163c0 123 47 232 108 293c56 56 119 80 204 80c60 0 127 -10 170 -35zM356 410c-6 4 -24 8 -36 8
c-33 0 -58 -2 -94 -44c-42 -50 -63 -151 -63 -219c0 -46 12 -66 41 -66c42 0 85 43 99 80z" />
    <glyph glyph-name="b" unicode="b" horiz-adv-x="564" 
d="M534 347c0 -126 -53 -246 -149 -314c-48 -34 -95 -46 -147 -46c-82 0 -162 21 -205 49c6 18 16 53 20 73l96 451c9 44 14 77 14 104c0 14 -1 27 -4 39l139 43c3 -11 4 -26 4 -43c0 -28 -4 -62 -10 -93l-17 -81c-3 -15 -14 -59 -19 -69c29 35 81 65 141 65
c95 0 137 -67 137 -178zM388 349c0 44 -13 67 -40 67c-41 0 -84 -34 -111 -80l-50 -228c11 -11 36 -22 69 -22c29 0 65 27 84 60c28 50 48 163 48 203z" />
    <glyph glyph-name="c" unicode="c" horiz-adv-x="446" 
d="M471 466l-78 -84c-22 25 -51 38 -76 38c-24 0 -45 -10 -63 -30c-37 -42 -71 -148 -71 -227c0 -53 25 -76 61 -76c37 0 74 21 112 51l45 -83c-56 -43 -113 -68 -188 -68c-114 0 -176 66 -176 176c0 127 59 243 130 303c46 39 97 61 168 61c47 0 99 -19 136 -61z" />
    <glyph glyph-name="d" unicode="d" horiz-adv-x="550" 
d="M578 719l-113 -532c-18 -86 -24 -132 -24 -159c0 -13 1 -22 3 -28h-115c-2 8 -6 33 -5 47c-32 -37 -82 -60 -129 -60c-107 0 -157 61 -157 180c0 101 40 213 112 282c47 44 105 70 165 70c37 0 77 -9 87 -14c1 8 4 29 10 59l37 176zM375 392c-13 13 -36 20 -65 20
c-26 0 -50 -14 -70 -40c-38 -50 -62 -141 -62 -205c0 -49 17 -74 52 -74c30 0 79 40 94 68z" />
    <glyph glyph-name="e" unicode="e" horiz-adv-x="516" 
d="M504 383c0 -97 -89 -176 -259 -176c-35 0 -61 7 -61 7s-5 -33 -5 -46c0 -58 30 -82 86 -82c46 0 94 20 142 54l34 -84c-69 -48 -136 -70 -208 -70c-122 0 -194 64 -194 188c0 106 47 215 115 281c51 49 108 68 176 68c101 0 174 -40 174 -140zM369 372
c0 31 -14 53 -54 53c-51 0 -89 -30 -109 -119c0 0 20 -5 38 -5c58 0 125 20 125 71z" />
    <glyph glyph-name="f" unicode="f" horiz-adv-x="324" 
d="M466 709l-58 -81c-19 10 -36 15 -54 15c-34 0 -61 -21 -69 -58l-15 -73h130l-54 -92h-91l-82 -420c-19 -95 -76 -178 -128 -224l-82 74c28 28 66 95 77 150l84 420h-50l20 92h47c1 21 5 47 10 70c23 110 96 159 201 159c44 0 87 -14 114 -32z" />
    <glyph glyph-name="g" unicode="g" horiz-adv-x="558" 
d="M539 488c0 0 -14 -43 -19 -68l-57 -263c-22 -102 -26 -151 -36 -197c-30 -138 -153 -179 -273 -179c-68 0 -133 18 -179 46l46 90c35 -23 85 -36 144 -36c73 0 117 35 129 88c4 18 10 45 15 61c-31 -27 -72 -43 -111 -43c-113 0 -159 57 -159 176c0 101 39 218 111 287
c47 44 111 73 186 73c87 0 145 -9 203 -35zM382 405c-11 8 -32 12 -56 12c-26 0 -67 -20 -85 -44c-38 -50 -61 -142 -61 -206c0 -49 19 -78 54 -78s78 40 93 68z" />
    <glyph glyph-name="h" unicode="h" horiz-adv-x="576" 
d="M535 423c0 -16 -2 -34 -9 -65l-76 -358h-131l73 344c3 13 4 24 4 33c0 27 -13 37 -41 37c-36 0 -93 -39 -126 -81l-71 -333h-133l120 561c10 50 15 82 15 107c0 14 -2 25 -4 35l135 43c3 -9 5 -24 5 -43c0 -31 -4 -71 -11 -104l-18 -85c-3 -16 -12 -51 -17 -62
c39 43 103 74 166 74c81 0 119 -37 119 -103z" />
    <glyph glyph-name="i" unicode="i" horiz-adv-x="280" 
d="M270 524l-111 -524h-134l107 503zM314 653c0 -46 -37 -83 -83 -83c-45 0 -82 37 -82 83s38 83 84 83c45 0 81 -37 81 -83z" />
    <glyph glyph-name="j" unicode="j" horiz-adv-x="268" 
d="M260 524l-108 -510c-21 -97 -49 -136 -72 -159c-30 -31 -70 -56 -120 -75l-42 78c23 9 49 36 63 54c17 22 27 50 37 98l105 493zM304 653c0 -46 -37 -83 -83 -83c-45 0 -82 37 -82 83s38 83 84 83c45 0 81 -37 81 -83z" />
    <glyph glyph-name="k" unicode="k" horiz-adv-x="515" 
d="M294 746c2 -8 4 -21 4 -38c0 -33 -6 -84 -21 -155l-118 -553h-134l120 562c10 45 14 78 14 104c0 14 -1 27 -4 37zM563 512l-209 -222l138 -290h-158l-110 290l173 222h166z" />
    <glyph glyph-name="l" unicode="l" horiz-adv-x="282" 
d="M290 746c1 -8 2 -22 2 -39c0 -33 -3 -78 -12 -120l-81 -379c-13 -60 -17 -85 -17 -99c0 -19 8 -29 26 -29c5 0 10 0 15 2l6 -80c-24 -9 -54 -14 -83 -14c-72 0 -106 39 -106 92c0 18 7 56 15 93l81 382c10 46 16 83 16 112c0 13 -1 25 -4 36z" />
    <glyph glyph-name="m" unicode="m" horiz-adv-x="801" 
d="M760 417c0 -20 -3 -44 -8 -67l-74 -350h-130l72 338c4 19 6 33 6 44c0 22 -9 29 -33 29c-35 0 -76 -30 -106 -77l-71 -334h-127l71 333c5 22 7 38 7 50c0 21 -9 28 -32 28c-35 0 -72 -28 -108 -77l-71 -334h-131l75 350c4 19 6 41 6 61c0 28 -3 55 -8 69l124 49
c7 -16 14 -55 12 -82c50 51 107 76 164 76c52 0 89 -23 94 -76c55 55 111 76 165 76c57 0 103 -30 103 -106z" />
    <glyph glyph-name="n" unicode="n" horiz-adv-x="551" 
d="M511 422c0 -22 -3 -50 -8 -72l-74 -350h-132l71 333c4 20 7 35 7 46c0 25 -11 32 -35 32c-32 0 -70 -20 -112 -77l-71 -334h-132l73 345c6 27 9 52 9 74c0 23 -3 43 -9 61l124 49c9 -17 15 -61 13 -83c43 46 98 77 173 77c65 0 103 -39 103 -101z" />
    <glyph glyph-name="o" unicode="o" horiz-adv-x="546" 
d="M512 347c0 -180 -96 -358 -299 -358c-116 0 -182 64 -182 181c0 193 119 352 295 352c115 0 186 -63 186 -175zM368 347c0 59 -22 76 -62 76c-90 0 -133 -188 -133 -266c0 -49 25 -71 63 -71c86 0 132 161 132 261z" />
    <glyph glyph-name="p" unicode="p" horiz-adv-x="565" 
d="M535 354c0 -93 -40 -227 -102 -289c-46 -46 -108 -76 -174 -76c-40 0 -82 7 -104 20c1 -9 -3 -25 -5 -35l-34 -160l-136 -34l122 573c12 57 8 97 -2 127l124 49c9 -14 15 -59 13 -82c38 40 98 76 161 76c87 0 137 -65 137 -169zM391 350c0 41 -13 61 -47 61
c-33 0 -77 -23 -115 -81l-47 -219c8 -11 41 -22 68 -22c43 0 66 20 82 44c38 57 59 160 59 217z" />
    <glyph glyph-name="q" unicode="q" horiz-adv-x="559" 
d="M541 486c-11 -31 -23 -79 -33 -124l-116 -550l-136 -34l41 194c4 20 14 54 20 70c-33 -31 -89 -55 -129 -55c-99 0 -150 50 -150 169c0 106 41 219 106 285c50 50 117 82 211 82c75 0 148 -11 186 -37zM389 410c-17 7 -35 7 -65 7c-22 0 -52 -14 -68 -27
c-58 -48 -78 -167 -76 -223c2 -60 28 -78 57 -78c32 0 69 26 98 75z" />
    <glyph glyph-name="r" unicode="r" horiz-adv-x="369" 
d="M424 513l-58 -118c-12 7 -24 10 -39 10c-26 0 -55 -15 -97 -70l-71 -335h-134l72 338c14 64 12 109 2 142l124 49c8 -17 16 -54 12 -83c45 46 93 78 143 78c19 0 28 -2 46 -11z" />
    <glyph glyph-name="s" unicode="s" horiz-adv-x="484" 
d="M469 480l-53 -90c-45 26 -87 35 -125 35c-44 0 -76 -16 -76 -53c0 -23 17 -38 54 -51l58 -21c51 -18 102 -58 102 -124c0 -102 -80 -192 -247 -192c-75 0 -141 23 -199 57l54 98c40 -28 107 -53 165 -53c44 0 79 30 79 64c0 26 -22 37 -65 52l-57 20
c-53 19 -94 59 -94 129c0 88 67 175 235 175c67 0 127 -20 169 -46z" />
    <glyph glyph-name="t" unicode="t" horiz-adv-x="316" 
d="M383 512l-48 -92h-89l-54 -257c-4 -17 -5 -33 -5 -45c0 -28 15 -37 45 -37c12 0 35 4 50 10v-81c-39 -15 -79 -22 -114 -22c-77 0 -121 38 -121 88c0 18 2 42 7 66l59 278h-51l20 92h51c10 50 17 83 31 121l141 34c-15 -47 -30 -103 -41 -155h119z" />
    <glyph glyph-name="u" unicode="u" horiz-adv-x="547" 
d="M530 524l-83 -391c-7 -34 -4 -80 11 -104l-116 -46c-12 18 -22 44 -24 68c-38 -35 -88 -64 -148 -64c-79 0 -125 40 -125 104c0 19 2 44 10 81l69 328l138 25l-70 -329c-6 -27 -10 -55 -10 -69c0 -22 16 -39 32 -39c41 0 90 44 110 76l71 333z" />
    <glyph glyph-name="v" unicode="v" horiz-adv-x="464" 
d="M535 512l-296 -512h-111l-79 504l138 17l25 -231c4 -34 7 -90 6 -123c11 30 32 79 59 130l115 215h143z" />
    <glyph glyph-name="w" unicode="w" horiz-adv-x="699" 
d="M756 512l-255 -512h-123l-9 176c-2 41 -3 90 -2 124c1 24 1 31 3 51c-8 -22 -10 -29 -26 -66c-19 -44 -61 -132 -83 -180l-48 -105h-125l-33 503l134 15v-197c0 -58 -5 -150 -5 -158c3 12 35 96 75 177l85 172h126l5 -169c3 -95 -1 -181 -1 -181c8 22 36 102 64 167
l78 183h140z" />
    <glyph glyph-name="x" unicode="x" horiz-adv-x="468" 
d="M525 512l-211 -247l128 -265h-158c-25 70 -55 139 -60 171c-17 -29 -94 -128 -130 -171h-176l251 276l-96 213l138 37c17 -39 42 -107 54 -153c23 38 76 110 98 139h162z" />
    <glyph glyph-name="y" unicode="y" horiz-adv-x="514" 
d="M575 512l-297 -520c-56 -99 -91 -142 -134 -169c-39 -25 -86 -41 -134 -47l-27 90c31 7 67 18 90 32c41 25 57 48 89 102h-37c-2 38 -7 100 -13 144l-46 360l138 16l25 -299c3 -31 4 -106 4 -106s35 89 69 153l129 244h144z" />
    <glyph glyph-name="z" unicode="z" horiz-adv-x="426" 
d="M453 512l-12 -92l-295 -327h226l-42 -93h-377l8 83l313 335h-214l14 94h379z" />
    <glyph glyph-name="braceleft" unicode="{" horiz-adv-x="398" 
d="M479 732l-25 -114h-49c-61 0 -72 -37 -78 -64l-34 -161c-20 -93 -80 -100 -123 -104v-2c35 -3 82 -8 82 -68c0 -10 -1 -22 -4 -35l-34 -162c-2 -8 -3 -16 -3 -24c0 -21 10 -40 54 -40h49l-24 -114h-105c-59 0 -103 30 -103 100c0 14 1 29 5 46l36 172c1 5 1 9 1 13
c0 50 -71 56 -94 56l24 114c25 0 110 7 123 69l37 173c22 104 86 145 160 145h105z" />
    <glyph glyph-name="bar" unicode="|" horiz-adv-x="315" 
d="M351 756l-204 -964h-126l204 964h126z" />
    <glyph glyph-name="braceright" unicode="}" horiz-adv-x="398" 
d="M390 345l-24 -114c-28 0 -110 -7 -123 -69l-36 -173c-22 -104 -86 -145 -160 -145h-105l24 114h49c61 0 73 37 79 64l34 161c20 93 79 100 122 104v2c-35 3 -82 8 -82 68c0 10 1 22 4 35l35 162c2 7 3 15 3 23c0 21 -10 41 -55 41h-49l25 114h108c57 0 100 -30 100 -100
c0 -14 -1 -29 -5 -46l-37 -172c-1 -5 -1 -9 -1 -13c0 -50 68 -56 94 -56z" />
    <glyph glyph-name="asciitilde" unicode="~" horiz-adv-x="571" 
d="M526 290c-31 -42 -82 -84 -149 -84c-78 0 -131 68 -192 68c-40 0 -74 -35 -103 -66l-27 104c31 42 84 88 151 88c68 0 135 -68 196 -68c40 0 69 29 99 60z" />
    <glyph glyph-name="uni00A0" unicode="&#xa0;" horiz-adv-x="225" 
 />
    <glyph glyph-name="exclamdown" unicode="&#xa1;" horiz-adv-x="313" 
d="M220 265l-69 -466l-165 -23l132 489h102zM283 416c0 -46 -37 -83 -83 -83c-45 0 -82 37 -82 83s38 83 84 83c45 0 81 -37 81 -83z" />
    <glyph glyph-name="cent" unicode="&#xa2;" horiz-adv-x="446" 
d="M470 466l-78 -84c-22 25 -51 38 -76 38c-24 0 -45 -10 -63 -30c-37 -42 -71 -148 -71 -227c0 -53 25 -76 61 -76c37 0 74 21 112 51l45 -83c-43 -33 -87 -56 -139 -64l-22 -102h-94l22 102c-85 15 -131 77 -131 172c0 127 59 243 130 303c34 28 70 48 114 56l20 95h94
l-20 -95c35 -7 69 -26 96 -56z" />
    <glyph glyph-name="sterling" unicode="&#xa3;" horiz-adv-x="591" 
d="M688 647l-112 -96c-21 27 -60 37 -87 37c-89 0 -130 -63 -143 -125l-10 -49h156l-22 -102h-156l-42 -198h253l-24 -114h-499l24 114h96l42 198h-96l22 102h96l15 71c28 133 128 235 298 235c75 0 144 -23 189 -73z" />
    <glyph glyph-name="currency" unicode="&#xa4;" horiz-adv-x="447" 
d="M452 442l-59 -68c8 -15 12 -33 12 -53c0 -48 -20 -115 -63 -155l32 -70l-120 -63c-6 14 -22 56 -26 69c-22 -5 -58 -3 -73 0l-52 -71l-100 69l59 68c-8 15 -11 33 -11 53c0 52 26 121 61 155l-32 70l120 62c6 -15 19 -47 26 -69c9 4 59 5 75 1c14 22 52 71 52 71z
M287 269c17 72 2 100 -40 100c-54 0 -69 -44 -79 -93c-12 -60 -19 -104 40 -104c53 0 69 54 79 97z" />
    <glyph glyph-name="yen" unicode="&#xa5;" horiz-adv-x="542" 
d="M653 695l-213 -280h103l-22 -103h-158l-19 -26l-11 -50h172l-22 -103h-172l-28 -133h-146l28 133h-169l22 103h169l11 50l-9 26h-155l22 103h101l-88 280h163l48 -190c10 -38 14 -63 16 -89l56 87l131 192h170z" />
    <glyph glyph-name="brokenbar" unicode="&#xa6;" horiz-adv-x="276" 
d="M303 756l-88 -414h-126l88 414h126zM187 206l-88 -414h-126l88 414h126z" />
    <glyph glyph-name="section" unicode="&#xa7;" horiz-adv-x="549" 
d="M581 619l-133 -71c-6 38 -44 58 -83 58c-36 0 -78 -23 -78 -61c0 -79 258 -96 258 -238c0 -75 -51 -131 -115 -160c22 -21 34 -46 34 -82c0 -143 -139 -216 -289 -216c-99 0 -178 31 -202 127l134 61c2 -48 52 -68 97 -68c34 0 92 19 92 62c0 90 -248 80 -248 238
c0 65 50 132 123 172c-27 20 -41 44 -41 91c0 125 127 194 253 194c85 0 171 -25 198 -107zM399 264c0 30 -26 49 -52 63l-99 53c-31 -15 -54 -43 -54 -74c0 -36 37 -56 67 -71l86 -44c29 15 52 51 52 73z" />
    <glyph glyph-name="dieresis" unicode="&#xa8;" horiz-adv-x="436" 
d="M482 635c0 -42 -35 -77 -77 -77s-76 35 -76 77s35 77 78 77c41 0 75 -35 75 -77zM271 635c0 -42 -35 -77 -77 -77c-41 0 -76 35 -76 77s36 77 78 77c41 0 75 -35 75 -77z" />
    <glyph glyph-name="copyright" unicode="&#xa9;" horiz-adv-x="850" 
d="M823 354c0 -205 -167 -372 -372 -372s-372 167 -372 372s167 372 372 372s372 -167 372 -372zM721 354c0 155 -121 282 -270 282s-270 -127 -270 -282s121 -282 270 -282s270 127 270 282zM579 198c-41 -31 -76 -43 -122 -43c-110 0 -182 75 -182 191
c0 120 71 207 183 207c41 0 82 -13 112 -38l-46 -66c-27 18 -45 25 -65 25c-50 0 -75 -38 -75 -114c0 -91 23 -128 79 -128c27 0 48 10 67 28z" />
    <glyph glyph-name="ordfeminine" unicode="&#xaa;" horiz-adv-x="437" 
d="M476 740c-10 -27 -20 -67 -26 -94l-30 -143c-1 -7 -2 -13 -2 -19c0 -15 6 -26 21 -43l-89 -66c-19 11 -27 25 -32 38c-26 -23 -55 -35 -91 -35c-67 0 -107 42 -107 122c0 84 34 166 79 211c41 41 86 58 147 58c43 0 92 -8 130 -29zM432 317l-17 -78h-365l17 78h365z
M350 678c-5 1 -12 2 -16 2c-21 0 -38 -1 -61 -28c-29 -34 -41 -102 -41 -148c0 -25 4 -38 21 -38c26 0 52 28 61 51z" />
    <glyph glyph-name="guillemotleft" unicode="&#xab;" horiz-adv-x="573" 
d="M578 420l-155 -175l77 -171l-102 -59l-109 234l209 234zM336 420l-155 -175l77 -171l-102 -59l-109 234l209 234z" />
    <glyph glyph-name="logicalnot" unicode="&#xac;" horiz-adv-x="519" 
d="M495 307l-53 -249h-123l30 140h-318l23 109h441z" />
    <glyph glyph-name="uni00AD" unicode="&#xad;" horiz-adv-x="359" 
d="M319 329l-25 -110h-240l25 110h240z" />
    <glyph glyph-name="registered" unicode="&#xae;" horiz-adv-x="850" 
d="M823 354c0 -205 -167 -372 -372 -372s-372 167 -372 372s167 372 372 372s372 -167 372 -372zM721 354c0 155 -121 282 -270 282s-270 -127 -270 -282s121 -282 270 -282s270 127 270 282zM619 171h-115c-18 29 -25 39 -40 65c-36 61 -46 79 -54 86v-151h-97v382h153
c75 0 123 -47 123 -117c0 -57 -38 -99 -88 -104c23 -9 38 -32 51 -52c28 -42 67 -109 67 -109zM486 435c0 28 -16 39 -49 39h-27v-77h26c38 0 50 12 50 38z" />
    <glyph glyph-name="macron" unicode="&#xaf;" horiz-adv-x="328" 
d="M430 744l-16 -78h-314l16 78h314z" />
    <glyph glyph-name="degree" unicode="&#xb0;" horiz-adv-x="411" 
d="M376 533c-20 -102 -92 -174 -206 -174c-88 0 -140 49 -140 129c0 127 95 217 208 217c83 0 143 -48 143 -125c0 -14 -2 -30 -5 -47zM265 535c4 18 6 33 6 46c0 34 -19 50 -49 50c-59 0 -85 -79 -85 -150c0 -26 14 -47 49 -47c42 0 66 30 79 101z" />
    <glyph glyph-name="plusminus" unicode="&#xb1;" horiz-adv-x="504" 
d="M498 396l-24 -113h-150l-30 -143h-123l30 143h-150l24 113h150l29 137h123l-29 -137h150zM436 113l-24 -113h-419l24 113h419z" />
    <glyph glyph-name="twosuperior" unicode="&#xb2;" horiz-adv-x="384" 
d="M348 565c0 -95 -115 -176 -193 -233c12 0 25 1 35 1h133l-40 -83h-275l14 67c32 24 91 71 124 100c32 27 88 78 88 126c0 21 -13 27 -32 27c-22 0 -48 -10 -95 -42l-43 63c61 44 114 65 179 65c66 0 105 -36 105 -91z" />
    <glyph glyph-name="threesuperior" unicode="&#xb3;" horiz-adv-x="376" 
d="M355 577c0 -45 -29 -82 -67 -104c26 -15 41 -38 41 -67c0 -119 -162 -164 -255 -164c-19 0 -27 0 -56 4l-11 74c33 -6 41 -7 59 -7c51 0 148 22 148 90c0 33 -68 30 -88 30h-16l17 81c17 -2 33 -4 50 -4c30 0 66 11 66 47c0 15 -10 25 -35 25c-37 0 -69 -16 -98 -36
l-41 64c54 34 107 56 167 56c70 0 119 -36 119 -89z" />
    <glyph glyph-name="acute" unicode="&#xb4;" horiz-adv-x="338" 
d="M395 657l-239 -103l-40 75l231 133z" />
    <glyph glyph-name="mu" unicode="&#xb5;" horiz-adv-x="559" 
d="M542 524l-83 -391c-7 -34 -3 -69 12 -93l-107 -54c-14 12 -25 29 -29 50c-40 -32 -92 -49 -144 -49c-13 0 -26 4 -34 11c0 0 -1 -15 -4 -28l-34 -156l-136 -34l153 720l138 25l-70 -329c-10 -46 -11 -70 -7 -84s22 -24 42 -24c33 0 78 24 93 49l77 360z" />
    <glyph glyph-name="paragraph" unicode="&#xb6;" horiz-adv-x="588" 
d="M614 708l-177 -834h-90l162 762h-107l-162 -762h-90l99 464c-114 0 -179 59 -179 144c0 136 103 226 275 226h269z" />
    <glyph glyph-name="periodcentered" unicode="&#xb7;" horiz-adv-x="311" 
d="M253 273c0 -48 -40 -88 -90 -88c-49 0 -88 40 -88 89s40 90 90 90c49 0 88 -41 88 -91z" />
    <glyph glyph-name="cedilla" unicode="&#xb8;" horiz-adv-x="224" 
d="M138 -93c0 -56 -48 -106 -128 -106c-30 0 -65 13 -82 24l41 62c15 -7 29 -14 51 -14c16 0 31 8 31 22c0 9 -6 16 -23 16c-11 0 -19 -4 -28 -6l-9 20l43 87l70 -6l-22 -38c41 -4 56 -31 56 -61z" />
    <glyph glyph-name="onesuperior" unicode="&#xb9;" horiz-adv-x="324" 
d="M280 650l-68 -319h52l-18 -81h-215l18 81h64l44 208c-23 -11 -50 -24 -82 -34l-16 56l153 89h68z" />
    <glyph glyph-name="ordmasculine" unicode="&#xba;" horiz-adv-x="437" 
d="M477 637c0 -130 -70 -258 -217 -258c-86 0 -135 52 -135 137c0 140 87 252 214 252c86 0 138 -47 138 -131zM428 317l-17 -78h-365l17 78h365zM361 637c0 35 -13 46 -36 46c-60 0 -85 -127 -85 -179c0 -28 14 -41 36 -41c57 0 85 108 85 174z" />
    <glyph glyph-name="guillemotright" unicode="&#xbb;" horiz-adv-x="574" 
d="M531 249l-209 -234l-80 63l155 175l-77 171l102 59zM289 249l-209 -234l-80 63l155 175l-77 171l102 59z" />
    <glyph glyph-name="onequarter" unicode="&#xbc;" horiz-adv-x="926" 
d="M868 764l-724 -918h-108l724 918h108zM859 156l-18 -85h-37l-7 1c0 -3 0 -7 -1 -11l-16 -75l-98 -11l19 91l2 5h-178l14 63l165 267h105l-128 -207c-9 -14 -18 -27 -27 -38h69c11 50 25 91 41 141l86 18l-22 -104c-3 -13 -8 -38 -11 -49l-2 -7c3 0 7 1 9 1h35zM310 650
l-67 -319h52l-18 -81h-215l18 81h64l44 208c-23 -11 -50 -24 -82 -34l-17 56l153 89h68z" />
    <glyph glyph-name="onehalf" unicode="&#xbd;" horiz-adv-x="924" 
d="M847 764l-724 -918h-108l724 918h108zM866 315c0 -95 -116 -177 -195 -233c12 0 28 1 38 1h133l-41 -83h-275l14 67c32 24 92 71 125 100c32 28 87 78 87 126c0 21 -13 27 -32 27c-22 0 -48 -10 -95 -42l-42 63c61 44 113 65 178 65c66 0 105 -36 105 -91zM310 650
l-67 -319h52l-18 -81h-215l18 81h64l44 208c-23 -11 -50 -24 -82 -34l-17 56l153 89h68z" />
    <glyph glyph-name="threequarters" unicode="&#xbe;" horiz-adv-x="978" 
d="M920 764l-724 -918h-108l724 918h108zM911 156l-18 -85h-37l-7 1c0 -3 0 -7 -1 -11l-16 -75l-98 -11l19 91l2 5h-178l14 63l165 267h105l-128 -207c-9 -14 -18 -27 -27 -38h69c11 50 25 91 41 141l86 18l-22 -104c-3 -13 -8 -38 -11 -49l-2 -7c3 0 7 1 9 1h35zM387 577
c0 -45 -29 -82 -67 -104c26 -15 40 -38 40 -67c0 -119 -161 -164 -254 -164c-19 0 -28 0 -57 4l-11 74c33 -6 42 -7 60 -7c50 0 148 23 148 90c0 38 -65 30 -89 30h-16l17 81c17 -2 34 -4 51 -4c30 0 66 11 66 47c0 15 -10 25 -35 25c-37 0 -70 -16 -99 -36l-40 64
c54 34 107 56 167 56c70 0 119 -36 119 -89z" />
    <glyph glyph-name="questiondown" unicode="&#xbf;" horiz-adv-x="454" 
d="M340 -140c-31 -26 -111 -79 -212 -79c-89 0 -158 54 -158 136c0 93 52 145 125 185c89 50 107 113 112 163h114c4 -105 -43 -168 -128 -221c-67 -42 -85 -55 -85 -96c0 -36 31 -51 69 -51c49 0 90 20 118 44zM365 416c0 -46 -37 -83 -83 -83c-45 0 -82 37 -82 83
s38 83 84 83c45 0 81 -37 81 -83z" />
    <glyph glyph-name="Agrave" unicode="&#xc0;" horiz-adv-x="588" 
d="M548 0h-145l-14 165h-204l-84 -165h-151l376 697h151zM380 281l-10 145c-4 59 -3 118 -3 118s-37 -84 -61 -134l-62 -129h136zM523 792l-46 -72l-216 100l66 106z" />
    <glyph glyph-name="Aacute" unicode="&#xc1;" horiz-adv-x="588" 
d="M548 0h-145l-14 165h-204l-84 -165h-151l376 697h151zM380 281l-10 145c-4 59 -3 118 -3 118s-37 -84 -61 -134l-62 -129h136zM574 820l-239 -103l-40 75l231 133z" />
    <glyph glyph-name="Acircumflex" unicode="&#xc2;" horiz-adv-x="588" 
d="M548 0h-145l-14 165h-204l-84 -165h-151l376 697h151zM380 281l-10 145c-4 59 -3 118 -3 118s-37 -84 -61 -134l-62 -129h136zM587 788l-54 -73l-123 78l-151 -78l-36 73l209 135z" />
    <glyph glyph-name="Atilde" unicode="&#xc3;" horiz-adv-x="588" 
d="M548 0h-145l-14 165h-204l-84 -165h-151l376 697h151zM380 281l-10 145c-4 59 -3 118 -3 118s-37 -84 -61 -134l-62 -129h136zM585 805c-42 -41 -79 -67 -138 -67c-53 0 -70 40 -122 40c-32 0 -50 -15 -75 -37l-33 75c42 41 78 66 130 66c55 0 72 -40 130 -40
c32 0 49 13 75 35z" />
    <glyph glyph-name="Adieresis" unicode="&#xc4;" horiz-adv-x="588" 
d="M548 0h-145l-14 165h-204l-84 -165h-151l376 697h151zM380 281l-10 145c-4 59 -3 118 -3 118s-37 -84 -61 -134l-62 -129h136zM376 800c0 -42 -35 -77 -77 -77c-41 0 -76 35 -76 77s36 77 78 77c41 0 75 -35 75 -77zM587 800c0 -42 -35 -77 -77 -77c-41 0 -76 35 -76 77
s36 77 78 77c41 0 75 -35 75 -77z" />
    <glyph glyph-name="Aring" unicode="&#xc5;" horiz-adv-x="588" 
d="M548 0h-145l-14 165h-204l-84 -165h-151l376 697h151zM380 281l-10 145c-4 59 -3 118 -3 118s-37 -84 -61 -134l-62 -129h136zM510 819c0 -58 -48 -106 -106 -106c-57 0 -104 48 -104 106s49 106 106 106s104 -48 104 -106zM447 819c0 24 -18 43 -41 43
c-25 0 -44 -19 -44 -43s19 -43 42 -43c24 0 43 19 43 43z" />
    <glyph glyph-name="AE" unicode="&#xc6;" horiz-adv-x="789" 
d="M863 695l-43 -114h-232l-34 -161h199l-24 -114h-197l-39 -186h267l-26 -120h-409l35 165h-185l-128 -165h-162l562 695h416zM265 281h120l51 228c-7 -8 -135 -183 -171 -228z" />
    <glyph glyph-name="Ccedilla" unicode="&#xc7;" horiz-adv-x="551" 
d="M613 655l-81 -92c-29 26 -66 36 -105 36c-47 0 -98 -25 -130 -62c-61 -68 -96 -229 -96 -309c0 -92 45 -132 123 -132c41 0 80 15 128 48l48 -91c-64 -45 -130 -65 -209 -65h-15l-11 -20c41 -4 56 -31 56 -61c0 -56 -48 -106 -128 -106c-30 0 -65 13 -82 24l41 62
c15 -7 29 -14 51 -14c16 0 31 8 31 22c0 9 -6 16 -23 16c-11 0 -19 -4 -28 -6l-9 20l36 72c-106 26 -165 109 -165 235c0 108 41 239 105 324c75 101 187 154 299 154c69 0 133 -22 164 -55z" />
    <glyph glyph-name="Egrave" unicode="&#xc8;" horiz-adv-x="495" 
d="M574 695l-43 -114h-236l-34 -161h197l-24 -114h-196l-39 -186h262l-26 -120h-405l148 695h396zM469 792l-46 -72l-216 100l66 106z" />
    <glyph glyph-name="Eacute" unicode="&#xc9;" horiz-adv-x="495" 
d="M574 695l-43 -114h-236l-34 -161h197l-24 -114h-196l-39 -186h262l-26 -120h-405l148 695h396zM532 820l-239 -103l-40 75l231 133z" />
    <glyph glyph-name="Ecircumflex" unicode="&#xca;" horiz-adv-x="495" 
d="M574 695l-43 -114h-236l-34 -161h197l-24 -114h-196l-39 -186h262l-26 -120h-405l148 695h396zM570 788l-54 -73l-123 78l-151 -78l-36 73l209 135z" />
    <glyph glyph-name="Edieresis" unicode="&#xcb;" horiz-adv-x="495" 
d="M574 695l-43 -114h-236l-34 -161h197l-24 -114h-196l-39 -186h262l-26 -120h-405l148 695h396zM354 800c0 -42 -35 -77 -77 -77c-41 0 -76 35 -76 77s36 77 78 77c41 0 75 -35 75 -77zM565 800c0 -42 -35 -77 -77 -77c-41 0 -76 35 -76 77s36 77 78 77
c41 0 75 -35 75 -77z" />
    <glyph glyph-name="Igrave" unicode="&#xcc;" horiz-adv-x="297" 
d="M323 695l-148 -695h-145l148 695h145zM373 792l-46 -72l-216 100l66 106z" />
    <glyph glyph-name="Iacute" unicode="&#xcd;" horiz-adv-x="297" 
d="M323 695l-148 -695h-145l148 695h145zM425 820l-239 -103l-40 75l231 133z" />
    <glyph glyph-name="Icircumflex" unicode="&#xce;" horiz-adv-x="297" 
d="M323 695l-148 -695h-145l148 695h145zM443 788l-54 -73l-123 78l-151 -78l-36 73l209 135z" />
    <glyph glyph-name="Idieresis" unicode="&#xcf;" horiz-adv-x="297" 
d="M323 695l-148 -695h-145l148 695h145zM233 800c0 -42 -35 -77 -77 -77c-41 0 -76 35 -76 77s36 77 78 77c41 0 75 -35 75 -77zM444 800c0 -42 -35 -77 -77 -77c-41 0 -76 35 -76 77s36 77 78 77c41 0 75 -35 75 -77z" />
    <glyph glyph-name="Eth" unicode="&#xd0;" horiz-adv-x="628" 
d="M617 458c0 -114 -41 -263 -127 -354c-73 -77 -143 -104 -296 -104h-169l65 306h-76l19 89h76l64 300h160c116 0 187 -13 231 -68c32 -41 53 -87 53 -169zM466 460c0 64 -18 125 -111 125h-63l-40 -190h106l-43 -89h-82l-41 -192h69c60 0 105 33 130 72
c62 97 75 237 75 274z" />
    <glyph glyph-name="Ntilde" unicode="&#xd1;" horiz-adv-x="635" 
d="M661 695l-148 -695h-144l-62 266c-20 87 -44 187 -48 230c-7 -57 -23 -141 -35 -199l-59 -297h-135l148 695h153l74 -278c20 -74 32 -150 36 -200c6 54 19 147 29 194l58 284h133zM603 805c-42 -41 -79 -67 -138 -67c-53 0 -70 40 -122 40c-32 0 -50 -15 -75 -37l-33 75
c42 41 78 66 130 66c55 0 72 -40 130 -40c32 0 49 13 75 35z" />
    <glyph glyph-name="Ograve" unicode="&#xd2;" horiz-adv-x="694" 
d="M687 454c0 -175 -89 -365 -230 -432c-46 -22 -99 -33 -157 -33c-172 0 -238 104 -238 249c0 197 95 338 185 403c41 30 98 63 204 63c153 0 236 -95 236 -250zM530 483c0 68 -28 113 -104 113c-47 0 -93 -24 -121 -61c-55 -72 -92 -225 -92 -318c0 -89 38 -121 108 -121
c40 0 81 13 113 52c60 74 96 239 96 335zM560 792l-46 -72l-216 100l66 106z" />
    <glyph glyph-name="Oacute" unicode="&#xd3;" horiz-adv-x="694" 
d="M687 454c0 -175 -89 -365 -230 -432c-46 -22 -99 -33 -157 -33c-172 0 -238 104 -238 249c0 197 95 338 185 403c41 30 98 63 204 63c153 0 236 -95 236 -250zM530 483c0 68 -28 113 -104 113c-47 0 -93 -24 -121 -61c-55 -72 -92 -225 -92 -318c0 -89 38 -121 108 -121
c40 0 81 13 113 52c60 74 96 239 96 335zM616 820l-239 -103l-40 75l231 133z" />
    <glyph glyph-name="Ocircumflex" unicode="&#xd4;" horiz-adv-x="694" 
d="M687 454c0 -175 -89 -365 -230 -432c-46 -22 -99 -33 -157 -33c-172 0 -238 104 -238 249c0 197 95 338 185 403c41 30 98 63 204 63c153 0 236 -95 236 -250zM530 483c0 68 -28 113 -104 113c-47 0 -93 -24 -121 -61c-55 -72 -92 -225 -92 -318c0 -89 38 -121 108 -121
c40 0 81 13 113 52c60 74 96 239 96 335zM633 788l-54 -73l-123 78l-151 -78l-36 73l209 135z" />
    <glyph glyph-name="Otilde" unicode="&#xd5;" horiz-adv-x="694" 
d="M687 454c0 -175 -89 -365 -230 -432c-46 -22 -99 -33 -157 -33c-172 0 -238 104 -238 249c0 197 95 338 185 403c41 30 98 63 204 63c153 0 236 -95 236 -250zM530 483c0 68 -28 113 -104 113c-47 0 -93 -24 -121 -61c-55 -72 -92 -225 -92 -318c0 -89 38 -121 108 -121
c40 0 81 13 113 52c60 74 96 239 96 335zM631 805c-42 -41 -79 -67 -138 -67c-53 0 -70 40 -122 40c-32 0 -50 -15 -75 -37l-33 75c42 41 78 66 130 66c55 0 72 -40 130 -40c32 0 49 13 75 35z" />
    <glyph glyph-name="Odieresis" unicode="&#xd6;" horiz-adv-x="694" 
d="M687 454c0 -175 -89 -365 -230 -432c-46 -22 -99 -33 -157 -33c-172 0 -238 104 -238 249c0 197 95 338 185 403c41 30 98 63 204 63c153 0 236 -95 236 -250zM530 483c0 68 -28 113 -104 113c-47 0 -93 -24 -121 -61c-55 -72 -92 -225 -92 -318c0 -89 38 -121 108 -121
c40 0 81 13 113 52c60 74 96 239 96 335zM434 800c0 -42 -35 -77 -77 -77c-41 0 -76 35 -76 77s36 77 78 77c41 0 75 -35 75 -77zM645 800c0 -42 -35 -77 -77 -77c-41 0 -76 35 -76 77s36 77 78 77c41 0 75 -35 75 -77z" />
    <glyph glyph-name="multiply" unicode="&#xd7;" horiz-adv-x="626" 
d="M583 452l-181 -149l117 -149l-108 -89l-117 149l-181 -149l-70 89l181 149l-117 149l108 89l117 -149l181 149z" />
    <glyph glyph-name="Oslash" unicode="&#xd8;" horiz-adv-x="658" 
d="M669 725l-90 -109c29 -42 44 -97 44 -162c0 -175 -90 -365 -230 -433c-46 -23 -99 -32 -157 -32c-60 0 -107 13 -142 35l-96 -116l-58 49l99 121c-28 42 -40 97 -40 160c0 197 92 338 182 403c41 30 100 63 206 63c55 0 101 -12 137 -35l86 104zM441 567
c-17 18 -42 29 -79 29c-47 0 -93 -24 -121 -61c-55 -72 -92 -225 -92 -318v-6zM466 478l-290 -354c18 -20 45 -28 81 -28c40 0 81 13 113 52c59 73 95 233 96 330z" />
    <glyph glyph-name="Ugrave" unicode="&#xd9;" horiz-adv-x="644" 
d="M675 695l-100 -468c-19 -89 -35 -136 -89 -177c-27 -20 -79 -63 -209 -63c-135 0 -213 60 -213 150c0 23 3 50 8 74l103 484h143l-97 -457c-6 -26 -8 -47 -8 -63c0 -50 41 -68 87 -68c64 0 107 35 123 84c5 14 7 22 15 59l95 445h142zM551 792l-46 -72l-216 100l66 106z
" />
    <glyph glyph-name="Uacute" unicode="&#xda;" horiz-adv-x="644" 
d="M675 695l-100 -468c-19 -89 -35 -136 -89 -177c-27 -20 -79 -63 -209 -63c-135 0 -213 60 -213 150c0 23 3 50 8 74l103 484h143l-97 -457c-6 -26 -8 -47 -8 -63c0 -50 41 -68 87 -68c64 0 107 35 123 84c5 14 7 22 15 59l95 445h142zM576 820l-239 -103l-40 75l231 133z
" />
    <glyph glyph-name="Ucircumflex" unicode="&#xdb;" horiz-adv-x="644" 
d="M675 695l-100 -468c-19 -89 -35 -136 -89 -177c-27 -20 -79 -63 -209 -63c-135 0 -213 60 -213 150c0 23 3 50 8 74l103 484h143l-97 -457c-6 -26 -8 -47 -8 -63c0 -50 41 -68 87 -68c64 0 107 35 123 84c5 14 7 22 15 59l95 445h142zM622 788l-54 -73l-123 78l-151 -78
l-36 73l209 135z" />
    <glyph glyph-name="Udieresis" unicode="&#xdc;" horiz-adv-x="644" 
d="M675 695l-100 -468c-19 -89 -35 -136 -89 -177c-27 -20 -79 -63 -209 -63c-135 0 -213 60 -213 150c0 23 3 50 8 74l103 484h143l-97 -457c-6 -26 -8 -47 -8 -63c0 -50 41 -68 87 -68c64 0 107 35 123 84c5 14 7 22 15 59l95 445h142zM414 800c0 -42 -35 -77 -77 -77
c-41 0 -76 35 -76 77s36 77 78 77c41 0 75 -35 75 -77zM625 800c0 -42 -35 -77 -77 -77c-41 0 -76 35 -76 77s36 77 78 77c41 0 75 -35 75 -77z" />
    <glyph glyph-name="Yacute" unicode="&#xdd;" horiz-adv-x="554" 
d="M670 695l-309 -409l-61 -286h-146l61 286l-129 409h162l48 -190c10 -38 14 -63 16 -89l56 87l131 192h171zM520 820l-239 -103l-40 75l231 133z" />
    <glyph glyph-name="Thorn" unicode="&#xde;" horiz-adv-x="587" 
d="M597 426c0 -120 -57 -208 -161 -256c-35 -16 -94 -24 -149 -24h-74l-31 -146h-143l148 695h143l-23 -110h40c94 0 146 -10 180 -32c44 -27 70 -73 70 -127zM446 399c0 46 -25 73 -77 73h-86l-45 -212h70c54 0 84 12 102 34c21 25 36 65 36 105z" />
    <glyph glyph-name="germandbls" unicode="&#xdf;" horiz-adv-x="610" 
d="M582 583c0 -143 -151 -153 -151 -190c0 -40 132 -53 132 -172c0 -136 -125 -234 -275 -234c-29 0 -55 3 -72 12l49 92c8 -3 17 -5 29 -5c71 0 122 52 122 125c0 88 -110 72 -110 162c0 107 125 80 125 196c0 33 -18 52 -51 52c-53 0 -79 -22 -102 -128l-105 -493
c-20 -95 -79 -178 -131 -224l-82 74c28 28 66 95 78 150l89 420h-77l19 92h77l3 16c25 133 102 197 251 197c117 0 182 -61 182 -142z" />
    <glyph glyph-name="agrave" unicode="&#xe0;" horiz-adv-x="529" 
d="M513 487c-11 -31 -25 -87 -33 -126l-41 -194c-3 -14 -4 -26 -4 -38c0 -25 7 -44 23 -62l-111 -83c-24 16 -35 43 -39 63c-38 -40 -80 -61 -136 -61c-93 0 -141 57 -141 163c0 123 47 232 108 293c56 56 119 80 204 80c60 0 127 -10 170 -35zM361 410c-6 4 -24 8 -36 8
c-33 0 -58 -2 -94 -44c-42 -50 -63 -151 -63 -219c0 -46 12 -66 41 -66c42 0 85 43 99 80zM463 629l-46 -72l-216 100l66 106z" />
    <glyph glyph-name="aacute" unicode="&#xe1;" horiz-adv-x="529" 
d="M513 487c-11 -31 -25 -87 -33 -126l-41 -194c-3 -14 -4 -26 -4 -38c0 -25 7 -44 23 -62l-111 -83c-24 16 -35 43 -39 63c-38 -40 -80 -61 -136 -61c-93 0 -141 57 -141 163c0 123 47 232 108 293c56 56 119 80 204 80c60 0 127 -10 170 -35zM361 410c-6 4 -24 8 -36 8
c-33 0 -58 -2 -94 -44c-42 -50 -63 -151 -63 -219c0 -46 12 -66 41 -66c42 0 85 43 99 80zM512 657l-239 -103l-40 75l231 133z" />
    <glyph glyph-name="acircumflex" unicode="&#xe2;" horiz-adv-x="529" 
d="M513 487c-11 -31 -25 -87 -33 -126l-41 -194c-3 -14 -4 -26 -4 -38c0 -25 7 -44 23 -62l-111 -83c-24 16 -35 43 -39 63c-38 -40 -80 -61 -136 -61c-93 0 -141 57 -141 163c0 123 47 232 108 293c56 56 119 80 204 80c60 0 127 -10 170 -35zM361 410c-6 4 -24 8 -36 8
c-33 0 -58 -2 -94 -44c-42 -50 -63 -151 -63 -219c0 -46 12 -66 41 -66c42 0 85 43 99 80zM524 625l-54 -73l-123 78l-151 -78l-36 73l209 135z" />
    <glyph glyph-name="atilde" unicode="&#xe3;" horiz-adv-x="529" 
d="M513 487c-11 -31 -25 -87 -33 -126l-41 -194c-3 -14 -4 -26 -4 -38c0 -25 7 -44 23 -62l-111 -83c-24 16 -35 43 -39 63c-38 -40 -80 -61 -136 -61c-93 0 -141 57 -141 163c0 123 47 232 108 293c56 56 119 80 204 80c60 0 127 -10 170 -35zM361 410c-6 4 -24 8 -36 8
c-33 0 -58 -2 -94 -44c-42 -50 -63 -151 -63 -219c0 -46 12 -66 41 -66c42 0 85 43 99 80zM530 645c-42 -41 -79 -67 -138 -67c-53 0 -70 40 -122 40c-32 0 -50 -15 -75 -37l-33 75c42 41 78 66 130 66c55 0 72 -40 130 -40c32 0 49 13 75 35z" />
    <glyph glyph-name="adieresis" unicode="&#xe4;" horiz-adv-x="529" 
d="M513 487c-11 -31 -25 -87 -33 -126l-41 -194c-3 -14 -4 -26 -4 -38c0 -25 7 -44 23 -62l-111 -83c-24 16 -35 43 -39 63c-38 -40 -80 -61 -136 -61c-93 0 -141 57 -141 163c0 123 47 232 108 293c56 56 119 80 204 80c60 0 127 -10 170 -35zM361 410c-6 4 -24 8 -36 8
c-33 0 -58 -2 -94 -44c-42 -50 -63 -151 -63 -219c0 -46 12 -66 41 -66c42 0 85 43 99 80zM328 635c0 -42 -35 -77 -77 -77c-41 0 -76 35 -76 77s36 77 78 77c41 0 75 -35 75 -77zM539 635c0 -42 -35 -77 -77 -77c-41 0 -76 35 -76 77s36 77 78 77c41 0 75 -35 75 -77z" />
    <glyph glyph-name="aring" unicode="&#xe5;" horiz-adv-x="529" 
d="M513 487c-11 -31 -25 -87 -33 -126l-41 -194c-3 -14 -4 -26 -4 -38c0 -25 7 -44 23 -62l-111 -83c-24 16 -35 43 -39 63c-38 -40 -80 -61 -136 -61c-93 0 -141 57 -141 163c0 123 47 232 108 293c56 56 119 80 204 80c60 0 127 -10 170 -35zM361 410c-6 4 -24 8 -36 8
c-33 0 -58 -2 -94 -44c-42 -50 -63 -151 -63 -219c0 -46 12 -66 41 -66c42 0 85 43 99 80zM463 659c0 -58 -48 -106 -106 -106c-57 0 -104 48 -104 106s49 106 106 106s104 -48 104 -106zM400 659c0 24 -18 43 -41 43c-25 0 -44 -19 -44 -43s19 -43 42 -43c24 0 43 19 43 43
z" />
    <glyph glyph-name="ae" unicode="&#xe6;" horiz-adv-x="784" 
d="M772 379c0 -44 -24 -83 -57 -114c-40 -38 -118 -58 -202 -58c-35 0 -61 4 -61 4s-5 -30 -5 -43c0 -58 30 -82 86 -82c46 0 94 20 142 54l34 -84c-69 -48 -136 -70 -208 -70c-71 0 -125 23 -157 67c-44 -49 -108 -72 -171 -72c-96 0 -147 58 -147 128
c0 123 107 208 288 208c10 0 16 -1 30 -1l5 21c3 13 5 29 5 40c0 26 -14 36 -49 36c-43 0 -97 -18 -160 -55l-39 93c62 36 159 72 240 72c53 0 92 -21 117 -44c40 28 83 44 135 44c96 0 174 -37 174 -144zM323 224h-13c-99 0 -136 -30 -136 -98c0 -27 17 -47 46 -47
c27 0 55 11 72 34c11 15 31 111 31 111zM637 372c0 31 -14 53 -54 53c-51 0 -91 -32 -109 -122c0 0 20 -2 38 -2c58 0 125 20 125 71z" />
    <glyph glyph-name="ccedilla" unicode="&#xe7;" horiz-adv-x="446" 
d="M471 466l-78 -84c-22 25 -51 38 -76 38c-24 0 -45 -10 -63 -30c-37 -42 -71 -148 -71 -227c0 -53 25 -76 61 -76c37 0 74 21 112 51l45 -83c-54 -41 -109 -66 -180 -68l-11 -19c41 -4 56 -31 56 -61c0 -56 -48 -106 -128 -106c-30 0 -65 13 -82 24l41 62
c15 -7 29 -14 51 -14c16 0 31 8 31 22c0 9 -6 16 -23 16c-11 0 -19 -4 -28 -6l-9 20l34 69c-76 20 -116 80 -116 169c0 127 59 243 130 303c46 39 97 61 168 61c47 0 99 -19 136 -61z" />
    <glyph glyph-name="egrave" unicode="&#xe8;" horiz-adv-x="516" 
d="M509 383c0 -97 -89 -176 -259 -176c-35 0 -61 7 -61 7s-5 -33 -5 -46c0 -58 30 -82 86 -82c46 0 94 20 142 54l34 -84c-69 -48 -136 -70 -208 -70c-122 0 -194 64 -194 188c0 106 47 215 115 281c51 49 108 68 176 68c101 0 174 -40 174 -140zM374 372
c0 31 -14 53 -54 53c-51 0 -89 -30 -109 -119c0 0 20 -5 38 -5c58 0 125 20 125 71zM452 629l-46 -72l-216 100l66 106z" />
    <glyph glyph-name="eacute" unicode="&#xe9;" horiz-adv-x="516" 
d="M509 383c0 -97 -89 -176 -259 -176c-35 0 -61 7 -61 7s-5 -33 -5 -46c0 -58 30 -82 86 -82c46 0 94 20 142 54l34 -84c-69 -48 -136 -70 -208 -70c-122 0 -194 64 -194 188c0 106 47 215 115 281c51 49 108 68 176 68c101 0 174 -40 174 -140zM374 372
c0 31 -14 53 -54 53c-51 0 -89 -30 -109 -119c0 0 20 -5 38 -5c58 0 125 20 125 71zM500 657l-239 -103l-40 75l231 133z" />
    <glyph glyph-name="ecircumflex" unicode="&#xea;" horiz-adv-x="516" 
d="M509 383c0 -97 -89 -176 -259 -176c-35 0 -61 7 -61 7s-5 -33 -5 -46c0 -58 30 -82 86 -82c46 0 94 20 142 54l34 -84c-69 -48 -136 -70 -208 -70c-122 0 -194 64 -194 188c0 106 47 215 115 281c51 49 108 68 176 68c101 0 174 -40 174 -140zM374 372
c0 31 -14 53 -54 53c-51 0 -89 -30 -109 -119c0 0 20 -5 38 -5c58 0 125 20 125 71zM520 625l-54 -73l-123 78l-151 -78l-36 73l209 135z" />
    <glyph glyph-name="edieresis" unicode="&#xeb;" horiz-adv-x="516" 
d="M509 383c0 -97 -89 -176 -259 -176c-35 0 -61 7 -61 7s-5 -33 -5 -46c0 -58 30 -82 86 -82c46 0 94 20 142 54l34 -84c-69 -48 -136 -70 -208 -70c-122 0 -194 64 -194 188c0 106 47 215 115 281c51 49 108 68 176 68c101 0 174 -40 174 -140zM374 372
c0 31 -14 53 -54 53c-51 0 -89 -30 -109 -119c0 0 20 -5 38 -5c58 0 125 20 125 71zM321 635c0 -42 -35 -77 -77 -77c-41 0 -76 35 -76 77s36 77 78 77c41 0 75 -35 75 -77zM532 635c0 -42 -35 -77 -77 -77c-41 0 -76 35 -76 77s36 77 78 77c41 0 75 -35 75 -77z" />
    <glyph glyph-name="igrave" unicode="&#xec;" horiz-adv-x="280" 
d="M275 524l-111 -524h-134l107 503zM332 629l-46 -72l-216 100l66 106z" />
    <glyph glyph-name="iacute" unicode="&#xed;" horiz-adv-x="280" 
d="M275 524l-111 -524h-134l107 503zM392 657l-239 -103l-40 75l231 133z" />
    <glyph glyph-name="icircumflex" unicode="&#xee;" horiz-adv-x="280" 
d="M275 524l-111 -524h-134l107 503zM404 625l-54 -73l-123 78l-151 -78l-36 73l209 135z" />
    <glyph glyph-name="idieresis" unicode="&#xef;" horiz-adv-x="280" 
d="M275 524l-111 -524h-134l107 503zM193 635c0 -42 -35 -77 -77 -77c-41 0 -76 35 -76 77s36 77 78 77c41 0 75 -35 75 -77zM404 635c0 -42 -35 -77 -77 -77c-41 0 -76 35 -76 77s36 77 78 77c41 0 75 -35 75 -77z" />
    <glyph glyph-name="eth" unicode="&#xf0;" horiz-adv-x="536" 
d="M480 320c0 -169 -95 -332 -279 -332c-108 0 -189 54 -189 178c0 146 113 257 263 257c20 0 39 -5 54 -9c-15 37 -40 74 -75 99l-51 -47l-73 36l59 54c-36 18 -80 32 -134 38l101 95c42 -5 89 -18 133 -41l38 36l74 -36l-46 -43c82 -66 125 -181 125 -285zM341 302
c-17 10 -31 15 -79 15c-80 0 -113 -77 -113 -141c0 -48 25 -79 72 -79c102 0 120 145 120 205z" />
    <glyph glyph-name="ntilde" unicode="&#xf1;" horiz-adv-x="551" 
d="M516 422c0 -22 -3 -50 -8 -72l-74 -350h-132l71 333c4 20 7 35 7 46c0 25 -11 32 -35 32c-32 0 -70 -20 -112 -77l-71 -334h-132l73 345c6 27 9 52 9 74c0 23 -3 43 -9 61l124 49c9 -17 15 -61 13 -83c43 46 98 77 173 77c65 0 103 -39 103 -101zM528 645
c-42 -41 -79 -67 -138 -67c-53 0 -70 40 -122 40c-32 0 -50 -15 -75 -37l-33 75c42 41 78 66 130 66c55 0 72 -40 130 -40c32 0 49 13 75 35z" />
    <glyph glyph-name="ograve" unicode="&#xf2;" horiz-adv-x="546" 
d="M517 347c0 -180 -96 -358 -299 -358c-116 0 -182 64 -182 181c0 193 119 352 295 352c115 0 186 -63 186 -175zM373 347c0 59 -22 76 -62 76c-90 0 -133 -188 -133 -266c0 -49 25 -71 63 -71c86 0 132 161 132 261zM456 629l-46 -72l-216 100l66 106z" />
    <glyph glyph-name="oacute" unicode="&#xf3;" horiz-adv-x="546" 
d="M517 347c0 -180 -96 -358 -299 -358c-116 0 -182 64 -182 181c0 193 119 352 295 352c115 0 186 -63 186 -175zM373 347c0 59 -22 76 -62 76c-90 0 -133 -188 -133 -266c0 -49 25 -71 63 -71c86 0 132 161 132 261zM497 657l-239 -103l-40 75l231 133z" />
    <glyph glyph-name="ocircumflex" unicode="&#xf4;" horiz-adv-x="546" 
d="M517 347c0 -180 -96 -358 -299 -358c-116 0 -182 64 -182 181c0 193 119 352 295 352c115 0 186 -63 186 -175zM373 347c0 59 -22 76 -62 76c-90 0 -133 -188 -133 -266c0 -49 25 -71 63 -71c86 0 132 161 132 261zM519 625l-54 -73l-123 78l-151 -78l-36 73l209 135z
" />
    <glyph glyph-name="otilde" unicode="&#xf5;" horiz-adv-x="546" 
d="M517 347c0 -180 -96 -358 -299 -358c-116 0 -182 64 -182 181c0 193 119 352 295 352c115 0 186 -63 186 -175zM373 347c0 59 -22 76 -62 76c-90 0 -133 -188 -133 -266c0 -49 25 -71 63 -71c86 0 132 161 132 261zM522 645c-42 -41 -79 -67 -138 -67
c-53 0 -70 40 -122 40c-32 0 -50 -15 -75 -37l-33 75c42 41 78 66 130 66c55 0 72 -40 130 -40c32 0 49 13 75 35z" />
    <glyph glyph-name="odieresis" unicode="&#xf6;" horiz-adv-x="546" 
d="M517 347c0 -180 -96 -358 -299 -358c-116 0 -182 64 -182 181c0 193 119 352 295 352c115 0 186 -63 186 -175zM373 347c0 59 -22 76 -62 76c-90 0 -133 -188 -133 -266c0 -49 25 -71 63 -71c86 0 132 161 132 261zM315 635c0 -42 -35 -77 -77 -77c-41 0 -76 35 -76 77
s36 77 78 77c41 0 75 -35 75 -77zM526 635c0 -42 -35 -77 -77 -77c-41 0 -76 35 -76 77s36 77 78 77c41 0 75 -35 75 -77z" />
    <glyph glyph-name="divide" unicode="&#xf7;" horiz-adv-x="584" 
d="M563 319l-23 -105h-505l23 105h505zM342 68c0 -47 -39 -84 -87 -84c-47 0 -86 37 -86 84c0 49 39 89 87 89s86 -40 86 -89zM427 467c0 -48 -39 -86 -87 -86c-47 0 -85 38 -85 85c0 48 38 88 85 88c48 0 87 -39 87 -87z" />
    <glyph glyph-name="oslash" unicode="&#xf8;" horiz-adv-x="547" 
d="M566 557l-83 -101c21 -28 32 -64 32 -109c0 -180 -96 -358 -299 -358c-38 0 -71 8 -98 22l-80 -98l-49 42l81 97c-23 30 -36 72 -36 121c0 193 119 349 295 349c41 0 77 -8 105 -24l82 100zM357 404c-10 14 -26 19 -48 19c-80 0 -123 -154 -132 -242zM370 317l-177 -214
c11 -12 27 -17 46 -17c78 0 123 132 131 231z" />
    <glyph glyph-name="ugrave" unicode="&#xf9;" horiz-adv-x="547" 
d="M535 524l-83 -391c-7 -34 -4 -80 11 -104l-116 -46c-12 18 -22 44 -24 68c-38 -35 -88 -64 -148 -64c-79 0 -125 40 -125 104c0 19 2 44 10 81l69 328l138 25l-70 -329c-6 -27 -10 -55 -10 -69c0 -22 16 -39 32 -39c41 0 90 44 110 76l71 333zM459 629l-46 -72l-216 100
l66 106z" />
    <glyph glyph-name="uacute" unicode="&#xfa;" horiz-adv-x="547" 
d="M535 524l-83 -391c-7 -34 -4 -80 11 -104l-116 -46c-12 18 -22 44 -24 68c-38 -35 -88 -64 -148 -64c-79 0 -125 40 -125 104c0 19 2 44 10 81l69 328l138 25l-70 -329c-6 -27 -10 -55 -10 -69c0 -22 16 -39 32 -39c41 0 90 44 110 76l71 333zM513 657l-239 -103l-40 75
l231 133z" />
    <glyph glyph-name="ucircumflex" unicode="&#xfb;" horiz-adv-x="547" 
d="M535 524l-83 -391c-7 -34 -4 -80 11 -104l-116 -46c-12 18 -22 44 -24 68c-38 -35 -88 -64 -148 -64c-79 0 -125 40 -125 104c0 19 2 44 10 81l69 328l138 25l-70 -329c-6 -27 -10 -55 -10 -69c0 -22 16 -39 32 -39c41 0 90 44 110 76l71 333zM527 625l-54 -73l-123 78
l-151 -78l-36 73l209 135z" />
    <glyph glyph-name="udieresis" unicode="&#xfc;" horiz-adv-x="547" 
d="M535 524l-83 -391c-7 -34 -4 -80 11 -104l-116 -46c-12 18 -22 44 -24 68c-38 -35 -88 -64 -148 -64c-79 0 -125 40 -125 104c0 19 2 44 10 81l69 328l138 25l-70 -329c-6 -27 -10 -55 -10 -69c0 -22 16 -39 32 -39c41 0 90 44 110 76l71 333zM322 635
c0 -42 -35 -77 -77 -77c-41 0 -76 35 -76 77s36 77 78 77c41 0 75 -35 75 -77zM533 635c0 -42 -35 -77 -77 -77c-41 0 -76 35 -76 77s36 77 78 77c41 0 75 -35 75 -77z" />
    <glyph glyph-name="yacute" unicode="&#xfd;" horiz-adv-x="514" 
d="M580 512l-297 -520c-56 -99 -91 -142 -134 -169c-39 -25 -86 -41 -134 -47l-27 90c31 7 67 18 90 32c41 25 57 48 89 102h-37c-2 38 -7 100 -13 144l-46 360l138 16l25 -299c3 -31 4 -106 4 -106s35 89 69 153l129 244h144zM480 657l-239 -103l-40 75l231 133z" />
    <glyph glyph-name="thorn" unicode="&#xfe;" horiz-adv-x="557" 
d="M531 347c0 -126 -53 -246 -149 -314c-48 -34 -95 -46 -147 -46c-28 0 -55 3 -81 7l-38 -180l-136 -34l166 780c9 44 14 77 14 104c0 14 -1 27 -4 39l139 43c3 -11 4 -26 4 -43c0 -28 -4 -62 -10 -93l-17 -81c-3 -15 -14 -59 -19 -69c29 35 81 65 141 65
c95 0 137 -67 137 -178zM385 349c0 44 -13 67 -40 67c-41 0 -84 -34 -111 -80l-50 -228c11 -11 36 -22 69 -22c29 0 65 27 84 60c28 50 48 163 48 203z" />
    <glyph glyph-name="ydieresis" unicode="&#xff;" horiz-adv-x="514" 
d="M580 512l-297 -520c-56 -99 -91 -142 -134 -169c-39 -25 -86 -41 -134 -47l-27 90c31 7 67 18 90 32c41 25 57 48 89 102h-37c-2 38 -7 100 -13 144l-46 360l138 16l25 -299c3 -31 4 -106 4 -106s35 89 69 153l129 244h144zM304 635c0 -42 -35 -77 -77 -77
c-41 0 -76 35 -76 77s36 77 78 77c41 0 75 -35 75 -77zM515 635c0 -42 -35 -77 -77 -77c-41 0 -76 35 -76 77s36 77 78 77c41 0 75 -35 75 -77z" />
    <glyph glyph-name="Amacron" unicode="&#x100;" horiz-adv-x="588" 
d="M548 0h-145l-14 165h-204l-84 -165h-151l376 697h151zM380 281l-10 145c-4 59 -3 118 -3 118s-37 -84 -61 -134l-62 -129h136zM571 826l-16 -78h-314l16 78h314z" />
    <glyph glyph-name="amacron" unicode="&#x101;" horiz-adv-x="529" 
d="M513 487c-11 -31 -25 -87 -33 -126l-41 -194c-3 -14 -4 -26 -4 -38c0 -25 7 -44 23 -62l-111 -83c-24 16 -35 43 -39 63c-38 -40 -80 -61 -136 -61c-93 0 -141 57 -141 163c0 123 47 232 108 293c56 56 119 80 204 80c60 0 127 -10 170 -35zM361 410c-6 4 -24 8 -36 8
c-33 0 -58 -2 -94 -44c-42 -50 -63 -151 -63 -219c0 -46 12 -66 41 -66c42 0 85 43 99 80zM519 668l-16 -78h-314l16 78h314z" />
    <glyph glyph-name="Abreve" unicode="&#x102;" horiz-adv-x="588" 
d="M548 0h-145l-14 165h-204l-84 -165h-151l376 697h151zM380 281l-10 145c-4 59 -3 118 -3 118s-37 -84 -61 -134l-62 -129h136zM619 851c-19 -21 -131 -129 -217 -129c-87 0 -154 108 -165 129l52 49c16 -19 69 -73 140 -73c60 0 146 58 167 73z" />
    <glyph glyph-name="abreve" unicode="&#x103;" horiz-adv-x="529" 
d="M513 487c-11 -31 -25 -87 -33 -126l-41 -194c-3 -14 -4 -26 -4 -38c0 -25 7 -44 23 -62l-111 -83c-24 16 -35 43 -39 63c-38 -40 -80 -61 -136 -61c-93 0 -141 57 -141 163c0 123 47 232 108 293c56 56 119 80 204 80c60 0 127 -10 170 -35zM361 410c-6 4 -24 8 -36 8
c-33 0 -58 -2 -94 -44c-42 -50 -63 -151 -63 -219c0 -46 12 -66 41 -66c42 0 85 43 99 80zM558 684c-19 -21 -131 -129 -217 -129c-87 0 -154 108 -165 129l52 49c16 -19 69 -73 140 -73c60 0 146 58 167 73z" />
    <glyph glyph-name="Aogonek" unicode="&#x104;" horiz-adv-x="588" 
d="M543 0h-2c-52 0 -114 -49 -114 -96c0 -14 6 -25 25 -25c18 0 35 5 57 15l14 -67c-37 -15 -73 -27 -118 -27c-54 0 -84 27 -84 70v8c4 49 40 93 77 122l-14 165h-204l-84 -165h-151l376 697h151zM375 281l-10 145c-4 59 -3 118 -3 118s-37 -84 -61 -134l-62 -129h136z" />
    <glyph glyph-name="aogonek" unicode="&#x105;" horiz-adv-x="529" 
d="M508 487c-11 -31 -25 -87 -33 -126l-46 -217c-8 -37 2 -82 24 -106c-35 -19 -128 -78 -128 -134c0 -14 7 -25 26 -25c18 0 34 5 56 15l14 -67c-37 -15 -73 -27 -118 -27c-53 0 -85 26 -85 69c0 55 41 105 97 144c-6 11 -10 24 -12 34c-38 -40 -80 -61 -136 -61
c-93 0 -141 57 -141 163c0 123 47 232 108 293c56 56 119 80 204 80c60 0 127 -10 170 -35zM356 410c-6 4 -24 8 -36 8c-33 0 -58 -2 -94 -44c-42 -50 -63 -151 -63 -219c0 -46 12 -66 41 -66c42 0 85 43 99 80z" />
    <glyph glyph-name="Cacute" unicode="&#x106;" horiz-adv-x="551" 
d="M618 655l-81 -92c-29 26 -66 36 -105 36c-47 0 -98 -25 -130 -62c-61 -68 -96 -229 -96 -309c0 -92 45 -132 123 -132c41 0 80 15 128 48l48 -91c-64 -45 -130 -65 -209 -65c-156 0 -246 88 -246 244c0 108 41 239 105 324c75 101 187 154 299 154c69 0 133 -22 164 -55z
M620 820l-239 -103l-40 75l231 133z" />
    <glyph glyph-name="cacute" unicode="&#x107;" horiz-adv-x="446" 
d="M476 466l-78 -84c-22 25 -51 38 -76 38c-24 0 -45 -10 -63 -30c-37 -42 -71 -148 -71 -227c0 -53 25 -76 61 -76c37 0 74 21 112 51l45 -83c-56 -43 -113 -68 -188 -68c-114 0 -176 66 -176 176c0 127 59 243 130 303c46 39 97 61 168 61c47 0 99 -19 136 -61zM500 657
l-239 -103l-40 75l231 133z" />
    <glyph glyph-name="Ccircumflex" unicode="&#x108;" horiz-adv-x="551" 
d="M618 655l-81 -92c-29 26 -66 36 -105 36c-47 0 -98 -25 -130 -62c-61 -68 -96 -229 -96 -309c0 -92 45 -132 123 -132c41 0 80 15 128 48l48 -91c-64 -45 -130 -65 -209 -65c-156 0 -246 88 -246 244c0 108 41 239 105 324c75 101 187 154 299 154c69 0 133 -22 164 -55z
M649 788l-54 -73l-123 78l-151 -78l-36 73l209 135z" />
    <glyph glyph-name="ccircumflex" unicode="&#x109;" horiz-adv-x="446" 
d="M476 466l-78 -84c-22 25 -51 38 -76 38c-24 0 -45 -10 -63 -30c-37 -42 -71 -148 -71 -227c0 -53 25 -76 61 -76c37 0 74 21 112 51l45 -83c-56 -43 -113 -68 -188 -68c-114 0 -176 66 -176 176c0 127 59 243 130 303c46 39 97 61 168 61c47 0 99 -19 136 -61zM536 625
l-54 -73l-123 78l-151 -78l-36 73l209 135z" />
    <glyph glyph-name="Cdotaccent" unicode="&#x10a;" horiz-adv-x="551" 
d="M618 655l-81 -92c-29 26 -66 36 -105 36c-47 0 -98 -25 -130 -62c-61 -68 -96 -229 -96 -309c0 -92 45 -132 123 -132c41 0 80 15 128 48l48 -91c-64 -45 -130 -65 -209 -65c-156 0 -246 88 -246 244c0 108 41 239 105 324c75 101 187 154 299 154c69 0 133 -22 164 -55z
M554 806c0 -46 -37 -83 -83 -83c-45 0 -82 37 -82 83s38 83 84 83c45 0 81 -37 81 -83z" />
    <glyph glyph-name="cdotaccent" unicode="&#x10b;" horiz-adv-x="446" 
d="M476 466l-78 -84c-22 25 -51 38 -76 38c-24 0 -45 -10 -63 -30c-37 -42 -71 -148 -71 -227c0 -53 25 -76 61 -76c37 0 74 21 112 51l45 -83c-56 -43 -113 -68 -188 -68c-114 0 -176 66 -176 176c0 127 59 243 130 303c46 39 97 61 168 61c47 0 99 -19 136 -61zM442 653
c0 -46 -37 -83 -83 -83c-45 0 -82 37 -82 83s38 83 84 83c45 0 81 -37 81 -83z" />
    <glyph glyph-name="Ccaron" unicode="&#x10c;" horiz-adv-x="551" 
d="M618 655l-81 -92c-29 26 -66 36 -105 36c-47 0 -98 -25 -130 -62c-61 -68 -96 -229 -96 -309c0 -92 45 -132 123 -132c41 0 80 15 128 48l48 -91c-64 -45 -130 -65 -209 -65c-156 0 -246 88 -246 244c0 108 41 239 105 324c75 101 187 154 299 154c69 0 133 -22 164 -55z
M654 852l-208 -135l-156 135l55 73l123 -76l152 76z" />
    <glyph glyph-name="ccaron" unicode="&#x10d;" horiz-adv-x="446" 
d="M476 466l-78 -84c-22 25 -51 38 -76 38c-24 0 -45 -10 -63 -30c-37 -42 -71 -148 -71 -227c0 -53 25 -76 61 -76c37 0 74 21 112 51l45 -83c-56 -43 -113 -68 -188 -68c-114 0 -176 66 -176 176c0 127 59 243 130 303c46 39 97 61 168 61c47 0 99 -19 136 -61zM549 689
l-208 -135l-156 135l55 73l123 -76l152 76z" />
    <glyph glyph-name="Dcaron" unicode="&#x10e;" horiz-adv-x="628" 
d="M622 458c0 -114 -41 -263 -127 -354c-73 -77 -143 -104 -296 -104h-169l148 695h160c116 0 187 -13 231 -68c32 -41 53 -87 53 -169zM471 460c0 64 -18 125 -111 125h-63l-100 -471h69c60 0 105 33 130 72c62 97 75 237 75 274zM600 852l-208 -135l-156 135l55 73
l123 -76l152 76z" />
    <glyph glyph-name="dcaron" unicode="&#x10f;" horiz-adv-x="550" 
d="M583 719l-113 -532c-18 -86 -24 -132 -24 -159c0 -13 1 -22 3 -28h-115c-2 8 -6 33 -5 47c-32 -37 -82 -60 -129 -60c-107 0 -157 61 -157 180c0 101 40 213 112 282c47 44 105 70 165 70c37 0 77 -9 87 -14c1 8 4 29 10 59l37 176zM380 392c-13 13 -36 20 -65 20
c-26 0 -50 -14 -70 -40c-38 -50 -62 -141 -62 -205c0 -49 17 -74 52 -74c30 0 79 40 94 68zM781 661c0 -45 -26 -85 -66 -116c-29 -22 -64 -38 -98 -48l-31 47c26 8 66 28 70 55c-9 16 -37 20 -37 65c0 40 30 77 86 77c47 0 76 -37 76 -80z" />
    <glyph glyph-name="Dcroat" unicode="&#x110;" horiz-adv-x="628" 
d="M617 458c0 -114 -41 -263 -127 -354c-73 -77 -143 -104 -296 -104h-169l65 306h-76l19 89h76l64 300h160c116 0 187 -13 231 -68c32 -41 53 -87 53 -169zM466 460c0 64 -18 125 -111 125h-63l-40 -190h106l-43 -89h-82l-41 -192h69c60 0 105 33 130 72
c62 97 75 237 75 274z" />
    <glyph glyph-name="dcroat" unicode="&#x111;" horiz-adv-x="550" 
d="M634 662l-16 -78h-69l-84 -397c-18 -86 -24 -132 -24 -159c0 -13 1 -22 3 -28h-115c-2 7 -5 28 -5 42v5c-32 -37 -82 -60 -129 -60c-107 0 -157 61 -157 180c0 101 40 213 112 282c47 44 105 70 165 70c37 0 77 -9 87 -14c1 8 4 29 10 59l4 20h-112l16 78h112l17 78
l129 -21l-12 -57h68zM375 392c-13 13 -36 20 -65 20c-26 0 -50 -14 -70 -40c-38 -50 -62 -141 -62 -205c0 -49 17 -74 52 -74c30 0 79 40 94 68z" />
    <glyph glyph-name="Emacron" unicode="&#x112;" horiz-adv-x="495" 
d="M574 695l-43 -114h-236l-34 -161h197l-24 -114h-196l-39 -186h262l-26 -120h-405l148 695h396zM555 826l-16 -78h-314l16 78h314z" />
    <glyph glyph-name="emacron" unicode="&#x113;" horiz-adv-x="516" 
d="M509 383c0 -97 -89 -176 -259 -176c-35 0 -61 7 -61 7s-5 -33 -5 -46c0 -58 30 -82 86 -82c46 0 94 20 142 54l34 -84c-69 -48 -136 -70 -208 -70c-122 0 -194 64 -194 188c0 106 47 215 115 281c51 49 108 68 176 68c101 0 174 -40 174 -140zM374 372
c0 31 -14 53 -54 53c-51 0 -89 -30 -109 -119c0 0 20 -5 38 -5c58 0 125 20 125 71zM513 668l-16 -78h-314l16 78h314z" />
    <glyph glyph-name="Edotaccent" unicode="&#x116;" horiz-adv-x="495" 
d="M574 695l-43 -114h-236l-34 -161h197l-24 -114h-196l-39 -186h262l-26 -120h-405l148 695h396zM468 806c0 -46 -37 -83 -83 -83c-45 0 -82 37 -82 83s38 83 84 83c45 0 81 -37 81 -83z" />
    <glyph glyph-name="edotaccent" unicode="&#x117;" horiz-adv-x="516" 
d="M509 383c0 -97 -89 -176 -259 -176c-35 0 -61 7 -61 7s-5 -33 -5 -46c0 -58 30 -82 86 -82c46 0 94 20 142 54l34 -84c-69 -48 -136 -70 -208 -70c-122 0 -194 64 -194 188c0 106 47 215 115 281c51 49 108 68 176 68c101 0 174 -40 174 -140zM374 372
c0 31 -14 53 -54 53c-51 0 -89 -30 -109 -119c0 0 20 -5 38 -5c58 0 125 20 125 71zM434 641c0 -46 -37 -83 -83 -83c-45 0 -82 37 -82 83s38 83 84 83c45 0 81 -37 81 -83z" />
    <glyph glyph-name="Eogonek" unicode="&#x118;" horiz-adv-x="495" 
d="M569 695l-43 -114h-236l-34 -161h197l-24 -114h-196l-39 -186h262l-26 -120c-52 0 -115 -49 -115 -96c0 -14 7 -25 26 -25c18 0 34 5 56 15l14 -67c-37 -15 -72 -27 -117 -27c-57 0 -89 31 -85 78c4 49 41 93 78 122h-262l148 695h396z" />
    <glyph glyph-name="eogonek" unicode="&#x119;" horiz-adv-x="516" 
d="M504 383c0 -97 -89 -176 -259 -176c-35 0 -61 7 -61 7s-5 -33 -5 -46c0 -58 30 -82 86 -82c46 0 94 20 142 54l34 -84c-16 -11 -33 -20 -48 -29c-37 -21 -108 -75 -108 -123c0 -14 7 -25 26 -25c18 0 34 5 56 15l14 -67c-37 -15 -73 -27 -118 -27c-53 0 -85 26 -85 69
s25 83 63 117h-8c-122 0 -194 64 -194 188c0 106 47 215 115 281c51 49 108 68 176 68c101 0 174 -40 174 -140zM369 372c0 31 -14 53 -54 53c-51 0 -89 -30 -109 -119c0 0 20 -5 38 -5c58 0 125 20 125 71z" />
    <glyph glyph-name="Ecaron" unicode="&#x11a;" horiz-adv-x="495" 
d="M574 695l-43 -114h-236l-34 -161h197l-24 -114h-196l-39 -186h262l-26 -120h-405l148 695h396zM578 852l-208 -135l-156 135l55 73l123 -76l152 76z" />
    <glyph glyph-name="ecaron" unicode="&#x11b;" horiz-adv-x="516" 
d="M509 383c0 -97 -89 -176 -259 -176c-35 0 -61 7 -61 7s-5 -33 -5 -46c0 -58 30 -82 86 -82c46 0 94 20 142 54l34 -84c-69 -48 -136 -70 -208 -70c-122 0 -194 64 -194 188c0 106 47 215 115 281c51 49 108 68 176 68c101 0 174 -40 174 -140zM374 372
c0 31 -14 53 -54 53c-51 0 -89 -30 -109 -119c0 0 20 -5 38 -5c58 0 125 20 125 71zM541 689l-208 -135l-156 135l55 73l123 -76l152 76z" />
    <glyph glyph-name="Gcircumflex" unicode="&#x11c;" horiz-adv-x="665" 
d="M668 626l-90 -85c-38 37 -83 52 -136 52c-41 0 -81 -14 -109 -37c-80 -63 -119 -246 -119 -330c0 -91 45 -129 125 -129c31 0 57 5 82 17l34 158h-103v114h272l-72 -336c-79 -42 -161 -58 -243 -58c-162 0 -248 96 -248 240c0 159 72 310 162 385c82 68 150 89 241 89
c84 0 154 -27 204 -80zM661 788l-54 -73l-123 78l-151 -78l-36 73l209 135z" />
    <glyph glyph-name="gcircumflex" unicode="&#x11d;" horiz-adv-x="558" 
d="M544 488c0 0 -14 -43 -19 -68l-57 -263c-22 -102 -26 -151 -36 -197c-30 -138 -153 -179 -273 -179c-68 0 -133 18 -179 46l46 90c35 -23 85 -36 144 -36c73 0 117 35 129 88c4 18 10 45 15 61c-31 -27 -72 -43 -111 -43c-113 0 -159 57 -159 176c0 101 39 218 111 287
c47 44 111 73 186 73c87 0 145 -9 203 -35zM387 405c-11 8 -32 12 -56 12c-26 0 -67 -20 -85 -44c-38 -50 -61 -142 -61 -206c0 -49 19 -78 54 -78s78 40 93 68zM542 625l-54 -73l-123 78l-151 -78l-36 73l209 135z" />
    <glyph glyph-name="Gbreve" unicode="&#x11e;" horiz-adv-x="665" 
d="M668 626l-90 -85c-38 37 -83 52 -136 52c-41 0 -81 -14 -109 -37c-80 -63 -119 -246 -119 -330c0 -91 45 -129 125 -129c31 0 57 5 82 17l34 158h-103v114h272l-72 -336c-79 -42 -161 -58 -243 -58c-162 0 -248 96 -248 240c0 159 72 310 162 385c82 68 150 89 241 89
c84 0 154 -27 204 -80zM676 851c-19 -21 -131 -129 -217 -129c-87 0 -154 108 -165 129l52 49c16 -19 69 -73 140 -73c60 0 146 58 167 73z" />
    <glyph glyph-name="gbreve" unicode="&#x11f;" horiz-adv-x="558" 
d="M544 488c0 0 -14 -43 -19 -68l-57 -263c-22 -102 -26 -151 -36 -197c-30 -138 -153 -179 -273 -179c-68 0 -133 18 -179 46l46 90c35 -23 85 -36 144 -36c73 0 117 35 129 88c4 18 10 45 15 61c-31 -27 -72 -43 -111 -43c-113 0 -159 57 -159 176c0 101 39 218 111 287
c47 44 111 73 186 73c87 0 145 -9 203 -35zM387 405c-11 8 -32 12 -56 12c-26 0 -67 -20 -85 -44c-38 -50 -61 -142 -61 -206c0 -49 19 -78 54 -78s78 40 93 68zM575 684c-19 -21 -131 -129 -217 -129c-87 0 -154 108 -165 129l52 49c16 -19 69 -73 140 -73
c60 0 146 58 167 73z" />
    <glyph glyph-name="Gdotaccent" unicode="&#x120;" horiz-adv-x="665" 
d="M668 626l-90 -85c-38 37 -83 52 -136 52c-41 0 -81 -14 -109 -37c-80 -63 -119 -246 -119 -330c0 -91 45 -129 125 -129c31 0 57 5 82 17l34 158h-103v114h272l-72 -336c-79 -42 -161 -58 -243 -58c-162 0 -248 96 -248 240c0 159 72 310 162 385c82 68 150 89 241 89
c84 0 154 -27 204 -80zM569 806c0 -46 -37 -83 -83 -83c-45 0 -82 37 -82 83s38 83 84 83c45 0 81 -37 81 -83z" />
    <glyph glyph-name="gdotaccent" unicode="&#x121;" horiz-adv-x="558" 
d="M544 488c0 0 -14 -43 -19 -68l-57 -263c-22 -102 -26 -151 -36 -197c-30 -138 -153 -179 -273 -179c-68 0 -133 18 -179 46l46 90c35 -23 85 -36 144 -36c73 0 117 35 129 88c4 18 10 45 15 61c-31 -27 -72 -43 -111 -43c-113 0 -159 57 -159 176c0 101 39 218 111 287
c47 44 111 73 186 73c87 0 145 -9 203 -35zM387 405c-11 8 -32 12 -56 12c-26 0 -67 -20 -85 -44c-38 -50 -61 -142 -61 -206c0 -49 19 -78 54 -78s78 40 93 68zM438 653c0 -46 -37 -83 -83 -83c-45 0 -82 37 -82 83s38 83 84 83c45 0 81 -37 81 -83z" />
    <glyph glyph-name="Gcommaaccent" unicode="&#x122;" horiz-adv-x="665" 
d="M668 626l-90 -85c-38 37 -83 52 -136 52c-41 0 -81 -14 -109 -37c-80 -63 -119 -246 -119 -330c0 -91 45 -129 125 -129c31 0 57 5 82 17l34 158h-103v114h272l-72 -336c-79 -42 -161 -58 -243 -58c-162 0 -248 96 -248 240c0 159 72 310 162 385c82 68 150 89 241 89
c84 0 154 -27 204 -80zM382 -124c0 -45 -26 -85 -66 -116c-29 -22 -64 -38 -98 -48l-31 47c26 8 66 28 70 55c-9 16 -37 20 -37 65c0 40 30 77 86 77c47 0 76 -37 76 -80z" />
    <glyph glyph-name="gcommaaccent" unicode="&#x123;" horiz-adv-x="558" 
d="M544 488c0 0 -14 -43 -19 -68l-57 -263c-22 -102 -26 -151 -36 -197c-30 -138 -153 -179 -273 -179c-68 0 -133 18 -179 46l46 90c35 -23 85 -36 144 -36c73 0 117 35 129 88c4 18 10 45 15 61c-31 -27 -72 -43 -111 -43c-113 0 -159 57 -159 176c0 101 39 218 111 287
c47 44 111 73 186 73c87 0 145 -9 203 -35zM387 405c-11 8 -32 12 -56 12c-26 0 -67 -20 -85 -44c-38 -50 -61 -142 -61 -206c0 -49 19 -78 54 -78s78 40 93 68zM276 648c0 45 26 85 66 116c29 22 64 38 98 48l31 -47c-26 -8 -66 -28 -70 -55c9 -16 37 -20 37 -65
c0 -40 -30 -77 -86 -77c-47 0 -76 37 -76 80z" />
    <glyph glyph-name="Hcircumflex" unicode="&#x124;" horiz-adv-x="633" 
d="M659 695l-148 -695h-142l66 310h-200l-66 -310h-139l148 695h139l-58 -270h200l58 270h142zM608 788l-54 -73l-123 78l-151 -78l-36 73l209 135z" />
    <glyph glyph-name="hcircumflex" unicode="&#x125;" horiz-adv-x="576" 
d="M540 423c0 -16 -2 -34 -9 -65l-76 -358h-131l73 344c3 13 4 24 4 33c0 27 -13 37 -41 37c-36 0 -93 -39 -126 -81l-71 -333h-133l120 561c10 50 15 82 15 107c0 14 -2 25 -4 35l135 43c3 -9 5 -24 5 -43c0 -31 -4 -71 -11 -104l-18 -85c-3 -16 -12 -51 -17 -62
c39 43 103 74 166 74c81 0 119 -37 119 -103zM445 794l-54 -73l-123 78l-151 -78l-36 73l209 135z" />
    <glyph glyph-name="Hbar" unicode="&#x126;" horiz-adv-x="633" 
d="M654 695l-19 -88h73l-26 -113h-71l-105 -494h-142l66 310h-200l-66 -310h-139l105 494h-71l26 113h69l19 88h139l-19 -88h200l19 88h142zM254 425h200l15 69h-200z" />
    <glyph glyph-name="hbar" unicode="&#x127;" horiz-adv-x="576" 
d="M535 423c0 -16 -2 -34 -9 -65l-76 -358h-131l73 344c3 13 4 24 4 33c0 27 -13 37 -41 37c-36 0 -93 -39 -126 -81l-71 -333h-133l118 551h-46l19 83h41c2 14 3 26 3 36c0 13 -2 23 -4 33l135 43c3 -9 5 -25 5 -44c0 -21 -2 -45 -5 -68h159l-19 -83h-156l-8 -37
c-3 -16 -12 -51 -17 -62c39 43 103 74 166 74c81 0 119 -37 119 -103z" />
    <glyph glyph-name="Imacron" unicode="&#x12a;" horiz-adv-x="297" 
d="M323 695l-148 -695h-145l148 695h145zM430 826l-16 -78h-314l16 78h314z" />
    <glyph glyph-name="imacron" unicode="&#x12b;" horiz-adv-x="280" 
d="M384 682l-19 -92h-294l19 92h294zM275 524l-111 -524h-134l107 503z" />
    <glyph glyph-name="Iogonek" unicode="&#x12e;" horiz-adv-x="297" 
d="M318 695l-148 -695h-2c-52 0 -114 -49 -114 -96c0 -14 7 -25 26 -25c18 0 34 5 56 15l14 -67c-37 -15 -73 -27 -118 -27c-54 0 -84 27 -84 70v8c4 49 40 93 77 122l148 695h145z" />
    <glyph glyph-name="iogonek" unicode="&#x12f;" horiz-adv-x="280" 
d="M270 524l-111 -524c-43 0 -106 -49 -106 -96c0 -14 7 -25 26 -25c18 0 34 5 56 15l14 -67c-37 -15 -73 -27 -118 -27c-54 0 -84 27 -84 70v8c4 50 40 94 78 123l107 502zM314 653c0 -46 -37 -83 -83 -83c-45 0 -82 37 -82 83s38 83 84 83c45 0 81 -37 81 -83z" />
    <glyph glyph-name="Idotaccent" unicode="&#x130;" horiz-adv-x="297" 
d="M323 695l-148 -695h-145l148 695h145zM349 806c0 -46 -37 -83 -83 -83c-45 0 -82 37 -82 83s38 83 84 83c45 0 81 -37 81 -83z" />
    <glyph glyph-name="dotlessi" unicode="&#x131;" horiz-adv-x="280" 
d="M270 524l-111 -524h-134l107 503z" />
    <glyph glyph-name="Jcircumflex" unicode="&#x134;" horiz-adv-x="297" 
d="M323 695l-119 -560c-19 -90 -26 -108 -39 -136c-38 -85 -133 -142 -201 -166l-49 75c41 22 81 56 99 84c17 25 26 53 42 128l122 575h145zM448 788l-54 -73l-123 78l-151 -78l-36 73l209 135z" />
    <glyph glyph-name="jcircumflex" unicode="&#x135;" horiz-adv-x="268" 
d="M265 524l-108 -510c-21 -97 -49 -136 -72 -159c-30 -31 -70 -56 -120 -75l-42 78c23 9 49 36 63 54c17 22 27 50 37 98l105 493zM401 625l-54 -73l-123 78l-151 -78l-36 73l209 135z" />
    <glyph glyph-name="Kcommaaccent" unicode="&#x136;" horiz-adv-x="600" 
d="M691 695l-294 -327l168 -368h-178l-137 363l-77 -363h-143l148 695h143l-68 -317l263 317h175zM347 -124c0 -45 -26 -85 -66 -116c-29 -22 -64 -38 -98 -48l-31 47c26 8 66 28 70 55c-9 16 -37 20 -37 65c0 40 30 77 86 77c47 0 76 -37 76 -80z" />
    <glyph glyph-name="kcommaaccent" unicode="&#x137;" horiz-adv-x="515" 
d="M299 746c2 -8 4 -21 4 -38c0 -33 -6 -84 -21 -155l-118 -553h-134l120 562c10 45 14 78 14 104c0 14 -1 27 -4 37zM568 512l-209 -222l138 -290h-158l-110 290l173 222h166zM314 -124c0 -45 -26 -85 -66 -116c-29 -22 -64 -38 -98 -48l-31 47c26 8 66 28 70 55
c-9 16 -37 20 -37 65c0 40 30 77 86 77c47 0 76 -37 76 -80z" />
    <glyph glyph-name="Lacute" unicode="&#x139;" horiz-adv-x="472" 
d="M447 116l-50 -116h-367l148 695h143l-123 -579h249zM425 820l-239 -103l-40 75l231 133z" />
    <glyph glyph-name="lacute" unicode="&#x13a;" horiz-adv-x="282" 
d="M295 746c1 -8 2 -22 2 -39c0 -33 -3 -78 -12 -120l-81 -379c-13 -60 -17 -85 -17 -99c0 -19 8 -29 26 -29c5 0 10 0 15 2l6 -80c-24 -9 -54 -14 -83 -14c-72 0 -106 39 -106 92c0 18 7 56 15 93l81 382c10 46 16 83 16 112c0 13 -1 25 -4 36zM380 835l-239 -103l-40 75
l231 133z" />
    <glyph glyph-name="Lcommaaccent" unicode="&#x13b;" horiz-adv-x="472" 
d="M447 116l-50 -116h-367l148 695h143l-123 -579h249zM282 -124c0 -45 -26 -85 -66 -116c-29 -22 -64 -38 -98 -48l-31 47c26 8 66 28 70 55c-9 16 -37 20 -37 65c0 40 30 77 86 77c47 0 76 -37 76 -80z" />
    <glyph glyph-name="lcommaaccent" unicode="&#x13c;" horiz-adv-x="282" 
d="M295 746c1 -8 2 -22 2 -39c0 -33 -3 -78 -12 -120l-81 -379c-13 -60 -17 -85 -17 -99c0 -19 8 -29 26 -29c5 0 10 0 15 2l6 -80c-24 -9 -54 -14 -83 -14c-72 0 -106 39 -106 92c0 18 7 56 15 93l81 382c10 46 16 83 16 112c0 13 -1 25 -4 36zM193 -124
c0 -45 -26 -85 -66 -116c-29 -22 -64 -38 -98 -48l-31 47c26 8 66 28 70 55c-9 16 -37 20 -37 65c0 40 30 77 86 77c47 0 76 -37 76 -80z" />
    <glyph glyph-name="Lcaron" unicode="&#x13d;" horiz-adv-x="472" 
d="M447 116l-50 -116h-367l148 695h143l-123 -579h249zM538 616c0 -45 -26 -85 -66 -116c-29 -22 -64 -38 -98 -48l-31 47c26 8 66 28 70 55c-9 16 -37 20 -37 65c0 40 30 77 86 77c47 0 76 -37 76 -80z" />
    <glyph glyph-name="lcaron" unicode="&#x13e;" horiz-adv-x="282" 
d="M295 746c1 -8 2 -22 2 -39c0 -33 -3 -78 -12 -120l-81 -379c-13 -60 -17 -85 -17 -99c0 -19 8 -29 26 -29c5 0 10 0 15 2l6 -80c-24 -9 -54 -14 -83 -14c-72 0 -106 39 -106 92c0 18 7 56 15 93l81 382c10 46 16 83 16 112c0 13 -1 25 -4 36zM505 661
c0 -45 -26 -85 -66 -116c-29 -22 -64 -38 -98 -48l-31 47c26 8 66 28 70 55c-9 16 -37 20 -37 65c0 40 30 77 86 77c47 0 76 -37 76 -80z" />
    <glyph glyph-name="Lslash" unicode="&#x141;" horiz-adv-x="472" 
d="M442 116l-50 -116h-367l63 294l-60 -18l19 92l60 18l66 309h143l-56 -262l158 48l-19 -92l-158 -48l-48 -225h249z" />
    <glyph glyph-name="lslash" unicode="&#x142;" horiz-adv-x="282" 
d="M303 443l-20 -92l-57 -18l-27 -125c-13 -60 -17 -85 -17 -99c0 -19 8 -29 26 -29c5 0 10 0 15 2l6 -80c-24 -9 -54 -14 -83 -14c-72 0 -106 39 -106 92c0 18 7 56 15 93l24 114l-43 -14l19 92l44 14l37 176c10 46 16 83 16 112c0 13 -1 25 -4 36l142 43c1 -8 2 -22 2 -39
c0 -33 -3 -78 -12 -120l-35 -162z" />
    <glyph glyph-name="Nacute" unicode="&#x143;" horiz-adv-x="635" 
d="M661 695l-148 -695h-144l-62 266c-20 87 -44 187 -48 230c-7 -57 -23 -141 -35 -199l-59 -297h-135l148 695h153l74 -278c20 -74 32 -150 36 -200c6 54 19 147 29 194l58 284h133zM592 820l-239 -103l-40 75l231 133z" />
    <glyph glyph-name="nacute" unicode="&#x144;" horiz-adv-x="551" 
d="M516 422c0 -22 -3 -50 -8 -72l-74 -350h-132l71 333c4 20 7 35 7 46c0 25 -11 32 -35 32c-32 0 -70 -20 -112 -77l-71 -334h-132l73 345c6 27 9 52 9 74c0 23 -3 43 -9 61l124 49c9 -17 15 -61 13 -83c43 46 98 77 173 77c65 0 103 -39 103 -101zM490 657l-239 -103
l-40 75l231 133z" />
    <glyph glyph-name="Ncommaaccent" unicode="&#x145;" horiz-adv-x="635" 
d="M661 695l-148 -695h-144l-62 266c-20 87 -44 187 -48 230c-7 -57 -23 -141 -35 -199l-59 -297h-135l148 695h153l74 -278c20 -74 32 -150 36 -200c6 54 19 147 29 194l58 284h133zM348 -123c0 -45 -26 -85 -66 -116c-29 -22 -64 -38 -98 -48l-31 47c26 8 66 28 70 55
c-9 16 -37 20 -37 65c0 40 30 77 86 77c47 0 76 -37 76 -80z" />
    <glyph glyph-name="ncommaaccent" unicode="&#x146;" horiz-adv-x="551" 
d="M516 422c0 -22 -3 -50 -8 -72l-74 -350h-132l71 333c4 20 7 35 7 46c0 25 -11 32 -35 32c-32 0 -70 -20 -112 -77l-71 -334h-132l73 345c6 27 9 52 9 74c0 23 -3 43 -9 61l124 49c9 -17 15 -61 13 -83c43 46 98 77 173 77c65 0 103 -39 103 -101zM304 -124
c0 -45 -26 -85 -66 -116c-29 -22 -64 -38 -98 -48l-31 47c26 8 66 28 70 55c-9 16 -37 20 -37 65c0 40 30 77 86 77c47 0 76 -37 76 -80z" />
    <glyph glyph-name="Ncaron" unicode="&#x147;" horiz-adv-x="635" 
d="M661 695l-148 -695h-144l-62 266c-20 87 -44 187 -48 230c-7 -57 -23 -141 -35 -199l-59 -297h-135l148 695h153l74 -278c20 -74 32 -150 36 -200c6 54 19 147 29 194l58 284h133zM620 852l-208 -135l-156 135l55 73l123 -76l152 76z" />
    <glyph glyph-name="ncaron" unicode="&#x148;" horiz-adv-x="551" 
d="M516 422c0 -22 -3 -50 -8 -72l-74 -350h-132l71 333c4 20 7 35 7 46c0 25 -11 32 -35 32c-32 0 -70 -20 -112 -77l-71 -334h-132l73 345c6 27 9 52 9 74c0 23 -3 43 -9 61l124 49c9 -17 15 -61 13 -83c43 46 98 77 173 77c65 0 103 -39 103 -101zM527 689l-208 -135
l-156 135l55 73l123 -76l152 76z" />
    <glyph glyph-name="Omacron" unicode="&#x14c;" horiz-adv-x="694" 
d="M687 454c0 -175 -89 -365 -230 -432c-46 -22 -99 -33 -157 -33c-172 0 -238 104 -238 249c0 197 95 338 185 403c41 30 98 63 204 63c153 0 236 -95 236 -250zM530 483c0 68 -28 113 -104 113c-47 0 -93 -24 -121 -61c-55 -72 -92 -225 -92 -318c0 -89 38 -121 108 -121
c40 0 81 13 113 52c60 74 96 239 96 335zM627 826l-16 -78h-314l16 78h314z" />
    <glyph glyph-name="omacron" unicode="&#x14d;" horiz-adv-x="546" 
d="M517 347c0 -180 -96 -358 -299 -358c-116 0 -182 64 -182 181c0 193 119 352 295 352c115 0 186 -63 186 -175zM373 347c0 59 -22 76 -62 76c-90 0 -133 -188 -133 -266c0 -49 25 -71 63 -71c86 0 132 161 132 261zM506 668l-16 -78h-314l16 78h314z" />
    <glyph glyph-name="Ohungarumlaut" unicode="&#x150;" horiz-adv-x="694" 
d="M687 454c0 -175 -89 -365 -230 -432c-46 -22 -99 -33 -157 -33c-172 0 -238 104 -238 249c0 197 95 338 185 403c41 30 98 63 204 63c153 0 236 -95 236 -250zM530 483c0 68 -28 113 -104 113c-47 0 -93 -24 -121 -61c-55 -72 -92 -225 -92 -318c0 -89 38 -121 108 -121
c40 0 81 13 113 52c60 74 96 239 96 335zM575 906l-195 -189l-64 45l165 205zM817 884l-217 -164l-54 55l193 185z" />
    <glyph glyph-name="ohungarumlaut" unicode="&#x151;" horiz-adv-x="546" 
d="M517 347c0 -180 -96 -358 -299 -358c-116 0 -182 64 -182 181c0 193 119 352 295 352c115 0 186 -63 186 -175zM373 347c0 59 -22 76 -62 76c-90 0 -133 -188 -133 -266c0 -49 25 -71 63 -71c86 0 132 161 132 261zM427 771l-163 -217l-70 34l131 229zM650 753l-189 -196
l-62 46l162 213z" />
    <glyph glyph-name="OE" unicode="&#x152;" horiz-adv-x="834" 
d="M908 695l-43 -114h-237l-34 -161h198l-24 -114h-198l-39 -186h268l-26 -120h-408c-147 0 -204 6 -258 72c-33 41 -50 94 -50 160c0 127 46 262 135 354c54 57 122 87 190 100c27 5 65 9 129 9h397zM493 566c0 0 -36 10 -73 10c-49 0 -88 -19 -118 -58
c-48 -63 -79 -205 -79 -286c0 -73 27 -123 109 -123c33 0 66 10 66 10z" />
    <glyph glyph-name="oe" unicode="&#x153;" horiz-adv-x="815" 
d="M803 379c0 -44 -24 -83 -57 -114c-40 -38 -118 -58 -202 -58c-35 0 -61 7 -61 7s-5 -33 -5 -46c0 -58 30 -82 86 -82c46 0 94 20 142 54l34 -84c-69 -48 -136 -70 -208 -70c-69 0 -120 21 -152 62c-44 -36 -97 -59 -167 -59c-116 0 -182 70 -182 184
c0 193 119 349 295 349c63 0 111 -19 143 -55c48 38 98 56 160 56c96 0 174 -32 174 -144zM368 347c0 59 -22 76 -62 76c-90 0 -133 -188 -133 -266c0 -49 25 -71 63 -71c86 0 132 161 132 261zM668 372c0 31 -14 53 -54 53c-51 0 -89 -30 -109 -119c0 0 20 -5 38 -5
c58 0 125 20 125 71z" />
    <glyph glyph-name="Racute" unicode="&#x154;" horiz-adv-x="576" 
d="M603 543c0 -137 -94 -225 -200 -243c12 -8 23 -24 30 -35c33 -58 104 -265 104 -265h-165l-36 113c-41 128 -63 162 -86 173c-6 3 -12 4 -17 4l-62 -290h-141l148 695h259c105 0 166 -59 166 -152zM453 515c0 48 -31 68 -89 68h-69l-40 -188h43c60 0 87 6 110 24
c27 21 45 65 45 96zM537 820l-239 -103l-40 75l231 133z" />
    <glyph glyph-name="racute" unicode="&#x155;" horiz-adv-x="369" 
d="M429 513l-58 -118c-12 7 -24 10 -39 10c-26 0 -55 -15 -97 -70l-71 -335h-134l72 338c14 64 12 109 2 142l124 49c8 -17 16 -54 12 -83c45 46 93 78 143 78c19 0 28 -2 46 -11zM420 657l-239 -103l-40 75l231 133z" />
    <glyph glyph-name="Rcommaaccent" unicode="&#x156;" horiz-adv-x="576" 
d="M603 543c0 -137 -94 -225 -200 -243c12 -8 23 -24 30 -35c33 -58 104 -265 104 -265h-165l-36 113c-41 128 -63 162 -86 173c-6 3 -12 4 -17 4l-62 -290h-141l148 695h259c105 0 166 -59 166 -152zM453 515c0 48 -31 68 -89 68h-69l-40 -188h43c60 0 87 6 110 24
c27 21 45 65 45 96zM338 -124c0 -45 -26 -85 -66 -116c-29 -22 -64 -38 -98 -48l-31 47c26 8 66 28 70 55c-9 16 -37 20 -37 65c0 40 30 77 86 77c47 0 76 -37 76 -80z" />
    <glyph glyph-name="rcommaaccent" unicode="&#x157;" horiz-adv-x="369" 
d="M429 513l-58 -118c-12 7 -24 10 -39 10c-26 0 -55 -15 -97 -70l-71 -335h-134l72 338c14 64 12 109 2 142l124 49c8 -17 16 -54 12 -83c45 46 93 78 143 78c19 0 28 -2 46 -11zM168 -124c0 -45 -26 -85 -66 -116c-29 -22 -64 -38 -98 -48l-31 47c26 8 66 28 70 55
c-9 16 -37 20 -37 65c0 40 30 77 86 77c47 0 76 -37 76 -80z" />
    <glyph glyph-name="Rcaron" unicode="&#x158;" horiz-adv-x="576" 
d="M603 543c0 -137 -94 -225 -200 -243c12 -8 23 -24 30 -35c33 -58 104 -265 104 -265h-165l-36 113c-41 128 -63 162 -86 173c-6 3 -12 4 -17 4l-62 -290h-141l148 695h259c105 0 166 -59 166 -152zM453 515c0 48 -31 68 -89 68h-69l-40 -188h43c60 0 87 6 110 24
c27 21 45 65 45 96zM582 852l-208 -135l-156 135l55 73l123 -76l152 76z" />
    <glyph glyph-name="rcaron" unicode="&#x159;" horiz-adv-x="369" 
d="M429 513l-58 -118c-12 7 -24 10 -39 10c-26 0 -55 -15 -97 -70l-71 -335h-134l72 338c14 64 12 109 2 142l124 49c8 -17 16 -54 12 -83c45 46 93 78 143 78c19 0 28 -2 46 -11zM473 689l-208 -135l-156 135l55 73l123 -76l152 76z" />
    <glyph glyph-name="Sacute" unicode="&#x15a;" horiz-adv-x="612" 
d="M639 646l-84 -96c-45 34 -94 49 -154 49c-63 0 -116 -40 -116 -88c0 -28 18 -50 64 -67l80 -30c89 -33 137 -85 137 -164c0 -151 -129 -265 -337 -265c-98 0 -171 26 -229 63l74 107c58 -34 110 -54 180 -54c88 0 145 46 145 115c0 35 -24 57 -74 75l-73 27
c-78 29 -127 73 -127 154c0 140 132 244 297 244c85 0 166 -26 217 -70zM571 820l-239 -103l-40 75l231 133z" />
    <glyph glyph-name="sacute" unicode="&#x15b;" horiz-adv-x="484" 
d="M474 480l-53 -90c-45 26 -87 35 -125 35c-44 0 -76 -16 -76 -53c0 -23 17 -38 54 -51l58 -21c51 -18 102 -58 102 -124c0 -102 -80 -192 -247 -192c-75 0 -141 23 -199 57l54 98c40 -28 107 -53 165 -53c44 0 79 30 79 64c0 26 -22 37 -65 52l-57 20
c-53 19 -94 59 -94 129c0 88 67 175 235 175c67 0 127 -20 169 -46zM467 657l-239 -103l-40 75l231 133z" />
    <glyph glyph-name="Scircumflex" unicode="&#x15c;" horiz-adv-x="612" 
d="M639 646l-84 -96c-45 34 -94 49 -154 49c-63 0 -116 -40 -116 -88c0 -28 18 -50 64 -67l80 -30c89 -33 137 -85 137 -164c0 -151 -129 -265 -337 -265c-98 0 -171 26 -229 63l74 107c58 -34 110 -54 180 -54c88 0 145 46 145 115c0 35 -24 57 -74 75l-73 27
c-78 29 -127 73 -127 154c0 140 132 244 297 244c85 0 166 -26 217 -70zM609 788l-54 -73l-123 78l-151 -78l-36 73l209 135z" />
    <glyph glyph-name="scircumflex" unicode="&#x15d;" horiz-adv-x="484" 
d="M474 480l-53 -90c-45 26 -87 35 -125 35c-44 0 -76 -16 -76 -53c0 -23 17 -38 54 -51l58 -21c51 -18 102 -58 102 -124c0 -102 -80 -192 -247 -192c-75 0 -141 23 -199 57l54 98c40 -28 107 -53 165 -53c44 0 79 30 79 64c0 26 -22 37 -65 52l-57 20
c-53 19 -94 59 -94 129c0 88 67 175 235 175c67 0 127 -20 169 -46zM493 625l-54 -73l-123 78l-151 -78l-36 73l209 135z" />
    <glyph glyph-name="Scedilla" unicode="&#x15e;" horiz-adv-x="612" 
d="M634 646l-84 -96c-45 34 -94 49 -154 49c-63 0 -116 -40 -116 -88c0 -28 18 -50 64 -67l80 -30c89 -33 137 -85 137 -164c0 -141 -112 -249 -295 -263l-11 -19c41 -4 56 -31 56 -61c0 -56 -48 -106 -128 -106c-30 0 -65 13 -82 24l41 62c15 -7 29 -14 51 -14
c16 0 31 8 31 22c0 9 -6 16 -23 16c-11 0 -19 -4 -28 -6l-9 20l30 61c-83 5 -147 29 -199 62l74 107c58 -34 110 -54 180 -54c88 0 145 46 145 115c0 35 -24 57 -74 75l-73 27c-78 29 -127 73 -127 154c0 140 132 244 297 244c85 0 166 -26 217 -70z" />
    <glyph glyph-name="scedilla" unicode="&#x15f;" horiz-adv-x="484" 
d="M469 480l-53 -90c-45 26 -87 35 -125 35c-44 0 -76 -16 -76 -53c0 -23 17 -38 54 -51l58 -21c51 -18 102 -58 102 -124c0 -98 -75 -186 -229 -192l-9 -16c41 -4 56 -31 56 -61c0 -56 -48 -106 -128 -106c-30 0 -65 13 -82 24l41 62c15 -7 29 -14 51 -14c16 0 31 8 31 22
c0 9 -6 16 -23 16c-11 0 -19 -4 -28 -6l-9 20l31 63c-54 8 -104 27 -148 53l54 98c40 -28 107 -53 165 -53c44 0 79 30 79 64c0 26 -22 37 -65 52l-57 20c-53 19 -94 59 -94 129c0 88 67 175 235 175c67 0 127 -20 169 -46z" />
    <glyph glyph-name="Scaron" unicode="&#x160;" horiz-adv-x="612" 
d="M639 646l-84 -96c-45 34 -94 49 -154 49c-63 0 -116 -40 -116 -88c0 -28 18 -50 64 -67l80 -30c89 -33 137 -85 137 -164c0 -151 -129 -265 -337 -265c-98 0 -171 26 -229 63l74 107c58 -34 110 -54 180 -54c88 0 145 46 145 115c0 35 -24 57 -74 75l-73 27
c-78 29 -127 73 -127 154c0 140 132 244 297 244c85 0 166 -26 217 -70zM621 869l-208 -135l-156 135l55 73l123 -76l152 76z" />
    <glyph glyph-name="scaron" unicode="&#x161;" horiz-adv-x="484" 
d="M474 480l-53 -90c-45 26 -87 35 -125 35c-44 0 -76 -16 -76 -53c0 -23 17 -38 54 -51l58 -21c51 -18 102 -58 102 -124c0 -102 -80 -192 -247 -192c-75 0 -141 23 -199 57l54 98c40 -28 107 -53 165 -53c44 0 79 30 79 64c0 26 -22 37 -65 52l-57 20
c-53 19 -94 59 -94 129c0 88 67 175 235 175c67 0 127 -20 169 -46zM504 689l-208 -135l-156 135l55 73l123 -76l152 76z" />
    <glyph glyph-name="Tcommaaccent" unicode="&#x162;" horiz-adv-x="501" 
d="M617 695l-48 -116h-164l-123 -579h-144l123 579h-170l25 116h501zM282 -124c0 -45 -26 -85 -66 -116c-29 -22 -64 -38 -98 -48l-31 47c26 8 66 28 70 55c-9 16 -37 20 -37 65c0 40 30 77 86 77c47 0 76 -37 76 -80z" />
    <glyph glyph-name="tcommaaccent" unicode="&#x163;" horiz-adv-x="316" 
d="M388 512l-48 -92h-89l-54 -257c-4 -17 -5 -33 -5 -45c0 -28 15 -37 45 -37c12 0 35 4 50 10v-81c-39 -15 -79 -22 -114 -22c-77 0 -121 38 -121 88c0 18 2 42 7 66l59 278h-51l20 92h51c10 50 17 83 31 121l141 34c-15 -47 -30 -103 -41 -155h119zM216 -124
c0 -45 -26 -85 -66 -116c-29 -22 -64 -38 -98 -48l-31 47c26 8 66 28 70 55c-9 16 -37 20 -37 65c0 40 30 77 86 77c47 0 76 -37 76 -80z" />
    <glyph glyph-name="Tcaron" unicode="&#x164;" horiz-adv-x="501" 
d="M617 695l-48 -116h-164l-123 -579h-144l123 579h-170l25 116h501zM559 852l-208 -135l-156 135l55 73l123 -76l152 76z" />
    <glyph glyph-name="tcaron" unicode="&#x165;" horiz-adv-x="316" 
d="M388 512l-48 -92h-89l-54 -257c-4 -17 -5 -33 -5 -45c0 -28 15 -37 45 -37c12 0 35 4 50 10v-81c-39 -15 -79 -22 -114 -22c-77 0 -121 38 -121 88c0 18 2 42 7 66l59 278h-51l20 92h51c10 50 17 83 31 121l141 34c-15 -47 -30 -103 -41 -155h119zM523 705
c0 -45 -26 -85 -66 -116c-29 -22 -64 -38 -98 -48l-31 47c26 8 66 28 70 55c-9 16 -37 20 -37 65c0 40 30 77 86 77c47 0 76 -37 76 -80z" />
    <glyph glyph-name="Umacron" unicode="&#x16a;" horiz-adv-x="644" 
d="M675 695l-100 -468c-19 -89 -35 -136 -89 -177c-27 -20 -79 -63 -209 -63c-135 0 -213 60 -213 150c0 23 3 50 8 74l103 484h143l-97 -457c-6 -26 -8 -47 -8 -63c0 -50 41 -68 87 -68c64 0 107 35 123 84c5 14 7 22 15 59l95 445h142zM606 826l-16 -78h-314l16 78h314z
" />
    <glyph glyph-name="umacron" unicode="&#x16b;" horiz-adv-x="547" 
d="M535 524l-83 -391c-7 -34 -4 -80 11 -104l-116 -46c-12 18 -22 44 -24 68c-38 -35 -88 -64 -148 -64c-79 0 -125 40 -125 104c0 19 2 44 10 81l69 328l138 25l-70 -329c-6 -27 -10 -55 -10 -69c0 -22 16 -39 32 -39c41 0 90 44 110 76l71 333zM520 668l-16 -78h-314
l16 78h314z" />
    <glyph glyph-name="Ubreve" unicode="&#x16c;" horiz-adv-x="644" 
d="M675 695l-100 -468c-19 -89 -35 -136 -89 -177c-27 -20 -79 -63 -209 -63c-135 0 -213 60 -213 150c0 23 3 50 8 74l103 484h143l-97 -457c-6 -26 -8 -47 -8 -63c0 -50 41 -68 87 -68c64 0 107 35 123 84c5 14 7 22 15 59l95 445h142zM631 827
c-19 -21 -131 -129 -217 -129c-87 0 -154 108 -165 129l52 49c16 -19 69 -73 140 -73c60 0 146 58 167 73z" />
    <glyph glyph-name="ubreve" unicode="&#x16d;" horiz-adv-x="547" 
d="M535 524l-83 -391c-7 -34 -4 -80 11 -104l-116 -46c-12 18 -22 44 -24 68c-38 -35 -88 -64 -148 -64c-79 0 -125 40 -125 104c0 19 2 44 10 81l69 328l138 25l-70 -329c-6 -27 -10 -55 -10 -69c0 -22 16 -39 32 -39c41 0 90 44 110 76l71 333zM556 684
c-19 -21 -131 -129 -217 -129c-87 0 -154 108 -165 129l52 49c16 -19 69 -73 140 -73c60 0 146 58 167 73z" />
    <glyph glyph-name="Uring" unicode="&#x16e;" horiz-adv-x="644" 
d="M675 695l-100 -468c-19 -89 -35 -136 -89 -177c-27 -20 -79 -63 -209 -63c-135 0 -213 60 -213 150c0 23 3 50 8 74l103 484h143l-97 -457c-6 -26 -8 -47 -8 -63c0 -50 41 -68 87 -68c64 0 107 35 123 84c5 14 7 22 15 59l95 445h142zM539 819c0 -58 -48 -106 -106 -106
c-57 0 -104 48 -104 106s49 106 106 106s104 -48 104 -106zM476 819c0 24 -18 43 -41 43c-25 0 -44 -19 -44 -43s19 -43 42 -43c24 0 43 19 43 43z" />
    <glyph glyph-name="uring" unicode="&#x16f;" horiz-adv-x="547" 
d="M535 524l-83 -391c-7 -34 -4 -80 11 -104l-116 -46c-12 18 -22 44 -24 68c-38 -35 -88 -64 -148 -64c-79 0 -125 40 -125 104c0 19 2 44 10 81l69 328l138 25l-70 -329c-6 -27 -10 -55 -10 -69c0 -22 16 -39 32 -39c41 0 90 44 110 76l71 333zM462 659
c0 -58 -48 -106 -106 -106c-57 0 -104 48 -104 106s49 106 106 106s104 -48 104 -106zM399 659c0 24 -18 43 -41 43c-25 0 -44 -19 -44 -43s19 -43 42 -43c24 0 43 19 43 43z" />
    <glyph glyph-name="Uhungarumlaut" unicode="&#x170;" horiz-adv-x="644" 
d="M675 695l-100 -468c-19 -89 -35 -136 -89 -177c-27 -20 -79 -63 -209 -63c-135 0 -213 60 -213 150c0 23 3 50 8 74l103 484h143l-97 -457c-6 -26 -8 -47 -8 -63c0 -50 41 -68 87 -68c64 0 107 35 123 84c5 14 7 22 15 59l95 445h142zM535 906l-195 -189l-64 45l165 205z
M777 884l-217 -164l-54 55l193 185z" />
    <glyph glyph-name="uhungarumlaut" unicode="&#x171;" horiz-adv-x="547" 
d="M535 524l-83 -391c-7 -34 -4 -80 11 -104l-116 -46c-12 18 -22 44 -24 68c-38 -35 -88 -64 -148 -64c-79 0 -125 40 -125 104c0 19 2 44 10 81l69 328l138 25l-70 -329c-6 -27 -10 -55 -10 -69c0 -22 16 -39 32 -39c41 0 90 44 110 76l71 333zM440 771l-163 -217l-70 34
l131 229zM663 753l-189 -196l-62 46l162 213z" />
    <glyph glyph-name="Uogonek" unicode="&#x172;" horiz-adv-x="644" 
d="M670 695l-100 -468c-19 -89 -35 -136 -89 -177c-42 -32 -63 -41 -115 -54c-38 -10 -87 -49 -87 -92c0 -14 7 -25 26 -25c18 0 34 5 56 15l14 -67c-37 -15 -73 -27 -118 -27c-57 0 -88 31 -84 78c3 43 31 81 63 110c-113 10 -177 67 -177 149c0 23 3 50 8 74l103 484h143
l-97 -457c-6 -26 -8 -47 -8 -63c0 -50 41 -68 87 -68c64 0 107 35 123 84c5 14 7 22 15 59l95 445h142z" />
    <glyph glyph-name="uogonek" unicode="&#x173;" horiz-adv-x="547" 
d="M530 524l-83 -391c-2 -12 -4 -24 -4 -37c0 -23 5 -46 13 -61c-25 -12 -123 -75 -123 -131c0 -14 7 -25 26 -25c18 0 34 5 56 15l14 -67c-37 -15 -73 -27 -118 -27c-53 0 -85 26 -85 69c0 55 43 107 100 146c-4 12 -7 24 -8 36c-38 -35 -88 -64 -148 -64
c-79 0 -125 40 -125 104c0 19 2 44 10 81l69 328l138 25l-70 -329c-6 -27 -10 -55 -10 -69c0 -22 16 -39 32 -39c41 0 90 44 110 76l71 333z" />
    <glyph glyph-name="Ydieresis" unicode="&#x178;" horiz-adv-x="554" 
d="M670 695l-309 -409l-61 -286h-146l61 286l-129 409h162l48 -190c10 -38 14 -63 16 -89l56 87l131 192h171zM349 800c0 -42 -35 -77 -77 -77c-41 0 -76 35 -76 77s36 77 78 77c41 0 75 -35 75 -77zM560 800c0 -42 -35 -77 -77 -77c-41 0 -76 35 -76 77s36 77 78 77
c41 0 75 -35 75 -77z" />
    <glyph glyph-name="Zacute" unicode="&#x179;" horiz-adv-x="540" 
d="M603 695l-22 -101l-346 -435c-20 -25 -43 -45 -43 -45s38 2 66 2h228l-48 -116h-444l21 98l342 423c26 32 54 61 54 61s-28 -3 -70 -3h-207l45 116h424zM544 820l-239 -103l-40 75l231 133z" />
    <glyph glyph-name="zacute" unicode="&#x17a;" horiz-adv-x="426" 
d="M458 512l-12 -92l-295 -327h226l-42 -93h-377l8 83l313 335h-214l14 94h379zM423 657l-239 -103l-40 75l231 133z" />
    <glyph glyph-name="Zdotaccent" unicode="&#x17b;" horiz-adv-x="540" 
d="M603 695l-22 -101l-346 -435c-20 -25 -43 -45 -43 -45s38 2 66 2h228l-48 -116h-444l21 98l342 423c26 32 54 61 54 61s-28 -3 -70 -3h-207l45 116h424zM477 806c0 -46 -37 -83 -83 -83c-45 0 -82 37 -82 83s38 83 84 83c45 0 81 -37 81 -83z" />
    <glyph glyph-name="zdotaccent" unicode="&#x17c;" horiz-adv-x="426" 
d="M458 512l-12 -92l-295 -327h226l-42 -93h-377l8 83l313 335h-214l14 94h379zM358 641c0 -46 -37 -83 -83 -83c-45 0 -82 37 -82 83s38 83 84 83c45 0 81 -37 81 -83z" />
    <glyph glyph-name="Zcaron" unicode="&#x17d;" horiz-adv-x="540" 
d="M603 695l-22 -101l-346 -435c-20 -25 -43 -45 -43 -45s38 2 66 2h228l-48 -116h-444l21 98l342 423c26 32 54 61 54 61s-28 -3 -70 -3h-207l45 116h424zM599 869l-208 -135l-156 135l55 73l123 -76l152 76z" />
    <glyph glyph-name="zcaron" unicode="&#x17e;" horiz-adv-x="426" 
d="M458 512l-12 -92l-295 -327h226l-42 -93h-377l8 83l313 335h-214l14 94h379zM476 689l-208 -135l-156 135l55 73l123 -76l152 76z" />
    <glyph glyph-name="longs" unicode="&#x17f;" horiz-adv-x="600" 
d="M388 742c51 0 100 -13 134 -32l-80 -88c-20 11 -38 16 -63 16c-53 0 -79 -22 -102 -128l-109 -510c-20 -95 -79 -178 -131 -224l-82 74c28 28 66 95 78 150l89 420h-77l19 92h77l7 33c28 132 102 197 240 197z" />
    <glyph glyph-name="florin" unicode="&#x192;" horiz-adv-x="405" 
d="M498 709l-55 -81c-17 11 -35 15 -51 15c-31 0 -60 -21 -70 -58l-20 -73h118l-52 -94h-86l-105 -384c-46 -167 -82 -198 -197 -253l-45 89c69 35 94 67 114 140l111 408h-48l20 94h52c5 22 18 70 18 70c27 103 85 159 195 159c40 0 79 -16 101 -32z" />
    <glyph glyph-name="Scommaaccent" unicode="&#x218;" horiz-adv-x="612" 
d="M639 646l-84 -96c-45 34 -94 49 -154 49c-63 0 -116 -40 -116 -88c0 -28 18 -50 64 -67l80 -30c89 -33 137 -85 137 -164c0 -151 -129 -265 -337 -265c-98 0 -171 26 -229 63l74 107c58 -34 110 -54 180 -54c88 0 145 46 145 115c0 35 -24 57 -74 75l-73 27
c-78 29 -127 73 -127 154c0 140 132 244 297 244c85 0 166 -26 217 -70zM317 -124c0 -45 -26 -85 -66 -116c-29 -22 -64 -38 -98 -48l-31 47c26 8 66 28 70 55c-9 16 -37 20 -37 65c0 40 30 77 86 77c47 0 76 -37 76 -80z" />
    <glyph glyph-name="scommaaccent" unicode="&#x219;" horiz-adv-x="484" 
d="M474 480l-53 -90c-45 26 -87 35 -125 35c-44 0 -76 -16 -76 -53c0 -23 17 -38 54 -51l58 -21c51 -18 102 -58 102 -124c0 -102 -80 -192 -247 -192c-75 0 -141 23 -199 57l54 98c40 -28 107 -53 165 -53c44 0 79 30 79 64c0 26 -22 37 -65 52l-57 20
c-53 19 -94 59 -94 129c0 88 67 175 235 175c67 0 127 -20 169 -46zM261 -124c0 -45 -26 -85 -66 -116c-29 -22 -64 -38 -98 -48l-31 47c26 8 66 28 70 55c-9 16 -37 20 -37 65c0 40 30 77 86 77c47 0 76 -37 76 -80z" />
    <glyph glyph-name="uni021A" unicode="&#x21a;" horiz-adv-x="501" 
d="M617 695l-48 -116h-164l-123 -579h-144l123 579h-170l25 116h501zM282 -124c0 -45 -26 -85 -66 -116c-29 -22 -64 -38 -98 -48l-31 47c26 8 66 28 70 55c-9 16 -37 20 -37 65c0 40 30 77 86 77c47 0 76 -37 76 -80z" />
    <glyph glyph-name="uni021B" unicode="&#x21b;" horiz-adv-x="316" 
d="M388 512l-48 -92h-89l-54 -257c-4 -17 -5 -33 -5 -45c0 -28 15 -37 45 -37c12 0 35 4 50 10v-81c-39 -15 -79 -22 -114 -22c-77 0 -121 38 -121 88c0 18 2 42 7 66l59 278h-51l20 92h51c10 50 17 83 31 121l141 34c-15 -47 -30 -103 -41 -155h119zM216 -124
c0 -45 -26 -85 -66 -116c-29 -22 -64 -38 -98 -48l-31 47c26 8 66 28 70 55c-9 16 -37 20 -37 65c0 40 30 77 86 77c47 0 76 -37 76 -80z" />
    <glyph glyph-name="dotlessj" unicode="&#x237;" horiz-adv-x="268" 
d="M260 524l-108 -510c-21 -97 -49 -136 -72 -159c-30 -31 -70 -56 -120 -75l-42 78c23 9 49 36 63 54c17 22 27 50 37 98l105 493z" />
    <glyph glyph-name="circumflex" unicode="&#x2c6;" horiz-adv-x="374" 
d="M448 625l-54 -73l-123 78l-151 -78l-36 73l209 135z" />
    <glyph glyph-name="caron" unicode="&#x2c7;" horiz-adv-x="374" 
d="M467 689l-208 -135l-156 135l55 73l123 -76l152 76z" />
    <glyph glyph-name="breve" unicode="&#x2d8;" horiz-adv-x="350" 
d="M442 693c-17 -19 -117 -115 -194 -115c-78 0 -137 96 -147 115l46 44c14 -17 62 -65 125 -65c54 0 130 52 149 65z" />
    <glyph glyph-name="dotaccent" unicode="&#x2d9;" horiz-adv-x="177" 
d="M260 653c0 -46 -37 -83 -83 -83c-45 0 -82 37 -82 83s38 83 84 83c45 0 81 -37 81 -83z" />
    <glyph glyph-name="ring" unicode="&#x2da;" horiz-adv-x="224" 
d="M307 659c0 -58 -48 -106 -106 -106c-57 0 -104 48 -104 106s49 106 106 106s104 -48 104 -106zM244 659c0 24 -18 43 -41 43c-25 0 -44 -19 -44 -43s19 -43 42 -43c24 0 43 19 43 43z" />
    <glyph glyph-name="ogonek" unicode="&#x2db;" horiz-adv-x="227" 
d="M124 -175c-23 -11 -62 -24 -92 -24c-61 0 -93 30 -93 70c0 6 1 12 2 18c15 72 84 125 103 137l62 -40c-29 -23 -65 -51 -72 -87l-1 -6c0 -11 7 -20 19 -20c22 0 38 8 55 15z" />
    <glyph glyph-name="tilde" unicode="&#x2dc;" horiz-adv-x="374" 
d="M459 645c-42 -41 -79 -67 -138 -67c-53 0 -70 40 -122 40c-32 0 -50 -15 -75 -37l-33 75c42 41 78 66 130 66c55 0 72 -40 130 -40c32 0 49 13 75 35z" />
    <glyph glyph-name="hungarumlaut" unicode="&#x2dd;" horiz-adv-x="433" 
d="M302 741l-163 -217l-70 34l131 229zM525 723l-189 -196l-62 46l162 213z" />
    <glyph glyph-name="uni037E" unicode="&#x37e;" horiz-adv-x="325" 
d="M212 48c0 -94 -97 -174 -181 -195l-38 57c44 16 82 37 82 58c0 11 -5 22 -14 27c-20 12 -34 39 -34 72c0 51 41 89 89 89c58 0 96 -38 96 -108zM272 368c0 -48 -39 -86 -87 -86s-87 38 -87 86s39 87 87 87s87 -39 87 -87z" />
    <glyph glyph-name="tonos" unicode="&#x384;" horiz-adv-x="328" 
d="M323 699l-167 -145l-56 55l135 169z" />
    <glyph glyph-name="dieresistonos" unicode="&#x385;" horiz-adv-x="536" 
d="M512 773l-167 -145l-56 55l135 169zM572 635c0 -42 -35 -77 -77 -77s-76 35 -76 77s35 77 78 77c41 0 75 -35 75 -77zM281 635c0 -42 -35 -77 -77 -77c-41 0 -76 35 -76 77s36 77 78 77c41 0 75 -35 75 -77z" />
    <glyph glyph-name="Alphatonos" unicode="&#x386;" horiz-adv-x="588" 
d="M543 0h-145l-14 165h-204l-84 -165h-151l376 697h151zM119 642l-167 -145l-56 55l135 169zM375 281l-10 145c-4 59 -3 118 -3 118s-37 -84 -61 -134l-62 -129h136z" />
    <glyph glyph-name="anoteleia" unicode="&#x387;" horiz-adv-x="311" 
d="M253 273c0 -48 -40 -88 -90 -88c-49 0 -88 40 -88 89s40 90 90 90c49 0 88 -41 88 -91z" />
    <glyph glyph-name="Epsilontonos" unicode="&#x388;" horiz-adv-x="495" 
d="M569 695l-43 -114h-236l-34 -161h197l-24 -114h-196l-39 -186h262l-26 -120h-405l148 695h396zM79 642l-167 -145l-56 55l135 169z" />
    <glyph glyph-name="Etatonos" unicode="&#x389;" horiz-adv-x="633" 
d="M654 695l-148 -695h-142l66 310h-200l-66 -310h-139l148 695h139l-58 -270h200l58 270h142zM79 642l-167 -145l-56 55l135 169z" />
    <glyph glyph-name="Iotatonos" unicode="&#x38a;" horiz-adv-x="297" 
d="M318 695l-148 -695h-145l148 695h145zM79 642l-167 -145l-56 55l135 169z" />
    <glyph glyph-name="Omicrontonos" unicode="&#x38c;" horiz-adv-x="694" 
d="M682 454c0 -175 -89 -365 -230 -432c-46 -22 -99 -33 -157 -33c-172 0 -238 104 -238 249c0 197 95 338 185 403c41 30 98 63 204 63c153 0 236 -95 236 -250zM525 483c0 68 -28 113 -104 113c-47 0 -93 -24 -121 -61c-55 -72 -92 -225 -92 -318c0 -89 38 -121 108 -121
c40 0 81 13 113 52c60 74 96 239 96 335zM109 642l-167 -145l-56 55l135 169z" />
    <glyph glyph-name="Upsilontonos" unicode="&#x38e;" horiz-adv-x="554" 
d="M665 695l-309 -409l-61 -286h-146l61 286l-129 409h162l48 -190c10 -38 14 -63 16 -89l56 87l131 192h171zM59 642l-167 -145l-56 55l135 169z" />
    <glyph glyph-name="Omegatonos" unicode="&#x38f;" horiz-adv-x="714" 
d="M694 470c0 -139 -75 -276 -189 -356h117l-47 -114h-251l20 99c107 84 193 227 193 366c0 70 -24 131 -114 131c-139 0 -211 -170 -211 -289c0 -74 30 -153 75 -207l-41 -100h-234l24 114h97c-42 42 -73 112 -73 190c0 208 175 400 384 400c153 0 250 -80 250 -234z
M109 642l-167 -145l-56 55l135 169z" />
    <glyph glyph-name="iotadieresistonos" unicode="&#x390;" horiz-adv-x="280" 
d="M240 433c0 -30 -3 -60 -8 -83l-30 -142c-13 -60 -17 -85 -17 -99c0 -19 8 -29 26 -29c5 0 10 0 15 2l6 -80c-24 -9 -52 -14 -81 -14c-72 0 -105 39 -105 92c0 18 7 56 15 93l37 172c6 27 9 52 9 74c0 23 -3 43 -9 61l124 49c13 -24 18 -60 18 -96zM372 773l-167 -145
l-56 55l135 169zM432 635c0 -42 -35 -77 -77 -77s-76 35 -76 77s35 77 78 77c41 0 75 -35 75 -77zM141 635c0 -42 -35 -77 -77 -77c-41 0 -76 35 -76 77s36 77 78 77c41 0 75 -35 75 -77z" />
    <glyph glyph-name="Alpha" unicode="&#x391;" horiz-adv-x="588" 
d="M543 0h-145l-14 165h-204l-84 -165h-151l376 697h151zM375 281l-10 145c-4 59 -3 118 -3 118s-37 -84 -61 -134l-62 -129h136z" />
    <glyph glyph-name="Beta" unicode="&#x392;" horiz-adv-x="598" 
d="M601 545c0 -68 -43 -146 -146 -176c64 -14 104 -70 104 -135c0 -44 -18 -112 -65 -160c-51 -52 -109 -74 -217 -74h-252l148 695h247c105 0 181 -50 181 -150zM405 237c0 49 -27 65 -89 65h-87l-40 -188h91c29 0 54 8 72 20c31 21 53 64 53 103zM450 515
c0 43 -19 61 -77 61h-87l-33 -159h82c38 0 56 8 73 20c22 16 42 44 42 78z" />
    <glyph glyph-name="Gamma" unicode="&#x393;" horiz-adv-x="432" 
d="M552 695l-43 -115h-216l-123 -580h-145l148 695h379z" />
    <glyph glyph-name="uni0394" unicode="&#x394;" horiz-adv-x="589" 
d="M544 105l-23 -105h-528v106l341 591h124zM400 116l-35 254c-4 22 -12 115 -10 140c-8 -25 -57 -116 -70 -140l-139 -254h254z" />
    <glyph glyph-name="Epsilon" unicode="&#x395;" horiz-adv-x="495" 
d="M569 695l-43 -114h-236l-34 -161h197l-24 -114h-196l-39 -186h262l-26 -120h-405l148 695h396z" />
    <glyph glyph-name="Zeta" unicode="&#x396;" horiz-adv-x="540" 
d="M598 695l-22 -101l-346 -435c-20 -25 -43 -45 -43 -45s38 2 66 2h228l-48 -116h-444l21 98l342 423c26 32 54 61 54 61s-28 -3 -70 -3h-207l45 116h424z" />
    <glyph glyph-name="Eta" unicode="&#x397;" horiz-adv-x="633" 
d="M654 695l-148 -695h-142l66 310h-200l-66 -310h-139l148 695h139l-58 -270h200l58 270h142z" />
    <glyph glyph-name="Theta" unicode="&#x398;" horiz-adv-x="694" 
d="M692 454c0 -175 -97 -365 -238 -432c-46 -22 -101 -33 -159 -33c-172 0 -248 104 -248 249c0 197 103 338 193 403c41 30 100 63 206 63c153 0 246 -95 246 -250zM505 306h-297c-6 -32 -10 -63 -10 -89c0 -89 48 -121 118 -121c40 0 83 13 115 52c30 37 56 96 74 158z
M535 483c0 68 -38 113 -114 113c-47 0 -95 -24 -123 -61c-22 -29 -43 -71 -59 -117h291c3 24 5 46 5 65z" />
    <glyph glyph-name="Iota" unicode="&#x399;" horiz-adv-x="297" 
d="M318 695l-148 -695h-145l148 695h145z" />
    <glyph glyph-name="Kappa" unicode="&#x39a;" horiz-adv-x="600" 
d="M686 695l-294 -327l168 -368h-178l-137 363l-77 -363h-143l148 695h143l-68 -317l263 317h175z" />
    <glyph glyph-name="Lambda" unicode="&#x39b;" horiz-adv-x="567" 
d="M507 0h-147l-20 281c-6 83 -10 167 -8 251c-35 -84 -68 -168 -109 -251l-140 -281h-148l363 697h151z" />
    <glyph glyph-name="Mu" unicode="&#x39c;" horiz-adv-x="827" 
d="M809 695l-86 -695h-135l53 371c6 44 12 79 20 116c-17 -40 -28 -65 -49 -107l-191 -380h-119l-21 365c-2 34 -4 83 -2 123c-9 -41 -20 -82 -32 -125l-101 -363h-141l213 695h177l17 -348c2 -50 2 -74 0 -110c14 36 29 72 49 113l168 345h180z" />
    <glyph glyph-name="Nu" unicode="&#x39d;" horiz-adv-x="635" 
d="M656 695l-148 -695h-144l-62 266c-20 87 -44 187 -48 230c-7 -57 -23 -141 -35 -199l-59 -297h-135l148 695h153l74 -278c20 -74 32 -150 36 -200c6 54 19 147 29 194l58 284h133z" />
    <glyph glyph-name="Xi" unicode="&#x39e;" horiz-adv-x="534" 
d="M487 0h-462l33 130h429v-130zM594 695l-32 -124h-421v124h453zM525 426l-31 -124h-392l32 124h391z" />
    <glyph glyph-name="Omicron" unicode="&#x39f;" horiz-adv-x="694" 
d="M682 454c0 -175 -89 -365 -230 -432c-46 -22 -99 -33 -157 -33c-172 0 -238 104 -238 249c0 197 95 338 185 403c41 30 98 63 204 63c153 0 236 -95 236 -250zM525 483c0 68 -28 113 -104 113c-47 0 -93 -24 -121 -61c-55 -72 -92 -225 -92 -318c0 -89 38 -121 108 -121
c40 0 81 13 113 52c60 74 96 239 96 335z" />
    <glyph glyph-name="Pi" unicode="&#x3a0;" horiz-adv-x="627" 
d="M648 695l-148 -695h-142l123 580h-194l-123 -580h-139l148 695h475z" />
    <glyph glyph-name="Rho" unicode="&#x3a1;" horiz-adv-x="571" 
d="M606 536c0 -120 -57 -208 -161 -256c-35 -16 -94 -24 -149 -24h-74l-54 -256h-143l148 695h183c94 0 146 -10 180 -32c44 -27 70 -73 70 -127zM455 509c0 46 -25 73 -77 73h-86l-45 -212h70c54 0 84 12 102 34c21 25 36 65 36 105z" />
    <glyph glyph-name="Sigma" unicode="&#x3a3;" horiz-adv-x="524" 
d="M594 695l-49 -116h-164c-42 0 -80 5 -80 5s23 -32 40 -63l80 -151l-180 -211c-21 -24 -47 -47 -47 -47s42 4 70 4h216l-48 -116h-433l19 91l245 277l-124 229l40 98h415z" />
    <glyph glyph-name="Tau" unicode="&#x3a4;" horiz-adv-x="501" 
d="M612 695l-48 -116h-164l-123 -579h-144l123 579h-170l25 116h501z" />
    <glyph glyph-name="Upsilon" unicode="&#x3a5;" horiz-adv-x="554" 
d="M665 695l-309 -409l-61 -286h-146l61 286l-129 409h162l48 -190c10 -38 14 -63 16 -89l56 87l131 192h171z" />
    <glyph glyph-name="Phi" unicode="&#x3a6;" horiz-adv-x="813" 
d="M801 406c0 -203 -177 -316 -366 -334l-15 -72h-141l15 72c-184 17 -244 120 -244 222c0 202 172 319 363 334l14 67h141l-14 -66c186 -14 247 -120 247 -223zM389 516c-116 -19 -188 -105 -188 -217c0 -49 25 -101 117 -117zM644 404c0 47 -24 96 -114 112l-71 -334
c121 19 185 107 185 222z" />
    <glyph glyph-name="Chi" unicode="&#x3a7;" horiz-adv-x="538" 
d="M634 695l-250 -329l134 -366h-164l-74 240l-171 -240h-180l300 375l-122 320h163l61 -194l136 194h167z" />
    <glyph glyph-name="Psi" unicode="&#x3a8;" horiz-adv-x="748" 
d="M803 695l-56 -264c-30 -141 -103 -274 -323 -274l-34 -157h-138l34 157c-165 0 -216 107 -216 207c0 23 5 47 9 67l56 264h136l-56 -265c-6 -26 -13 -52 -13 -76c0 -44 23 -80 106 -92l92 433h138l-92 -433c136 21 154 118 165 168l56 265h136z" />
    <glyph glyph-name="uni03A9" unicode="&#x3a9;" horiz-adv-x="714" 
d="M694 470c0 -139 -75 -276 -189 -356h117l-47 -114h-251l20 99c107 84 193 227 193 366c0 70 -24 131 -114 131c-139 0 -211 -170 -211 -289c0 -74 30 -153 75 -207l-41 -100h-234l24 114h97c-42 42 -73 112 -73 190c0 208 175 400 384 400c153 0 250 -80 250 -234z" />
    <glyph glyph-name="Iotadieresis" unicode="&#x3aa;" horiz-adv-x="297" 
d="M318 695l-148 -695h-145l148 695h145zM439 800c0 -42 -35 -77 -77 -77s-76 35 -76 77s35 77 78 77c41 0 75 -35 75 -77zM228 800c0 -42 -35 -77 -77 -77c-41 0 -76 35 -76 77s36 77 78 77c41 0 75 -35 75 -77z" />
    <glyph glyph-name="Upsilondieresis" unicode="&#x3ab;" horiz-adv-x="554" 
d="M665 695l-309 -409l-61 -286h-146l61 286l-129 409h162l48 -190c10 -38 14 -63 16 -89l56 87l131 192h171zM555 800c0 -42 -35 -77 -77 -77s-76 35 -76 77s35 77 78 77c41 0 75 -35 75 -77zM344 800c0 -42 -35 -77 -77 -77c-41 0 -76 35 -76 77s36 77 78 77
c41 0 75 -35 75 -77z" />
    <glyph glyph-name="alphatonos" unicode="&#x3ac;" horiz-adv-x="529" 
d="M508 487c-11 -31 -25 -87 -33 -126l-41 -194c-9 -44 -5 -74 19 -100l-111 -83c-24 16 -35 43 -39 63c-38 -40 -80 -61 -136 -61c-93 0 -141 57 -141 163c0 123 47 232 108 293c56 56 119 80 204 80c60 0 127 -10 170 -35zM356 410c-6 4 -24 8 -36 8c-33 0 -58 -2 -94 -44
c-42 -50 -63 -151 -63 -219c0 -46 12 -66 41 -66c42 0 85 43 99 80zM510 699l-167 -145l-56 55l135 169z" />
    <glyph glyph-name="epsilontonos" unicode="&#x3ad;" horiz-adv-x="497" 
d="M516 467l-66 -91c-37 28 -79 41 -128 41c-45 0 -87 -17 -87 -66c0 -27 26 -35 84 -35h54l-19 -91h-47c-51 0 -119 -12 -119 -77c0 -29 29 -46 78 -46c55 0 105 23 151 52l38 -98c-61 -39 -153 -74 -240 -74c-119 0 -187 31 -187 118c0 71 53 151 128 165l1 2
c-35 12 -61 37 -61 76c0 121 131 184 231 184c78 0 129 -23 189 -60zM510 699l-167 -145l-56 55l135 169z" />
    <glyph glyph-name="etatonos" unicode="&#x3ae;" horiz-adv-x="551" 
d="M511 422c0 -22 -3 -50 -8 -72l-30 -142c-13 -60 -17 -85 -17 -99c0 -19 8 -29 26 -29c5 0 10 0 15 2l6 -80c-24 -9 -52 -14 -81 -14c-72 0 -103 39 -103 92c0 18 7 56 15 93l34 160c4 20 7 35 7 46c0 25 -11 32 -35 32c-32 0 -70 -20 -112 -77l-71 -334h-132l73 345
c12 56 11 100 0 135l124 49c9 -17 15 -61 13 -83c43 46 98 77 173 77c65 0 103 -39 103 -101zM520 699l-167 -145l-56 55l135 169z" />
    <glyph glyph-name="iotatonos" unicode="&#x3af;" horiz-adv-x="280" 
d="M240 433c0 -30 -3 -60 -8 -83l-30 -142c-13 -60 -17 -85 -17 -99c0 -19 8 -29 26 -29c5 0 10 0 15 2l6 -80c-24 -9 -52 -14 -81 -14c-72 0 -105 39 -105 92c0 18 7 56 15 93l37 172c6 27 9 52 9 74c0 23 -3 43 -9 61l124 49c13 -24 18 -60 18 -96zM370 699l-167 -145
l-56 55l135 169z" />
    <glyph glyph-name="upsilondieresistonos" unicode="&#x3b0;" horiz-adv-x="541" 
d="M527 524l-78 -365c-24 -116 -108 -171 -242 -171c-112 0 -164 45 -164 122c0 14 1 26 5 42l74 348l137 25l-79 -374c-2 -6 -3 -13 -3 -18c0 -28 16 -45 59 -45c46 0 78 32 85 66l73 343zM502 773l-167 -145l-56 55l135 169zM562 635c0 -42 -35 -77 -77 -77s-76 35 -76 77
s35 77 78 77c41 0 75 -35 75 -77zM271 635c0 -42 -35 -77 -77 -77c-41 0 -76 35 -76 77s36 77 78 77c41 0 75 -35 75 -77z" />
    <glyph glyph-name="alpha" unicode="&#x3b1;" horiz-adv-x="529" 
d="M508 487c-11 -31 -25 -87 -33 -126l-41 -194c-9 -44 -5 -74 19 -100l-111 -83c-24 16 -35 43 -39 63c-38 -40 -80 -61 -136 -61c-93 0 -141 57 -141 163c0 123 47 232 108 293c56 56 119 80 204 80c60 0 127 -10 170 -35zM356 410c-6 4 -24 8 -36 8c-33 0 -58 -2 -94 -44
c-42 -50 -63 -151 -63 -219c0 -46 12 -66 41 -66c42 0 85 43 99 80z" />
    <glyph glyph-name="beta" unicode="&#x3b2;" horiz-adv-x="601" 
d="M573 575c0 -86 -52 -160 -134 -188c69 -19 111 -85 111 -145c0 -163 -132 -254 -284 -254c-52 0 -80 18 -110 37l-45 -211l-136 -34l139 653c40 191 127 281 285 281c110 0 174 -64 174 -139zM438 555c0 37 -18 60 -61 60c-82 0 -111 -75 -131 -165l-66 -312
c16 -25 63 -54 96 -54c89 0 129 80 129 155c0 52 -27 83 -121 83h-16l21 100h24c79 0 125 55 125 133z" />
    <glyph glyph-name="gamma" unicode="&#x3b3;" horiz-adv-x="486" 
d="M555 512l-295 -512s-14 -138 -28 -186l-133 -32c35 170 42 239 42 331c0 180 -18 303 -67 303c-13 0 -28 -2 -36 -5l-9 87c30 14 64 24 97 24c151 0 134 -228 134 -328c8 23 15 44 32 80l115 238h148z" />
    <glyph glyph-name="delta" unicode="&#x3b4;" horiz-adv-x="546" 
d="M566 695l-46 -106h-145c77 -67 136 -135 136 -242c0 -207 -116 -358 -298 -358c-115 0 -182 65 -182 181c0 143 93 321 247 330c-36 39 -74 70 -111 87l44 108h355zM368 338c0 36 -16 65 -65 65c-97 0 -130 -168 -130 -246c0 -42 15 -71 65 -71c93 0 130 184 130 252z
" />
    <glyph glyph-name="epsilon" unicode="&#x3b5;" horiz-adv-x="497" 
d="M516 467l-66 -91c-37 28 -79 41 -128 41c-45 0 -87 -17 -87 -66c0 -27 26 -35 84 -35h54l-19 -91h-47c-51 0 -119 -12 -119 -77c0 -29 29 -46 78 -46c55 0 105 23 151 52l38 -98c-61 -39 -153 -74 -240 -74c-119 0 -187 31 -187 118c0 71 53 151 128 165l1 2
c-35 12 -61 37 -61 76c0 121 131 184 231 184c78 0 129 -23 189 -60z" />
    <glyph glyph-name="zeta" unicode="&#x3b6;" horiz-adv-x="483" 
d="M556 695l-23 -111c-133 -57 -350 -247 -350 -393c0 -49 34 -60 74 -60h66c81 0 114 -27 114 -106c0 -91 -74 -172 -135 -239l-65 50c28 28 58 81 58 123c0 34 -27 41 -56 41h-38c-93 0 -173 42 -173 144c0 166 183 365 327 432h-223l46 119h378z" />
    <glyph glyph-name="eta" unicode="&#x3b7;" horiz-adv-x="551" 
d="M511 422c0 -22 -3 -50 -8 -72l-30 -142c-13 -60 -17 -85 -17 -99c0 -19 8 -29 26 -29c5 0 10 0 15 2l6 -80c-24 -9 -52 -14 -81 -14c-72 0 -103 39 -103 92c0 18 7 56 15 93l34 160c4 20 7 35 7 46c0 25 -11 32 -35 32c-32 0 -70 -20 -112 -77l-71 -334h-132l73 345
c6 27 9 52 9 74c0 23 -3 43 -9 61l124 49c9 -17 15 -61 13 -83c43 46 98 77 173 77c65 0 103 -39 103 -101z" />
    <glyph glyph-name="theta" unicode="&#x3b8;" horiz-adv-x="556" 
d="M548 503c0 -197 -88 -514 -326 -514c-126 0 -175 81 -175 199c0 197 87 516 326 516c127 0 175 -83 175 -201zM369 307h-160c-13 -64 -21 -115 -21 -151c0 -48 16 -72 53 -72c64 0 103 108 128 223zM408 537c0 48 -16 72 -52 72c-67 0 -102 -97 -127 -207h160
c11 57 19 101 19 135z" />
    <glyph glyph-name="iota" unicode="&#x3b9;" horiz-adv-x="280" 
d="M240 433c0 -30 -3 -60 -8 -83l-30 -142c-13 -60 -17 -85 -17 -99c0 -19 8 -29 26 -29c5 0 10 0 15 2l6 -80c-24 -9 -52 -14 -81 -14c-72 0 -105 39 -105 92c0 18 7 56 15 93l37 172c6 27 9 52 9 74c0 23 -3 43 -9 61l124 49c13 -24 18 -60 18 -96z" />
    <glyph glyph-name="kappa" unicode="&#x3ba;" horiz-adv-x="515" 
d="M574 512l-222 -227l132 -285h-157l-105 277l189 235h163zM242 433c0 -30 -3 -60 -8 -83l-74 -350h-134l73 345c6 29 9 54 9 77c0 22 -3 41 -8 58l124 49c13 -24 18 -60 18 -96z" />
    <glyph glyph-name="lambda" unicode="&#x3bb;" horiz-adv-x="530" 
d="M476 3c-25 -9 -46 -20 -75 -20c-75 0 -94 35 -95 89l-5 221c-1 24 2 88 2 90c-2 -3 -28 -62 -43 -92l-155 -299l-134 16l201 360l80 144h41c-3 49 8 140 -58 140c-13 0 -28 -4 -41 -7l-7 77c33 11 59 18 90 18c120 0 127 -86 129 -131l28 -505c1 -21 6 -24 17 -24
c5 0 11 1 19 3z" />
    <glyph glyph-name="uni03BC" unicode="&#x3bc;" horiz-adv-x="559" 
d="M542 524l-83 -391c-2 -11 -3 -21 -3 -32c0 -23 5 -45 15 -61l-107 -54c-14 12 -25 29 -29 50c-40 -32 -92 -49 -144 -49c-13 0 -26 4 -34 11c0 0 -1 -15 -4 -28l-34 -156l-136 -34l153 720l138 25l-70 -329c-6 -30 -9 -50 -9 -65c0 -8 1 -14 2 -19c4 -14 22 -24 42 -24
c33 0 78 24 93 49l77 360z" />
    <glyph glyph-name="nu" unicode="&#x3bd;" horiz-adv-x="464" 
d="M535 512l-296 -512h-111l-79 504l138 17l25 -231c4 -34 7 -90 6 -123c11 30 32 79 59 130l115 215h143z" />
    <glyph glyph-name="xi" unicode="&#x3be;" horiz-adv-x="498" 
d="M534 695l-25 -118h-138c-50 0 -106 -42 -106 -94c0 -45 37 -62 75 -62h116l-23 -108h-105c-71 0 -143 -48 -143 -122c0 -49 33 -60 74 -60h66c80 0 114 -27 114 -106c0 -91 -74 -172 -136 -239l-64 50c27 28 58 81 58 123c0 34 -28 41 -57 41h-38c-92 0 -173 42 -173 144
c0 92 71 192 162 219v2c-43 18 -69 50 -69 98c0 44 34 97 74 113h-88l46 119h380z" />
    <glyph glyph-name="omicron" unicode="&#x3bf;" horiz-adv-x="546" 
d="M512 347c0 -180 -96 -358 -299 -358c-116 0 -182 64 -182 181c0 193 119 352 295 352c115 0 186 -63 186 -175zM368 347c0 59 -22 76 -62 76c-90 0 -133 -188 -133 -266c0 -49 25 -71 63 -71c86 0 132 161 132 261z" />
    <glyph glyph-name="pi" unicode="&#x3c0;" horiz-adv-x="564" 
d="M604 512l-50 -96h-40l-44 -208c-13 -60 -18 -85 -18 -99c0 -19 8 -29 26 -29c5 0 10 0 15 2l6 -80c-24 -9 -52 -14 -81 -14c-72 0 -103 39 -103 92c0 18 7 56 15 93l52 243h-126l-89 -416h-133l88 416h-55l20 96h517z" />
    <glyph glyph-name="rho" unicode="&#x3c1;" horiz-adv-x="546" 
d="M512 338c0 -162 -98 -349 -274 -349c-40 0 -78 10 -104 27c1 -13 -1 -27 -5 -42l-34 -160l-141 -34l105 491c32 151 112 251 277 251c92 0 176 -52 176 -184zM368 345c0 51 -20 78 -59 78c-49 0 -92 -42 -105 -102l-42 -196c15 -15 41 -30 68 -30c105 0 138 165 138 250z
" />
    <glyph glyph-name="sigma1" unicode="&#x3c2;" horiz-adv-x="446" 
d="M471 466l-78 -84c-22 25 -47 38 -76 38c-38 0 -70 -28 -96 -84c-22 -46 -33 -91 -33 -135c0 -29 17 -53 52 -72l98 -48c35 -21 52 -48 52 -81c0 -45 -46 -116 -139 -213l-62 50c14 14 27 31 39 51c14 23 21 42 21 59c0 13 -18 28 -55 45c-49 21 -83 40 -102 57
c-37 32 -55 74 -55 125c0 58 15 117 45 178c31 63 70 108 118 137c43 25 88 38 135 38c55 0 100 -20 136 -61z" />
    <glyph glyph-name="sigma" unicode="&#x3c3;" horiz-adv-x="564" 
d="M610 512l-50 -94h-79c23 -26 31 -47 31 -84c0 -182 -110 -345 -298 -345c-115 0 -183 65 -183 181c0 167 110 342 295 342h284zM368 347c0 59 -20 71 -60 71c-90 0 -135 -183 -135 -261c0 -49 25 -71 63 -71c86 0 132 161 132 261z" />
    <glyph glyph-name="tau" unicode="&#x3c4;" horiz-adv-x="409" 
d="M459 512l-53 -97h-111l-54 -252c-4 -17 -5 -33 -5 -45c0 -28 15 -37 45 -37c12 0 35 4 50 10v-81c-39 -15 -79 -22 -114 -22c-77 0 -121 38 -121 88c0 18 2 42 7 66l59 273h-121l20 97h398z" />
    <glyph glyph-name="upsilon" unicode="&#x3c5;" horiz-adv-x="541" 
d="M527 524l-78 -365c-24 -116 -108 -171 -242 -171c-112 0 -164 45 -164 122c0 14 1 26 5 42l74 348l137 25l-79 -374c-2 -6 -3 -13 -3 -18c0 -28 16 -45 59 -45c46 0 78 32 85 66l73 343z" />
    <glyph glyph-name="phi" unicode="&#x3c6;" horiz-adv-x="697" 
d="M663 317c0 -179 -128 -310 -306 -326l-38 -177l-140 -34l45 211c-122 17 -193 87 -193 205c0 156 116 287 268 318l-21 -99c-67 -35 -101 -141 -101 -214c0 -58 24 -95 68 -109l42 197c33 157 93 226 205 226c103 0 171 -85 171 -198zM517 313c0 69 -20 100 -42 100
c-33 0 -41 -57 -57 -131l-40 -190c90 27 139 136 139 221z" />
    <glyph glyph-name="chi" unicode="&#x3c7;" horiz-adv-x="468" 
d="M525 512l-211 -247l128 -265h-158c-25 70 -55 139 -60 171c-17 -29 -94 -128 -130 -171h-176l251 276l-96 213l138 37c17 -39 42 -107 54 -153c23 38 76 110 98 139h162z" />
    <glyph glyph-name="psi" unicode="&#x3c8;" horiz-adv-x="681" 
d="M675 524l-57 -267c-33 -157 -111 -250 -267 -258l-39 -185l-140 -34l46 219c-99 7 -169 57 -169 176c0 27 5 58 13 93l49 232l137 25l-56 -264c-6 -27 -13 -59 -13 -84c0 -39 14 -65 61 -78l98 461c14 67 18 108 10 143l139 43c7 -30 4 -87 -6 -136l-108 -510
c63 20 96 67 113 146l53 251z" />
    <glyph glyph-name="omega" unicode="&#x3c9;" horiz-adv-x="713" 
d="M679 289c0 -137 -78 -302 -237 -302c-63 0 -97 25 -117 84c-43 -60 -86 -84 -155 -84c-99 0 -139 75 -139 156c0 164 112 314 217 383l77 -45c-78 -80 -149 -195 -149 -311c0 -42 21 -62 40 -62c16 0 53 16 66 78l41 194h133l-41 -194c-3 -12 -4 -22 -4 -31
c0 -41 13 -47 30 -47c68 0 94 154 94 210s-11 108 -41 163l95 45c56 -64 90 -147 90 -237z" />
    <glyph glyph-name="iotadieresis" unicode="&#x3ca;" horiz-adv-x="280" 
d="M240 433c0 -30 -3 -60 -8 -83l-30 -142c-13 -60 -17 -85 -17 -99c0 -19 8 -29 26 -29c5 0 10 0 15 2l6 -80c-24 -9 -52 -14 -81 -14c-72 0 -105 39 -105 92c0 18 7 56 15 93l37 172c6 27 9 52 9 74c0 23 -3 43 -9 61l124 49c13 -24 18 -60 18 -96zM389 635
c0 -42 -35 -77 -77 -77s-76 35 -76 77s35 77 78 77c41 0 75 -35 75 -77zM178 635c0 -42 -35 -77 -77 -77c-41 0 -76 35 -76 77s36 77 78 77c41 0 75 -35 75 -77z" />
    <glyph glyph-name="upsilondieresis" unicode="&#x3cb;" horiz-adv-x="541" 
d="M527 524l-78 -365c-24 -116 -108 -171 -242 -171c-112 0 -164 45 -164 122c0 14 1 26 5 42l74 348l137 25l-79 -374c-2 -6 -3 -13 -3 -18c0 -28 16 -45 59 -45c46 0 78 32 85 66l73 343zM528 635c0 -42 -35 -77 -77 -77s-76 35 -76 77s35 77 78 77c41 0 75 -35 75 -77z
M317 635c0 -42 -35 -77 -77 -77c-41 0 -76 35 -76 77s36 77 78 77c41 0 75 -35 75 -77z" />
    <glyph glyph-name="omicrontonos" unicode="&#x3cc;" horiz-adv-x="546" 
d="M512 347c0 -180 -96 -358 -299 -358c-116 0 -182 64 -182 181c0 193 119 352 295 352c115 0 186 -63 186 -175zM368 347c0 59 -22 76 -62 76c-90 0 -133 -188 -133 -266c0 -49 25 -71 63 -71c86 0 132 161 132 261zM530 699l-167 -145l-56 55l135 169z" />
    <glyph glyph-name="upsilontonos" unicode="&#x3cd;" horiz-adv-x="541" 
d="M527 524l-78 -365c-24 -116 -108 -171 -242 -171c-112 0 -164 45 -164 122c0 14 1 26 5 42l74 348l137 25l-79 -374c-2 -6 -3 -13 -3 -18c0 -28 16 -45 59 -45c46 0 78 32 85 66l73 343zM510 699l-167 -145l-56 55l135 169z" />
    <glyph glyph-name="omegatonos" unicode="&#x3ce;" horiz-adv-x="713" 
d="M679 289c0 -137 -78 -302 -237 -302c-63 0 -97 25 -117 84c-43 -60 -86 -84 -155 -84c-99 0 -139 75 -139 156c0 164 112 314 217 383l77 -45c-78 -80 -149 -195 -149 -311c0 -42 21 -62 40 -62c16 0 53 16 66 78l41 194h133l-41 -194c-3 -12 -4 -22 -4 -31
c0 -41 13 -47 30 -47c68 0 94 154 94 210s-11 108 -41 163l95 45c56 -64 90 -147 90 -237zM600 699l-167 -145l-56 55l135 169z" />
    <glyph glyph-name="beta1" unicode="&#x3d0;" horiz-adv-x="603" 
d="M575 575c0 -86 -52 -160 -134 -188c69 -19 111 -85 111 -145c0 -163 -139 -258 -291 -258c-82 0 -185 24 -228 52c6 18 16 53 20 73l69 324c40 191 125 281 283 281c110 0 170 -64 170 -139zM440 555c0 37 -14 60 -57 60c-82 0 -107 -75 -126 -165l-71 -337
c11 -11 58 -29 91 -29c89 0 130 80 130 155c0 52 -21 83 -115 83h-13l21 100h21c79 0 119 55 119 133z" />
    <glyph glyph-name="phi1" unicode="&#x3d5;" horiz-adv-x="685" 
d="M651 319c0 -176 -126 -307 -301 -327l-39 -186l-140 -30l46 217c-118 18 -186 90 -186 200c0 173 131 299 298 324l9 43c14 67 18 108 10 143l139 43c7 -30 4 -87 -6 -136l-19 -93c109 -18 189 -83 189 -198zM307 414c-92 -25 -134 -125 -134 -213c0 -54 26 -89 67 -104z
M507 314c0 55 -24 85 -67 101l-67 -318c83 23 134 131 134 217z" />
    <glyph glyph-name="uni03DC" unicode="&#x3dc;" horiz-adv-x="559" 
d="M542 524l-83 -391c-2 -11 -3 -21 -3 -32c0 -23 5 -45 15 -61l-107 -54c-14 12 -25 29 -29 50c-40 -32 -92 -49 -144 -49c-13 0 -26 4 -34 11c0 0 -1 -15 -4 -28l-34 -156l-136 -34l153 720l138 25l-70 -329c-10 -46 -11 -70 -7 -84s22 -24 42 -24c33 0 78 24 93 49
l77 360z" />
    <glyph glyph-name="afii10023" unicode="&#x401;" horiz-adv-x="514" 
d="M569 695l-43 -114h-236l-34 -161h197l-24 -114h-196l-39 -186h262l-26 -120h-405l148 695h396zM559 817c0 -41 -33 -74 -74 -74s-73 33 -73 74s32 74 75 74c40 0 72 -32 72 -74zM356 817c0 -41 -33 -74 -74 -74c-39 0 -73 32 -73 74c0 41 35 74 75 74s72 -33 72 -74z" />
    <glyph glyph-name="afii10051" unicode="&#x402;" horiz-adv-x="693" 
d="M612 695l-48 -116h-179l-36 -170c57 22 102 31 148 31c34 0 78 -5 113 -45c23 -26 34 -68 34 -116c0 -85 -35 -187 -100 -243c-45 -39 -90 -48 -132 -48c-32 0 -57 4 -85 15l-13 5l43 99c7 -4 13 -6 21 -9s18 -5 28 -5c53 0 65 48 73 87l8 37c2 9 6 29 6 49
c0 16 -2 32 -11 42c-10 12 -29 21 -57 21c-36 0 -72 -10 -98 -21l-65 -308h-142l123 579h-157l25 116h501z" />
    <glyph glyph-name="afii10052" unicode="&#x403;" horiz-adv-x="461" 
d="M550 695l-40 -113h-219l-124 -582h-142l148 695h377zM481 846l-239 -103l-40 75l231 133z" />
    <glyph glyph-name="afii10053" unicode="&#x404;" horiz-adv-x="559" 
d="M629 652l-83 -94c-36 32 -80 39 -110 39c-55 0 -105 -22 -136 -58c-20 -23 -36 -55 -42 -79l-10 -38h199l-24 -112h-202l-7 -33c-5 -23 -7 -42 -7 -59c0 -50 18 -74 30 -86c31 -32 75 -34 101 -34c24 0 73 4 133 45l45 -90c-52 -36 -122 -65 -212 -65
c-120 0 -181 55 -207 96c-27 41 -40 103 -40 152c0 70 21 159 53 232c24 55 53 99 94 139c87 84 179 100 249 100c92 0 143 -29 176 -55z" />
    <glyph glyph-name="afii10054" unicode="&#x405;" horiz-adv-x="602" 
d="M624 638l-83 -94c-58 44 -122 48 -146 48c-39 0 -66 -10 -86 -26c-28 -22 -33 -47 -33 -60c0 -17 5 -30 18 -41c12 -10 29 -19 45 -25l78 -30c31 -12 72 -30 100 -63c19 -22 35 -55 35 -102c0 -32 -6 -106 -76 -170c-46 -42 -125 -87 -256 -87c-64 0 -144 12 -225 62
l73 105c38 -24 100 -53 177 -53c43 0 79 9 110 37c11 10 33 33 33 71c0 20 -7 37 -17 48c-14 16 -39 25 -56 31l-72 27c-50 19 -79 41 -94 59c-18 21 -31 52 -31 92c0 50 19 121 92 177c48 36 115 63 200 63c68 0 149 -16 214 -69z" />
    <glyph glyph-name="afii10055" unicode="&#x406;" horiz-adv-x="294" 
d="M315 695l-148 -695h-142l148 695h142z" />
    <glyph glyph-name="afii10056" unicode="&#x407;" horiz-adv-x="294" 
d="M315 695l-148 -695h-142l148 695h142zM435 820c0 -41 -35 -77 -77 -77s-76 36 -76 77s35 77 78 77c41 0 75 -35 75 -77zM224 820c0 -41 -35 -77 -77 -77c-40 0 -76 36 -76 77s37 77 78 77s75 -36 75 -77z" />
    <glyph glyph-name="afii10057" unicode="&#x408;" horiz-adv-x="294" 
d="M315 695l-119 -560c-22 -105 -31 -121 -39 -136c-26 -49 -72 -121 -198 -166l-49 75c39 21 81 56 99 84c26 41 31 75 42 128l122 575h142z" />
    <glyph glyph-name="afii10058" unicode="&#x409;" horiz-adv-x="938" 
d="M603 436h91c41 0 118 -4 164 -48c21 -20 45 -57 45 -116c0 -83 -35 -166 -107 -217c-48 -34 -115 -55 -189 -55h-236l124 585h-132l-27 -108c-16 -65 -38 -156 -83 -289c-19 -56 -37 -98 -83 -138c-24 -21 -62 -46 -140 -55l-45 -5l-5 103l18 3c27 4 51 19 57 23
c14 9 36 25 53 54c3 6 18 32 46 116c42 127 63 226 78 286l31 120h395zM534 114h79c24 0 63 3 97 39c21 22 35 56 35 96c0 21 -4 41 -23 56c-20 16 -48 17 -65 17h-79z" />
    <glyph glyph-name="afii10059" unicode="&#x40a;" horiz-adv-x="938" 
d="M658 695l-55 -259h91c41 0 118 -4 164 -48c21 -20 45 -57 45 -116c0 -83 -35 -166 -107 -217c-48 -34 -115 -55 -189 -55h-239l66 310h-201l-66 -310h-142l148 695h142l-58 -270h201l58 270h142zM534 114h79c24 0 63 3 97 39c21 22 35 56 35 96c0 21 -4 41 -23 56
c-20 16 -48 17 -65 17h-79z" />
    <glyph glyph-name="afii10060" unicode="&#x40b;" horiz-adv-x="692" 
d="M612 695l-48 -116h-179l-36 -170c57 22 101 31 148 31c63 0 104 -21 125 -48c13 -17 21 -40 21 -72c0 -14 -1 -29 -5 -46l-58 -274h-142l46 217c5 21 6 36 6 49c0 24 -6 35 -11 42c-10 12 -29 21 -57 21c-35 0 -69 -10 -95 -21l-65 -308h-142l123 579h-157l25 116h501z
" />
    <glyph glyph-name="afii10061" unicode="&#x40c;" horiz-adv-x="650" 
d="M672 707l8 -93l-34 -8c-11 -3 -23 -6 -35 -14c-20 -13 -34 -42 -36 -46l-33 -68c-21 -44 -33 -61 -44 -72c-19 -19 -51 -33 -74 -39c18 -7 35 -19 45 -32c12 -15 23 -48 25 -72l10 -103c2 -17 2 -38 22 -51c8 -5 28 -13 37 -16l19 -6l-46 -97l-74 9c-27 3 -61 23 -75 42
c-17 23 -16 50 -17 86l-3 99c-1 22 -9 53 -21 66c-18 20 -45 20 -61 20h-52l-66 -312h-142l148 695h142l-58 -272h69c20 0 51 10 64 20c15 11 27 32 42 65l40 89c11 25 23 49 48 70c23 19 49 27 80 31zM575 846l-239 -103l-40 75l231 133z" />
    <glyph glyph-name="afii10062" unicode="&#x40e;" horiz-adv-x="560" 
d="M246 695l48 -259c4 -24 13 -75 17 -140c36 88 55 118 83 169l124 230h147l-274 -489c-54 -96 -88 -157 -133 -189c-42 -30 -101 -40 -134 -44l-35 -4l-4 101l18 5c20 6 35 11 57 22c35 18 55 34 80 82l19 36l-69 -10l-94 490h150zM502 883l62 -29
c-18 -34 -43 -61 -70 -80c-42 -29 -77 -31 -113 -31c-30 0 -66 0 -99 31c-16 15 -34 41 -36 80l74 29c3 -13 16 -28 24 -34c12 -9 37 -13 57 -13c12 0 38 1 61 13c14 7 31 21 40 34z" />
    <glyph glyph-name="afii10145" unicode="&#x40f;" horiz-adv-x="622" 
d="M315 695l-124 -580h186l124 580h142l-148 -695h-168l-37 -172h-134l37 172h-168l148 695h142z" />
    <glyph glyph-name="afii10017" unicode="&#x410;" horiz-adv-x="588" 
d="M321 697h151l71 -697h-145l-14 165h-204l-84 -165h-151zM239 281h136l-10 145c-2 31 -3 59 -3 88v30c-30 -76 -44 -99 -61 -134z" />
    <glyph glyph-name="afii10018" unicode="&#x411;" horiz-adv-x="620" 
d="M173 695h437l-40 -118h-280l-33 -153h112c50 0 116 -5 159 -49c22 -22 42 -59 42 -118c0 -69 -26 -162 -126 -217c-48 -27 -112 -40 -159 -40h-260zM191 114h97c24 0 57 4 86 35c22 23 35 60 35 95c0 14 -3 31 -15 44c-18 20 -44 22 -64 22h-97z" />
    <glyph glyph-name="afii10019" unicode="&#x412;" horiz-adv-x="616" 
d="M173 695h247c105 0 181 -50 181 -150c0 -68 -43 -146 -146 -176c64 -14 104 -70 104 -135c0 -44 -18 -112 -65 -160c-51 -52 -109 -74 -217 -74h-252zM189 114h91c29 0 54 8 72 20c31 21 53 64 53 103c0 49 -27 65 -89 65h-87zM253 417h82c38 0 56 8 73 20
c22 16 42 44 42 78c0 43 -19 61 -77 61h-87z" />
    <glyph glyph-name="afii10020" unicode="&#x413;" horiz-adv-x="461" 
d="M550 695l-40 -113h-219l-124 -582h-142l148 695h377z" />
    <glyph glyph-name="afii10021" unicode="&#x414;" horiz-adv-x="647" 
d="M657 695l-123 -585h72l-59 -278h-135l36 168h-362l-36 -168h-135l59 278h45c50 69 107 164 146 261c22 55 57 166 74 234l22 90h396zM352 585l-13 -71c-24 -90 -46 -155 -86 -237c-34 -71 -65 -119 -105 -167h244l101 475h-141z" />
    <glyph glyph-name="afii10022" unicode="&#x415;" horiz-adv-x="514" 
d="M569 695l-43 -114h-236l-34 -161h197l-24 -114h-196l-39 -186h262l-26 -120h-405l148 695h396z" />
    <glyph glyph-name="afii10024" unicode="&#x416;" horiz-adv-x="936" 
d="M963 707l8 -93l-34 -8c-11 -3 -23 -6 -35 -14c-20 -13 -34 -42 -36 -46l-33 -68c-21 -44 -33 -61 -44 -72c-19 -19 -51 -33 -74 -39c18 -7 35 -19 45 -32c12 -15 23 -48 25 -72l10 -103c2 -17 2 -38 22 -51c8 -5 28 -13 37 -16l19 -6l-46 -97l-74 9c-27 3 -61 23 -75 42
c-17 23 -16 50 -17 86l-3 99c-1 22 -9 53 -21 66c-18 20 -45 20 -61 20h-30l-66 -312h-138l66 312h-30c-29 0 -83 -5 -118 -86l-44 -101c-12 -27 -27 -61 -52 -86c-32 -31 -71 -38 -92 -40l-81 -9l-6 97l20 6c11 3 35 12 43 16c19 9 30 23 44 51l51 103c12 25 28 47 50 66
c22 18 50 31 76 38c-21 7 -39 19 -50 33c-21 26 -18 48 -21 78l-6 68c-3 29 -10 40 -16 46c-8 7 -19 12 -29 14l-34 8l46 93l62 -9c31 -5 53 -11 68 -31c18 -24 17 -49 18 -70l5 -89c1 -20 2 -47 16 -63c11 -13 36 -22 57 -22h47l58 272h138l-58 -272h47c20 0 51 10 64 20
c15 11 27 32 42 65l40 89c11 25 23 49 48 70c23 19 49 27 80 31z" />
    <glyph glyph-name="afii10025" unicode="&#x417;" horiz-adv-x="531" 
d="M228 306h-82l23 105h69c26 0 58 4 84 23c39 29 42 71 42 93c0 17 -3 37 -23 54s-43 18 -64 18c-33 0 -73 -4 -127 -38l-46 89c22 13 104 57 226 57c35 0 103 -4 149 -51c17 -17 42 -50 42 -105c0 -26 -4 -85 -55 -134c-21 -20 -54 -41 -96 -52c28 -4 57 -18 75 -37
c15 -16 32 -43 32 -89c0 -43 -11 -137 -120 -203c-42 -25 -97 -48 -202 -48c-96 0 -152 23 -195 65l84 91c41 -41 95 -48 127 -48c37 0 80 12 104 32c29 24 45 67 45 103c0 31 -13 48 -24 57c-21 17 -53 18 -68 18z" />
    <glyph glyph-name="afii10026" unicode="&#x418;" horiz-adv-x="652" 
d="M525 0h-142l73 344c7 35 25 103 37 147c-28 -54 -50 -86 -73 -121l-248 -370h-147l148 695h142l-73 -344c-9 -40 -24 -100 -38 -147c29 53 51 87 74 121l248 370h147z" />
    <glyph glyph-name="afii10027" unicode="&#x419;" horiz-adv-x="652" 
d="M525 0h-142l73 344c7 35 25 103 37 147c-28 -54 -50 -86 -73 -121l-248 -370h-147l148 695h142l-73 -344c-9 -40 -24 -100 -38 -147c29 53 51 87 74 121l248 370h147zM543 883l62 -29c-18 -34 -43 -61 -70 -80c-42 -29 -77 -31 -113 -31c-30 0 -66 0 -99 31
c-16 15 -34 41 -36 80l74 29c3 -13 16 -28 24 -34c12 -9 37 -13 57 -13c12 0 38 1 61 13c14 7 31 21 40 34z" />
    <glyph glyph-name="afii10028" unicode="&#x41a;" horiz-adv-x="650" 
d="M672 707l8 -93l-34 -8c-11 -3 -23 -6 -35 -14c-20 -13 -34 -42 -36 -46l-33 -68c-21 -44 -33 -61 -44 -72c-19 -19 -51 -33 -74 -39c18 -7 35 -19 45 -32c12 -15 23 -48 25 -72l10 -103c2 -17 2 -38 22 -51c8 -5 28 -13 37 -16l19 -6l-46 -97l-74 9c-27 3 -61 23 -75 42
c-17 23 -16 50 -17 86l-3 99c-1 22 -9 53 -21 66c-18 20 -45 20 -61 20h-52l-66 -312h-142l148 695h142l-58 -272h69c20 0 51 10 64 20c15 11 27 32 42 65l40 89c11 25 23 49 48 70c23 19 49 27 80 31z" />
    <glyph glyph-name="afii10029" unicode="&#x41b;" horiz-adv-x="632" 
d="M505 0h-142l124 585h-129l-27 -108c-16 -65 -38 -156 -83 -289c-19 -56 -37 -98 -83 -138c-24 -21 -62 -46 -140 -55l-45 -5l-5 103l18 3c27 4 51 19 57 23c14 9 36 25 53 54c3 6 18 32 46 116c29 88 56 192 78 286l28 120h398z" />
    <glyph glyph-name="afii10030" unicode="&#x41c;" horiz-adv-x="827" 
d="M809 695l-85 -695h-136l55 379c3 18 4 32 9 60c1 6 2 11 3 17c2 13 5 26 7 39c-13 -37 -23 -56 -49 -107l-194 -388h-115l-22 373c-2 39 -3 66 -3 86c0 16 1 28 1 37c-9 -42 -26 -106 -31 -125l-106 -371h-136l211 695h177l15 -358c1 -22 1 -32 1 -40v-45
c0 -7 0 -15 -1 -25c9 25 22 57 49 113l170 355h180z" />
    <glyph glyph-name="afii10031" unicode="&#x41d;" horiz-adv-x="636" 
d="M657 695l-148 -695h-142l66 310h-200l-66 -310h-142l148 695h142l-58 -270h200l58 270h142z" />
    <glyph glyph-name="afii10032" unicode="&#x41e;" horiz-adv-x="698" 
d="M686 456c0 -175 -87 -366 -232 -435c-37 -18 -91 -33 -157 -33c-92 0 -145 29 -180 66c-45 48 -60 109 -60 184c0 161 68 319 186 406c33 24 100 63 205 63c78 0 137 -24 179 -71c49 -55 59 -123 59 -180zM528 485c0 31 -4 61 -28 86c-19 20 -46 27 -77 27
c-18 0 -74 -4 -121 -61c-59 -73 -93 -242 -93 -323c0 -20 2 -67 31 -94c12 -11 35 -24 78 -24c59 0 90 25 113 52c62 75 97 242 97 337z" />
    <glyph glyph-name="afii10033" unicode="&#x41f;" horiz-adv-x="627" 
d="M647 695l-148 -695h-138l124 585h-198l-124 -585h-138l148 695h474z" />
    <glyph glyph-name="afii10034" unicode="&#x420;" horiz-adv-x="571" 
d="M173 695h183c94 0 146 -10 180 -32c44 -27 70 -73 70 -127c0 -120 -57 -208 -161 -256c-35 -16 -94 -24 -149 -24h-74l-54 -256h-143zM247 370h70c54 0 84 12 102 34c21 25 36 65 36 105c0 46 -25 73 -77 73h-86z" />
    <glyph glyph-name="afii10035" unicode="&#x421;" horiz-adv-x="549" 
d="M611 652l-81 -91c-17 16 -49 36 -104 36c-50 0 -96 -23 -130 -62c-55 -64 -95 -214 -95 -308c0 -30 4 -69 29 -97c28 -31 68 -34 90 -34c21 0 68 3 130 47l48 -90c-71 -51 -145 -65 -208 -65c-99 0 -152 35 -180 62s-65 82 -65 181c0 107 41 238 105 323
c70 94 180 153 298 153c91 0 140 -34 163 -55z" />
    <glyph glyph-name="afii10036" unicode="&#x422;" horiz-adv-x="501" 
d="M612 695l-48 -116h-164l-123 -579h-144l123 579h-170l25 116h501z" />
    <glyph glyph-name="afii10037" unicode="&#x423;" horiz-adv-x="560" 
d="M246 695l48 -259c4 -24 13 -75 17 -140c36 88 55 118 83 169l124 230h147l-274 -489c-54 -96 -88 -157 -133 -189c-42 -30 -101 -40 -134 -44l-35 -4l-4 101l18 5c20 6 35 11 57 22c35 18 55 34 80 82l19 36l-69 -10l-94 490h150z" />
    <glyph glyph-name="afii10038" unicode="&#x424;" horiz-adv-x="788" 
d="M408 0h-140l22 102h-24c-67 0 -128 23 -163 61c-30 32 -46 82 -46 138c0 93 47 211 128 272c52 39 127 60 194 60h24l20 97h140l-20 -97h24c67 0 120 -20 152 -48c51 -45 57 -107 57 -147c0 -109 -43 -199 -108 -257c-45 -40 -116 -79 -214 -79h-24zM389 538h-13
c-46 0 -76 -18 -91 -30c-47 -38 -80 -126 -80 -209c0 -24 3 -48 19 -69c24 -30 57 -33 80 -33h13zM515 538l-72 -341h13c31 0 63 7 94 33c55 47 76 149 76 211c0 26 -2 51 -24 72c-24 23 -55 25 -74 25h-13z" />
    <glyph glyph-name="afii10039" unicode="&#x425;" horiz-adv-x="538" 
d="M634 695l-250 -329l134 -366h-164l-74 240l-171 -240h-180l300 375l-122 320h163l61 -194l136 194h167z" />
    <glyph glyph-name="afii10040" unicode="&#x426;" horiz-adv-x="627" 
d="M173 695h138l-124 -585h188l124 585h138l-124 -581h80l-61 -286h-135l37 172h-409z" />
    <glyph glyph-name="afii10041" unicode="&#x427;" horiz-adv-x="588" 
d="M457 0h-138l61 285c-19 -7 -79 -26 -152 -26c-31 0 -79 6 -110 36c-27 27 -34 67 -34 96c0 14 2 26 3 33l58 271h138l-47 -218c-3 -13 -6 -31 -6 -48c0 -19 4 -37 16 -49c14 -14 39 -15 55 -15c29 0 53 4 100 21l66 309h138z" />
    <glyph glyph-name="afii10042" unicode="&#x428;" horiz-adv-x="910" 
d="M312 695l-124 -580h170l124 580h139l-124 -580h170l124 580h139l-148 -695h-757l148 695h139z" />
    <glyph glyph-name="afii10043" unicode="&#x429;" horiz-adv-x="920" 
d="M312 695l-124 -580h170l124 580h139l-124 -580h170l124 580h139l-124 -581h80l-61 -286h-135l37 172h-702l148 695h139z" />
    <glyph glyph-name="afii10044" unicode="&#x42a;" horiz-adv-x="673" 
d="M392 695l-55 -259h91c56 0 122 -5 167 -50c14 -15 43 -51 43 -121c0 -88 -49 -176 -132 -224c-25 -14 -80 -41 -165 -41h-239l123 580h-170l25 115h312zM268 112h79c17 0 68 2 104 47c20 25 29 62 29 91c0 26 -9 41 -16 49c-11 13 -34 25 -72 25h-79z" />
    <glyph glyph-name="afii10045" unicode="&#x42b;" horiz-adv-x="869" 
d="M173 695h142l-55 -259h87c49 0 110 -3 157 -45c34 -31 49 -71 49 -119c0 -82 -34 -174 -131 -231c-60 -35 -118 -41 -162 -41h-235zM747 695h142l-148 -695h-142zM191 112h75c32 0 66 13 90 34c28 25 42 65 42 105c0 18 -5 38 -23 53c-16 13 -40 20 -64 20h-75z" />
    <glyph glyph-name="afii10046" unicode="&#x42c;" horiz-adv-x="595" 
d="M173 695h142l-55 -259h91c56 0 122 -5 167 -50c36 -35 42 -81 42 -119c0 -129 -80 -197 -131 -226c-35 -20 -90 -41 -165 -41h-239zM191 112h79c21 0 63 3 96 38c24 26 37 67 37 98c0 33 -13 50 -23 59c-19 16 -46 17 -65 17h-79z" />
    <glyph glyph-name="afii10047" unicode="&#x42d;" horiz-adv-x="577" 
d="M162 558l-45 94c43 28 106 55 196 55c113 0 176 -47 210 -99c30 -46 42 -110 42 -170c0 -86 -29 -255 -144 -361c-81 -75 -178 -89 -241 -89c-100 0 -155 37 -185 65l80 89c46 -38 87 -44 116 -44c45 0 103 12 141 57c27 31 45 79 52 120l6 33h-202l20 111h198l3 25
c1 10 3 23 3 36c0 20 -4 42 -15 63c-17 32 -51 54 -109 54c-40 0 -86 -12 -126 -39z" />
    <glyph glyph-name="afii10048" unicode="&#x42e;" horiz-adv-x="954" 
d="M173 695h139l-58 -270h112c19 61 57 137 115 192c42 39 116 90 230 90c62 0 141 -15 192 -93c27 -41 39 -97 39 -157c0 -131 -58 -285 -153 -375c-62 -59 -136 -94 -231 -94c-114 0 -174 53 -204 115c-17 35 -25 79 -25 124c0 28 3 57 9 83h-108l-66 -310h-139zM689 600
c-72 0 -108 -47 -126 -74c-44 -67 -81 -213 -81 -307c0 -19 2 -36 5 -49c7 -29 24 -75 94 -75c73 0 107 46 126 75c44 67 81 213 81 307c0 19 -2 36 -5 49c-7 27 -24 74 -94 74z" />
    <glyph glyph-name="afii10049" unicode="&#x42f;" horiz-adv-x="613" 
d="M635 695l-148 -695h-138l60 283h-56c-21 0 -49 -2 -71 -20c-15 -12 -37 -46 -46 -67l-32 -71c-17 -38 -26 -65 -54 -90c-11 -10 -38 -30 -90 -36l-84 -9l-6 97l23 6c13 3 34 12 46 19c10 6 25 16 41 48l40 79c13 25 24 47 50 68c31 25 65 34 77 37c-45 6 -81 30 -98 55
c-17 24 -23 56 -23 83c0 56 31 120 83 160c60 46 132 53 191 53h235zM473 583h-77c-21 0 -46 -1 -72 -15c-39 -22 -53 -63 -53 -97c0 -16 4 -36 20 -52c20 -21 47 -24 69 -24h73z" />
    <glyph glyph-name="afii10065" unicode="&#x430;" horiz-adv-x="529" 
d="M453 69l-111 -83c-16 11 -30 27 -39 63c-35 -39 -83 -61 -136 -61c-57 0 -88 22 -105 42c-29 33 -36 74 -36 119c0 119 43 230 108 295c71 72 152 80 204 80c88 0 135 -16 170 -35c-13 -43 -25 -90 -33 -126l-41 -194c-4 -21 -4 -37 -4 -41c0 -26 8 -43 23 -59zM303 171
l53 241c-12 7 -32 8 -42 8c-38 0 -65 -14 -88 -44c-27 -34 -40 -75 -48 -108c-8 -32 -15 -75 -15 -114c0 -31 7 -42 8 -45c8 -15 22 -18 33 -18c43 0 84 44 99 80z" />
    <glyph glyph-name="afii10066" unicode="&#x431;" horiz-adv-x="574" 
d="M574 765l23 -105c-20 -10 -45 -20 -134 -48c-88 -27 -79 -18 -146 -44c-31 -12 -58 -25 -83 -66c-19 -30 -28 -67 -30 -74c18 21 41 41 66 55c31 18 74 29 115 29c54 0 96 -25 119 -63c20 -31 27 -73 27 -112c0 -90 -35 -200 -111 -274c-32 -31 -88 -75 -185 -75
c-73 0 -115 29 -139 55c-28 31 -47 80 -47 136c0 36 5 94 38 201c16 51 34 98 57 141c60 112 133 150 223 177l59 18c48 15 37 9 148 49zM324 414c-36 0 -55 -18 -64 -27c-18 -19 -29 -43 -36 -64c-13 -36 -32 -112 -32 -154c0 -5 0 -35 9 -53c8 -16 23 -30 54 -30
c30 0 48 12 64 30c17 19 27 39 36 64c11 32 32 117 32 161c0 16 -3 32 -11 46c-7 13 -21 27 -52 27z" />
    <glyph glyph-name="afii10067" unicode="&#x432;" horiz-adv-x="554" 
d="M32 19l66 309c17 78 51 123 85 149c34 27 86 47 155 47c83 0 122 -25 136 -37s40 -40 40 -87c0 -34 -14 -70 -42 -95c-16 -14 -40 -27 -61 -34c23 -5 46 -18 59 -33c18 -20 22 -43 22 -59c0 -57 -32 -112 -70 -140c-46 -34 -120 -51 -201 -51c-63 0 -129 10 -189 31z
M209 225l-29 -135c23 -7 52 -9 64 -9c24 0 50 3 70 18c16 11 35 34 35 72c0 16 -3 29 -16 40c-16 13 -32 14 -49 14h-75zM226 304h64c30 0 49 11 58 19c17 14 29 36 29 65c0 11 -2 23 -14 32c-10 8 -25 11 -41 11c-19 0 -40 -6 -55 -19c-25 -20 -30 -51 -35 -76z" />
    <glyph glyph-name="afii10068" unicode="&#x433;" horiz-adv-x="448" 
d="M130 384l-44 83c23 17 43 27 68 36c39 14 80 22 125 22c35 0 80 -6 115 -37c36 -32 42 -69 42 -101c0 -39 -8 -69 -39 -100c-32 -33 -73 -51 -109 -63l-35 -12c-52 -18 -81 -25 -100 -41c-13 -11 -19 -22 -19 -40c0 -13 3 -21 11 -29c15 -14 40 -15 52 -15
c45 0 84 13 110 25c15 7 30 16 44 25l32 -91l-14 -9c-24 -16 -59 -28 -86 -35c-34 -9 -67 -13 -104 -13c-38 0 -85 6 -119 35c-28 24 -45 62 -45 104c0 34 10 74 47 107c20 18 51 36 107 55l27 9c75 25 93 38 101 44c8 7 20 20 20 40c0 18 -9 28 -19 34c-11 7 -29 9 -42 9
c-23 0 -55 -6 -77 -15c-17 -7 -37 -18 -49 -27z" />
    <glyph glyph-name="afii10069" unicode="&#x434;" horiz-adv-x="578" 
d="M195 637l43 102c22 3 46 5 70 5c34 0 67 -3 95 -11c41 -11 76 -32 102 -71c38 -56 39 -124 39 -174c0 -153 -47 -329 -120 -413c-37 -43 -106 -87 -203 -87c-47 0 -98 11 -134 51c-36 39 -43 90 -43 129c0 111 47 218 111 275c29 26 79 57 146 57c24 0 41 -4 61 -11
c19 -6 33 -12 50 -26c2 13 3 29 3 45c0 26 -3 54 -11 74c-10 23 -26 39 -47 49c-29 15 -60 16 -85 16c-35 0 -56 -3 -77 -10zM381 317l12 54c-11 10 -23 17 -34 22c-13 5 -28 9 -41 9c-67 0 -92 -65 -105 -104c-24 -72 -27 -116 -27 -139c0 -54 28 -73 54 -73
c23 0 55 9 82 53c26 42 42 99 59 178z" />
    <glyph glyph-name="afii10070" unicode="&#x435;" horiz-adv-x="516" 
d="M407 142l34 -84c-87 -63 -165 -70 -208 -70s-103 6 -147 52c-35 36 -47 85 -47 136c0 102 47 217 115 281c66 62 134 67 176 67c67 0 107 -18 131 -37c14 -11 43 -40 43 -102c0 -64 -35 -100 -62 -121c-55 -43 -124 -55 -197 -55c-23 0 -39 1 -61 7c-3 -14 -5 -32 -5 -46
c0 -36 12 -56 27 -67c18 -14 46 -15 59 -15c57 0 109 30 142 54zM206 308c11 -3 22 -5 38 -5c23 0 59 3 86 17c24 12 39 29 39 56c0 16 -5 30 -14 38c-6 6 -18 13 -40 13c-32 0 -55 -13 -73 -34c-20 -24 -32 -61 -36 -85z" />
    <glyph glyph-name="afii10072" unicode="&#x436;" horiz-adv-x="883" 
d="M324 0l47 223h-62c-19 -78 -61 -135 -90 -166c-30 -33 -74 -69 -144 -69c-44 0 -85 13 -116 49l67 82c10 -20 30 -33 51 -33c30 0 47 17 66 48c31 50 64 129 64 212c0 19 0 47 -16 66c-9 11 -18 14 -32 14c-19 0 -46 -7 -73 -42l-43 73c38 45 90 67 150 67
c36 0 70 -10 99 -43c27 -31 41 -75 41 -132c0 -10 0 -20 -1 -31h60l38 182l138 25l-44 -207h65c14 42 37 87 82 136c31 34 73 70 144 70c46 0 87 -16 116 -51l-67 -80c-15 29 -44 33 -52 33c-27 0 -48 -19 -66 -47c-28 -44 -64 -134 -64 -212c0 -20 0 -48 16 -67
c10 -12 20 -14 32 -14c27 0 49 11 73 42l43 -75c-54 -61 -118 -65 -149 -65c-28 0 -70 6 -101 42c-27 32 -39 81 -39 130c0 23 2 44 5 63h-59l-47 -223h-132z" />
    <glyph glyph-name="afii10073" unicode="&#x437;" horiz-adv-x="466" 
d="M163 315h52c17 0 39 6 54 17c14 10 23 24 23 43c0 14 -2 29 -16 40c-12 9 -29 12 -42 12c-29 0 -51 -5 -73 -15c-18 -8 -32 -16 -45 -27l-38 77c18 14 44 32 80 44c37 13 79 18 115 18c33 0 75 -4 111 -31c33 -25 47 -58 47 -96c0 -48 -20 -78 -37 -94
c-22 -22 -48 -32 -58 -35c19 -4 34 -14 48 -33c14 -20 16 -38 16 -63c0 -79 -48 -122 -87 -145c-42 -26 -105 -39 -164 -39c-62 0 -98 16 -124 34c-16 11 -29 22 -40 36l77 80c8 -12 18 -22 30 -31c23 -17 42 -21 69 -21c19 0 44 3 63 16s34 36 34 69c0 23 -11 34 -19 40
c-13 9 -39 11 -56 11h-38z" />
    <glyph glyph-name="afii10074" unicode="&#x438;" horiz-adv-x="547" 
d="M530 524l-83 -391c-1 -6 -4 -27 -4 -35c0 -21 4 -46 15 -69l-116 -46c-7 12 -20 35 -24 68c-19 -19 -39 -31 -59 -41c-38 -18 -70 -22 -91 -22c-37 0 -72 12 -92 29c-13 12 -31 35 -31 74c0 29 7 66 10 81l69 328l138 25l-70 -329c-2 -8 -6 -35 -8 -46
c-2 -13 -2 -19 -2 -23c0 -10 2 -19 10 -28c6 -7 13 -11 24 -11s28 3 53 21c22 15 40 33 55 55l71 333z" />
    <glyph glyph-name="afii10075" unicode="&#x439;" horiz-adv-x="549" 
d="M530 524l-83 -391c-3 -14 -4 -26 -4 -38c0 -31 8 -53 15 -66l-116 -46c-7 12 -20 35 -24 68c-18 -17 -40 -32 -60 -42c-26 -13 -59 -21 -92 -21c-70 0 -121 36 -121 103c0 29 6 61 10 81l69 328l138 25l-70 -329c-2 -8 -7 -37 -8 -46c-2 -13 -2 -19 -2 -23
c0 -10 3 -20 9 -27s14 -12 25 -12c37 0 89 46 108 76l71 333zM474 742l65 -29c-18 -37 -47 -69 -75 -88c-34 -23 -78 -33 -119 -33c-48 0 -83 14 -105 34c-20 18 -36 50 -38 87l78 29c4 -12 13 -26 28 -36c20 -13 41 -14 58 -14c20 0 44 2 65 14c13 7 34 24 43 36z" />
    <glyph glyph-name="afii10076" unicode="&#x43a;" horiz-adv-x="540" 
d="M148 0h-126l106 500l137 25l-37 -164l-33 -105h2l24 42c21 37 41 72 83 115c26 26 54 49 88 67c37 20 83 36 128 45l25 -90l-20 -6c-61 -18 -144 -57 -199 -136c32 -2 64 -12 81 -36c10 -14 18 -40 19 -60l2 -59c0 -5 1 -27 8 -36c6 -7 14 -11 23 -13l28 -8l-38 -91
l-46 5c-31 3 -64 12 -81 41c-13 22 -13 51 -14 72l-2 68c0 8 -1 17 -11 24c-8 5 -20 7 -28 7c-42 -52 -75 -110 -119 -207z" />
    <glyph glyph-name="afii10077" unicode="&#x43b;" horiz-adv-x="540" 
d="M288 0l89 420h-91l-11 -45c-5 -20 -18 -74 -31 -118c-25 -87 -39 -126 -51 -151s-31 -57 -59 -78s-60 -28 -100 -33l-42 -5l-12 92l27 7c12 3 40 13 59 35c15 18 25 41 33 61c17 44 31 87 44 134c10 37 20 77 33 129l16 64h337l-109 -512h-132z" />
    <glyph glyph-name="afii10078" unicode="&#x43c;" horiz-adv-x="684" 
d="M599 0h-118l36 266c2 13 2 24 6 45l3 12l6 29c-12 -28 -33 -67 -39 -79l-152 -273h-102l-29 261c-2 15 -4 45 -4 76v15c-7 -36 -18 -76 -23 -93l-74 -259h-119l162 512h156l20 -253c1 -17 4 -30 4 -48v-33c10 26 29 66 38 83l132 251h154z" />
    <glyph glyph-name="afii10079" unicode="&#x43d;" horiz-adv-x="547" 
d="M154 0h-132l106 500l138 25l-45 -208h138l39 183l138 25l-112 -525h-132l47 223h-138z" />
    <glyph glyph-name="afii10080" unicode="&#x43e;" horiz-adv-x="548" 
d="M514 342c0 -82 -23 -168 -66 -232c-67 -100 -169 -122 -240 -122c-39 0 -87 8 -126 44c-41 38 -51 90 -51 144c0 103 36 198 101 265c25 26 88 83 197 83c71 0 114 -26 138 -49c40 -40 47 -90 47 -133zM370 348c0 19 -2 47 -20 63c-9 8 -23 13 -36 13
c-26 0 -74 -13 -108 -104c-17 -47 -33 -114 -33 -163c0 -16 3 -38 18 -54c12 -12 29 -18 46 -18c27 0 59 18 86 66c32 57 47 141 47 197z" />
    <glyph glyph-name="afii10081" unicode="&#x43f;" horiz-adv-x="551" 
d="M98 480l124 49c9 -21 13 -44 13 -73v-10c18 21 44 42 71 55c26 13 64 23 102 23c40 0 63 -15 75 -26c20 -18 28 -45 28 -79c0 -21 -5 -55 -8 -69l-74 -350h-132l71 333c3 13 7 28 7 46c0 6 0 18 -8 25c-6 5 -16 7 -25 7c-21 0 -44 -9 -62 -22s-41 -39 -52 -55l-71 -334
h-132l73 345c4 21 9 53 9 73s-4 43 -9 62z" />
    <glyph glyph-name="afii10082" unicode="&#x440;" horiz-adv-x="565" 
d="M100 480l124 49c5 -9 13 -29 13 -74v-8c46 50 109 77 161 77c32 0 72 -10 100 -45c31 -39 37 -89 37 -125c0 -10 0 -112 -53 -217c-25 -50 -55 -86 -103 -115c-40 -24 -79 -34 -126 -34c-49 0 -79 11 -98 21v-5c0 -8 -2 -13 -4 -24l-35 -166l-136 -34l122 573
c4 17 7 39 7 63c0 21 -2 43 -9 64zM229 330l-47 -219c18 -16 50 -22 68 -22c28 0 50 10 65 24c19 18 36 49 47 81c14 39 29 110 29 159c0 10 -1 34 -14 47c-7 7 -18 11 -31 11c-20 0 -43 -8 -60 -20c-21 -14 -44 -41 -57 -61z" />
    <glyph glyph-name="afii10083" unicode="&#x441;" horiz-adv-x="442" 
d="M467 464l-77 -84c-16 18 -43 38 -75 38c-19 0 -42 -8 -63 -30c-20 -22 -35 -59 -43 -80c-15 -41 -27 -100 -27 -144c0 -16 2 -36 11 -51c9 -16 25 -26 49 -26c21 0 42 8 55 14c17 8 39 23 56 37l45 -82c-78 -62 -149 -68 -187 -68c-50 0 -97 12 -130 47
c-32 34 -44 79 -44 132c0 114 53 231 129 297c24 21 79 60 166 60c31 0 87 -8 135 -60z" />
    <glyph glyph-name="afii10084" unicode="&#x442;" horiz-adv-x="802" 
d="M98 480l123 49c9 -26 12 -42 12 -70v-12c23 25 50 44 80 58c25 11 53 19 84 19c56 0 94 -30 96 -77c11 12 38 38 78 57c28 13 57 20 87 20c29 0 55 -8 74 -26c17 -16 29 -41 29 -81c0 -21 -5 -49 -8 -67l-74 -350h-130l72 338c3 12 6 30 6 42c0 6 0 18 -8 25
c-5 5 -15 6 -22 6c-41 0 -85 -36 -109 -77l-71 -334h-130l71 333c2 7 7 31 7 50c0 12 -3 19 -7 22c-6 5 -19 6 -24 6c-24 0 -42 -11 -53 -19c-18 -14 -43 -42 -55 -58l-71 -334h-130l75 350c4 20 6 54 6 70c0 23 -4 43 -8 60z" />
    <glyph glyph-name="afii10085" unicode="&#x443;" horiz-adv-x="514" 
d="M575 512l-297 -520c-73 -128 -104 -150 -134 -169c-31 -19 -69 -38 -134 -47l-27 90c26 5 61 15 90 32c37 22 60 51 89 102h-37c-6 77 -7 98 -13 144l-46 360l138 16l25 -299c2 -26 4 -66 4 -105c20 49 49 115 69 152l129 244h144z" />
    <glyph glyph-name="afii10086" unicode="&#x444;" horiz-adv-x="770" 
d="M397 16l-46 -218h-132l46 218c-36 -26 -69 -28 -87 -28c-67 0 -102 34 -120 63c-18 28 -26 68 -26 114c0 105 44 237 115 303c44 41 92 56 131 56c24 0 62 -5 88 -33l47 218l139 32l-54 -250c33 24 73 33 102 33c31 0 76 -9 107 -56c20 -30 29 -71 29 -114
c0 -111 -56 -245 -116 -303c-52 -50 -107 -63 -148 -63c-23 0 -51 4 -75 28zM476 387l-57 -268c18 -22 33 -26 52 -26c26 0 45 7 66 34c31 40 59 149 59 217c0 18 -2 33 -6 43c-10 23 -24 28 -44 28c-19 0 -44 -5 -70 -28zM287 119l57 268c-18 26 -45 28 -58 28
c-23 0 -39 -8 -56 -28c-30 -36 -61 -160 -61 -227c0 -14 1 -25 4 -33c12 -30 30 -34 52 -34c17 0 37 3 62 26z" />
    <glyph glyph-name="afii10087" unicode="&#x445;" horiz-adv-x="468" 
d="M525 512l-211 -247l128 -265h-158l-25 68c-7 20 -16 39 -27 71c-3 9 -6 18 -8 32c-23 -35 -53 -77 -130 -171h-176l251 276l-96 213l138 37c17 -39 36 -91 54 -153c15 24 36 55 55 81c12 16 20 25 43 58h162z" />
    <glyph glyph-name="afii10088" unicode="&#x446;" horiz-adv-x="557" 
d="M527 524l-77 -364c-3 -15 -5 -29 -5 -40c0 -9 1 -17 3 -26h64l-55 -259h-123l35 165h-28c-17 15 -24 34 -26 51c-18 -17 -40 -32 -60 -42c-26 -13 -59 -21 -92 -21c-70 0 -121 36 -121 103c0 29 6 61 10 81l69 328l138 25l-70 -329c-2 -8 -7 -37 -8 -46
c-2 -13 -2 -19 -2 -23c0 -10 3 -20 9 -27s14 -12 27 -12c23 0 45 14 60 26c20 16 34 32 46 50l71 333z" />
    <glyph glyph-name="afii10089" unicode="&#x447;" horiz-adv-x="500" 
d="M352 500l138 25l-112 -525h-132l42 198c-34 -13 -74 -20 -104 -20c-63 0 -97 24 -111 46c-11 16 -14 35 -14 53c0 16 3 32 6 47l37 176l138 25l-40 -188c-1 -8 -3 -16 -3 -25s2 -18 8 -26c11 -13 28 -14 38 -14c16 0 41 4 64 15z" />
    <glyph glyph-name="afii10090" unicode="&#x448;" horiz-adv-x="801" 
d="M646 500l136 24l-77 -363c-5 -24 -5 -63 -5 -87c0 -15 3 -28 7 -43l-124 -49c-9 26 -12 42 -12 70v12c-45 -47 -107 -76 -164 -76s-91 30 -94 76c-40 -42 -101 -76 -165 -76c-56 0 -104 27 -104 106c0 14 1 31 9 67l71 339l135 24l-74 -351c-6 -27 -6 -39 -6 -44
c0 -10 1 -29 30 -29c38 0 82 32 109 77l68 323l132 24l-73 -346c-6 -27 -7 -37 -7 -50c0 -7 1 -28 30 -28c44 0 81 36 110 77z" />
    <glyph glyph-name="afii10091" unicode="&#x449;" horiz-adv-x="810" 
d="M780 524l-77 -363c-3 -15 -5 -28 -5 -40c0 -10 1 -18 3 -27h64l-55 -259h-123l35 165h-28c-18 15 -25 35 -25 56v8c-45 -47 -107 -76 -164 -76s-91 30 -94 76c-40 -42 -101 -76 -165 -76c-56 0 -104 27 -104 106c0 14 1 31 9 67l71 339l135 24l-74 -351
c-6 -27 -6 -39 -6 -44s0 -16 9 -23c6 -4 14 -6 21 -6c21 0 44 10 64 25c18 14 34 33 45 52l68 323l132 24l-73 -346c-6 -27 -7 -37 -7 -50c0 -5 0 -14 8 -21c7 -6 16 -7 22 -7c20 0 42 9 59 22c16 12 38 37 51 55l68 323z" />
    <glyph glyph-name="afii10092" unicode="&#x44a;" horiz-adv-x="575" 
d="M331 512l-43 -188c33 6 57 9 84 9c30 0 81 -4 116 -32c34 -27 42 -62 42 -96c0 -49 -17 -107 -66 -151c-66 -59 -154 -66 -217 -66c-65 0 -110 8 -162 31l92 399h-127l39 94h242zM265 229l-30 -135c15 -6 34 -9 50 -9c38 0 61 10 73 21c18 16 29 45 29 73
c0 14 -1 34 -19 47c-14 10 -34 12 -49 12c-25 0 -42 -5 -54 -9z" />
    <glyph glyph-name="afii10093" unicode="&#x44b;" horiz-adv-x="766" 
d="M265 525l-43 -201c28 6 61 9 84 9c39 0 86 -8 117 -32c33 -26 43 -62 43 -96c0 -49 -15 -107 -63 -151c-64 -59 -153 -66 -216 -66c-65 0 -110 8 -162 31l102 481zM512 0l106 500l138 25l-112 -525h-132zM202 232l-29 -138c5 -2 22 -9 51 -9c38 0 60 10 72 21
c15 14 28 39 28 73c0 15 -2 33 -20 47c-14 11 -31 12 -45 12c-10 0 -34 -1 -57 -6z" />
    <glyph glyph-name="afii10094" unicode="&#x44c;" horiz-adv-x="507" 
d="M265 525l-43 -201c28 6 61 9 84 9c39 0 86 -8 117 -32c33 -26 43 -62 43 -96c0 -49 -15 -107 -63 -151c-64 -59 -153 -66 -216 -66c-65 0 -110 8 -162 31l102 481zM202 232l-29 -138c5 -2 22 -9 51 -9c38 0 60 10 72 21c15 14 28 39 28 73c0 15 -2 33 -20 47
c-14 11 -31 12 -45 12c-10 0 -34 -1 -57 -6z" />
    <glyph glyph-name="afii10095" unicode="&#x44d;" horiz-adv-x="473" 
d="M143 223l20 94h128c1 8 4 23 4 35c0 14 -3 33 -9 45c-8 14 -24 28 -58 28c-29 0 -52 -8 -67 -15c-6 -3 -23 -11 -41 -25l-44 83c19 15 84 59 185 59c44 0 104 -11 141 -63c6 -9 35 -52 35 -142c0 -82 -31 -197 -97 -261c-34 -33 -97 -73 -198 -73c-43 0 -75 8 -109 25
c-24 12 -41 24 -58 45l79 81c26 -32 63 -49 99 -49c29 0 63 5 87 40c14 20 23 55 27 74l4 19h-128z" />
    <glyph glyph-name="afii10096" unicode="&#x44e;" horiz-adv-x="786" 
d="M221 317h89c17 55 48 101 82 133c46 43 108 72 179 72c73 0 181 -30 181 -194c0 -77 -23 -158 -66 -218c-39 -55 -111 -120 -228 -120c-51 0 -98 11 -133 51c-34 39 -42 90 -42 131c0 21 2 39 4 51h-86l-47 -223h-132l106 500l138 25zM561 424c-28 0 -74 -13 -105 -104
c-13 -37 -33 -106 -33 -163c0 -15 2 -36 15 -51c8 -9 20 -18 39 -18c40 0 63 27 78 53c31 52 54 134 54 200c0 49 -12 65 -17 70c-8 8 -21 13 -31 13z" />
    <glyph glyph-name="afii10097" unicode="&#x44f;" horiz-adv-x="526" 
d="M318 195h-31c-15 0 -31 -1 -49 -13c-20 -13 -31 -33 -38 -49l-19 -43c-12 -27 -24 -48 -40 -64c-26 -25 -61 -32 -109 -34l-47 -2l-5 92l19 4c4 1 22 5 33 12c18 11 27 27 33 38l22 37c12 20 21 31 38 44c16 12 29 19 48 22c-26 6 -49 20 -64 39c-14 18 -20 38 -20 61
c0 54 26 110 86 145c19 11 71 38 164 38c79 0 148 -18 176 -26l-106 -496h-132zM337 280l29 139c-6 2 -19 6 -46 6c-23 0 -48 -5 -65 -18c-19 -13 -33 -38 -33 -70c0 -26 11 -38 17 -43c16 -13 44 -14 53 -14h45z" />
    <glyph glyph-name="afii10071" unicode="&#x451;" horiz-adv-x="516" 
d="M407 142l34 -84c-87 -63 -165 -70 -208 -70s-103 6 -147 52c-35 36 -47 85 -47 136c0 102 47 217 115 281c66 62 134 67 176 67c67 0 107 -18 131 -37c14 -11 43 -40 43 -102c0 -64 -35 -100 -62 -121c-55 -43 -124 -55 -197 -55c-23 0 -39 1 -61 7c-3 -14 -5 -32 -5 -46
c0 -36 12 -56 27 -67c18 -14 46 -15 59 -15c57 0 109 30 142 54zM489 627c0 -38 -33 -70 -69 -70c-38 0 -69 33 -69 70c0 36 32 69 70 69c37 0 68 -32 68 -69zM299 627c0 -38 -33 -70 -69 -70s-69 32 -69 70c0 37 33 69 70 69s68 -33 68 -69zM206 308c11 -3 22 -5 38 -5
c23 0 59 3 86 17c24 12 39 29 39 56c0 16 -5 30 -14 38c-6 6 -18 13 -40 13c-32 0 -55 -13 -73 -34c-20 -24 -32 -61 -36 -85z" />
    <glyph glyph-name="afii10099" unicode="&#x452;" horiz-adv-x="575" 
d="M181 718l138 32l-24 -117h195l-38 -68h-172l-14 -66l-11 -43c51 38 112 55 157 55c32 0 78 -11 100 -36c15 -17 20 -40 20 -64c0 -19 -3 -38 -7 -56l-64 -301c-13 -59 -37 -145 -106 -206c-27 -24 -67 -50 -113 -68l-40 74c19 15 49 42 61 55c28 30 54 83 66 141l59 279
c3 11 4 23 4 33c0 21 -8 37 -39 37c-36 0 -84 -20 -118 -47l-75 -352h-132l120 565h-51l15 68h51z" />
    <glyph glyph-name="afii10100" unicode="&#x453;" horiz-adv-x="448" 
d="M130 384l-44 83c23 17 43 27 68 36c39 14 80 22 125 22c35 0 80 -6 115 -37c36 -32 42 -69 42 -101c0 -39 -8 -69 -39 -100c-32 -33 -73 -51 -109 -63l-35 -12c-52 -18 -81 -25 -100 -41c-13 -11 -19 -22 -19 -40c0 -13 3 -21 11 -29c15 -14 40 -15 52 -15
c45 0 84 13 110 25c15 7 30 16 44 25l32 -91l-14 -9c-24 -16 -59 -28 -86 -35c-34 -9 -67 -13 -104 -13c-38 0 -85 6 -119 35c-28 24 -45 62 -45 104c0 34 10 74 47 107c20 18 51 36 107 55l27 9c75 25 93 38 101 44c8 7 20 20 20 40c0 18 -9 28 -19 34c-11 7 -29 9 -42 9
c-23 0 -55 -6 -77 -15c-17 -7 -37 -18 -49 -27zM450 657l-239 -103l-40 75l231 133z" />
    <glyph glyph-name="afii10101" unicode="&#x454;" horiz-adv-x="440" 
d="M314 223h-133l-5 -19c-4 -17 -8 -33 -8 -51c0 -11 1 -31 16 -47c18 -19 46 -20 58 -20c32 0 59 9 84 23c15 8 28 19 37 26l44 -77c-15 -12 -40 -29 -57 -38c-55 -30 -107 -32 -130 -32c-36 0 -92 5 -136 46c-46 43 -53 100 -53 142c0 76 27 142 31 153
c13 32 42 93 85 133c42 40 99 65 174 65c39 0 71 -6 103 -20c24 -10 40 -22 56 -39l-77 -79c-8 9 -18 17 -31 25c-20 11 -37 15 -61 15c-37 0 -58 -15 -68 -25c-18 -17 -33 -50 -39 -74l-3 -13h133z" />
    <glyph glyph-name="afii10102" unicode="&#x455;" horiz-adv-x="478" 
d="M463 479l-52 -89c-48 28 -97 34 -124 34c-16 0 -39 -2 -57 -15c-14 -11 -18 -25 -18 -37c0 -14 6 -22 11 -27c12 -13 29 -19 43 -24l57 -20c28 -10 56 -27 74 -49c16 -20 27 -47 27 -78c0 -50 -25 -103 -70 -137c-38 -29 -97 -49 -175 -49c-53 0 -121 12 -196 57l53 96
c53 -34 115 -52 156 -52c18 0 45 3 66 22c11 10 19 24 19 39c0 8 -2 20 -13 30c-13 11 -36 19 -51 24l-56 20c-25 9 -47 20 -65 42c-17 21 -28 50 -28 85c0 29 8 83 61 125c41 32 99 48 163 48c86 0 143 -26 175 -45z" />
    <glyph glyph-name="afii10103" unicode="&#x456;" horiz-adv-x="278" 
d="M268 524l-111 -524h-132l107 503zM312 653c0 -46 -37 -83 -83 -83s-82 37 -82 83s38 83 84 83c45 0 81 -37 81 -83z" />
    <glyph glyph-name="afii10104" unicode="&#x457;" horiz-adv-x="280" 
d="M270 524l-111 -524h-134l107 503zM404 635c0 -41 -35 -77 -77 -77s-76 36 -76 77s35 77 78 77c41 0 75 -35 75 -77zM193 635c0 -41 -35 -77 -77 -77c-40 0 -76 36 -76 77s37 77 78 77s75 -36 75 -77z" />
    <glyph glyph-name="afii10105" unicode="&#x458;" horiz-adv-x="268" 
d="M260 524l-108 -510c-22 -102 -54 -141 -72 -159c-16 -16 -57 -53 -120 -75l-42 78c18 9 40 23 63 54c21 28 27 51 37 98l105 493zM304 653c0 -46 -37 -83 -83 -83s-82 37 -82 83s38 83 84 83c45 0 81 -37 81 -83z" />
    <glyph glyph-name="afii10106" unicode="&#x459;" horiz-adv-x="758" 
d="M519 512l-40 -188c28 6 61 9 84 9c39 0 86 -8 117 -32c33 -26 43 -62 43 -96c0 -59 -22 -114 -63 -151c-56 -51 -135 -64 -215 -64c-64 0 -110 9 -163 31l85 399h-91l-11 -45c-5 -20 -18 -74 -31 -118c-25 -87 -39 -126 -51 -151s-31 -57 -59 -78s-60 -28 -100 -33
l-42 -5l-12 92l27 7c12 3 40 13 59 35c15 18 25 41 33 61c17 44 31 87 44 134c10 37 20 77 33 129l16 64h337zM459 232l-29 -138c5 -2 22 -9 51 -9c38 0 60 10 72 21c15 14 28 39 28 73c0 15 -2 33 -20 47c-14 11 -31 12 -49 12c-28 0 -45 -4 -53 -6z" />
    <glyph glyph-name="afii10107" unicode="&#x45a;" horiz-adv-x="778" 
d="M536 525l-43 -201c28 6 61 9 84 9c39 0 86 -8 117 -32c33 -26 43 -62 43 -96c0 -49 -15 -107 -63 -151c-64 -59 -153 -66 -215 -66c-63 0 -111 10 -163 33l43 202h-138l-47 -223h-132l106 500l138 25l-45 -208h138l39 183zM473 232l-29 -138c5 -2 22 -9 51 -9
c38 0 60 10 72 21c15 14 28 39 28 73c0 15 -2 33 -20 47c-14 11 -31 12 -49 12c-28 0 -45 -4 -53 -6z" />
    <glyph glyph-name="afii10108" unicode="&#x45b;" horiz-adv-x="575" 
d="M450 0h-132l70 329c3 13 4 24 4 33c0 11 -2 19 -6 24c-9 13 -27 13 -33 13c-36 0 -84 -20 -118 -47l-75 -352h-132l120 565h-51l15 68h51l18 85l138 32l-24 -117h195l-38 -68h-172l-14 -66l-11 -43c45 34 99 55 157 55c28 0 72 -3 100 -36c15 -18 20 -41 20 -64
c0 -19 -3 -37 -7 -56z" />
    <glyph glyph-name="afii10109" unicode="&#x45c;" horiz-adv-x="540" 
d="M148 0h-126l106 500l137 25l-37 -164l-33 -105h2l24 42c21 37 41 72 83 115c26 26 54 49 88 67c37 20 83 36 128 45l25 -90l-20 -6c-61 -18 -144 -57 -199 -136c32 -2 64 -12 81 -36c10 -14 18 -40 19 -60l2 -59c0 -5 1 -27 8 -36c6 -7 14 -11 23 -13l28 -8l-38 -91
l-46 5c-31 3 -64 12 -81 41c-13 22 -13 51 -14 72l-2 68c0 8 -1 17 -11 24c-8 5 -20 7 -28 7c-42 -52 -75 -110 -119 -207zM496 657l-239 -103l-40 75l231 133z" />
    <glyph glyph-name="afii10110" unicode="&#x45e;" horiz-adv-x="514" 
d="M575 512l-297 -520c-73 -128 -104 -150 -134 -169c-31 -19 -69 -38 -134 -47l-27 90c26 5 61 15 90 32c37 22 60 51 89 102h-37c-6 77 -7 98 -13 144l-46 360l138 16l25 -299c2 -26 4 -66 4 -105c20 49 49 115 69 152l129 244h144zM450 742l65 -29
c-18 -37 -47 -69 -75 -88c-34 -23 -78 -33 -119 -33c-48 0 -83 14 -105 34c-20 18 -36 50 -38 87l78 29c4 -12 13 -26 28 -36c20 -13 41 -14 58 -14c20 0 44 2 65 14c13 7 34 24 43 36z" />
    <glyph glyph-name="afii10193" unicode="&#x45f;" horiz-adv-x="547" 
d="M530 524l-83 -391c-3 -14 -4 -26 -4 -38c0 -31 8 -53 15 -66l-116 -46c-7 12 -20 35 -24 68c-19 -18 -72 -64 -148 -64c-64 0 -125 28 -125 104c0 28 6 61 10 81l69 328l138 25l-70 -329c-7 -31 -10 -59 -10 -69c0 -18 10 -39 32 -39c34 0 84 37 110 76l71 333zM253 -183
h-123l25 121l131 36z" />
    <glyph glyph-name="afii10050" unicode="&#x490;" horiz-adv-x="483" 
d="M173 695h252l18 87h135l-42 -200h-247l-124 -582h-140z" />
    <glyph glyph-name="afii10098" unicode="&#x491;" horiz-adv-x="439" 
d="M154 0h-132l109 512h222l20 97h121l-40 -191h-211z" />
    <glyph glyph-name="endash" unicode="&#x2013;" horiz-adv-x="566" 
d="M547 326l-22 -103h-487l22 103h487z" />
    <glyph glyph-name="emdash" unicode="&#x2014;" horiz-adv-x="792" 
d="M773 326l-22 -103h-713l22 103h713z" />
    <glyph glyph-name="afii00208" unicode="&#x2015;" horiz-adv-x="792" 
d="M773 326l-22 -103h-713l22 103h713z" />
    <glyph glyph-name="quoteleft" unicode="&#x2018;" horiz-adv-x="270" 
d="M327 660c-44 -16 -82 -37 -82 -58c0 -11 4 -21 14 -27c27 -16 34 -43 34 -75c0 -48 -39 -86 -87 -86c-58 0 -98 38 -98 108c0 87 97 174 181 195z" />
    <glyph glyph-name="quoteright" unicode="&#x2019;" horiz-adv-x="270" 
d="M304 603c0 -87 -97 -174 -181 -195l-38 57c44 16 82 37 82 58c0 11 -4 21 -14 27c-27 16 -34 43 -34 75c0 48 39 86 87 86c58 0 98 -38 98 -108z" />
    <glyph glyph-name="quotesinglbase" unicode="&#x201a;" horiz-adv-x="269" 
d="M181 48c0 -87 -97 -174 -181 -195l-38 57c44 16 82 37 82 58c0 11 -4 21 -14 27c-27 16 -34 43 -34 75c0 48 39 86 87 86c58 0 98 -38 98 -108z" />
    <glyph glyph-name="quotedblleft" unicode="&#x201c;" horiz-adv-x="495" 
d="M553 660c-44 -16 -82 -37 -82 -58c0 -11 4 -21 14 -27c27 -16 34 -43 34 -75c0 -48 -39 -86 -87 -86c-58 0 -98 38 -98 108c0 87 97 174 181 195zM327 660c-44 -16 -82 -37 -82 -58c0 -11 4 -21 14 -27c27 -16 34 -43 34 -75c0 -48 -39 -86 -87 -86c-58 0 -98 38 -98 108
c0 87 97 174 181 195z" />
    <glyph glyph-name="quotedblright" unicode="&#x201d;" horiz-adv-x="496" 
d="M531 603c0 -87 -97 -174 -181 -195l-38 57c44 16 82 37 82 58c0 11 -4 21 -14 27c-27 16 -34 43 -34 75c0 48 39 86 87 86c58 0 98 -38 98 -108zM305 603c0 -87 -97 -174 -181 -195l-38 57c44 16 82 37 82 58c0 11 -4 21 -14 27c-27 16 -34 43 -34 75c0 48 39 86 87 86
c58 0 98 -38 98 -108z" />
    <glyph glyph-name="quotedblbase" unicode="&#x201e;" horiz-adv-x="495" 
d="M408 48c0 -87 -97 -174 -181 -195l-38 57c44 16 82 37 82 58c0 11 -4 21 -14 27c-27 16 -34 43 -34 75c0 48 39 86 87 86c58 0 98 -38 98 -108zM182 48c0 -87 -97 -174 -181 -195l-38 57c44 16 82 37 82 58c0 11 -4 21 -14 27c-27 16 -34 43 -34 75c0 48 39 86 87 86
c58 0 98 -38 98 -108z" />
    <glyph glyph-name="dagger" unicode="&#x2020;" horiz-adv-x="495" 
d="M542 545l-49 -121h-139l-90 -424h-132l90 424h-150l26 121h150l32 150h132l-32 -150h162z" />
    <glyph glyph-name="daggerdbl" unicode="&#x2021;" horiz-adv-x="513" 
d="M550 545l-49 -121h-139l-32 -153h150l-26 -121h-150l-32 -150h-132l32 150h-162l49 121h139l32 153h-150l26 121h150l32 150h132l-32 -150h162z" />
    <glyph glyph-name="bullet" unicode="&#x2022;" horiz-adv-x="491" 
d="M447 354c0 -98 -79 -177 -177 -177s-177 79 -177 177s79 177 177 177s177 -79 177 -177z" />
    <glyph glyph-name="ellipsis" unicode="&#x2026;" horiz-adv-x="819" 
d="M704 73c0 -49 -40 -89 -88 -89c-49 0 -88 40 -88 89c0 48 39 87 87 87c49 0 89 -39 89 -87zM204 73c0 -49 -40 -89 -88 -89c-49 0 -88 40 -88 89c0 48 39 87 87 87c49 0 89 -39 89 -87zM454 73c0 -49 -40 -89 -88 -89c-49 0 -88 40 -88 89c0 48 39 87 87 87
c49 0 89 -39 89 -87z" />
    <glyph glyph-name="perthousand" unicode="&#x2030;" horiz-adv-x="1206" 
d="M1160 205c0 -112 -74 -216 -214 -216c-86 0 -137 46 -137 122c0 137 91 224 211 224c88 0 140 -51 140 -130zM432 575c0 -112 -74 -216 -214 -216c-86 0 -137 46 -137 122c0 137 91 224 211 224c88 0 140 -51 140 -130zM790 205c0 -112 -74 -216 -214 -216
c-86 0 -137 46 -137 122c0 137 91 224 211 224c88 0 140 -51 140 -130zM744 695l-512 -695h-107l512 695h107zM681 213c0 35 -14 48 -44 48c-61 0 -90 -68 -90 -156c0 -31 18 -41 48 -41c56 0 86 71 86 149zM1051 213c0 35 -14 48 -44 48c-61 0 -90 -68 -90 -156
c0 -31 18 -41 48 -41c56 0 86 71 86 149zM323 583c0 35 -14 48 -44 48c-61 0 -90 -68 -90 -156c0 -31 18 -41 48 -41c56 0 86 71 86 149z" />
    <glyph glyph-name="guilsinglleft" unicode="&#x2039;" horiz-adv-x="331" 
d="M335 419l-155 -175l78 -168l-101 -61l-109 234l209 234z" />
    <glyph glyph-name="guilsinglright" unicode="&#x203a;" horiz-adv-x="331" 
d="M285 249l-209 -234l-80 64l155 176l-77 170l102 58z" />
    <glyph glyph-name="fraction" unicode="&#x2044;" horiz-adv-x="352" 
d="M585 764l-723 -918h-108l723 918h108z" />
    <glyph glyph-name="uni2070" unicode="&#x2070;" horiz-adv-x="345" 
d="M401 529c0 -21 -3 -44 -8 -69c-26 -122 -104 -208 -197 -208c-77 0 -117 54 -117 137c0 21 3 44 8 69c26 123 104 208 197 208c77 0 117 -54 117 -137zM294 545c0 39 -13 46 -26 46c-37 0 -55 -54 -71 -130c-8 -39 -12 -67 -12 -87c0 -40 14 -47 27 -47
c37 0 54 54 70 130c9 40 12 68 12 88z" />
    <glyph glyph-name="uni2074" unicode="&#x2074;" horiz-adv-x="356" 
d="M392 406l-18 -85h-37l-7 1c0 -3 0 -7 -1 -11l-16 -75l-98 -11l19 91l2 5h-178l14 63l165 267h105l-128 -207c-9 -14 -18 -27 -27 -38h69c11 50 25 91 41 141l86 18l-22 -104c-3 -13 -6 -39 -10 -49l-3 -7c3 0 7 1 9 1h35z" />
    <glyph glyph-name="uni2075" unicode="&#x2075;" horiz-adv-x="316" 
d="M390 649l-33 -84h-117l-19 -58c6 1 10 1 17 1c69 0 113 -38 113 -95c0 -118 -133 -181 -235 -181c-20 0 -27 0 -52 5l-7 79c37 -10 53 -12 69 -12c50 0 114 29 114 87c0 24 -15 40 -44 40c-23 0 -46 -2 -102 -18l70 236h226z" />
    <glyph glyph-name="uni2076" unicode="&#x2076;" horiz-adv-x="351" 
d="M397 611c-71 -25 -127 -46 -175 -109c14 5 34 11 50 11c68 0 113 -44 113 -104c0 -94 -93 -167 -183 -167c-80 0 -129 52 -129 128c0 141 128 241 246 290c26 11 35 14 70 24zM280 397c0 23 -14 36 -36 36c-21 0 -42 -7 -56 -14c-5 -18 -11 -37 -11 -56
c0 -29 15 -44 38 -44c39 0 65 42 65 78z" />
    <glyph glyph-name="uni2077" unicode="&#x2077;" horiz-adv-x="341" 
d="M429 649l-33 -80c-29 -31 -57 -63 -80 -93c-15 -20 -85 -117 -109 -173l-24 -58l-115 -26c45 98 91 181 158 270c26 34 43 55 60 73l-10 -1h-167l42 88h278z" />
    <glyph glyph-name="uni2078" unicode="&#x2078;" horiz-adv-x="369" 
d="M421 567c0 -48 -36 -87 -79 -105c33 -17 56 -40 56 -77c0 -102 -97 -147 -199 -147c-60 0 -136 21 -136 94c0 52 37 100 82 123c-20 16 -31 39 -31 65c0 92 101 136 180 136c75 0 127 -34 127 -89zM284 365c0 10 -3 19 -11 25c-12 9 -32 17 -56 26
c-23 -13 -42 -38 -42 -65c0 -23 16 -39 48 -39s61 19 61 53zM312 557c0 15 -11 25 -39 25c-23 0 -54 -13 -54 -40c0 -21 25 -33 42 -41c22 10 51 29 51 56z" />
    <glyph glyph-name="uni2079" unicode="&#x2079;" horiz-adv-x="349" 
d="M408 538c0 -104 -68 -192 -150 -249c-44 -30 -99 -58 -153 -75l-45 64c70 17 144 63 180 103c-10 -2 -21 -6 -31 -6c-68 0 -113 45 -113 107c0 99 92 174 188 174c80 0 124 -44 124 -118zM304 536c0 29 -15 43 -37 43c-40 0 -63 -47 -63 -82c0 -27 15 -44 40 -44
c16 0 29 4 42 11c9 18 18 52 18 72z" />
    <glyph glyph-name="uni2080" unicode="&#x2080;" horiz-adv-x="345" 
d="M346 18c0 -21 -3 -44 -8 -68c-26 -122 -105 -208 -198 -208c-77 0 -116 53 -116 136c0 21 3 45 8 70c26 123 103 208 196 208c77 0 118 -54 118 -138zM239 34c0 40 -14 47 -27 47c-37 0 -54 -54 -70 -130c-9 -40 -12 -68 -12 -88c0 -39 13 -46 26 -46c37 0 55 54 71 130
c8 39 12 67 12 87z" />
    <glyph glyph-name="uni2081" unicode="&#x2081;" horiz-adv-x="294" 
d="M277 150l-68 -319h52l-17 -81h-215l17 81h64l44 208c-23 -11 -50 -24 -82 -34l-16 56l153 89h68z" />
    <glyph glyph-name="uni2082" unicode="&#x2082;" horiz-adv-x="354" 
d="M346 65c0 -95 -125 -182 -193 -233c12 0 26 1 36 1h133l-41 -83h-275l14 67c32 24 91 71 124 100c33 28 88 77 88 126c0 21 -13 27 -32 27c-22 0 -48 -10 -95 -42l-43 63c61 44 114 65 179 65c66 0 105 -36 105 -91z" />
    <glyph glyph-name="uni2083" unicode="&#x2083;" horiz-adv-x="346" 
d="M351 67c0 -45 -29 -82 -67 -104c26 -15 41 -39 41 -68c0 -118 -163 -163 -255 -163c-19 0 -27 0 -56 4l-11 74c33 -6 41 -7 59 -7c51 0 148 23 148 90c0 38 -64 30 -88 30h-16l17 81c17 -2 33 -4 50 -4c31 0 66 11 66 47c0 15 -10 25 -35 25c-37 0 -69 -16 -98 -36
l-41 64c54 34 107 56 167 56c70 0 119 -36 119 -89z" />
    <glyph glyph-name="uni2084" unicode="&#x2084;" horiz-adv-x="356" 
d="M339 -94l-18 -85h-37l-7 1c0 -3 0 -7 -1 -11l-16 -75l-98 -11l19 91l2 5h-178l13 63l166 267h105l-128 -207c-9 -14 -18 -27 -27 -38h69c11 50 25 91 41 141l86 18l-22 -104c-3 -13 -7 -39 -11 -49l-2 -7c3 0 7 1 9 1h35z" />
    <glyph glyph-name="uni2085" unicode="&#x2085;" horiz-adv-x="316" 
d="M337 149l-33 -84h-117l-19 -58c6 1 10 1 17 1c69 0 113 -38 113 -95c0 -118 -133 -181 -235 -181c-20 0 -27 0 -52 5l-7 79c37 -10 52 -12 68 -12c50 0 115 29 115 87c0 24 -16 40 -45 40c-23 0 -45 -2 -101 -18l70 236h226z" />
    <glyph glyph-name="uni2086" unicode="&#x2086;" horiz-adv-x="351" 
d="M344 111c-71 -25 -127 -46 -175 -109c14 5 34 11 50 11c68 0 113 -44 113 -104c0 -94 -93 -167 -183 -167c-80 0 -129 52 -129 128c0 141 128 241 246 290c26 11 35 14 70 24zM227 -103c0 23 -14 36 -36 36c-21 0 -42 -7 -56 -14c-5 -18 -11 -37 -11 -56
c0 -29 15 -44 38 -44c39 0 65 42 65 78z" />
    <glyph glyph-name="uni2087" unicode="&#x2087;" horiz-adv-x="341" 
d="M376 149l-33 -80c-29 -31 -57 -63 -80 -93c-15 -20 -85 -117 -109 -173l-24 -58l-116 -26c45 98 92 181 159 270c26 34 43 55 60 73l-10 -1h-167l42 88h278z" />
    <glyph glyph-name="uni2088" unicode="&#x2088;" horiz-adv-x="369" 
d="M368 67c0 -48 -36 -87 -79 -105c33 -17 56 -40 56 -77c0 -102 -102 -147 -200 -147c-60 0 -135 21 -135 94c0 52 37 100 82 123c-20 16 -31 39 -31 65c0 92 101 136 180 136c75 0 127 -34 127 -89zM231 -135c0 10 -3 19 -11 25c-12 9 -32 17 -56 26
c-23 -13 -42 -38 -42 -65c0 -23 16 -39 48 -39s61 19 61 53zM259 57c0 15 -11 25 -39 25c-23 0 -54 -13 -54 -40c0 -21 25 -33 42 -41c22 10 51 29 51 56z" />
    <glyph glyph-name="uni2089" unicode="&#x2089;" horiz-adv-x="349" 
d="M355 38c0 -104 -68 -192 -150 -249c-44 -30 -99 -58 -153 -75l-45 64c70 17 144 63 180 103c-10 -2 -21 -6 -31 -6c-68 0 -113 45 -113 107c0 99 92 174 188 174c80 0 124 -44 124 -118zM250 37c0 29 -14 42 -36 42c-40 0 -63 -47 -63 -82c0 -27 15 -44 40 -44
c16 0 28 4 41 11c9 18 18 52 18 73z" />
    <glyph glyph-name="Euro" unicode="&#x20ac;" horiz-adv-x="638" 
d="M689 671l-57 -115c-29 26 -59 43 -111 43c-75 0 -129 -44 -156 -110h195l-21 -98h-211c-7 -26 -11 -51 -16 -77h211l-21 -98h-199c0 -77 47 -120 125 -120c41 0 84 9 131 38l11 -108c-54 -26 -98 -38 -177 -38c-146 0 -237 90 -241 228h-117l21 98h103c5 26 10 52 18 77
h-105l21 98h122c61 144 161 221 328 221c77 0 119 -21 146 -39z" />
    <glyph glyph-name="afii61352" unicode="&#x2116;" horiz-adv-x="977" 
d="M494 0h-137l-59 274c-11 53 -24 93 -47 228c-10 -74 -26 -156 -32 -182l-68 -320h-126l148 695h144l68 -289c18 -76 31 -124 39 -197c4 31 24 166 29 191l63 295h126zM874 695c27 0 71 -4 100 -47c15 -23 18 -44 18 -64c0 -25 -4 -116 -74 -178c-33 -29 -73 -44 -115 -44
c-38 0 -70 16 -88 36c-13 14 -25 39 -25 78c0 58 27 137 77 180c38 32 79 39 107 39zM895 531c4 19 8 47 8 61c0 32 -20 41 -39 41c-30 0 -47 -23 -53 -33c-17 -28 -32 -92 -32 -132c0 -8 1 -21 9 -31c6 -8 17 -15 29 -15c13 0 28 6 40 17c13 13 26 36 38 92zM909 201h-277
l13 61h277z" />
    <glyph glyph-name="uni2117" unicode="&#x2117;" horiz-adv-x="834" 
d="M789 354c0 -205 -167 -372 -372 -372s-372 167 -372 372s167 372 372 372s372 -167 372 -372zM687 354c0 155 -121 282 -270 282s-270 -127 -270 -282s121 -282 270 -282s270 127 270 282zM586 431c0 -51 -26 -94 -72 -114c-19 -9 -37 -13 -80 -13h-32v-133h-97v382h110
c66 0 88 -8 111 -20c39 -21 60 -57 60 -102zM482 429c0 30 -16 46 -42 46h-38v-92h30c30 0 36 3 43 14c5 8 7 16 7 32z" />
    <glyph glyph-name="trademark" unicode="&#x2122;" horiz-adv-x="961" 
d="M941 708l-50 -433h-102l31 231c0 3 1 6 1 9c-1 -2 -3 -5 -4 -8l-118 -232h-89l-17 227c0 3 0 7 -1 11l-3 -15l-62 -223h-107l132 433h126l15 -216c1 -10 1 -18 1 -25c4 9 10 20 15 30l104 211h128zM452 708l-36 -85h-103l-70 -348h-109l72 348h-107l17 85h336z" />
    <glyph glyph-name="Omega" unicode="&#x2126;" horiz-adv-x="704" 
d="M707 437c0 -129 -53 -267 -155 -348h96l-19 -89h-258l18 83c141 52 189 211 189 350c0 87 -29 158 -132 158c-173 0 -239 -211 -239 -354c0 -92 36 -132 83 -155l-17 -82h-258l19 89h95c-33 40 -48 94 -48 156c0 216 156 444 387 444c157 0 239 -105 239 -252z" />
    <glyph glyph-name="arrowleft" unicode="&#x2190;" horiz-adv-x="1268" 
d="M976 297c0 -47 -38 -85 -84 -85c-47 0 -85 38 -85 85c0 46 38 84 85 84c46 0 84 -38 84 -84zM479 297c0 -47 -38 -85 -85 -85c-46 0 -84 38 -84 85c0 46 38 84 84 84c47 0 85 -38 85 -84zM230 297c0 -47 -38 -85 -84 -85c-47 0 -84 38 -84 85c0 46 37 84 84 84
c46 0 84 -38 84 -84zM403 482c0 -47 -38 -85 -84 -85c-47 0 -84 38 -84 85c0 46 37 84 84 84c46 0 84 -38 84 -84zM326 110c0 -47 -38 -85 -84 -85c-47 0 -84 38 -84 85c0 46 37 84 84 84c46 0 84 -38 84 -84zM1224 297c0 -47 -37 -85 -84 -85c-46 0 -84 38 -84 85
c0 46 38 84 84 84c47 0 84 -38 84 -84zM727 297c0 -47 -38 -85 -84 -85s-84 38 -84 85c0 46 38 84 84 84s84 -38 84 -84zM576 667c0 -47 -38 -85 -84 -85s-84 38 -84 85c0 46 38 84 84 84s84 -38 84 -84zM422 -77c0 -47 -38 -85 -84 -85s-84 38 -84 85c0 46 38 84 84 84
s84 -38 84 -84z" />
    <glyph glyph-name="arrowup" unicode="&#x2191;" horiz-adv-x="1211" 
d="M1060 505c0 -47 -37 -84 -84 -84s-85 37 -85 84s38 85 85 85s84 -38 84 -85zM690 -223c0 -47 -38 -84 -85 -84s-84 37 -84 84s37 85 84 85s85 -38 85 -85zM690 25c0 -47 -38 -84 -85 -84s-84 37 -84 84s37 85 84 85s85 -38 85 -85zM320 505c0 -47 -38 -84 -85 -84
s-84 37 -84 84s37 85 84 85s85 -38 85 -85zM690 273c0 -47 -38 -84 -85 -84s-84 37 -84 84s37 85 84 85s85 -38 85 -85zM505 637c0 -47 -38 -84 -85 -84s-84 37 -84 84s37 85 84 85s85 -38 85 -85zM690 521c0 -47 -38 -84 -85 -84s-84 37 -84 84s37 85 84 85s85 -38 85 -85z
M690 769c0 -47 -38 -84 -85 -84s-84 37 -84 84s37 85 84 85s85 -38 85 -85zM875 637c0 -47 -37 -84 -84 -84s-85 37 -85 84s38 85 85 85s84 -38 84 -85z" />
    <glyph glyph-name="arrowright" unicode="&#x2192;" horiz-adv-x="1268" 
d="M975 297c0 -47 -38 -85 -84 -85c-47 0 -85 38 -85 85c0 46 38 84 85 84c46 0 84 -38 84 -84zM478 297c0 -47 -38 -85 -85 -85c-46 0 -84 38 -84 85c0 46 38 84 84 84c47 0 85 -38 85 -84zM229 297c0 -47 -38 -85 -84 -85c-47 0 -84 38 -84 85c0 46 37 84 84 84
c46 0 84 -38 84 -84zM1127 484c0 -47 -37 -85 -84 -85c-46 0 -84 38 -84 85c0 46 38 84 84 84c47 0 84 -38 84 -84zM1050 112c0 -47 -37 -85 -84 -85c-46 0 -84 38 -84 85c0 46 38 84 84 84c47 0 84 -38 84 -84zM1223 297c0 -47 -37 -85 -84 -85c-46 0 -84 38 -84 85
c0 46 38 84 84 84c47 0 84 -38 84 -84zM877 -73c0 -47 -38 -85 -84 -85s-84 38 -84 85c0 46 38 84 84 84s84 -38 84 -84zM726 297c0 -47 -38 -85 -84 -85s-84 38 -84 85c0 46 38 84 84 84s84 -38 84 -84zM1031 671c0 -47 -38 -85 -84 -85s-84 38 -84 85c0 46 38 84 84 84
s84 -38 84 -84z" />
    <glyph glyph-name="arrowdown" unicode="&#x2193;" horiz-adv-x="1211" 
d="M690 770c0 -47 -38 -85 -85 -85s-84 38 -84 85s37 84 84 84s85 -37 85 -84zM320 42c0 -47 -38 -85 -85 -85s-84 38 -84 85s37 84 84 84s85 -37 85 -84zM505 -90c0 -47 -38 -85 -85 -85s-84 38 -84 85s37 84 84 84s85 -37 85 -84zM690 -222c0 -47 -38 -85 -85 -85
s-84 38 -84 85s37 84 84 84s85 -37 85 -84zM690 26c0 -47 -38 -85 -85 -85s-84 38 -84 85s37 84 84 84s85 -37 85 -84zM875 -90c0 -47 -37 -85 -84 -85s-85 38 -85 85s38 84 85 84s84 -37 84 -84zM690 274c0 -47 -38 -85 -85 -85s-84 38 -84 85s37 84 84 84s85 -37 85 -84z
M1060 42c0 -47 -37 -85 -84 -85s-85 38 -85 85s38 84 85 84s84 -37 84 -84zM690 522c0 -47 -38 -85 -85 -85s-84 38 -84 85s37 84 84 84s85 -37 85 -84z" />
    <glyph glyph-name="uni2196" unicode="&#x2196;" horiz-adv-x="1211" 
d="M841 83c16 -16 24 -38 24 -59c0 -22 -8 -44 -25 -61s-39 -25 -60 -25c-22 0 -43 8 -59 25c-17 16 -25 38 -25 60s8 43 25 60c16 16 38 25 60 25s43 -9 60 -25zM240 161c16 -16 24 -38 24 -59c0 -22 -8 -44 -25 -61s-39 -25 -60 -25c-22 0 -43 8 -59 25
c-17 16 -25 38 -25 60s8 43 25 60c16 16 38 25 60 25s43 -9 60 -25zM490 314c-17 -17 -39 -25 -60 -25c-22 0 -43 8 -59 25c-17 17 -25 39 -25 61c0 21 8 43 24 59s38 25 60 25s43 -9 60 -25c16 -17 25 -38 25 -60s-9 -44 -25 -60zM277 265c-17 -17 -39 -25 -60 -25
c-22 0 -43 8 -59 25c-17 17 -25 39 -25 61c0 21 8 43 24 59s38 25 60 25s43 -9 60 -25c16 -17 25 -38 25 -60s-9 -44 -25 -60zM1016 -212c-17 -17 -39 -25 -60 -25c-22 0 -43 8 -59 25c-17 17 -25 39 -25 61c0 21 8 43 24 59s38 25 60 25s43 -9 60 -25c16 -17 25 -38 25 -60
s-9 -44 -25 -60zM763 565c-17 -17 -38 -25 -60 -25c-21 0 -43 8 -59 24c-17 16 -25 38 -25 60s8 44 25 61c16 16 38 24 59 24c22 0 43 -8 60 -25c16 -17 25 -39 25 -60c0 -22 -9 -43 -25 -59zM666 258c16 -16 24 -38 24 -59c0 -22 -8 -43 -25 -60s-39 -25 -60 -25
c-22 0 -43 8 -59 25c-17 17 -25 38 -25 60c0 21 8 43 24 59s38 25 60 25s44 -9 61 -25zM315 609c16 -16 24 -38 24 -59c0 -22 -8 -43 -25 -60s-39 -25 -60 -25c-22 0 -43 8 -59 25c-17 16 -25 37 -25 59c0 21 8 43 25 60c16 16 38 25 60 25s43 -9 60 -25zM539 528
c-17 -17 -38 -25 -60 -25c-21 0 -43 8 -59 24c-17 16 -25 38 -25 60s8 43 25 60c16 16 38 24 59 24c22 0 43 -8 60 -25c16 -17 25 -38 25 -59s-9 -43 -25 -59z" />
    <glyph glyph-name="uni2197" unicode="&#x2197;" horiz-adv-x="1211" 
d="M979 385c16 -16 24 -38 24 -59c0 -22 -8 -44 -25 -61s-39 -25 -60 -25c-22 0 -43 8 -59 25c-17 16 -25 38 -25 60s8 43 25 60c16 16 38 25 60 25s43 -9 60 -25zM240 -92c16 -16 24 -38 24 -59c0 -22 -8 -44 -25 -61s-39 -25 -60 -25c-22 0 -43 8 -59 25
c-17 16 -25 38 -25 60s8 43 25 60c16 16 38 25 60 25s43 -9 60 -25zM415 -37c-17 -17 -39 -25 -60 -25c-22 0 -43 8 -59 25c-17 17 -25 39 -25 61c0 21 8 43 24 59s38 25 60 25s43 -9 60 -25c16 -17 25 -38 25 -60s-9 -44 -25 -60zM1016 41c-17 -17 -39 -25 -60 -25
c-22 0 -43 8 -59 25c-17 17 -25 39 -25 61c0 21 8 43 24 59s38 25 60 25s43 -9 60 -25c16 -17 25 -38 25 -60s-9 -44 -25 -60zM591 258c16 -16 24 -38 24 -59c0 -22 -8 -43 -25 -60s-39 -25 -60 -25c-22 0 -43 8 -59 25c-17 17 -25 38 -25 60c0 21 8 43 24 59s38 25 60 25
s44 -9 61 -25zM492 564c-16 -16 -38 -24 -59 -24c-22 0 -43 8 -60 25c-17 16 -25 37 -25 59c0 21 8 43 25 60s38 25 60 25c21 0 43 -8 59 -24c16 -17 25 -39 25 -61s-9 -44 -25 -60zM717 527c-16 -16 -38 -24 -59 -24c-22 0 -44 8 -61 25c-17 16 -25 38 -25 59s8 42 25 59
s39 25 61 25c21 0 43 -8 59 -24c16 -17 25 -38 25 -60s-9 -44 -25 -60zM766 434c16 -16 24 -38 24 -59c0 -22 -8 -44 -25 -61s-38 -25 -59 -25s-43 8 -59 25c-17 17 -25 39 -25 61c0 21 8 43 24 59s38 25 60 25s43 -9 60 -25zM941 490c-17 -17 -39 -25 -60 -25
c-22 0 -43 8 -59 25c-17 17 -25 38 -25 60c0 21 8 43 24 59s38 25 60 25s43 -9 60 -25c16 -17 25 -39 25 -60c0 -22 -9 -43 -25 -59z" />
    <glyph glyph-name="uni2198" unicode="&#x2198;" horiz-adv-x="1211" 
d="M591 214c-17 -17 -39 -25 -61 -25s-44 8 -60 25c-16 16 -24 38 -24 59c0 22 8 44 25 61c16 16 37 25 59 25c21 0 43 -9 60 -25c17 -17 25 -39 25 -61c0 -21 -8 -43 -24 -59zM717 -175c-16 -16 -38 -24 -59 -24c-22 0 -44 8 -61 25c-17 16 -25 37 -25 59c0 21 8 43 25 60
c16 16 38 25 60 25s43 -9 60 -25c16 -17 25 -38 25 -60s-9 -44 -25 -60zM415 389c-17 -17 -38 -25 -60 -25s-44 8 -60 25c-16 16 -24 38 -24 59c0 22 8 44 25 61c16 16 37 25 59 25c21 0 43 -9 60 -25c16 -17 25 -38 25 -60s-9 -44 -25 -60zM941 -137
c-17 -17 -38 -25 -60 -25s-44 8 -60 25c-16 16 -24 38 -24 59c0 22 8 44 25 61c16 16 37 25 59 25c21 0 43 -9 60 -25c16 -17 25 -38 25 -60s-9 -44 -25 -60zM492 -212c-17 -17 -39 -25 -60 -25c-22 0 -43 8 -59 25c-17 16 -25 37 -25 59c0 21 8 43 25 60s38 25 60 25
c21 0 43 -8 59 -24c16 -17 25 -38 25 -60s-9 -44 -25 -60zM240 565c-17 -17 -38 -25 -60 -25s-44 8 -60 25c-17 16 -25 37 -25 59c0 21 8 43 25 60c16 16 37 25 59 25c21 0 43 -9 60 -25c17 -17 25 -38 25 -60c0 -21 -8 -43 -24 -59zM979 88c-17 -17 -38 -25 -60 -25
s-44 8 -60 25c-17 16 -25 37 -25 59c0 21 8 43 25 60c16 16 37 25 59 25c21 0 43 -9 60 -25c17 -17 25 -38 25 -60c0 -21 -8 -43 -24 -59zM1016 312c-17 -17 -38 -25 -60 -25s-44 8 -60 25c-16 16 -24 38 -24 59c0 22 8 43 25 60c16 16 37 25 59 25c21 0 43 -9 60 -25
c16 -17 25 -39 25 -60c0 -22 -9 -43 -25 -59zM766 39c-17 -17 -38 -25 -60 -25s-44 8 -60 25c-16 16 -24 38 -24 59c0 22 8 43 25 60c16 16 38 25 59 25s42 -9 59 -25c17 -17 25 -38 25 -60c0 -21 -8 -43 -24 -59z" />
    <glyph glyph-name="uni2199" unicode="&#x2199;" horiz-adv-x="1211" 
d="M666 214c-17 -17 -39 -25 -61 -25s-44 8 -60 25c-16 16 -24 38 -24 59c0 22 8 44 25 61c16 16 37 25 59 25c21 0 43 -9 60 -25c17 -17 25 -39 25 -61c0 -21 -8 -43 -24 -59zM315 -137c-17 -17 -38 -25 -60 -25s-44 8 -60 25c-17 16 -25 38 -25 60s8 43 25 60
c16 16 37 25 59 25c21 0 43 -9 60 -25c17 -17 25 -39 25 -61c0 -21 -8 -43 -24 -59zM841 389c-17 -17 -38 -25 -60 -25s-44 8 -60 25c-17 16 -25 38 -25 60s8 43 25 60c16 16 37 25 59 25c21 0 43 -9 60 -25c17 -17 25 -39 25 -61c0 -21 -8 -43 -24 -59zM240 312
c-17 -17 -38 -25 -60 -25s-44 8 -60 25c-17 16 -25 37 -25 59c0 21 8 43 25 60c16 16 37 25 59 25c21 0 43 -9 60 -25c17 -17 25 -38 25 -60c0 -21 -8 -43 -24 -59zM763 -212c-17 -17 -39 -25 -60 -25c-22 0 -43 8 -59 25c-17 16 -25 38 -25 60s8 43 25 60
c16 16 38 24 59 24c22 0 43 -8 60 -25c16 -17 25 -39 25 -60c0 -22 -9 -43 -25 -59zM490 39c-17 -17 -38 -25 -60 -25s-44 8 -60 25c-16 16 -24 38 -24 59c0 22 8 43 25 60c16 16 37 25 59 25c21 0 43 -9 60 -25c16 -17 25 -39 25 -60c0 -22 -9 -43 -25 -59zM277 88
c-17 -17 -38 -25 -60 -25s-44 8 -60 25c-16 16 -24 38 -24 59c0 22 8 43 25 60c16 16 37 25 59 25c21 0 43 -9 60 -25c16 -17 25 -39 25 -60c0 -22 -9 -43 -25 -59zM539 -174c-17 -17 -38 -25 -60 -25c-21 0 -43 8 -59 24c-17 16 -25 38 -25 60s8 43 25 60
c16 16 37 25 59 25c21 0 43 -9 60 -25c16 -17 25 -39 25 -60c0 -22 -9 -43 -25 -59zM1016 565c-17 -17 -38 -25 -60 -25s-44 8 -60 25c-16 16 -24 38 -24 59c0 22 8 43 25 60c16 16 37 25 59 25c21 0 43 -9 60 -25c16 -17 25 -39 25 -60c0 -22 -9 -43 -25 -59z" />
    <glyph glyph-name="partialdiff" unicode="&#x2202;" horiz-adv-x="535" 
d="M521 331c0 -29 -3 -59 -10 -90c-36 -167 -151 -253 -279 -253c-108 0 -179 62 -179 168c0 147 113 267 263 267c20 0 36 -2 51 -3c-13 25 -31 51 -50 72c-42 46 -111 89 -221 102l100 95c91 -10 206 -64 264 -154c40 -62 61 -130 61 -204zM384 298c-16 12 -37 19 -85 19
c-74 0 -109 -77 -109 -141c0 -48 25 -79 72 -79c59 0 98 57 115 136c4 21 5 48 7 65z" />
    <glyph glyph-name="Delta" unicode="&#x2206;" horiz-adv-x="678" 
d="M613 0h-608l380 638h124zM455 115l-52 347l-206 -347h258z" />
    <glyph glyph-name="product" unicode="&#x220f;" horiz-adv-x="717" 
d="M791 653l-24 -114h-72l-94 -439h72l-21 -100h-273l21 100h69l94 439h-238l-94 -439h69l-21 -100h-274l21 100h73l94 439h-73l24 114h647z" />
    <glyph glyph-name="summation" unicode="&#x2211;" horiz-adv-x="507" 
d="M584 686l-63 -112h-208l173 -229l-280 -232h260l-60 -113h-401l20 90l294 252l-184 252l52 92h397z" />
    <glyph glyph-name="minus" unicode="&#x2212;" horiz-adv-x="577" 
d="M543 326l-22 -103h-487l22 103h487z" />
    <glyph glyph-name="uni2219" unicode="&#x2219;" horiz-adv-x="311" 
d="M253 273c0 -48 -40 -88 -90 -88c-49 0 -88 40 -88 89s40 90 90 90c49 0 88 -41 88 -91z" />
    <glyph glyph-name="radical" unicode="&#x221a;" horiz-adv-x="600" 
d="M718 722l-421 -730h-109l-58 426h-66l20 94h166l36 -239c3 -21 2 -53 4 -73c8 16 20 45 30 63l262 459h136z" />
    <glyph glyph-name="infinity" unicode="&#x221e;" horiz-adv-x="958" 
d="M954 297c0 -134 -119 -220 -248 -220c-64 0 -119 23 -160 57l-62 51l-76 -48c-67 -42 -126 -61 -189 -61c-71 0 -165 39 -165 143c0 137 118 221 250 221c62 0 118 -24 165 -62l57 -46l77 50c63 41 131 59 188 59c71 0 163 -40 163 -144zM819 275c0 30 -23 50 -61 50
c-32 0 -76 -17 -110 -39l-39 -25l43 -33c22 -17 48 -32 79 -32c47 0 88 31 88 79zM398 255l-41 35c-21 18 -48 30 -79 30c-46 0 -88 -31 -88 -79c0 -30 23 -50 61 -50c33 0 75 19 110 41z" />
    <glyph glyph-name="uni2224" unicode="&#x2224;" horiz-adv-x="311" 
d="M253 273c0 -48 -40 -88 -90 -88c-49 0 -88 40 -88 89s40 90 90 90c49 0 88 -41 88 -91z" />
    <glyph glyph-name="logicaland" unicode="&#x2227;" horiz-adv-x="311" 
d="M253 273c0 -48 -40 -88 -90 -88c-49 0 -88 40 -88 89s40 90 90 90c49 0 88 -41 88 -91z" />
    <glyph glyph-name="integral" unicode="&#x222b;" horiz-adv-x="242" 
d="M514 692l-76 -109c-27 22 -42 31 -59 31c-29 0 -48 -24 -60 -65l-164 -574c-28 -98 -95 -171 -211 -171c-32 0 -76 12 -113 35l76 110c27 -22 43 -31 60 -31c29 0 48 25 59 64l164 574c29 100 104 171 211 171c32 0 76 -12 113 -35z" />
    <glyph glyph-name="approxequal" unicode="&#x2248;" horiz-adv-x="572" 
d="M564 362c-31 -42 -76 -86 -143 -86c-34 0 -70 15 -105 32c-33 16 -67 36 -94 36c-40 0 -72 -37 -102 -68l-13 108c31 42 76 86 143 86c34 0 69 -15 104 -32c33 -16 67 -36 94 -36c40 0 73 37 103 68zM521 162c-31 -42 -76 -86 -143 -86c-34 0 -69 15 -104 32
c-33 16 -67 36 -94 36c-40 0 -73 -37 -103 -68l-13 108c31 42 76 86 143 86c34 0 70 -15 105 -32c33 -16 67 -36 94 -36c40 0 72 37 102 68z" />
    <glyph glyph-name="notequal" unicode="&#x2260;" horiz-adv-x="658" 
d="M671 462l-27 -126h-208l-51 -66h245l-26 -126h-315l-124 -153l-69 49l44 55c13 17 45 46 48 49h-132l26 126h208l51 66h-245l27 126h315l124 153l69 -49l-44 -55c-14 -17 -46 -46 -49 -49h133z" />
    <glyph glyph-name="lessequal" unicode="&#x2264;" horiz-adv-x="443" 
d="M491 532l-28 -131l-224 -87l191 -70l-27 -128l-353 142l20 96zM401 109l-23 -109h-383l23 109h383z" />
    <glyph glyph-name="greaterequal" unicode="&#x2265;" horiz-adv-x="443" 
d="M463 354l-20 -96l-413 -142l27 130l221 68l-188 87l28 131zM411 109l-23 -109h-383l23 109h383z" />
    <glyph glyph-name="dotmath" unicode="&#x22c5;" horiz-adv-x="311" 
d="M253 273c0 -48 -40 -88 -90 -88c-49 0 -88 40 -88 89s40 90 90 90c49 0 88 -41 88 -91z" />
    <glyph glyph-name="H18543" unicode="&#x25aa;" horiz-adv-x="834" 
d="M789 -18h-744v744h744v-744z" />
    <glyph glyph-name="H18551" unicode="&#x25ab;" horiz-adv-x="834" 
d="M789 -18h-744v744h744v-744zM689 82v544h-544v-544h544z" />
    <glyph glyph-name="uni25B4" unicode="&#x25b4;" horiz-adv-x="516" 
d="M436 157h-356l178 386z" />
    <glyph glyph-name="uni25B8" unicode="&#x25b8;" horiz-adv-x="516" 
d="M451 350l-386 -178v356z" />
    <glyph glyph-name="uni25BE" unicode="&#x25be;" horiz-adv-x="516" 
d="M436 543l-178 -386l-178 386h356z" />
    <glyph glyph-name="uni25C2" unicode="&#x25c2;" horiz-adv-x="516" 
d="M451 172l-386 178l386 178v-356z" />
    <glyph glyph-name="lozenge" unicode="&#x25ca;" horiz-adv-x="572" 
d="M570 344l-258 -344h-116l-108 344l254 343h116zM446 344l-67 259l-173 -259l63 -260z" />
    <glyph glyph-name="circle" unicode="&#x25cb;" horiz-adv-x="834" 
d="M789 354c0 -205 -167 -372 -372 -372s-372 167 -372 372s167 372 372 372s372 -167 372 -372zM687 354c0 155 -121 282 -270 282s-270 -127 -270 -282s121 -282 270 -282s270 127 270 282z" />
    <glyph glyph-name="H18533" unicode="&#x25cf;" horiz-adv-x="834" 
d="M789 354c0 -205 -167 -372 -372 -372s-372 167 -372 372s167 372 372 372s372 -167 372 -372z" />
    <glyph glyph-name="uni2610" unicode="&#x2610;" horiz-adv-x="834" 
d="M789 -18h-744v744h744v-744zM689 82v544h-544v-544h544z" />
    <glyph glyph-name="uniFB06" unicode="&#xfb06;" horiz-adv-x="773" 
d="M845 512l-48 -92h-89l-54 -257c-4 -17 -5 -33 -5 -45c0 -28 15 -37 45 -37c12 0 35 4 50 10v-81c-39 -15 -79 -22 -114 -22c-77 0 -121 38 -121 88c0 18 2 42 7 66l59 278h-51l20 92h52l25 123c-28 10 -62 21 -108 21c-48 0 -121 -23 -121 -85c0 -25 10 -55 38 -73
c12 -6 23 -12 34 -18l-53 -90c-45 26 -87 35 -125 35c-44 0 -76 -16 -76 -53c0 -23 17 -38 54 -51l58 -21c51 -18 102 -58 102 -124c0 -102 -80 -192 -247 -192c-75 0 -141 23 -199 57l54 98c40 -28 107 -53 165 -53c44 0 79 30 79 64c0 26 -22 37 -65 52l-57 20
c-53 19 -94 59 -94 129c0 88 67 175 235 175c8 0 21 -1 25 -1c-7 12 -15 36 -15 61c0 108 132 158 230 158c80 0 156 -22 230 -44l-41 -188h121z" />
    <glyph glyph-name="parenleft.case" horiz-adv-x="345" 
d="M475 741c-97 -61 -128 -93 -166 -162c-30 -55 -54 -137 -70 -213c-14 -66 -31 -163 -31 -223c0 -95 20 -149 95 -196l-48 -74c-111 41 -179 137 -179 282c0 58 10 133 26 209c31 148 88 270 186 357c49 43 106 78 167 102z" />
    <glyph glyph-name="parenright.case" horiz-adv-x="345" 
d="M307 542c0 -57 -12 -144 -25 -207c-31 -148 -87 -271 -186 -359c-49 -44 -105 -78 -168 -102l-17 85c96 60 126 89 165 159c30 55 54 139 71 215c15 67 28 161 28 222c0 87 -16 148 -91 195l47 74c110 -42 176 -135 176 -282z" />
    <glyph glyph-name="hyphen.case" horiz-adv-x="359" 
d="M324 403l-25 -110h-240l25 110h240z" />
    <glyph glyph-name="bracketleft.case" horiz-adv-x="315" 
d="M374 792l-20 -90h-90l-150 -708h90l-19 -90h-210l189 888h210z" />
    <glyph glyph-name="bracketright.case" horiz-adv-x="315" 
d="M351 792l-189 -888h-210l19 90h90l150 708h-90l20 90h210z" />
    <glyph glyph-name="braceleft.case" horiz-adv-x="398" 
d="M484 792l-25 -114h-49c-61 0 -72 -37 -78 -64l-34 -161c-20 -93 -80 -100 -123 -104v-2c35 -3 82 -8 82 -68c0 -10 -1 -22 -4 -35l-34 -162c-2 -8 -3 -16 -3 -24c0 -21 10 -40 54 -40h49l-24 -114h-105c-59 0 -103 30 -103 100c0 14 1 29 5 46l36 172c1 5 1 9 1 13
c0 50 -71 56 -94 56l24 114c25 0 110 7 123 69l37 173c22 104 86 145 160 145h105z" />
    <glyph glyph-name="braceright.case" horiz-adv-x="398" 
d="M395 405l-24 -114c-28 0 -110 -7 -123 -69l-36 -173c-22 -104 -86 -145 -160 -145h-105l24 114h49c61 0 73 37 79 64l34 161c20 93 79 100 122 104v2c-35 3 -82 8 -82 68c0 10 1 22 4 35l35 162c2 7 3 15 3 23c0 21 -10 41 -55 41h-49l25 114h108c57 0 100 -30 100 -100
c0 -14 -1 -29 -5 -46l-37 -172c-1 -5 -1 -9 -1 -13c0 -50 68 -56 94 -56z" />
    <glyph glyph-name="guillemotleft.case" horiz-adv-x="573" 
d="M583 519l-155 -175l77 -171l-102 -59l-109 234l209 234zM341 519l-155 -175l77 -171l-102 -59l-109 234l209 234z" />
    <glyph glyph-name="uni00AD.case" horiz-adv-x="359" 
d="M324 403l-25 -110h-240l25 110h240z" />
    <glyph glyph-name="guillemotright.case" horiz-adv-x="574" 
d="M536 348l-209 -234l-80 63l155 175l-77 171l102 59zM294 348l-209 -234l-80 63l155 175l-77 171l102 59z" />
    <glyph glyph-name="endash.case" horiz-adv-x="566" 
d="M552 399l-22 -103h-487l22 103h487z" />
    <glyph glyph-name="emdash.case" horiz-adv-x="792" 
d="M778 399l-22 -103h-713l22 103h713z" />
    <glyph glyph-name="guilsinglleft.case" horiz-adv-x="331" 
d="M340 518l-155 -175l78 -168l-101 -61l-109 234l209 234z" />
    <glyph glyph-name="guilsinglright.case" horiz-adv-x="331" 
d="M290 348l-209 -234l-80 64l155 176l-77 170l102 58z" />
    <glyph glyph-name="zero.dnom" horiz-adv-x="345" 
d="M346 268c0 -21 -3 -44 -8 -68c-26 -122 -105 -208 -198 -208c-77 0 -116 53 -116 136c0 21 3 45 8 70c26 123 103 208 196 208c77 0 118 -54 118 -138zM239 284c0 40 -14 47 -27 47c-37 0 -54 -54 -70 -130c-9 -40 -12 -68 -12 -88c0 -39 13 -46 26 -46
c37 0 55 54 71 130c8 39 12 67 12 87z" />
    <glyph glyph-name="one.dnom" horiz-adv-x="294" 
d="M277 400l-68 -319h52l-17 -81h-215l17 81h64l44 208c-23 -11 -50 -24 -82 -34l-16 56l153 89h68z" />
    <glyph glyph-name="two.dnom" horiz-adv-x="354" 
d="M346 315c0 -95 -125 -182 -193 -233c12 0 26 1 36 1h133l-41 -83h-275l14 67c32 24 91 71 124 100c33 28 88 77 88 126c0 21 -13 27 -32 27c-22 0 -48 -10 -95 -42l-43 63c61 44 114 65 179 65c66 0 105 -36 105 -91z" />
    <glyph glyph-name="three.dnom" horiz-adv-x="346" 
d="M351 317c0 -45 -29 -82 -67 -104c26 -15 41 -39 41 -68c0 -118 -163 -163 -255 -163c-19 0 -27 0 -56 4l-11 74c33 -6 41 -7 59 -7c51 0 148 23 148 90c0 38 -64 30 -88 30h-16l17 81c17 -2 33 -4 50 -4c31 0 66 11 66 47c0 15 -10 25 -35 25c-37 0 -69 -16 -98 -36
l-41 64c54 34 107 56 167 56c70 0 119 -36 119 -89z" />
    <glyph glyph-name="four.dnom" horiz-adv-x="356" 
d="M339 156l-18 -85h-37l-7 1c0 -3 0 -7 -1 -11l-16 -75l-98 -11l19 91l2 5h-178l13 63l166 267h105l-128 -207c-9 -14 -18 -27 -27 -38h69c11 50 25 91 41 141l86 18l-22 -104c-3 -13 -7 -39 -11 -49l-2 -7c3 0 7 1 9 1h35z" />
    <glyph glyph-name="five.dnom" horiz-adv-x="316" 
d="M337 399l-33 -84h-117l-19 -58c6 1 10 1 17 1c69 0 113 -38 113 -95c0 -118 -133 -181 -235 -181c-20 0 -27 0 -52 5l-7 79c37 -10 52 -12 68 -12c50 0 115 29 115 87c0 24 -16 40 -45 40c-23 0 -45 -2 -101 -18l70 236h226z" />
    <glyph glyph-name="six.dnom" horiz-adv-x="351" 
d="M344 361c-71 -25 -127 -46 -175 -109c14 5 34 11 50 11c68 0 113 -44 113 -104c0 -94 -93 -167 -183 -167c-80 0 -129 52 -129 128c0 141 128 241 246 290c26 11 35 14 70 24zM227 147c0 23 -14 36 -36 36c-21 0 -42 -7 -56 -14c-5 -18 -11 -37 -11 -56
c0 -29 15 -44 38 -44c39 0 65 42 65 78z" />
    <glyph glyph-name="seven.dnom" horiz-adv-x="341" 
d="M376 399l-33 -80c-29 -31 -57 -63 -80 -93c-15 -20 -85 -117 -109 -173l-24 -58l-116 -26c45 98 92 181 159 270c26 34 43 55 60 73l-10 -1h-167l42 88h278z" />
    <glyph glyph-name="eight.dnom" horiz-adv-x="369" 
d="M368 317c0 -48 -36 -87 -79 -105c33 -17 56 -40 56 -77c0 -102 -102 -147 -200 -147c-60 0 -135 21 -135 94c0 52 37 100 82 123c-20 16 -31 39 -31 65c0 92 101 136 180 136c75 0 127 -34 127 -89zM231 115c0 10 -3 19 -11 25c-12 9 -32 17 -56 26
c-23 -13 -42 -38 -42 -65c0 -23 16 -39 48 -39s61 19 61 53zM259 307c0 15 -11 25 -39 25c-23 0 -54 -13 -54 -40c0 -21 25 -33 42 -41c22 10 51 29 51 56z" />
    <glyph glyph-name="nine.dnom" horiz-adv-x="349" 
d="M355 288c0 -104 -68 -192 -150 -249c-44 -30 -99 -58 -153 -75l-45 64c70 17 144 63 180 103c-10 -2 -21 -6 -31 -6c-68 0 -113 45 -113 107c0 99 92 174 188 174c80 0 124 -44 124 -118zM250 287c0 29 -14 42 -36 42c-40 0 -63 -47 -63 -82c0 -27 15 -44 40 -44
c16 0 28 4 41 11c9 18 18 52 18 73z" />
    <glyph glyph-name="germandbls.hist" horiz-adv-x="760" 
d="M388 742c51 0 100 -13 134 -32l-80 -88c-20 11 -38 16 -63 16c-53 0 -79 -22 -102 -128l-109 -510c-20 -95 -79 -178 -131 -224l-82 74c28 28 66 95 78 150l89 420h-77l19 92h77l7 33c28 132 102 197 240 197zM750 480l-53 -90c-45 26 -87 35 -125 35
c-44 0 -76 -16 -76 -53c0 -23 17 -38 54 -51l58 -21c51 -18 102 -58 102 -124c0 -102 -80 -192 -247 -192c-75 0 -141 23 -199 57l54 98c40 -28 107 -53 165 -53c44 0 79 30 79 64c0 26 -22 37 -65 52l-57 20c-53 19 -94 59 -94 129c0 88 67 175 235 175
c67 0 127 -20 169 -46z" />
    <glyph glyph-name="grave.lc" horiz-adv-x="546" 
d="M451 629l-46 -72l-216 100l66 106z" />
    <glyph glyph-name="dieresis.lc" horiz-adv-x="546" 
d="M521 635c0 -42 -35 -77 -77 -77s-76 35 -76 77s35 77 78 77c41 0 75 -35 75 -77zM310 635c0 -42 -35 -77 -77 -77c-41 0 -76 35 -76 77s36 77 78 77c41 0 75 -35 75 -77z" />
    <glyph glyph-name="macron.lc" horiz-adv-x="328" 
d="M430 636l-16 -78h-314l16 78h314z" />
    <glyph glyph-name="acute.lc" horiz-adv-x="546" 
d="M492 657l-239 -103l-40 75l231 133z" />
    <glyph glyph-name="circumflex.lc" horiz-adv-x="546" 
d="M514 625l-54 -73l-123 78l-151 -78l-36 73l209 135z" />
    <glyph glyph-name="caron.lc" horiz-adv-x="426" 
d="M471 689l-208 -135l-156 135l55 73l123 -76l152 76z" />
    <glyph glyph-name="breve.lc" horiz-adv-x="350" 
d="M463 684c-19 -21 -131 -129 -217 -129c-87 0 -154 108 -165 129l52 49c16 -19 69 -73 140 -73c60 0 146 58 167 73z" />
    <glyph glyph-name="dotaccent.lc" horiz-adv-x="177" 
d="M260 653c0 -46 -37 -83 -83 -83c-45 0 -82 37 -82 83s38 83 84 83c45 0 81 -37 81 -83z" />
    <glyph glyph-name="ring.lc" horiz-adv-x="529" 
d="M458 659c0 -58 -48 -106 -106 -106c-57 0 -104 48 -104 106s49 106 106 106s104 -48 104 -106zM395 659c0 24 -18 43 -41 43c-25 0 -44 -19 -44 -43s19 -43 42 -43c24 0 43 19 43 43z" />
    <glyph glyph-name="tilde.lc" horiz-adv-x="546" 
d="M517 645c-42 -41 -79 -67 -138 -67c-53 0 -70 40 -122 40c-32 0 -50 -15 -75 -37l-33 75c42 41 78 66 130 66c55 0 72 -40 130 -40c32 0 49 13 75 35z" />
    <glyph glyph-name="hungarumlaut.lc" horiz-adv-x="433" 
d="M302 771l-163 -217l-70 34l131 229zM525 753l-189 -196l-62 46l162 213z" />
    <glyph glyph-name="diedot.lc" horiz-adv-x="546" 
d="M310 635c0 -42 -35 -77 -77 -77c-41 0 -76 35 -76 77s36 77 78 77c41 0 75 -35 75 -77z" />
    <glyph glyph-name="zero.lf" 
d="M561 464c0 -154 -52 -300 -132 -388c-54 -59 -117 -90 -194 -90c-112 0 -177 83 -177 220c0 155 53 303 141 390c54 53 119 81 184 81c113 0 178 -84 178 -213zM418 494c0 70 -24 85 -56 85c-26 0 -52 -17 -72 -46c-60 -88 -90 -275 -90 -361c0 -72 23 -88 56 -88
c28 0 56 20 78 55c57 93 84 274 84 355z" />
    <glyph glyph-name="one.lf" horiz-adv-x="426" 
d="M399 667l-142 -667h-131l109 513c-42 -23 -99 -52 -146 -67l-19 76l238 145h91z" />
    <glyph glyph-name="two.lf" horiz-adv-x="534" 
d="M549 528c0 -96 -58 -174 -165 -269c-46 -41 -136 -116 -189 -152c22 3 68 5 101 5h200l-53 -112h-429l20 94c47 38 147 120 203 170c149 133 158 192 158 235c0 44 -30 60 -69 60c-43 0 -89 -23 -155 -69l-54 88c85 64 163 99 266 99c102 0 166 -61 166 -149z" />
    <glyph glyph-name="three.lf" horiz-adv-x="534" 
d="M523 529c0 -70 -39 -137 -137 -173c55 -13 90 -55 90 -110c0 -151 -182 -278 -405 -278c-31 0 -45 0 -82 5l-13 99c30 -6 43 -7 75 -7c150 0 269 85 269 170c0 47 -27 68 -121 68c-13 0 -51 -1 -51 -1l24 112s41 -4 68 -4c84 0 131 37 131 100c0 32 -24 54 -72 54
c-67 0 -125 -33 -160 -58l-52 87c80 54 173 84 254 84c113 0 182 -64 182 -148z" />
    <glyph glyph-name="four.lf" 
d="M545 240l-24 -115h-45c-19 0 -31 2 -31 2s2 -13 -3 -36l-24 -115l-131 -16l31 143c2 9 7 25 7 25s-12 -3 -32 -3h-267l19 91l289 453h143l-214 -338c-24 -38 -49 -73 -66 -93c0 0 11 2 21 2h110c12 0 24 -1 24 -1s2 13 3 18c6 28 20 84 35 133l36 117l110 24l-38 -177
l-19 -85c-5 -22 -8 -30 -8 -30s20 1 32 1h42z" />
    <glyph glyph-name="five.lf" horiz-adv-x="538" 
d="M544 665l-44 -114h-196l-43 -136c15 2 30 3 48 3c108 0 174 -61 174 -152c0 -157 -143 -296 -374 -296c-32 0 -44 1 -75 7l-8 101c36 -10 62 -13 91 -13c106 0 193 57 212 143c14 64 -21 106 -86 106c-41 0 -83 -3 -151 -23l111 374h341z" />
    <glyph glyph-name="six.lf" 
d="M567 621c-106 -28 -231 -91 -307 -223c26 18 68 27 111 27c107 0 174 -71 174 -171c0 -133 -115 -268 -287 -268c-123 0 -199 85 -199 210c0 235 215 447 499 523zM403 243c0 46 -20 74 -73 74c-32 0 -66 -10 -111 -33c-12 -28 -21 -79 -21 -109c0 -56 27 -86 76 -86
c69 0 129 75 129 154z" />
    <glyph glyph-name="seven.lf" horiz-adv-x="474" 
d="M545 665l-42 -117c-77 -85 -249 -321 -331 -557l-155 -37c138 303 242 473 353 594c-11 -3 -26 -4 -40 -4h-265l55 121h425z" />
    <glyph glyph-name="eight.lf" 
d="M584 538c0 -88 -68 -157 -165 -183c59 -18 123 -64 123 -133c0 -154 -150 -242 -315 -242c-138 0 -208 68 -208 154c0 92 55 170 153 208c-41 21 -68 63 -68 113c0 128 118 222 283 222c119 0 197 -56 197 -139zM386 189c0 44 -50 68 -128 99c-56 -29 -89 -83 -89 -131
s35 -78 94 -78c71 0 123 48 123 110zM434 524c0 35 -22 55 -78 55c-61 0 -110 -45 -110 -90c0 -24 14 -42 47 -61c14 -8 21 -11 37 -19c82 38 104 74 104 115z" />
    <glyph glyph-name="nine.lf" horiz-adv-x="546" 
d="M555 486c0 -262 -220 -455 -483 -545l-56 84c114 28 262 130 310 214c-33 -14 -56 -19 -85 -19c-104 0 -173 73 -173 166c0 158 123 291 297 291c123 0 190 -70 190 -191zM414 490c0 53 -27 84 -74 84c-69 0 -125 -86 -125 -164c0 -51 30 -82 80 -82c33 0 56 10 88 37
c19 39 31 84 31 125z" />
    <glyph glyph-name="pi.salt" horiz-adv-x="597" 
d="M638 523l-23 -110h-65l-62 -291c-3 -16 -2 -24 6 -24c15 0 26 4 32 10l10 -91c-49 -22 -69 -27 -97 -27c-31 0 -54 10 -70 28c-12 13 -19 29 -19 52c0 11 2 24 5 38l65 305h-131l-58 -271c-19 -89 -29 -106 -56 -142h-134c38 58 49 88 62 150l56 263h-66l23 110h522z" />
    <glyph glyph-name="a.sc" horiz-adv-x="510" 
d="M470 0h-141l-12 116h-168l-63 -116h-146l317 550h139zM308 217c-3 57 -9 158 -7 213c-23 -55 -69 -155 -98 -213h105z" />
    <glyph glyph-name="b.sc" horiz-adv-x="565" 
d="M536 432c0 -69 -44 -117 -107 -141c49 -21 76 -53 76 -98c0 -100 -73 -193 -247 -193h-223l116 548h231c101 0 154 -46 154 -116zM352 188c0 29 -21 42 -66 42h-65l-26 -125h64c61 0 93 41 93 83zM390 401c0 21 -12 40 -61 40h-66l-22 -104h60c67 0 89 23 89 64z" />
    <glyph glyph-name="c.sc" horiz-adv-x="495" 
d="M541 517l-80 -88c-24 17 -55 28 -84 28c-33 0 -73 -15 -96 -34c-57 -47 -80 -172 -80 -234c0 -66 37 -98 103 -98c36 0 65 8 106 32l44 -78c-54 -37 -110 -54 -180 -54c-171 0 -226 88 -226 194c0 93 30 189 86 257c67 83 165 118 262 118c59 0 119 -20 145 -43z" />
    <glyph glyph-name="d.sc" horiz-adv-x="585" 
d="M550 355c0 -190 -119 -339 -280 -352c-24 -2 -52 -3 -94 -3h-141l116 548h120c36 0 90 0 113 -3c105 -13 166 -78 166 -190zM398 359c0 56 -23 88 -80 88h-50l-72 -341h65c90 0 137 131 137 253z" />
    <glyph glyph-name="e.sc" horiz-adv-x="460" 
d="M499 548l-42 -106h-192l-21 -102h160l-24 -107h-159l-25 -122h216l-23 -111h-354l116 548h348z" />
    <glyph glyph-name="f.sc" horiz-adv-x="418" 
d="M479 548l-38 -104h-177l-22 -107h139l-22 -107h-140l-49 -230h-135l116 548h328z" />
    <glyph glyph-name="g.sc" horiz-adv-x="608" 
d="M583 493l-87 -78c-32 28 -74 40 -120 40c-36 0 -72 -11 -97 -35c-49 -46 -81 -167 -81 -245c0 -64 36 -86 98 -86c23 0 42 5 62 12l22 106h-77v104h245l-57 -265c-78 -35 -147 -51 -221 -51c-149 0 -222 81 -222 199c0 161 101 363 349 363c74 0 140 -23 186 -64z" />
    </font>
</defs>
</svg>
