<?xml version="1.0" standalone="no"?>
<!DOCTYPE svg PUBLIC "-//W3C//DTD SVG 1.1//EN" "http://www.w3.org/Graphics/SVG/1.1/DTD/svg11.dtd" >
<svg>
<metadata>
Created by FontForge 20100429 at Wed Aug 19 17:30:55 2015
 By fontface

</metadata>
<defs>
<font id="MetaPro-Normal" horiz-adv-x="270" >
  <font-face 
    font-family="MetaPro-Normal"
    font-weight="400"
    font-stretch="normal"
    units-per-em="1000"
    panose-1="2 0 5 3 4 0 0 2 0 4"
    ascent="754"
    descent="-246"
    x-height="498"
    cap-height="686"
    bbox="-157 -281 1356 948"
    underline-thickness="50"
    underline-position="-50"
    stemh="67"
    stemv="82"
    unicode-range="U+000D-FB06"
  />
<missing-glyph horiz-adv-x="556" 
d="M76 0v686h404v-686h-404zM126 50h304v586h-304v-586z" />
    <glyph glyph-name="IJ" unicode="IJ" horiz-adv-x="529" 
d="M170 0h-80v686h80v-686zM439 117c0 -87 -4 -120 -25 -157c-22 -39 -63 -70 -116 -88l-40 51c37 15 67 41 82 67c13 23 17 55 17 125v571h82v-569z" />
    <glyph glyph-name="ij" unicode="ij" horiz-adv-x="493" 
d="M171 0h-81v496l81 13v-509zM193 652c0 -34 -27 -61 -61 -61s-61 27 -61 60c0 34 27 62 61 62s61 -27 61 -61zM403 10c0 -43 -3 -83 -14 -110c-19 -46 -55 -77 -102 -98l-39 52c69 30 75 76 75 163v477l80 16v-500zM424 652c0 -34 -27 -61 -61 -61s-61 27 -61 61
s27 61 61 61s61 -27 61 -61z" />
    <glyph glyph-name="uniFB00" unicode="ff" horiz-adv-x="582" 
d="M627 695l-29 -55c-19 11 -47 23 -74 23c-44 0 -68 -31 -68 -88v-77h138l-24 -59h-114v-439h-82v439h-197v-439h-82v439h-48v59h48v78c0 74 34 106 55 122c24 18 51 26 88 26c43 0 81 -10 110 -29l-29 -55c-19 11 -47 23 -74 23c-44 0 -68 -31 -68 -88v-77h197v78
c0 74 34 106 55 122c24 18 51 26 88 26c43 0 81 -10 110 -29z" />
    <glyph glyph-name="fi" unicode="fi" horiz-adv-x="564" 
d="M471 0h-83v439h-211v-439h-82v439h-48v59h48v78c0 74 34 106 55 122c24 18 51 26 88 26c43 0 81 -10 110 -29l-29 -55c-19 11 -47 23 -74 23c-44 0 -68 -31 -68 -88v-77h294v-498zM491 651c0 -34 -27 -61 -61 -61s-61 27 -61 60c0 34 27 62 61 62s61 -27 61 -61z" />
    <glyph glyph-name="fl" unicode="fl" horiz-adv-x="556" 
d="M348 695l-29 -55c-19 11 -47 23 -74 23c-44 0 -68 -31 -68 -88v-77h138l-24 -59h-114v-439h-82v439h-48v59h48v78c0 74 34 106 55 122c24 18 51 26 88 26c43 0 81 -10 110 -29zM515 1c-20 -9 -29 -11 -50 -11c-25 0 -44 7 -59 21c-18 16 -24 35 -24 71v491
c0 75 -2 103 -14 143l81 16c4 -11 12 -65 12 -159v-473c0 -39 6 -50 28 -50c3 0 10 2 10 2z" />
    <glyph glyph-name="uniFB03" unicode="ffi" horiz-adv-x="843" 
d="M750 0h-83v439h-211v-439h-82v439h-197v-439h-82v439h-48v59h48v78c0 74 34 106 55 122c24 18 51 26 88 26c43 0 81 -10 110 -29l-29 -55c-19 11 -47 23 -74 23c-44 0 -68 -31 -68 -88v-77h197v78c0 74 34 106 55 122c24 18 51 26 88 26c43 0 81 -10 110 -29l-29 -55
c-19 11 -47 23 -74 23c-44 0 -68 -31 -68 -88v-77h294v-498zM770 652c0 -34 -27 -61 -61 -61s-61 27 -61 60c0 34 27 62 61 62s61 -27 61 -61z" />
    <glyph glyph-name="uniFB04" unicode="ffl" horiz-adv-x="835" 
d="M627 695l-29 -55c-19 11 -47 23 -74 23c-44 0 -68 -31 -68 -88v-77h138l-24 -59h-114v-439h-82v439h-197v-439h-82v439h-48v59h48v78c0 74 34 106 55 122c24 18 51 26 88 26c43 0 81 -10 110 -29l-29 -55c-19 11 -47 23 -74 23c-44 0 -68 -31 -68 -88v-77h197v78
c0 74 34 106 55 122c24 18 51 26 88 26c43 0 81 -10 110 -29zM794 1c-20 -9 -29 -11 -50 -11c-25 0 -44 7 -59 21c-18 16 -24 35 -24 71v491c0 75 -2 103 -15 143l81 16c5 -17 13 -71 13 -159v-473c0 -39 6 -50 28 -50c5 0 10 2 10 2z" />
    <glyph glyph-name=".notdef" horiz-adv-x="556" 
d="M76 0v686h404v-686h-404zM126 50h304v586h-304v-586z" />
    <glyph glyph-name=".null" horiz-adv-x="0" 
 />
    <glyph glyph-name=".null" horiz-adv-x="0" 
 />
    <glyph glyph-name="CR" unicode="&#xd;" horiz-adv-x="230" 
 />
    <glyph glyph-name="space" unicode=" " horiz-adv-x="230" 
 />
    <glyph glyph-name="exclam" unicode="!" horiz-adv-x="292" 
d="M194 699l-19 -501h-60l-19 488zM207 56c0 -35 -27 -63 -61 -63s-61 28 -61 62s27 61 61 61s61 -27 61 -60z" />
    <glyph glyph-name="quotedbl" unicode="&#x22;" horiz-adv-x="409" 
d="M314 468h-72v240h72v-240zM167 468h-72v240h72v-240z" />
    <glyph glyph-name="numbersign" unicode="#" horiz-adv-x="566" 
d="M531 431h-107l-21 -152h98v-66h-108l-30 -213h-67l30 213h-126l-30 -213h-67l30 213h-98v66h108l20 152h-98v66h108l30 211h67l-30 -211h126l30 211h67l-30 -211h98v-66zM357 431h-126l-21 -152h126z" />
    <glyph glyph-name="dollar" unicode="$" horiz-adv-x="579" 
d="M524 194c0 -98 -85 -189 -199 -204v-97h-59v94c-79 0 -146 22 -211 62l36 64c55 -39 110 -59 175 -59v269l-25 8c-62 20 -96 34 -122 61c-28 30 -43 68 -43 112c0 107 75 183 190 195v84h59v-83c63 -5 123 -26 180 -65l-36 -59c-57 37 -96 53 -144 57v-239l33 -10
c61 -19 93 -37 121 -69s45 -78 45 -121zM433 182c0 57 -36 97 -108 122v-246c64 11 108 62 108 124zM266 412v219c-64 -10 -101 -50 -101 -110c0 -52 29 -83 101 -109z" />
    <glyph glyph-name="percent" unicode="%" horiz-adv-x="858" 
d="M813 156c0 -102 -61 -166 -161 -166s-161 66 -161 172s60 170 160 170c111 0 162 -72 162 -176zM367 515c0 -102 -61 -166 -161 -166s-161 66 -161 172s60 170 160 170c111 0 162 -72 162 -176zM631 681l-333 -681h-66l333 681h66zM300 511c0 59 -11 125 -96 125
c-64 0 -91 -39 -91 -107c0 -82 25 -125 96 -125c57 0 91 37 91 107zM746 152c0 59 -11 125 -96 125c-64 0 -91 -39 -91 -107c0 -82 25 -125 96 -125c57 0 91 37 91 107z" />
    <glyph glyph-name="ampersand" unicode="&#x26;" horiz-adv-x="684" 
d="M664 0h-104l-67 65c-40 -49 -116 -80 -196 -80c-143 0 -232 75 -232 185c0 87 53 132 140 174c-65 58 -97 104 -97 154c0 92 84 158 178 158c99 0 184 -55 184 -154c0 -77 -51 -116 -143 -165l161 -159c18 38 18 101 17 154h69c0 -120 -15 -163 -37 -206zM450 110
l-198 193c-68 -32 -101 -77 -101 -139c0 -70 56 -118 148 -118c67 0 125 29 151 64zM384 503c0 56 -40 96 -97 96c-47 0 -95 -27 -95 -91c0 -38 15 -63 90 -128c78 37 102 75 102 123z" />
    <glyph glyph-name="quotesingle" unicode="'" horiz-adv-x="262" 
d="M167 468h-72v240h72v-240z" />
    <glyph glyph-name="parenleft" unicode="(" horiz-adv-x="325" 
d="M350 -115l-22 -40c-84 32 -155 108 -193 206c-30 78 -40 191 -40 270c0 173 36 271 95 344c37 46 89 86 138 105l19 -38c-67 -40 -121 -90 -146 -179c-17 -61 -26 -142 -26 -230c0 -128 13 -244 60 -326c28 -49 62 -83 115 -112z" />
    <glyph glyph-name="parenright" unicode=")" horiz-adv-x="325" 
d="M230 296c0 -173 -36 -271 -95 -344c-37 -46 -89 -86 -138 -105l-19 38c67 40 121 90 146 179c17 61 26 142 26 230c0 128 -13 244 -60 326c-28 49 -62 83 -115 112l22 40c84 -32 155 -108 193 -206c30 -78 40 -191 40 -270z" />
    <glyph glyph-name="asterisk" unicode="*" horiz-adv-x="472" 
d="M427 549l-141 -48l89 -119l-49 -38l-90 123l-87 -123l-50 38l87 119l-141 48l19 58l142 -48v149h60v-149l142 48z" />
    <glyph glyph-name="plus" unicode="+" horiz-adv-x="538" 
d="M483 214h-178v-178h-72v178h-178v72h178v178h72v-178h178v-72z" />
    <glyph glyph-name="comma" unicode="," horiz-adv-x="290" 
d="M215 29c0 -35 -14 -71 -38 -103c-20 -26 -53 -52 -84 -69l-28 44c39 19 62 50 67 89c0 0 -4 -1 -11 -1c-30 0 -55 29 -55 64c0 40 31 72 70 72c46 0 79 -40 79 -96z" />
    <glyph glyph-name="hyphen" unicode="-" horiz-adv-x="301" 
d="M246 229h-191v76h191v-76z" />
    <glyph glyph-name="period" unicode="." horiz-adv-x="284" 
d="M209 56c0 -38 -30 -69 -66 -69c-38 0 -68 31 -68 69c0 37 29 66 66 66c38 0 68 -29 68 -66z" />
    <glyph glyph-name="slash" unicode="/" horiz-adv-x="455" 
d="M390 757l-259 -905h-66l259 905h66z" />
    <glyph glyph-name="zero" unicode="0" horiz-adv-x="578" 
d="M513 254c0 -162 -88 -261 -223 -261c-143 0 -225 101 -225 265c0 162 88 261 223 261c143 0 225 -101 225 -265zM431 241c0 150 -43 213 -144 213c-91 0 -140 -57 -140 -183c0 -150 43 -213 144 -213c91 0 140 57 140 183z" />
    <glyph glyph-name="one" unicode="1" horiz-adv-x="434" 
d="M379 0h-263v63h92v349c-43 -28 -89 -45 -136 -64l-17 43l171 116h61v-444h92v-63z" />
    <glyph glyph-name="two" unicode="2" horiz-adv-x="552" 
d="M477 64l-16 -64h-382v63s44 32 77 60l121 101c66 55 84 90 84 139c0 56 -38 87 -106 87c-46 0 -89 -14 -158 -65l-32 40c75 65 137 93 210 93c103 0 179 -53 179 -144c0 -82 -56 -144 -202 -249l-90 -65c24 2 68 4 103 4h212z" />
    <glyph glyph-name="three" unicode="3" horiz-adv-x="526" 
d="M461 51c0 -74 -50 -142 -113 -179c-68 -40 -150 -54 -227 -54c-30 0 -49 3 -49 3l-18 53s22 -3 62 -3c188 0 257 104 257 187c0 45 -22 76 -44 92c-34 25 -69 30 -124 30h-46v56s87 0 110 3c62 9 89 50 89 103c0 65 -48 108 -119 108c-45 0 -88 -10 -159 -59l-35 41
c63 52 133 83 208 83c111 0 190 -67 190 -163c0 -71 -46 -127 -121 -148c87 -20 139 -82 139 -153z" />
    <glyph glyph-name="four" unicode="4" horiz-adv-x="545" 
d="M500 0h-55c-11 0 -27 1 -27 1s1 -16 1 -29v-148l-77 -23v160c0 12 1 40 1 40s-27 -1 -40 -1h-258v62l230 450h87l-191 -374c-18 -36 -44 -79 -44 -79s20 3 39 3h177v29c0 20 2 62 4 90l10 140l62 19v-201c0 -52 -1 -78 -1 -78s18 2 33 2h49v-63z" />
    <glyph glyph-name="five" unicode="5" horiz-adv-x="502" 
d="M437 53c0 -145 -134 -238 -289 -238c-30 0 -48 3 -74 10l-14 60c19 -8 42 -14 75 -14c121 0 216 80 216 182c0 83 -56 130 -149 130c-49 0 -98 -9 -127 -22l32 337h296l-12 -66h-213l-17 -194s35 5 68 5c115 0 208 -66 208 -190z" />
    <glyph glyph-name="six" unicode="6" horiz-adv-x="575" 
d="M510 201c0 -124 -95 -218 -220 -218c-136 0 -225 108 -225 272c0 103 31 185 96 263c81 96 172 145 270 174l19 -50c-108 -34 -195 -105 -238 -173c-34 -54 -47 -123 -47 -123c34 32 92 52 146 52c96 0 199 -69 199 -197zM420 199c0 92 -55 139 -125 139
c-45 0 -92 -19 -135 -53c0 0 -3 -27 -3 -51c0 -62 10 -108 35 -141c25 -34 56 -49 98 -49c80 0 130 60 130 155z" />
    <glyph glyph-name="seven" unicode="7" horiz-adv-x="505" 
d="M470 498l-19 -79c-67 -92 -127 -189 -179 -289c-39 -75 -92 -200 -110 -287l-96 -25c14 98 99 266 140 343c63 116 131 216 185 273c0 0 -57 -2 -92 -2h-264l19 66h416z" />
    <glyph glyph-name="eight" unicode="8" horiz-adv-x="578" 
d="M513 180c0 -104 -87 -194 -226 -194c-143 0 -222 83 -222 182s78 152 141 176c-75 35 -118 91 -118 155c0 98 76 166 211 166c115 0 192 -61 192 -152c0 -86 -65 -130 -135 -161c82 -37 157 -67 157 -172zM431 161c0 28 -7 56 -24 74c-23 24 -64 45 -152 85
c-61 -33 -110 -67 -110 -147c0 -79 59 -131 148 -131c82 0 138 49 138 119zM415 507c0 61 -49 101 -126 101c-76 0 -125 -40 -125 -102c0 -40 18 -84 136 -130c81 43 115 83 115 131z" />
    <glyph glyph-name="nine" unicode="9" horiz-adv-x="573" 
d="M508 269c0 -112 -48 -229 -126 -319c-79 -92 -207 -148 -287 -157l-40 48c72 7 164 57 227 111s97 116 116 170c-30 -22 -83 -42 -128 -42c-116 0 -200 87 -200 209c0 127 98 224 224 224c120 0 214 -92 214 -244zM422 268c0 109 -53 183 -133 183
c-79 0 -132 -65 -132 -160s47 -151 123 -151c47 0 88 16 134 55c5 23 8 46 8 73z" />
    <glyph glyph-name="colon" unicode=":" horiz-adv-x="304" 
d="M219 56c0 -38 -30 -68 -68 -68c-37 0 -66 30 -66 67c0 38 30 68 68 68c36 0 66 -30 66 -67zM219 372c0 -38 -30 -68 -67 -68s-67 29 -67 66c0 38 30 69 68 69c36 0 66 -30 66 -67z" />
    <glyph glyph-name="semicolon" unicode=";" horiz-adv-x="320" 
d="M235 29c0 -35 -14 -71 -38 -103c-20 -26 -53 -52 -84 -69l-28 44c39 19 62 50 67 89c0 0 -4 -1 -11 -1c-30 0 -55 29 -55 64c0 40 31 72 70 72c46 0 79 -40 79 -96zM220 372c0 -38 -30 -69 -67 -69s-68 32 -68 71c0 35 30 64 67 64s68 -30 68 -66z" />
    <glyph glyph-name="less" unicode="&#x3c;" horiz-adv-x="327" 
d="M282 86l-66 -43l-191 257l191 257l66 -43l-160 -214z" />
    <glyph glyph-name="equal" unicode="=" horiz-adv-x="632" 
d="M577 348h-522v66h522v-66zM577 192h-522v66h522v-66z" />
    <glyph glyph-name="greater" unicode="&#x3e;" horiz-adv-x="328" 
d="M303 300l-192 -257l-66 43l160 214l-160 214l66 43z" />
    <glyph glyph-name="question" unicode="?" horiz-adv-x="438" 
d="M383 548c0 -98 -89 -149 -105 -162c-45 -36 -60 -93 -44 -164h-67c-19 77 -10 147 47 201c39 37 90 52 90 121c0 49 -38 83 -90 83c-48 0 -87 -16 -136 -46l-33 55c47 36 119 59 184 59c92 0 154 -58 154 -147zM275 55c0 -38 -30 -69 -67 -69s-68 31 -68 69
c0 37 30 67 67 67s68 -30 68 -67z" />
    <glyph glyph-name="at" unicode="@" horiz-adv-x="921" 
d="M856 277c0 -177 -102 -291 -217 -291c-92 0 -113 64 -104 117c-30 -53 -93 -105 -161 -105c-54 0 -111 46 -111 143c0 160 91 312 264 312c48 0 88 -13 123 -32c-6 -21 -17 -63 -23 -92l-38 -181c-17 -80 -2 -109 53 -109c81 0 143 106 143 238c0 165 -127 294 -316 294
c-202 0 -332 -178 -332 -367c0 -187 140 -314 314 -314c54 0 104 8 137 19l13 -54c-39 -13 -95 -20 -150 -20c-207 0 -386 131 -386 369c0 236 170 421 404 421c218 0 387 -137 387 -348zM571 387c-13 8 -30 14 -51 14c-135 0 -187 -150 -187 -264c0 -58 21 -80 62 -80
c47 0 116 46 136 141z" />
    <glyph glyph-name="A" unicode="A" horiz-adv-x="583" 
d="M573 0h-93l-65 211h-256l-66 -211h-83l229 686h107zM394 278l-105 336l-108 -336h213z" />
    <glyph glyph-name="B" unicode="B" horiz-adv-x="609" 
d="M544 188c0 -75 -40 -142 -107 -168c-37 -14 -63 -20 -165 -20h-177v686h99c136 0 169 -3 204 -15c70 -24 117 -87 117 -157c0 -71 -45 -125 -123 -150c42 -8 67 -18 90 -36c45 -34 62 -90 62 -140zM458 195c0 60 -34 111 -83 121c-19 4 -46 7 -80 7h-121v-256h146
c101 0 138 46 138 128zM424 503c0 54 -31 96 -78 108c-19 5 -40 6 -75 6h-97v-226h119c74 0 100 13 120 59c7 16 11 34 11 53z" />
    <glyph glyph-name="C" unicode="C" horiz-adv-x="573" 
d="M538 45c-55 -36 -123 -56 -191 -56c-74 0 -147 31 -200 91c-58 66 -82 159 -82 261c0 204 122 354 288 354c66 0 126 -20 173 -56l-44 -53c-41 30 -80 43 -130 43c-79 0 -136 -41 -169 -118c-20 -46 -29 -101 -29 -182c0 -66 6 -105 22 -145c35 -86 106 -128 184 -128
c51 0 90 13 134 44z" />
    <glyph glyph-name="D" unicode="D" horiz-adv-x="633" 
d="M568 342c0 -120 -32 -205 -78 -256c-60 -67 -120 -86 -216 -86h-179v686h137c105 0 153 -5 220 -53c78 -56 116 -157 116 -291zM479 332c0 103 -13 169 -59 224c-45 53 -89 63 -161 63h-82v-551h82c71 0 137 8 174 72c31 53 46 120 46 192z" />
    <glyph glyph-name="E" unicode="E" horiz-adv-x="520" 
d="M480 0h-385v686h375l-11 -68h-281v-225h235v-71h-235v-251h302v-71z" />
    <glyph glyph-name="F" unicode="F" horiz-adv-x="441" 
d="M456 686l-13 -68h-265v-225h220v-67h-220v-326h-83v686h361z" />
    <glyph glyph-name="G" unicode="G" horiz-adv-x="639" 
d="M554 41c-49 -32 -123 -52 -193 -52c-86 0 -159 30 -211 86c-58 63 -85 148 -85 266c0 131 35 224 106 288c49 44 108 65 179 65c73 0 136 -23 188 -68l-37 -51c-56 38 -96 53 -149 53c-80 0 -143 -37 -171 -116c-18 -51 -27 -109 -27 -174c0 -90 17 -163 48 -208
s101 -73 166 -73c43 0 80 9 109 27v209h-138l-16 68h231v-320z" />
    <glyph glyph-name="H" unicode="H" horiz-adv-x="641" 
d="M546 0h-82v332h-289v-332h-80v686h80v-287h289v287h82v-686z" />
    <glyph glyph-name="I" unicode="I" 
d="M175 0h-80v686h80v-686z" />
    <glyph glyph-name="J" unicode="J" horiz-adv-x="279" 
d="M184 117c0 -87 -4 -120 -25 -157c-22 -39 -63 -70 -116 -88l-40 51c37 15 67 41 82 67c13 23 17 55 17 125v571h82v-569z" />
    <glyph glyph-name="K" unicode="K" horiz-adv-x="556" 
d="M551 686l-276 -322l274 -364h-105l-262 363l264 323h105zM178 0h-83v686h83v-686z" />
    <glyph glyph-name="L" unicode="L" horiz-adv-x="463" 
d="M448 69l-11 -69h-342v686h82v-617h271z" />
    <glyph glyph-name="M" unicode="M" horiz-adv-x="806" 
d="M736 0h-82l-40 503c-3 43 -5 112 -5 116c-2 -6 -15 -65 -27 -107l-147 -512h-70l-136 487c-20 67 -32 119 -34 131c-1 -10 -5 -91 -8 -130l-38 -488h-79l60 686h120l125 -448c17 -63 26 -113 27 -119c1 5 10 57 25 111l129 456h121z" />
    <glyph glyph-name="N" unicode="N" horiz-adv-x="646" 
d="M551 0h-86l-220 420c-44 83 -78 165 -78 165s8 -98 9 -187l4 -398h-85v686h95l228 -438c34 -65 61 -137 64 -144c0 2 -8 111 -9 209l-3 373h81v-686z" />
    <glyph glyph-name="O" unicode="O" horiz-adv-x="681" 
d="M616 332c0 -132 -30 -215 -100 -279c-51 -46 -103 -66 -174 -66c-84 0 -149 34 -195 87c-54 62 -82 155 -82 272c0 218 104 352 273 352c119 0 183 -63 216 -112c43 -64 62 -144 62 -254zM524 320c0 101 -10 170 -33 218c-24 51 -74 94 -153 94c-64 0 -121 -31 -147 -80
c-24 -45 -35 -104 -35 -189c0 -103 17 -193 44 -239c26 -44 90 -74 146 -74s97 20 128 59c34 43 50 98 50 211z" />
    <glyph glyph-name="P" unicode="P" horiz-adv-x="548" 
d="M523 490c0 -70 -17 -122 -62 -163c-46 -41 -96 -54 -166 -54h-120v-273h-80v686h190c74 0 113 -8 150 -32c58 -38 88 -95 88 -164zM432 474c0 51 -12 85 -40 109s-65 34 -130 34h-87v-277h115c58 0 84 11 107 37c24 27 35 58 35 97z" />
    <glyph glyph-name="Q" unicode="Q" horiz-adv-x="681" 
d="M697 -50l-27 -65c-12 -6 -30 -9 -59 -9c-43 0 -98 32 -131 52c-49 30 -71 45 -145 59c-85 0 -146 40 -187 87c-54 62 -83 155 -83 272c0 218 104 352 273 352c108 0 178 -53 216 -112c42 -66 63 -144 63 -254c0 -132 -31 -214 -101 -279c-15 -14 -27 -23 -44 -33
c28 -9 65 -32 92 -47c19 -11 51 -28 92 -28c18 0 36 3 41 5zM525 320c0 101 -11 170 -34 218c-22 46 -66 94 -153 94c-63 0 -118 -32 -145 -80c-25 -45 -37 -104 -37 -189c0 -103 18 -193 45 -239c26 -45 87 -74 146 -74c56 0 96 19 127 59c34 44 51 101 51 211z" />
    <glyph glyph-name="R" unicode="R" horiz-adv-x="556" 
d="M531 0h-103c-20 45 -84 150 -175 266c-27 34 -42 43 -76 44v-310h-82v686h160c94 0 140 -17 173 -44c31 -25 68 -71 68 -144c0 -113 -73 -188 -182 -188h-10c32 -26 55 -58 69 -77c29 -39 158 -233 158 -233zM410 499c0 45 -28 88 -67 104c-22 9 -49 14 -86 14h-79v-256
h73c61 0 98 11 124 35c23 21 35 58 35 103z" />
    <glyph glyph-name="S" unicode="S" horiz-adv-x="579" 
d="M524 194c0 -64 -34 -126 -95 -165c-45 -29 -91 -42 -154 -42c-82 0 -152 20 -220 62l36 64c57 -41 115 -59 184 -59c52 0 80 8 109 30c33 25 49 58 49 98c0 61 -40 103 -123 128l-69 21c-62 19 -95 33 -122 61c-28 30 -43 68 -43 112c0 117 89 197 222 197
c74 0 142 -22 207 -66l-36 -59c-66 43 -108 58 -167 58c-86 0 -137 -43 -137 -113c0 -55 33 -86 114 -112l79 -25c61 -19 93 -37 121 -69s45 -78 45 -121z" />
    <glyph glyph-name="T" unicode="T" horiz-adv-x="464" 
d="M479 686l-5 -69h-186v-617h-79v617h-184v69h454z" />
    <glyph glyph-name="U" unicode="U" horiz-adv-x="635" 
d="M545 198c0 -83 -11 -122 -52 -157c-42 -36 -97 -53 -180 -53c-106 0 -166 31 -203 99c-18 33 -20 77 -20 107v492h81v-462c0 -34 3 -78 12 -99c13 -30 50 -67 134 -67c57 0 100 15 121 43c23 31 26 61 26 107v478h81v-488z" />
    <glyph glyph-name="V" unicode="V" horiz-adv-x="577" 
d="M562 686l-235 -686h-81l-231 686h89l145 -442c20 -60 37 -133 40 -153c4 17 18 69 42 143l147 452h84z" />
    <glyph glyph-name="W" unicode="W" horiz-adv-x="822" 
d="M797 686l-157 -686h-107l-85 381c-22 101 -35 182 -36 193c-2 -8 -15 -95 -35 -187l-84 -387h-106l-162 686h88l87 -401c19 -86 35 -197 37 -208c1 6 21 120 39 198l91 411h93l95 -426c22 -100 34 -176 35 -183c1 5 18 109 40 211l85 398h82z" />
    <glyph glyph-name="X" unicode="X" horiz-adv-x="546" 
d="M536 0h-99l-170 315l-161 -315h-96l203 368l-182 318h97l137 -254l131 254h96l-172 -312z" />
    <glyph glyph-name="Y" unicode="Y" horiz-adv-x="519" 
d="M524 686l-223 -419v-267h-85v272l-221 414h101l130 -262c19 -39 35 -77 35 -77l37 77l132 262h94z" />
    <glyph glyph-name="Z" unicode="Z" horiz-adv-x="518" 
d="M473 70l-21 -70h-407v63l293 489c26 43 44 66 44 66s-29 -1 -71 -1h-256l23 69h391v-70l-285 -481c-23 -39 -42 -66 -42 -66s28 1 59 1h272z" />
    <glyph glyph-name="bracketleft" unicode="[" horiz-adv-x="285" 
d="M260 -156h-165v888h165v-60h-93v-768h93v-60z" />
    <glyph glyph-name="backslash" unicode="\" horiz-adv-x="414" 
d="M389 -18l-63 -25l-301 769l63 24z" />
    <glyph glyph-name="bracketright" unicode="]" horiz-adv-x="285" 
d="M190 -156h-165v60h93v768h-93v60h165v-888z" />
    <glyph glyph-name="asciicircum" unicode="^" horiz-adv-x="636" 
d="M571 275h-74l-179 349l-179 -349h-74l223 433h60z" />
    <glyph glyph-name="underscore" unicode="_" horiz-adv-x="510" 
d="M505 -125h-500v50h500v-50z" />
    <glyph glyph-name="grave" unicode="`" horiz-adv-x="360" 
d="M305 612l-26 -47l-224 100l43 77z" />
    <glyph glyph-name="a" unicode="a" horiz-adv-x="529" 
d="M472 37l-40 -56c-34 11 -59 38 -68 73c-48 -48 -87 -67 -144 -67c-123 0 -160 75 -160 142c0 113 97 179 264 179c21 0 35 -1 35 -1v35c0 44 -2 62 -16 78c-16 18 -36 27 -67 27c-56 0 -127 -30 -159 -59l-39 56c66 44 137 67 209 67c69 0 117 -27 138 -78
c11 -27 12 -65 11 -110l-4 -164c-2 -81 3 -102 40 -122zM357 253c-13 1 -25 2 -39 2c-126 0 -171 -43 -171 -119c0 -59 29 -91 86 -91c51 0 98 31 121 78z" />
    <glyph glyph-name="b" unicode="b" horiz-adv-x="572" 
d="M507 256c0 -160 -79 -268 -198 -268c-52 0 -109 29 -137 66c-2 -21 -4 -34 -14 -54h-78c11 24 15 57 15 124v490c0 65 -13 102 -13 102l78 15s13 -42 13 -118v-116c0 -25 -2 -55 -2 -55c49 48 90 67 143 67c119 0 193 -97 193 -253zM420 261c0 66 -8 105 -29 134
c-19 27 -55 43 -94 43c-49 0 -98 -28 -125 -65v-256c26 -34 76 -60 123 -60c34 0 72 18 90 44c18 27 35 76 35 160z" />
    <glyph glyph-name="c" unicode="c" horiz-adv-x="469" 
d="M424 55c-46 -47 -90 -66 -152 -66c-71 0 -124 25 -159 75c-33 48 -48 103 -48 177c0 109 32 169 75 212c39 39 82 58 135 58c63 0 100 -24 136 -54l-43 -54c-35 29 -57 40 -95 40c-39 0 -76 -22 -94 -56c-19 -35 -28 -90 -28 -163c0 -112 43 -173 123 -173
c40 0 78 19 107 54z" />
    <glyph glyph-name="d" unicode="d" horiz-adv-x="571" 
d="M491 0h-80s-10 25 -11 51c-36 -41 -74 -58 -132 -58c-129 0 -203 93 -203 252c0 106 35 184 103 231c32 22 60 31 96 31c56 0 105 -23 135 -63c0 0 -1 41 -1 77v209l78 -13v-556c0 -86 4 -132 15 -161zM397 127v264c-25 35 -62 52 -121 52c-39 0 -72 -18 -93 -52
c-24 -38 -32 -74 -32 -144c0 -58 4 -101 20 -130c23 -41 54 -58 100 -58c41 0 64 9 96 32c21 15 30 36 30 36z" />
    <glyph glyph-name="e" unicode="e" horiz-adv-x="521" 
d="M466 236h-311v-12c0 -47 6 -83 23 -109c28 -43 74 -61 124 -61c48 0 87 15 122 47l30 -50c-44 -40 -104 -62 -168 -62c-138 0 -221 100 -221 265c0 84 18 138 60 188c40 47 89 69 149 69c54 0 101 -19 135 -54c43 -44 57 -91 57 -210v-11zM383 295c-1 54 -8 87 -23 111
c-17 27 -52 44 -90 44c-71 0 -111 -52 -115 -155h228z" />
    <glyph glyph-name="f" unicode="f" horiz-adv-x="303" 
d="M348 695l-29 -55c-19 11 -47 23 -74 23c-44 0 -68 -31 -68 -88v-77h138l-24 -59h-114v-439h-82v439h-48v59h48v78c0 74 34 106 55 122c24 18 51 26 88 26c43 0 81 -10 110 -29z" />
    <glyph glyph-name="g" unicode="g" horiz-adv-x="514" 
d="M514 454c-31 -22 -54 -30 -84 -30c-13 0 -25 2 -34 6c20 -25 30 -53 30 -85c0 -56 -28 -108 -74 -137c-25 -16 -57 -22 -93 -22c-67 -24 -90 -41 -90 -58c0 -15 15 -24 40 -24h80c58 0 90 -7 120 -28c39 -27 55 -62 55 -105c0 -108 -77 -157 -198 -157
c-156 0 -216 56 -216 127c0 18 3 33 10 53l82 7c-7 -11 -14 -29 -14 -45c0 -26 11 -47 29 -58c24 -14 61 -23 101 -23c77 0 121 25 121 87c0 27 -9 48 -27 60c-19 13 -49 18 -98 18c-20 0 -61 -1 -77 -1c-59 0 -94 27 -94 72c0 40 22 64 90 85c-67 21 -112 78 -112 144
c0 100 75 168 184 168c76 0 91 -28 152 -28c26 0 45 6 69 22zM335 344c0 68 -26 100 -92 100c-62 0 -94 -34 -94 -103c0 -64 33 -99 96 -99c60 0 90 35 90 102z" />
    <glyph glyph-name="h" unicode="h" horiz-adv-x="567" 
d="M472 0h-77v344c0 37 -5 60 -19 74c-12 12 -33 20 -58 20c-48 0 -102 -31 -145 -84v-354h-78v614c0 65 -13 102 -13 102l78 15s13 -42 13 -118v-116c0 -32 -3 -68 -3 -68c45 42 102 79 166 79c60 0 114 -33 128 -79c6 -20 8 -36 8 -72v-357z" />
    <glyph glyph-name="i" unicode="i" horiz-adv-x="271" 
d="M176 0h-81v496l81 13v-509zM198 652c0 -34 -27 -61 -61 -61s-61 27 -61 60c0 34 27 62 61 62s61 -27 61 -61z" />
    <glyph glyph-name="j" unicode="j" 
d="M175 10c0 -43 -3 -83 -14 -110c-19 -46 -55 -77 -102 -98l-39 52c69 30 75 76 75 163v477l80 16v-500zM196 652c0 -34 -27 -61 -61 -61s-61 27 -61 61s27 61 61 61s61 -27 61 -61z" />
    <glyph glyph-name="k" unicode="k" horiz-adv-x="514" 
d="M173 0h-78v614c0 65 -13 102 -13 102l78 15s13 -42 13 -118v-613zM509 0h-104l-229 282l190 216h98l-196 -216z" />
    <glyph glyph-name="l" unicode="l" horiz-adv-x="269" 
d="M228 1c-20 -9 -29 -11 -50 -11c-24 0 -44 7 -59 21c-16 14 -24 35 -24 71v528c0 65 -12 102 -12 102l78 15s13 -42 13 -118v-509c0 -39 6 -50 28 -50c3 0 10 2 10 2z" />
    <glyph glyph-name="m" unicode="m" horiz-adv-x="812" 
d="M717 0h-80v368c0 48 -22 73 -64 73c-45 0 -80 -29 -132 -77v-364h-79v354c0 30 -3 50 -14 64c-12 14 -28 20 -51 20c-38 0 -75 -19 -127 -66v-372h-75v386c0 72 -18 106 -18 106l76 18s18 -39 18 -74c33 37 94 75 145 75c49 0 98 -30 116 -83c48 51 109 83 160 83
c74 0 125 -56 125 -135v-376z" />
    <glyph glyph-name="n" unicode="n" horiz-adv-x="556" 
d="M461 0h-79v337c0 53 -4 66 -18 83c-11 13 -32 21 -55 21c-40 0 -102 -32 -138 -70v-371h-76v384c0 71 -19 105 -19 105l76 21s18 -37 18 -78c52 52 104 77 157 77c54 0 102 -29 122 -73c8 -18 12 -38 12 -58v-378z" />
    <glyph glyph-name="o" unicode="o" horiz-adv-x="549" 
d="M489 241c0 -166 -89 -254 -214 -254c-137 0 -215 101 -215 265c0 162 81 261 212 261c83 0 137 -38 171 -87c31 -45 46 -104 46 -185zM400 235c0 70 -7 117 -23 150c-21 44 -65 64 -106 64c-44 0 -85 -21 -102 -54c-16 -31 -24 -71 -24 -130c0 -70 12 -132 31 -163
c18 -30 58 -50 101 -50c52 0 91 27 108 75c11 31 15 59 15 108z" />
    <glyph glyph-name="p" unicode="p" horiz-adv-x="569" 
d="M504 250c0 -80 -12 -126 -40 -172c-36 -58 -89 -91 -154 -91c-51 0 -102 22 -137 58v-238l-78 -15v598c0 76 -11 107 -11 107l80 14s5 -21 5 -76c41 48 92 73 147 73c51 0 101 -22 133 -62c37 -46 55 -107 55 -196zM421 240c0 60 -9 113 -23 143c-16 34 -52 55 -92 55
c-50 0 -95 -24 -133 -70v-251c37 -42 80 -65 122 -65c46 0 88 25 105 62c15 32 21 70 21 126z" />
    <glyph glyph-name="q" unicode="q" horiz-adv-x="569" 
d="M489 498c0 0 -15 -45 -15 -128v-557l-75 -16v259c-38 -44 -83 -65 -140 -65c-46 0 -81 12 -114 40c-49 41 -80 102 -80 203c0 99 14 154 47 199c37 51 90 80 149 80c54 0 98 -22 141 -70c1 13 5 44 10 55h77zM399 135v237c-27 43 -79 71 -127 71c-43 0 -81 -22 -101 -61
c-17 -33 -23 -64 -23 -130c0 -109 22 -142 47 -165c21 -20 45 -29 83 -29c51 0 95 28 121 77z" />
    <glyph glyph-name="r" unicode="r" horiz-adv-x="324" 
d="M339 508l-32 -85c-5 2 -14 4 -22 4c-30 0 -60 -13 -83 -36s-29 -38 -29 -79v-312h-78v384c0 73 -17 106 -17 106l78 21s19 -39 16 -81c36 51 89 83 140 83c13 0 27 -5 27 -5z" />
    <glyph glyph-name="s" unicode="s" horiz-adv-x="481" 
d="M426 148c0 -97 -76 -163 -188 -163c-63 0 -132 19 -183 50l30 58c51 -31 103 -47 158 -47c61 0 101 33 101 86c0 45 -25 70 -82 82l-62 13c-82 17 -126 68 -126 137c0 90 73 153 177 153c52 0 110 -16 152 -40l-29 -58c-44 21 -81 36 -125 36c-57 0 -94 -33 -94 -82
c0 -38 19 -61 72 -72l66 -14c90 -19 133 -65 133 -139z" />
    <glyph glyph-name="t" unicode="t" horiz-adv-x="320" 
d="M300 498l-24 -59h-104v-321c0 -55 15 -74 64 -74c22 0 35 3 49 10l11 -50c-25 -13 -53 -20 -88 -20c-26 0 -46 5 -65 14c-35 17 -48 49 -48 99v342h-65v59h65c0 48 8 126 8 126l82 18s-10 -78 -10 -144h125z" />
    <glyph glyph-name="u" unicode="u" horiz-adv-x="557" 
d="M496 32l-50 -53c-33 27 -47 47 -54 80c-38 -51 -90 -76 -158 -76c-63 0 -110 27 -131 71c-9 19 -13 45 -13 74v366l77 15v-358c0 -47 7 -68 30 -84c16 -11 39 -17 61 -17c49 0 100 36 127 90v353l77 13v-363c0 -63 9 -88 34 -111z" />
    <glyph glyph-name="v" unicode="v" horiz-adv-x="473" 
d="M458 498l-187 -503h-77l-179 499l80 17l116 -343c14 -41 24 -85 24 -85h2s8 39 24 84l114 331h83z" />
    <glyph glyph-name="w" unicode="w" horiz-adv-x="695" 
d="M675 498l-141 -502h-77l-99 350c-9 33 -14 55 -14 55h-2s-6 -35 -11 -51l-100 -354h-73l-138 498l78 17l80 -329c11 -46 18 -83 18 -83h3s7 36 17 72l89 327h85l87 -331c7 -27 20 -73 20 -73h2s10 49 15 69l79 335h82z" />
    <glyph glyph-name="x" unicode="x" horiz-adv-x="467" 
d="M462 0h-95l-135 212l-135 -212h-92l186 276l-154 222h96l99 -166l96 166h91l-148 -222z" />
    <glyph glyph-name="y" unicode="y" horiz-adv-x="459" 
d="M444 498l-171 -516c-33 -100 -74 -166 -161 -187l-23 53c64 20 88 52 115 153l-32 -5c-6 32 -33 129 -50 179l-107 312l77 26l102 -323c15 -47 30 -124 30 -124h2l31 105l98 327h89z" />
    <glyph glyph-name="z" unicode="z" horiz-adv-x="459" 
d="M414 60l-37 -60h-332v60l271 376h-250v62h332v-64l-259 -374h275z" />
    <glyph glyph-name="braceleft" unicode="{" horiz-adv-x="331" 
d="M306 -156h-70c-50 0 -105 44 -105 125v175c0 72 -44 114 -86 114v60c42 0 86 44 86 113v176c0 81 58 125 105 125h70v-60h-54c-42 0 -49 -39 -49 -79v-176c0 -90 -63 -122 -86 -128v-2c23 -3 86 -30 86 -129v-175c0 -39 7 -79 49 -79h54v-60z" />
    <glyph glyph-name="bar" unicode="|" horiz-adv-x="256" 
d="M161 -208h-66v964h66v-964z" />
    <glyph glyph-name="braceright" unicode="}" horiz-adv-x="331" 
d="M286 258c-42 0 -86 -42 -86 -114v-175c0 -81 -55 -125 -105 -125h-70v60h54c42 0 49 40 49 79v175c0 99 63 126 86 129v2c-23 6 -86 38 -86 128v176c0 40 -7 79 -49 79h-54v60h70c47 0 105 -44 105 -125v-176c0 -69 44 -113 86 -113v-60z" />
    <glyph glyph-name="asciitilde" unicode="~" horiz-adv-x="590" 
d="M525 324c-31 -42 -64 -88 -126 -88c-77 0 -144 68 -217 68c-44 0 -68 -35 -84 -70l-33 48c30 42 63 88 125 88c77 0 145 -68 217 -68c44 0 68 35 85 70z" />
    <glyph glyph-name="uni00A0" unicode="&#xa0;" horiz-adv-x="230" 
 />
    <glyph glyph-name="exclamdown" unicode="&#xa1;" horiz-adv-x="292" 
d="M196 -170l-98 -13l19 501h60zM207 461c0 -34 -27 -61 -61 -61s-61 27 -61 60c0 35 27 63 61 63s61 -28 61 -62z" />
    <glyph glyph-name="cent" unicode="&#xa2;" horiz-adv-x="469" 
d="M424 55c-38 -39 -75 -59 -122 -64v-76h-55v75c-58 5 -104 30 -134 74c-33 48 -48 103 -48 177c0 109 32 169 75 212c32 32 66 50 107 55v78h55v-78c47 -6 78 -26 109 -51l-43 -54c-27 22 -45 33 -66 37v-386c31 7 57 24 79 51zM247 53v387c-28 -8 -54 -27 -68 -53
c-19 -35 -28 -90 -28 -163c0 -99 33 -158 96 -171z" />
    <glyph glyph-name="sterling" unicode="&#xa3;" horiz-adv-x="563" 
d="M538 658l-55 -59c-31 30 -64 49 -108 49c-99 0 -128 -70 -128 -174v-78h162v-66h-162v-252h246v-78h-438v78h108v252h-96v66h96v80c0 174 93 244 214 244c60 0 118 -19 161 -62z" />
    <glyph glyph-name="currency" unicode="&#xa4;" horiz-adv-x="457" 
d="M396 87l-64 -41l-41 63c-19 -7 -40 -10 -66 -10c-24 0 -45 4 -64 11l-41 -64l-62 41l43 65c-24 29 -37 70 -37 119c0 51 14 93 40 122l-44 63l68 40l38 -63c17 5 37 8 58 8c23 0 43 -4 60 -10l37 65l64 -40l-42 -63c21 -15 43 -61 43 -128c0 -50 -10 -85 -35 -113z
M319 261c0 77 -21 125 -96 125c-66 0 -91 -39 -91 -107c0 -87 29 -125 96 -125c62 0 91 38 91 107z" />
    <glyph glyph-name="yen" unicode="&#xa5;" horiz-adv-x="539" 
d="M534 686l-166 -312h149v-59h-180l-26 -48v-48h206v-59h-206v-160h-85v160h-194v59h194v53l-23 43h-171v59h139l-166 312h101l130 -262c15 -31 35 -77 35 -77s20 44 37 77l132 262h94z" />
    <glyph glyph-name="brokenbar" unicode="&#xa6;" horiz-adv-x="256" 
d="M161 346h-66v410h66v-410zM161 -208h-66v410h66v-410z" />
    <glyph glyph-name="section" unicode="&#xa7;" horiz-adv-x="548" 
d="M483 282c0 -61 -36 -105 -86 -133c43 -28 69 -67 69 -123c0 -115 -102 -170 -204 -170c-86 0 -164 38 -197 123l77 36c18 -61 66 -87 126 -87c56 0 108 27 108 92c0 48 -33 65 -100 100l-122 64c-46 24 -73 69 -73 122c0 70 43 112 101 140c-46 26 -77 64 -77 118
c0 107 96 162 192 162c69 0 144 -27 175 -94l-75 -41c-16 44 -60 63 -103 63c-51 0 -105 -26 -105 -86c0 -33 15 -57 44 -72l98 -49c68 -34 152 -75 152 -165zM399 270c0 56 -55 85 -97 106l-58 29c-39 -16 -85 -35 -85 -86c0 -52 46 -74 86 -93l89 -43c33 14 65 49 65 87z
" />
    <glyph glyph-name="dieresis" unicode="&#xa8;" horiz-adv-x="420" 
d="M365 621c0 -29 -23 -53 -51 -53c-29 0 -53 24 -53 53c0 28 23 51 52 51c28 0 52 -23 52 -51zM158 621c0 -29 -22 -53 -51 -53s-52 24 -52 53c0 28 23 51 51 51c29 0 52 -23 52 -51z" />
    <glyph glyph-name="copyright" unicode="&#xa9;" horiz-adv-x="874" 
d="M809 354c0 -212 -170 -372 -372 -372c-203 0 -372 160 -372 372s169 372 372 372c202 0 372 -160 372 -372zM743 354c0 180 -136 318 -306 318c-171 0 -306 -138 -306 -318s135 -318 306 -318c170 0 306 138 306 318zM563 173c-32 -23 -69 -35 -111 -35
c-54 0 -98 23 -129 62c-29 38 -45 88 -45 148c0 48 10 89 27 123c31 59 85 95 149 95c39 0 76 -12 101 -33l-28 -38c-23 17 -45 24 -73 24c-41 0 -73 -21 -92 -59c-13 -26 -20 -61 -20 -111c0 -46 5 -73 15 -97c20 -46 58 -67 102 -67c32 0 54 8 76 25z" />
    <glyph glyph-name="ordfeminine" unicode="&#xaa;" horiz-adv-x="429" 
d="M374 409l-32 -44c-26 8 -45 28 -52 54c-36 -39 -70 -49 -108 -49c-94 0 -121 57 -121 108c0 86 72 135 197 135c9 0 14 0 26 -1v36c0 45 -20 66 -60 66s-86 -19 -120 -45l-30 46c53 35 105 51 159 51c47 0 80 -17 96 -41c19 -28 19 -65 18 -102l-4 -134
c-1 -43 4 -65 31 -80zM284 571c-13 2 -19 2 -29 2c-91 0 -129 -29 -129 -89c0 -45 22 -69 65 -69c38 0 73 24 91 59zM368 240h-313v54h313v-54z" />
    <glyph glyph-name="guillemotleft" unicode="&#xab;" horiz-adv-x="504" 
d="M449 62l-55 -36l-143 214l143 214l55 -36l-117 -178zM263 62l-55 -36l-143 214l143 214l55 -36l-117 -178z" />
    <glyph glyph-name="logicalnot" unicode="&#xac;" horiz-adv-x="499" 
d="M444 77h-71v140h-318v71h389v-211z" />
    <glyph glyph-name="uni00AD" unicode="&#xad;" horiz-adv-x="301" 
d="M251 229h-191v76h191v-76z" />
    <glyph glyph-name="registered" unicode="&#xae;" horiz-adv-x="874" 
d="M809 354c0 -212 -170 -372 -372 -372c-203 0 -372 160 -372 372s169 372 372 372c202 0 372 -160 372 -372zM743 354c0 180 -136 318 -306 318c-171 0 -306 -138 -306 -318s135 -318 306 -318c170 0 306 138 306 318zM593 150h-70c-12 23 -18 33 -34 61
c-32 53 -42 70 -72 103c-11 12 -20 18 -37 19v-183h-58v413h116c49 0 78 -11 98 -30c19 -17 37 -45 37 -85c0 -64 -42 -116 -111 -114c19 -15 29 -28 36 -38c9 -11 21 -29 35 -51zM512 447c0 29 -16 52 -38 61c-12 5 -29 8 -51 8h-43v-144h40c37 0 57 6 72 19
c12 12 20 32 20 56z" />
    <glyph glyph-name="macron" unicode="&#xaf;" horiz-adv-x="324" 
d="M299 683h-274v54h274v-54z" />
    <glyph glyph-name="degree" unicode="&#xb0;" horiz-adv-x="412" 
d="M367 515c0 -92 -49 -166 -161 -166c-100 0 -161 66 -161 172s60 170 160 170c101 0 162 -63 162 -176zM300 511c0 77 -22 125 -96 125c-63 0 -91 -35 -91 -107c0 -89 31 -125 96 -125c56 0 91 31 91 107z" />
    <glyph glyph-name="plusminus" unicode="&#xb1;" horiz-adv-x="481" 
d="M426 294h-150v-140h-71v140h-150v71h150v133h71v-133h150v-71zM424 36h-367v71h367v-71z" />
    <glyph glyph-name="twosuperior" unicode="&#xb2;" horiz-adv-x="358" 
d="M313 316l-15 -56h-247v40c27 18 55 42 93 83c66 70 90 115 90 153s-26 65 -62 65s-65 -22 -94 -39l-33 35c53 44 97 62 143 62c68 0 121 -50 121 -115c0 -67 -49 -121 -94 -167l-63 -62c7 0 14 1 21 1h140z" />
    <glyph glyph-name="threesuperior" unicode="&#xb3;" horiz-adv-x="363" 
d="M318 383c0 -56 -44 -101 -97 -123c-29 -12 -73 -20 -117 -20c-15 0 -19 0 -37 3l-17 51c27 -4 30 -4 45 -4c51 0 90 7 123 36c19 16 28 39 28 62c0 27 -17 48 -43 55c-16 4 -21 5 -70 5h-16v51h16c44 0 64 1 76 6c16 7 28 24 28 45c0 30 -24 52 -62 52s-67 -16 -97 -37
l-33 37c36 32 89 57 139 57c71 0 124 -42 124 -103c0 -37 -20 -67 -54 -84c38 -17 64 -47 64 -89z" />
    <glyph glyph-name="acute" unicode="&#xb4;" horiz-adv-x="360" 
d="M305 665l-224 -100l-26 47l207 130z" />
    <glyph glyph-name="mu" unicode="&#xb5;" horiz-adv-x="563" 
d="M502 32l-50 -53c-33 27 -47 47 -54 80c-38 -51 -90 -76 -158 -76c-25 0 -52 6 -67 19v-195l-78 -15v702l78 16v-359c0 -49 6 -66 29 -82c16 -11 40 -19 62 -19c49 0 100 36 127 90v353l77 13v-353c0 -66 3 -94 34 -121z" />
    <glyph glyph-name="paragraph" unicode="&#xb6;" horiz-adv-x="601" 
d="M506 -126h-72v768h-118v-768h-72v442c-122 0 -209 82 -209 186c0 130 88 206 228 206h243v-834z" />
    <glyph glyph-name="periodcentered" unicode="&#xb7;" horiz-adv-x="301" 
d="M216 279c0 -36 -29 -66 -65 -66s-66 30 -66 66c0 37 29 66 65 66s66 -29 66 -66z" />
    <glyph glyph-name="cedilla" unicode="&#xb8;" horiz-adv-x="290" 
d="M235 -114c0 -38 -34 -83 -98 -83c-30 0 -62 13 -82 24l21 47c26 -12 39 -16 61 -16c18 0 36 11 36 30c0 20 -21 29 -38 29c-12 0 -21 -1 -26 -2l-9 10l20 75h61l-11 -42c51 -7 65 -36 65 -72z" />
    <glyph glyph-name="onesuperior" unicode="&#xb9;" horiz-adv-x="325" 
d="M280 260h-190v55h62v256c-28 -18 -59 -30 -90 -43l-17 41l124 83h51v-337h60v-55z" />
    <glyph glyph-name="ordmasculine" unicode="&#xba;" horiz-adv-x="432" 
d="M377 557c0 -122 -62 -190 -161 -190s-161 76 -161 199c0 122 61 195 159 195c109 0 163 -78 163 -204zM305 554c0 121 -38 152 -92 152c-62 0 -89 -45 -89 -132c0 -106 31 -151 94 -151c57 0 87 39 87 131zM373 240h-313v54h313v-54z" />
    <glyph glyph-name="guillemotright" unicode="&#xbb;" horiz-adv-x="504" 
d="M439 240l-143 -214l-55 36l117 178l-117 178l55 36zM253 240l-143 -214l-55 36l117 178l-117 178l55 36z" />
    <glyph glyph-name="onequarter" unicode="&#xbc;" horiz-adv-x="950" 
d="M781 763l-527 -917h-66l527 917h66zM905 71h-49c0 -4 1 -8 1 -12v-60l-67 -18v77c0 4 1 9 1 13h-179v47l146 275h75c-26 -50 -94 -185 -145 -269l7 1h96l-1 6c-2 10 1 19 2 32l8 108l57 17v-155l-1 -8h49v-54zM280 260h-190v55h62v256c-28 -18 -59 -30 -90 -43l-17 41
l124 83h51v-337h60v-55z" />
    <glyph glyph-name="onehalf" unicode="&#xbd;" horiz-adv-x="925" 
d="M762 763l-527 -917h-66l527 917h66zM880 56l-15 -56h-247v40c27 18 55 42 93 83c66 70 90 115 90 153s-26 65 -62 65s-65 -22 -94 -39l-33 35c53 44 97 62 143 62c68 0 121 -50 121 -115c0 -67 -49 -121 -94 -167l-63 -62c7 0 14 1 21 1h140zM280 260h-190v55h62v256
c-28 -18 -59 -30 -90 -43l-17 41l124 83h51v-337h60v-55z" />
    <glyph glyph-name="threequarters" unicode="&#xbe;" horiz-adv-x="993" 
d="M823 763l-527 -917h-66l527 917h66zM948 71h-49c0 -4 1 -8 1 -12v-60l-67 -18v77c0 4 1 9 1 13h-179v47l146 275h75c-26 -50 -94 -185 -145 -269l7 1h96l-1 6c-2 10 1 19 2 32l8 108l57 17v-155l-1 -8h49v-54zM318 383c0 -56 -44 -101 -97 -123c-29 -12 -73 -20 -117 -20
c-15 0 -19 0 -37 3l-17 51c27 -4 30 -4 45 -4c51 0 90 7 123 36c19 16 28 39 28 62c0 27 -17 48 -43 55c-16 4 -21 5 -70 5h-16v51h16c44 0 64 1 76 6c16 7 28 24 28 45c0 30 -24 52 -62 52s-67 -16 -97 -37l-33 37c36 32 89 57 139 57c71 0 124 -42 124 -103
c0 -37 -20 -67 -54 -84c38 -17 64 -47 64 -89z" />
    <glyph glyph-name="questiondown" unicode="&#xbf;" horiz-adv-x="438" 
d="M393 -127c-47 -36 -119 -59 -184 -59c-92 0 -154 58 -154 147c0 98 89 149 105 162c45 36 60 93 44 164h67c19 -77 10 -147 -47 -201c-39 -37 -90 -52 -90 -121c0 -49 38 -83 90 -83c48 0 93 18 136 46zM298 454c0 -37 -30 -67 -67 -67s-68 30 -68 67c0 38 30 69 67 69
s68 -31 68 -69z" />
    <glyph glyph-name="Agrave" unicode="&#xc0;" horiz-adv-x="583" 
d="M578 0h-93l-65 211h-256l-66 -211h-83l229 686h107zM399 278l-105 336l-108 -336h213zM384 772l-26 -47l-224 100l43 77z" />
    <glyph glyph-name="Aacute" unicode="&#xc1;" horiz-adv-x="583" 
d="M578 0h-93l-65 211h-256l-66 -211h-83l229 686h107zM399 278l-105 336l-108 -336h213zM460 825l-224 -100l-26 47l207 130z" />
    <glyph glyph-name="Acircumflex" unicode="&#xc2;" horiz-adv-x="583" 
d="M578 0h-93l-65 211h-256l-66 -211h-83l229 686h107zM399 278l-105 336l-108 -336h213zM468 765l-36 -44l-139 85l-135 -85l-31 44l170 135z" />
    <glyph glyph-name="Atilde" unicode="&#xc3;" horiz-adv-x="583" 
d="M578 0h-93l-65 211h-256l-66 -211h-83l229 686h107zM399 278l-105 336l-108 -336h213zM465 816c-33 -41 -62 -63 -121 -63c-61 0 -69 37 -127 37c-32 0 -48 -17 -69 -39l-28 45c33 41 61 63 120 63c61 0 69 -37 127 -37c32 0 49 17 70 39z" />
    <glyph glyph-name="Adieresis" unicode="&#xc4;" horiz-adv-x="583" 
d="M578 0h-93l-65 211h-256l-66 -211h-83l229 686h107zM399 278l-105 336l-108 -336h213zM246 781c0 -29 -22 -53 -51 -53s-52 24 -52 53c0 28 23 51 51 51c29 0 52 -23 52 -51zM453 781c0 -29 -22 -53 -51 -53s-52 24 -52 53c0 28 23 51 51 51c29 0 52 -23 52 -51z" />
    <glyph glyph-name="Aring" unicode="&#xc5;" horiz-adv-x="583" 
d="M578 0h-93l-65 211h-256l-66 -211h-83l229 686h107zM399 278l-105 336l-108 -336h213zM401 819c0 -58 -47 -106 -104 -106c-58 0 -106 48 -106 106s47 106 104 106s106 -48 106 -106zM356 819c0 32 -28 60 -62 60c-31 0 -57 -28 -57 -60s28 -60 60 -60c31 0 59 28 59 60z
" />
    <glyph glyph-name="AE" unicode="&#xc6;" horiz-adv-x="885" 
d="M845 0h-385v213h-236l-130 -213h-89l424 686h406l-11 -69h-281v-224h235v-71h-235v-251h302v-71zM460 280v327l-195 -327h195z" />
    <glyph glyph-name="Ccedilla" unicode="&#xc7;" horiz-adv-x="573" 
d="M538 45c-54 -35 -121 -55 -188 -56l-8 -31c51 -7 65 -36 65 -72c0 -38 -34 -83 -98 -83c-30 0 -62 13 -82 24l21 47c26 -12 39 -16 61 -16c18 0 36 11 36 30c0 20 -21 29 -38 29c-12 0 -21 -1 -26 -2l-9 10l19 70c-54 12 -105 40 -144 85c-58 66 -82 159 -82 261
c0 204 122 354 288 354c66 0 126 -20 173 -56l-44 -53c-41 30 -80 43 -130 43c-79 0 -136 -41 -169 -118c-20 -46 -29 -101 -29 -182c0 -66 6 -105 22 -145c35 -86 106 -128 184 -128c51 0 90 13 134 44z" />
    <glyph glyph-name="Egrave" unicode="&#xc8;" horiz-adv-x="520" 
d="M485 0h-385v686h375l-11 -68h-281v-225h235v-71h-235v-251h302v-71zM402 772l-26 -47l-224 100l43 77z" />
    <glyph glyph-name="Eacute" unicode="&#xc9;" horiz-adv-x="520" 
d="M485 0h-385v686h375l-11 -68h-281v-225h235v-71h-235v-251h302v-71zM432 825l-224 -100l-26 47l207 130z" />
    <glyph glyph-name="Ecircumflex" unicode="&#xca;" horiz-adv-x="520" 
d="M485 0h-385v686h375l-11 -68h-281v-225h235v-71h-235v-251h302v-71zM462 765l-36 -44l-139 85l-135 -85l-31 44l170 135z" />
    <glyph glyph-name="Edieresis" unicode="&#xcb;" horiz-adv-x="520" 
d="M485 0h-385v686h375l-11 -68h-281v-225h235v-71h-235v-251h302v-71zM238 781c0 -29 -22 -53 -51 -53s-52 24 -52 53c0 28 23 51 51 51c29 0 52 -23 52 -51zM445 781c0 -29 -22 -53 -51 -53s-52 24 -52 53c0 28 23 51 51 51c29 0 52 -23 52 -51z" />
    <glyph glyph-name="Igrave" unicode="&#xcc;" 
d="M180 0h-80v686h80v-686zM214 772l-26 -47l-224 100l43 77z" />
    <glyph glyph-name="Iacute" unicode="&#xcd;" 
d="M180 0h-80v686h80v-686zM322 825l-224 -100l-26 47l207 130z" />
    <glyph glyph-name="Icircumflex" unicode="&#xce;" 
d="M180 0h-80v686h80v-686zM311 765l-36 -44l-139 85l-135 -85l-31 44l170 135z" />
    <glyph glyph-name="Idieresis" unicode="&#xcf;" 
d="M180 0h-80v686h80v-686zM87 781c0 -29 -22 -53 -51 -53s-52 24 -52 53c0 28 23 51 51 51c29 0 52 -23 52 -51zM294 781c0 -29 -22 -53 -51 -53s-52 24 -52 53c0 28 23 51 51 51c29 0 52 -23 52 -51z" />
    <glyph glyph-name="Eth" unicode="&#xd0;" horiz-adv-x="633" 
d="M568 342c0 -120 -32 -205 -78 -256c-60 -67 -120 -86 -216 -86h-179v321h-84v59h84v306h137c105 0 153 -5 220 -53c78 -56 116 -157 116 -291zM479 332c0 103 -13 169 -59 224c-45 53 -89 63 -161 63h-82v-239h159l-24 -59h-135v-253h82c71 0 137 8 174 72
c31 53 46 120 46 192z" />
    <glyph glyph-name="Ntilde" unicode="&#xd1;" horiz-adv-x="646" 
d="M556 0h-86l-220 420c-44 83 -78 165 -78 165s8 -98 9 -187l4 -398h-85v686h95l228 -438c34 -65 61 -137 64 -144c0 2 -8 111 -9 209l-3 373h81v-686zM496 816c-33 -41 -62 -63 -121 -63c-61 0 -69 37 -127 37c-32 0 -48 -17 -69 -39l-28 45c33 41 61 63 120 63
c61 0 69 -37 127 -37c32 0 49 17 70 39z" />
    <glyph glyph-name="Ograve" unicode="&#xd2;" horiz-adv-x="681" 
d="M621 332c0 -132 -30 -215 -100 -279c-51 -46 -103 -66 -174 -66c-84 0 -149 34 -195 87c-54 62 -82 155 -82 272c0 218 104 352 273 352c119 0 183 -63 216 -112c43 -64 62 -144 62 -254zM529 320c0 101 -10 170 -33 218c-24 51 -74 94 -153 94c-64 0 -121 -31 -147 -80
c-24 -45 -35 -104 -35 -189c0 -103 17 -193 44 -239c26 -44 90 -74 146 -74s97 20 128 59c34 43 50 98 50 211zM449 772l-26 -47l-224 100l43 77z" />
    <glyph glyph-name="Oacute" unicode="&#xd3;" horiz-adv-x="681" 
d="M621 332c0 -132 -30 -215 -100 -279c-51 -46 -103 -66 -174 -66c-84 0 -149 34 -195 87c-54 62 -82 155 -82 272c0 218 104 352 273 352c119 0 183 -63 216 -112c43 -64 62 -144 62 -254zM529 320c0 101 -10 170 -33 218c-24 51 -74 94 -153 94c-64 0 -121 -31 -147 -80
c-24 -45 -35 -104 -35 -189c0 -103 17 -193 44 -239c26 -44 90 -74 146 -74s97 20 128 59c34 43 50 98 50 211zM512 825l-224 -100l-26 47l207 130z" />
    <glyph glyph-name="Ocircumflex" unicode="&#xd4;" horiz-adv-x="681" 
d="M621 332c0 -132 -30 -215 -100 -279c-51 -46 -103 -66 -174 -66c-84 0 -149 34 -195 87c-54 62 -82 155 -82 272c0 218 104 352 273 352c119 0 183 -63 216 -112c43 -64 62 -144 62 -254zM529 320c0 101 -10 170 -33 218c-24 51 -74 94 -153 94c-64 0 -121 -31 -147 -80
c-24 -45 -35 -104 -35 -189c0 -103 17 -193 44 -239c26 -44 90 -74 146 -74s97 20 128 59c34 43 50 98 50 211zM518 765l-36 -44l-139 85l-135 -85l-31 44l170 135z" />
    <glyph glyph-name="Otilde" unicode="&#xd5;" horiz-adv-x="681" 
d="M621 332c0 -132 -30 -215 -100 -279c-51 -46 -103 -66 -174 -66c-84 0 -149 34 -195 87c-54 62 -82 155 -82 272c0 218 104 352 273 352c119 0 183 -63 216 -112c43 -64 62 -144 62 -254zM529 320c0 101 -10 170 -33 218c-24 51 -74 94 -153 94c-64 0 -121 -31 -147 -80
c-24 -45 -35 -104 -35 -189c0 -103 17 -193 44 -239c26 -44 90 -74 146 -74s97 20 128 59c34 43 50 98 50 211zM518 816c-33 -41 -62 -63 -121 -63c-61 0 -69 37 -127 37c-32 0 -48 -17 -69 -39l-28 45c33 41 61 63 120 63c61 0 69 -37 127 -37c32 0 49 17 70 39z" />
    <glyph glyph-name="Odieresis" unicode="&#xd6;" horiz-adv-x="681" 
d="M621 332c0 -132 -30 -215 -100 -279c-51 -46 -103 -66 -174 -66c-84 0 -149 34 -195 87c-54 62 -82 155 -82 272c0 218 104 352 273 352c119 0 183 -63 216 -112c43 -64 62 -144 62 -254zM529 320c0 101 -10 170 -33 218c-24 51 -74 94 -153 94c-64 0 -121 -31 -147 -80
c-24 -45 -35 -104 -35 -189c0 -103 17 -193 44 -239c26 -44 90 -74 146 -74s97 20 128 59c34 43 50 98 50 211zM290 781c0 -29 -22 -53 -51 -53s-52 24 -52 53c0 28 23 51 51 51c29 0 52 -23 52 -51zM496 781c0 -29 -22 -53 -51 -53s-52 24 -52 53c0 28 23 51 51 51
c29 0 52 -23 52 -51z" />
    <glyph glyph-name="multiply" unicode="&#xd7;" horiz-adv-x="544" 
d="M449 124l-51 -51l-126 126l-126 -126l-51 51l126 126l-126 126l51 51l126 -126l126 126l51 -51l-126 -126z" />
    <glyph glyph-name="Oslash" unicode="&#xd8;" horiz-adv-x="681" 
d="M616 332c0 -132 -30 -215 -100 -279c-51 -46 -103 -66 -174 -66c-59 0 -109 17 -149 45l-68 -113l-52 32l74 123c-54 62 -82 155 -82 272c0 218 104 352 273 352c68 0 118 -21 155 -47l64 107l53 -32l-71 -119c53 -65 77 -153 77 -275zM455 588c-28 26 -66 44 -117 44
c-64 0 -121 -31 -147 -80c-24 -45 -35 -104 -35 -189c0 -89 13 -168 33 -218zM524 320c0 97 -10 164 -30 212l-265 -441c31 -25 76 -41 117 -41c56 0 97 20 128 59c34 43 50 98 50 211z" />
    <glyph glyph-name="Ugrave" unicode="&#xd9;" horiz-adv-x="635" 
d="M550 198c0 -83 -11 -122 -52 -157c-42 -36 -97 -53 -180 -53c-106 0 -166 31 -203 99c-18 33 -20 77 -20 107v492h81v-462c0 -34 3 -78 12 -99c13 -30 50 -67 134 -67c57 0 100 15 121 43c23 31 26 61 26 107v478h81v-488zM410 772l-26 -47l-224 100l43 77z" />
    <glyph glyph-name="Uacute" unicode="&#xda;" horiz-adv-x="635" 
d="M550 198c0 -83 -11 -122 -52 -157c-42 -36 -97 -53 -180 -53c-106 0 -166 31 -203 99c-18 33 -20 77 -20 107v492h81v-462c0 -34 3 -78 12 -99c13 -30 50 -67 134 -67c57 0 100 15 121 43c23 31 26 61 26 107v478h81v-488zM447 825l-224 -100l-26 47l207 130z" />
    <glyph glyph-name="Ucircumflex" unicode="&#xdb;" horiz-adv-x="635" 
d="M550 198c0 -83 -11 -122 -52 -157c-42 -36 -97 -53 -180 -53c-106 0 -166 31 -203 99c-18 33 -20 77 -20 107v492h81v-462c0 -34 3 -78 12 -99c13 -30 50 -67 134 -67c57 0 100 15 121 43c23 31 26 61 26 107v478h81v-488zM493 765l-36 -44l-139 85l-135 -85l-31 44
l170 135z" />
    <glyph glyph-name="Udieresis" unicode="&#xdc;" horiz-adv-x="635" 
d="M550 198c0 -83 -11 -122 -52 -157c-42 -36 -97 -53 -180 -53c-106 0 -166 31 -203 99c-18 33 -20 77 -20 107v492h81v-462c0 -34 3 -78 12 -99c13 -30 50 -67 134 -67c57 0 100 15 121 43c23 31 26 61 26 107v478h81v-488zM270 781c0 -29 -22 -53 -51 -53s-52 24 -52 53
c0 28 23 51 51 51c29 0 52 -23 52 -51zM476 781c0 -29 -22 -53 -51 -53s-52 24 -52 53c0 28 23 51 51 51c29 0 52 -23 52 -51z" />
    <glyph glyph-name="Yacute" unicode="&#xdd;" horiz-adv-x="519" 
d="M529 686l-223 -419v-267h-85v272l-221 414h101l130 -262c19 -39 35 -77 35 -77l37 77l132 262h94zM414 826l-224 -100l-26 47l207 130z" />
    <glyph glyph-name="Thorn" unicode="&#xde;" horiz-adv-x="548" 
d="M523 360c0 -70 -17 -122 -62 -163c-46 -41 -96 -54 -166 -54h-120v-143h-80v686h80v-130h110c74 0 113 -8 150 -32c58 -38 88 -95 88 -164zM432 344c0 51 -12 85 -40 109s-65 34 -130 34h-87v-277h115c58 0 84 11 107 37c24 27 35 58 35 97z" />
    <glyph glyph-name="germandbls" unicode="&#xdf;" horiz-adv-x="577" 
d="M522 174c0 -102 -77 -186 -188 -186c-39 0 -77 7 -99 18l23 52c18 -8 39 -13 65 -13c66 0 116 56 116 126c0 76 -36 97 -98 126c-71 33 -105 50 -105 94c0 51 47 69 86 88c29 14 56 33 56 82c0 53 -41 90 -102 90c-63 0 -104 -42 -104 -142v-408c0 -41 -4 -76 -12 -101
h-75c7 28 10 71 10 117v322h-74v59h74c0 69 5 109 40 149s83 62 147 62c103 0 179 -66 179 -154c0 -65 -45 -100 -84 -118c-38 -18 -69 -19 -69 -41c0 -19 67 -33 143 -78c44 -26 71 -81 71 -144z" />
    <glyph glyph-name="agrave" unicode="&#xe0;" horiz-adv-x="529" 
d="M477 37l-40 -56c-34 11 -59 38 -68 73c-48 -48 -87 -67 -144 -67c-123 0 -160 75 -160 142c0 113 97 179 264 179c21 0 35 -1 35 -1v35c0 44 -2 62 -16 78c-16 18 -36 27 -67 27c-56 0 -127 -30 -159 -59l-39 56c66 44 137 67 209 67c69 0 117 -27 138 -78
c11 -27 12 -65 11 -110l-4 -164c-2 -81 3 -102 40 -122zM362 253c-13 1 -25 2 -39 2c-126 0 -171 -43 -171 -119c0 -59 29 -91 86 -91c51 0 98 31 121 78zM382 612l-26 -47l-224 100l43 77z" />
    <glyph glyph-name="aacute" unicode="&#xe1;" horiz-adv-x="529" 
d="M477 37l-40 -56c-34 11 -59 38 -68 73c-48 -48 -87 -67 -144 -67c-123 0 -160 75 -160 142c0 113 97 179 264 179c21 0 35 -1 35 -1v35c0 44 -2 62 -16 78c-16 18 -36 27 -67 27c-56 0 -127 -30 -159 -59l-39 56c66 44 137 67 209 67c69 0 117 -27 138 -78
c11 -27 12 -65 11 -110l-4 -164c-2 -81 3 -102 40 -122zM362 253c-13 1 -25 2 -39 2c-126 0 -171 -43 -171 -119c0 -59 29 -91 86 -91c51 0 98 31 121 78zM416 665l-224 -100l-26 47l207 130z" />
    <glyph glyph-name="acircumflex" unicode="&#xe2;" horiz-adv-x="529" 
d="M477 37l-40 -56c-34 11 -59 38 -68 73c-48 -48 -87 -67 -144 -67c-123 0 -160 75 -160 142c0 113 97 179 264 179c21 0 35 -1 35 -1v35c0 44 -2 62 -16 78c-16 18 -36 27 -67 27c-56 0 -127 -30 -159 -59l-39 56c66 44 137 67 209 67c69 0 117 -27 138 -78
c11 -27 12 -65 11 -110l-4 -164c-2 -81 3 -102 40 -122zM362 253c-13 1 -25 2 -39 2c-126 0 -171 -43 -171 -119c0 -59 29 -91 86 -91c51 0 98 31 121 78zM442 605l-36 -44l-139 85l-135 -85l-31 44l170 135z" />
    <glyph glyph-name="atilde" unicode="&#xe3;" horiz-adv-x="529" 
d="M477 37l-40 -56c-34 11 -59 38 -68 73c-48 -48 -87 -67 -144 -67c-123 0 -160 75 -160 142c0 113 97 179 264 179c21 0 35 -1 35 -1v35c0 44 -2 62 -16 78c-16 18 -36 27 -67 27c-56 0 -127 -30 -159 -59l-39 56c66 44 137 67 209 67c69 0 117 -27 138 -78
c11 -27 12 -65 11 -110l-4 -164c-2 -81 3 -102 40 -122zM362 253c-13 1 -25 2 -39 2c-126 0 -171 -43 -171 -119c0 -59 29 -91 86 -91c51 0 98 31 121 78zM445 656c-33 -41 -62 -63 -121 -63c-61 0 -69 37 -127 37c-32 0 -48 -17 -69 -39l-28 45c33 41 61 63 120 63
c61 0 69 -37 127 -37c32 0 49 17 70 39z" />
    <glyph glyph-name="adieresis" unicode="&#xe4;" horiz-adv-x="529" 
d="M477 37l-40 -56c-34 11 -59 38 -68 73c-48 -48 -87 -67 -144 -67c-123 0 -160 75 -160 142c0 113 97 179 264 179c21 0 35 -1 35 -1v35c0 44 -2 62 -16 78c-16 18 -36 27 -67 27c-56 0 -127 -30 -159 -59l-39 56c66 44 137 67 209 67c69 0 117 -27 138 -78
c11 -27 12 -65 11 -110l-4 -164c-2 -81 3 -102 40 -122zM362 253c-13 1 -25 2 -39 2c-126 0 -171 -43 -171 -119c0 -59 29 -91 86 -91c51 0 98 31 121 78zM226 621c0 -29 -22 -53 -51 -53s-52 24 -52 53c0 28 23 51 51 51c29 0 52 -23 52 -51zM433 621
c0 -29 -22 -53 -51 -53s-52 24 -52 53c0 28 23 51 51 51c29 0 52 -23 52 -51z" />
    <glyph glyph-name="aring" unicode="&#xe5;" horiz-adv-x="529" 
d="M477 37l-40 -56c-34 11 -59 38 -68 73c-48 -48 -87 -67 -144 -67c-123 0 -160 75 -160 142c0 113 97 179 264 179c21 0 35 -1 35 -1v35c0 44 -2 62 -16 78c-16 18 -36 27 -67 27c-56 0 -127 -30 -159 -59l-39 56c66 44 137 67 209 67c69 0 117 -27 138 -78
c11 -27 12 -65 11 -110l-4 -164c-2 -81 3 -102 40 -122zM362 253c-13 1 -25 2 -39 2c-126 0 -171 -43 -171 -119c0 -59 29 -91 86 -91c51 0 98 31 121 78zM388 659c0 -58 -47 -106 -104 -106c-58 0 -106 48 -106 106s47 106 104 106s106 -48 106 -106zM343 659
c0 32 -28 60 -62 60c-31 0 -57 -28 -57 -60s28 -60 60 -60c31 0 59 28 59 60z" />
    <glyph glyph-name="ae" unicode="&#xe6;" horiz-adv-x="795" 
d="M740 236h-311v-17c0 -90 39 -165 147 -165c48 0 87 15 122 47l30 -50c-44 -40 -104 -62 -168 -62c-80 0 -142 40 -171 85c-43 -53 -112 -87 -169 -87c-126 0 -160 80 -160 142c0 113 97 179 264 179c15 0 35 -1 35 -1v35c0 44 -2 62 -16 78c-16 18 -36 27 -67 27
c-52 0 -112 -23 -159 -59l-39 56c66 44 137 67 209 67c59 0 97 -25 121 -65c39 40 85 66 140 66c54 0 101 -19 135 -54c43 -44 57 -92 57 -211v-11zM357 253c0 0 -25 2 -39 2c-123 0 -171 -41 -171 -119c0 -59 29 -91 86 -91c51 0 98 31 121 78zM657 295
c0 103 -33 155 -113 155c-71 0 -111 -52 -115 -155h228z" />
    <glyph glyph-name="ccedilla" unicode="&#xe7;" horiz-adv-x="469" 
d="M424 55c-45 -46 -88 -65 -147 -66l-8 -31c51 -7 65 -36 65 -72c0 -38 -34 -83 -98 -83c-30 0 -62 13 -82 24l21 47c26 -12 39 -16 61 -16c18 0 36 11 36 30c0 20 -21 29 -38 29c-12 0 -21 -1 -26 -2l-9 10l19 70c-44 10 -80 33 -105 69c-33 48 -48 103 -48 177
c0 109 32 169 75 212c39 39 82 58 135 58c63 0 100 -24 136 -54l-43 -54c-35 29 -57 40 -95 40c-39 0 -76 -22 -94 -56c-19 -35 -28 -90 -28 -163c0 -112 43 -173 123 -173c40 0 78 19 107 54z" />
    <glyph glyph-name="egrave" unicode="&#xe8;" horiz-adv-x="521" 
d="M471 236h-311v-12c0 -47 6 -83 23 -109c28 -43 74 -61 124 -61c48 0 87 15 122 47l30 -50c-44 -40 -104 -62 -168 -62c-138 0 -221 100 -221 265c0 84 18 138 60 188c40 47 89 69 149 69c54 0 101 -19 135 -54c43 -44 57 -91 57 -210v-11zM388 295c-1 54 -8 87 -23 111
c-17 27 -52 44 -90 44c-71 0 -111 -52 -115 -155h228zM388 612l-26 -47l-224 100l43 77z" />
    <glyph glyph-name="eacute" unicode="&#xe9;" horiz-adv-x="521" 
d="M471 236h-311v-12c0 -47 6 -83 23 -109c28 -43 74 -61 124 -61c48 0 87 15 122 47l30 -50c-44 -40 -104 -62 -168 -62c-138 0 -221 100 -221 265c0 84 18 138 60 188c40 47 89 69 149 69c54 0 101 -19 135 -54c43 -44 57 -91 57 -210v-11zM388 295c-1 54 -8 87 -23 111
c-17 27 -52 44 -90 44c-71 0 -111 -52 -115 -155h228zM415 665l-224 -100l-26 47l207 130z" />
    <glyph glyph-name="ecircumflex" unicode="&#xea;" horiz-adv-x="521" 
d="M471 236h-311v-12c0 -47 6 -83 23 -109c28 -43 74 -61 124 -61c48 0 87 15 122 47l30 -50c-44 -40 -104 -62 -168 -62c-138 0 -221 100 -221 265c0 84 18 138 60 188c40 47 89 69 149 69c54 0 101 -19 135 -54c43 -44 57 -91 57 -210v-11zM388 295c-1 54 -8 87 -23 111
c-17 27 -52 44 -90 44c-71 0 -111 -52 -115 -155h228zM449 605l-36 -44l-139 85l-135 -85l-31 44l170 135z" />
    <glyph glyph-name="edieresis" unicode="&#xeb;" horiz-adv-x="521" 
d="M471 236h-311v-12c0 -47 6 -83 23 -109c28 -43 74 -61 124 -61c48 0 87 15 122 47l30 -50c-44 -40 -104 -62 -168 -62c-138 0 -221 100 -221 265c0 84 18 138 60 188c40 47 89 69 149 69c54 0 101 -19 135 -54c43 -44 57 -91 57 -210v-11zM388 295c-1 54 -8 87 -23 111
c-17 27 -52 44 -90 44c-71 0 -111 -52 -115 -155h228zM223 621c0 -29 -22 -53 -51 -53s-52 24 -52 53c0 28 23 51 51 51c29 0 52 -23 52 -51zM430 621c0 -29 -22 -53 -51 -53s-52 24 -52 53c0 28 23 51 51 51c29 0 52 -23 52 -51z" />
    <glyph glyph-name="igrave" unicode="&#xec;" horiz-adv-x="271" 
d="M181 0h-81v496l81 13v-509zM241 612l-26 -47l-224 100l43 77z" />
    <glyph glyph-name="iacute" unicode="&#xed;" horiz-adv-x="271" 
d="M181 0h-81v496l81 13v-509zM291 665l-224 -100l-26 47l207 130z" />
    <glyph glyph-name="icircumflex" unicode="&#xee;" horiz-adv-x="271" 
d="M181 0h-81v496l81 13v-509zM312 605l-36 -44l-139 85l-135 -85l-31 44l170 135z" />
    <glyph glyph-name="idieresis" unicode="&#xef;" horiz-adv-x="271" 
d="M181 0h-81v496l81 13v-509zM99 621c0 -29 -22 -53 -51 -53s-52 24 -52 53c0 28 23 51 51 51c29 0 52 -23 52 -51zM285 621c0 -29 -22 -53 -51 -53s-52 24 -52 53c0 28 23 51 51 51c29 0 52 -23 52 -51z" />
    <glyph glyph-name="eth" unicode="&#xf0;" horiz-adv-x="562" 
d="M497 260c0 -173 -99 -274 -219 -274c-121 0 -213 117 -213 244c0 124 84 235 206 235c49 0 85 -10 112 -22c-23 64 -64 117 -127 160l-52 -59l-51 36l49 55c-36 19 -78 35 -125 48l40 48c48 -12 91 -27 129 -45l43 50l51 -36l-39 -44c137 -86 196 -220 196 -396zM412 251
c0 32 -11 111 -13 120c-29 18 -78 33 -124 33c-76 0 -123 -81 -123 -176s53 -177 132 -177c86 0 128 76 128 200z" />
    <glyph glyph-name="ntilde" unicode="&#xf1;" horiz-adv-x="556" 
d="M466 0h-79v337c0 53 -4 66 -18 83c-11 13 -32 21 -55 21c-40 0 -102 -32 -138 -70v-371h-76v384c0 71 -19 105 -19 105l76 21s18 -37 18 -78c52 52 104 77 157 77c54 0 102 -29 122 -73c8 -18 12 -38 12 -58v-378zM450 656c-33 -41 -62 -63 -121 -63
c-61 0 -69 37 -127 37c-32 0 -48 -17 -69 -39l-28 45c33 41 61 63 120 63c61 0 69 -37 127 -37c32 0 49 17 70 39z" />
    <glyph glyph-name="ograve" unicode="&#xf2;" horiz-adv-x="549" 
d="M494 241c0 -166 -89 -254 -214 -254c-137 0 -215 101 -215 265c0 162 81 261 212 261c83 0 137 -38 171 -87c31 -45 46 -104 46 -185zM405 235c0 70 -7 117 -23 150c-21 44 -65 64 -106 64c-44 0 -85 -21 -102 -54c-16 -31 -24 -71 -24 -130c0 -70 12 -132 31 -163
c18 -30 58 -50 101 -50c52 0 91 27 108 75c11 31 15 59 15 108zM385 612l-26 -47l-224 100l43 77z" />
    <glyph glyph-name="oacute" unicode="&#xf3;" horiz-adv-x="549" 
d="M494 241c0 -166 -89 -254 -214 -254c-137 0 -215 101 -215 265c0 162 81 261 212 261c83 0 137 -38 171 -87c31 -45 46 -104 46 -185zM405 235c0 70 -7 117 -23 150c-21 44 -65 64 -106 64c-44 0 -85 -21 -102 -54c-16 -31 -24 -71 -24 -130c0 -70 12 -132 31 -163
c18 -30 58 -50 101 -50c52 0 91 27 108 75c11 31 15 59 15 108zM429 665l-224 -100l-26 47l207 130z" />
    <glyph glyph-name="ocircumflex" unicode="&#xf4;" horiz-adv-x="549" 
d="M494 241c0 -166 -89 -254 -214 -254c-137 0 -215 101 -215 265c0 162 81 261 212 261c83 0 137 -38 171 -87c31 -45 46 -104 46 -185zM405 235c0 70 -7 117 -23 150c-21 44 -65 64 -106 64c-44 0 -85 -21 -102 -54c-16 -31 -24 -71 -24 -130c0 -70 12 -132 31 -163
c18 -30 58 -50 101 -50c52 0 91 27 108 75c11 31 15 59 15 108zM451 605l-36 -44l-139 85l-135 -85l-31 44l170 135z" />
    <glyph glyph-name="otilde" unicode="&#xf5;" horiz-adv-x="549" 
d="M494 241c0 -166 -89 -254 -214 -254c-137 0 -215 101 -215 265c0 162 81 261 212 261c83 0 137 -38 171 -87c31 -45 46 -104 46 -185zM405 235c0 70 -7 117 -23 150c-21 44 -65 64 -106 64c-44 0 -85 -21 -102 -54c-16 -31 -24 -71 -24 -130c0 -70 12 -132 31 -163
c18 -30 58 -50 101 -50c52 0 91 27 108 75c11 31 15 59 15 108zM455 656c-33 -41 -62 -63 -121 -63c-61 0 -69 37 -127 37c-32 0 -48 -17 -69 -39l-28 45c33 41 61 63 120 63c61 0 69 -37 127 -37c32 0 49 17 70 39z" />
    <glyph glyph-name="odieresis" unicode="&#xf6;" horiz-adv-x="549" 
d="M494 241c0 -166 -89 -254 -214 -254c-137 0 -215 101 -215 265c0 162 81 261 212 261c83 0 137 -38 171 -87c31 -45 46 -104 46 -185zM405 235c0 70 -7 117 -23 150c-21 44 -65 64 -106 64c-44 0 -85 -21 -102 -54c-16 -31 -24 -71 -24 -130c0 -70 12 -132 31 -163
c18 -30 58 -50 101 -50c52 0 91 27 108 75c11 31 15 59 15 108zM224 621c0 -29 -22 -53 -51 -53s-52 24 -52 53c0 28 23 51 51 51c29 0 52 -23 52 -51zM432 621c0 -29 -22 -53 -51 -53s-52 24 -52 53c0 28 23 51 51 51c29 0 52 -23 52 -51z" />
    <glyph glyph-name="divide" unicode="&#xf7;" horiz-adv-x="610" 
d="M555 235h-500v65h500v-65zM374 56c0 -38 -30 -68 -68 -68c-37 0 -66 30 -66 67c0 38 30 68 68 68c36 0 66 -30 66 -67zM374 472c0 -38 -30 -68 -67 -68s-67 29 -67 66c0 38 30 69 68 69c36 0 66 -30 66 -67z" />
    <glyph glyph-name="oslash" unicode="&#xf8;" horiz-adv-x="549" 
d="M489 237c0 -97 -23 -158 -78 -206c-39 -34 -80 -48 -136 -48c-43 0 -80 10 -111 30l-48 -79l-48 30l52 87c-38 45 -60 113 -60 197c0 162 81 261 212 261c43 0 78 -10 107 -27l50 83l49 -30l-54 -89c45 -52 65 -113 65 -209zM400 231c0 65 -6 109 -20 141l-180 -299
c20 -15 48 -25 77 -25c52 0 91 27 108 75c11 31 15 59 15 108zM343 422c-21 16 -47 23 -72 23c-44 0 -85 -21 -102 -54c-16 -31 -24 -71 -24 -130c0 -54 7 -103 19 -137z" />
    <glyph glyph-name="ugrave" unicode="&#xf9;" horiz-adv-x="557" 
d="M501 32l-50 -53c-33 27 -47 47 -54 80c-38 -51 -90 -76 -158 -76c-63 0 -110 27 -131 71c-9 19 -13 45 -13 74v366l77 15v-358c0 -47 7 -68 30 -84c16 -11 39 -17 61 -17c49 0 100 36 127 90v353l77 13v-363c0 -63 9 -88 34 -111zM402 612l-26 -47l-224 100l43 77z" />
    <glyph glyph-name="uacute" unicode="&#xfa;" horiz-adv-x="557" 
d="M501 32l-50 -53c-33 27 -47 47 -54 80c-38 -51 -90 -76 -158 -76c-63 0 -110 27 -131 71c-9 19 -13 45 -13 74v366l77 15v-358c0 -47 7 -68 30 -84c16 -11 39 -17 61 -17c49 0 100 36 127 90v353l77 13v-363c0 -63 9 -88 34 -111zM452 665l-224 -100l-26 47l207 130z" />
    <glyph glyph-name="ucircumflex" unicode="&#xfb;" horiz-adv-x="557" 
d="M501 32l-50 -53c-33 27 -47 47 -54 80c-38 -51 -90 -76 -158 -76c-63 0 -110 27 -131 71c-9 19 -13 45 -13 74v366l77 15v-358c0 -47 7 -68 30 -84c16 -11 39 -17 61 -17c49 0 100 36 127 90v353l77 13v-363c0 -63 9 -88 34 -111zM453 605l-36 -44l-139 85l-135 -85
l-31 44l170 135z" />
    <glyph glyph-name="udieresis" unicode="&#xfc;" horiz-adv-x="557" 
d="M501 32l-50 -53c-33 27 -47 47 -54 80c-38 -51 -90 -76 -158 -76c-63 0 -110 27 -131 71c-9 19 -13 45 -13 74v366l77 15v-358c0 -47 7 -68 30 -84c16 -11 39 -17 61 -17c49 0 100 36 127 90v353l77 13v-363c0 -63 9 -88 34 -111zM228 621c0 -29 -22 -53 -51 -53
s-52 24 -52 53c0 28 23 51 51 51c29 0 52 -23 52 -51zM435 621c0 -29 -22 -53 -51 -53s-52 24 -52 53c0 28 23 51 51 51c29 0 52 -23 52 -51z" />
    <glyph glyph-name="yacute" unicode="&#xfd;" horiz-adv-x="459" 
d="M449 498l-171 -516c-33 -100 -74 -166 -161 -187l-23 53c64 20 88 52 115 153l-32 -5c-6 32 -33 129 -50 179l-107 312l77 26l102 -323c15 -47 30 -124 30 -124h2l31 105l98 327h89zM419 662l-224 -100l-26 47l207 130z" />
    <glyph glyph-name="thorn" unicode="&#xfe;" horiz-adv-x="567" 
d="M502 250c0 -80 -16 -124 -44 -170c-36 -58 -89 -91 -154 -91c-51 0 -98 20 -133 56v-238l-78 -15v818c0 40 -4 75 -13 106l78 15c8 -34 13 -75 13 -114v-100c0 -40 -4 -61 -4 -78c41 48 92 69 147 69c51 0 101 -22 133 -62c37 -46 55 -107 55 -196zM419 240
c0 60 -9 113 -23 143c-16 34 -52 55 -92 55c-50 0 -95 -20 -133 -66v-255c37 -42 76 -63 118 -63c46 0 88 25 105 62c15 32 25 68 25 124z" />
    <glyph glyph-name="ydieresis" unicode="&#xff;" horiz-adv-x="459" 
d="M449 498l-171 -516c-33 -100 -74 -166 -161 -187l-23 53c64 20 88 52 115 153l-32 -5c-6 32 -33 129 -50 179l-107 312l77 26l102 -323c15 -47 30 -124 30 -124h2l31 105l98 327h89zM183 621c0 -29 -22 -53 -51 -53s-52 24 -52 53c0 28 23 51 51 51c29 0 52 -23 52 -51z
M390 621c0 -29 -22 -53 -51 -53s-52 24 -52 53c0 28 23 51 51 51c29 0 52 -23 52 -51z" />
    <glyph glyph-name="Amacron" unicode="&#x100;" horiz-adv-x="583" 
d="M578 0h-93l-65 211h-256l-66 -211h-83l229 686h107zM399 278l-105 336l-108 -336h213zM430 751h-274v54h274v-54z" />
    <glyph glyph-name="amacron" unicode="&#x101;" horiz-adv-x="529" 
d="M477 37l-40 -56c-34 11 -59 38 -68 73c-48 -48 -87 -67 -144 -67c-123 0 -160 75 -160 142c0 113 97 179 264 179c21 0 35 -1 35 -1v35c0 44 -2 62 -16 78c-16 18 -36 27 -67 27c-56 0 -127 -30 -159 -59l-39 56c66 44 137 67 209 67c69 0 117 -27 138 -78
c11 -27 12 -65 11 -110l-4 -164c-2 -81 3 -102 40 -122zM362 253c-13 1 -25 2 -39 2c-126 0 -171 -43 -171 -119c0 -59 29 -91 86 -91c51 0 98 31 121 78zM414 592h-274v54h274v-54z" />
    <glyph glyph-name="Abreve" unicode="&#x102;" horiz-adv-x="583" 
d="M578 0h-93l-65 211h-256l-66 -211h-83l229 686h107zM399 278l-105 336l-108 -336h213zM463 831c-12 -16 -89 -101 -163 -101c-75 0 -152 85 -165 101l35 38c17 -15 73 -56 133 -56c52 0 115 45 130 56z" />
    <glyph glyph-name="abreve" unicode="&#x103;" horiz-adv-x="529" 
d="M477 37l-40 -56c-34 11 -59 38 -68 73c-48 -48 -87 -67 -144 -67c-123 0 -160 75 -160 142c0 113 97 179 264 179c21 0 35 -1 35 -1v35c0 44 -2 62 -16 78c-16 18 -36 27 -67 27c-56 0 -127 -30 -159 -59l-39 56c66 44 137 67 209 67c69 0 117 -27 138 -78
c11 -27 12 -65 11 -110l-4 -164c-2 -81 3 -102 40 -122zM362 253c-13 1 -25 2 -39 2c-126 0 -171 -43 -171 -119c0 -59 29 -91 86 -91c51 0 98 31 121 78zM440 669c-12 -16 -89 -98 -163 -98c-75 0 -151 82 -164 98l34 39c17 -15 74 -56 134 -56c52 0 114 45 129 56z" />
    <glyph glyph-name="Aogonek" unicode="&#x104;" horiz-adv-x="583" 
d="M603 -173c-20 -11 -52 -24 -82 -24c-64 0 -98 41 -98 87c0 44 28 80 57 111l-65 210h-256l-66 -211h-83l229 686h107l227 -686c-27 0 -88 -52 -88 -104c0 -19 12 -36 36 -36c22 0 35 2 61 14zM394 278l-105 336l-108 -336h213z" />
    <glyph glyph-name="aogonek" unicode="&#x105;" horiz-adv-x="529" 
d="M487 -173c-20 -11 -52 -24 -82 -24c-64 0 -98 41 -98 87c0 53 39 93 73 127c-8 11 -12 23 -16 37c-48 -48 -87 -67 -144 -67c-123 0 -160 75 -160 142c0 113 97 179 264 179c21 0 35 -1 35 -1v35c0 44 -2 62 -16 78c-16 18 -36 27 -67 27c-56 0 -127 -30 -159 -59l-39 56
c66 44 137 67 209 67c69 0 117 -27 138 -78c11 -27 12 -65 11 -110l-4 -164c-2 -81 8 -102 34 -127c-35 -32 -97 -84 -97 -136c0 -19 12 -36 36 -36c22 0 35 2 61 14zM357 253c-13 1 -25 2 -39 2c-126 0 -171 -43 -171 -119c0 -59 29 -91 86 -91c51 0 98 31 121 78z" />
    <glyph glyph-name="Cacute" unicode="&#x106;" horiz-adv-x="573" 
d="M543 45c-55 -36 -123 -56 -191 -56c-74 0 -147 31 -200 91c-58 66 -82 159 -82 261c0 204 122 354 288 354c66 0 126 -20 173 -56l-44 -53c-41 30 -80 43 -130 43c-79 0 -136 -41 -169 -118c-20 -46 -29 -101 -29 -182c0 -66 6 -105 22 -145c35 -86 106 -128 184 -128
c51 0 90 13 134 44zM510 825l-224 -100l-26 47l207 130z" />
    <glyph glyph-name="cacute" unicode="&#x107;" horiz-adv-x="469" 
d="M429 55c-46 -47 -90 -66 -152 -66c-71 0 -124 25 -159 75c-33 48 -48 103 -48 177c0 109 32 169 75 212c39 39 82 58 135 58c63 0 100 -24 136 -54l-43 -54c-35 29 -57 40 -95 40c-39 0 -76 -22 -94 -56c-19 -35 -28 -90 -28 -163c0 -112 43 -173 123 -173
c40 0 78 19 107 54zM418 665l-224 -100l-26 47l207 130z" />
    <glyph glyph-name="Ccircumflex" unicode="&#x108;" horiz-adv-x="573" 
d="M543 45c-55 -36 -123 -56 -191 -56c-74 0 -147 31 -200 91c-58 66 -82 159 -82 261c0 204 122 354 288 354c66 0 126 -20 173 -56l-44 -53c-41 30 -80 43 -130 43c-79 0 -136 -41 -169 -118c-20 -46 -29 -101 -29 -182c0 -66 6 -105 22 -145c35 -86 106 -128 184 -128
c51 0 90 13 134 44zM523 765l-36 -44l-139 85l-135 -85l-31 44l170 135z" />
    <glyph glyph-name="ccircumflex" unicode="&#x109;" horiz-adv-x="469" 
d="M429 55c-46 -47 -90 -66 -152 -66c-71 0 -124 25 -159 75c-33 48 -48 103 -48 177c0 109 32 169 75 212c39 39 82 58 135 58c63 0 100 -24 136 -54l-43 -54c-35 29 -57 40 -95 40c-39 0 -76 -22 -94 -56c-19 -35 -28 -90 -28 -163c0 -112 43 -173 123 -173
c40 0 78 19 107 54zM454 605l-36 -44l-139 85l-135 -85l-31 44l170 135z" />
    <glyph glyph-name="Cdotaccent" unicode="&#x10a;" horiz-adv-x="573" 
d="M543 45c-55 -36 -123 -56 -191 -56c-74 0 -147 31 -200 91c-58 66 -82 159 -82 261c0 204 122 354 288 354c66 0 126 -20 173 -56l-44 -53c-41 30 -80 43 -130 43c-79 0 -136 -41 -169 -118c-20 -46 -29 -101 -29 -182c0 -66 6 -105 22 -145c35 -86 106 -128 184 -128
c51 0 90 13 134 44zM413 789c0 -34 -27 -61 -61 -61s-61 27 -61 60c0 34 27 62 61 62s61 -27 61 -61z" />
    <glyph glyph-name="cdotaccent" unicode="&#x10b;" horiz-adv-x="469" 
d="M429 55c-46 -47 -90 -66 -152 -66c-71 0 -124 25 -159 75c-33 48 -48 103 -48 177c0 109 32 169 75 212c39 39 82 58 135 58c63 0 100 -24 136 -54l-43 -54c-35 29 -57 40 -95 40c-39 0 -76 -22 -94 -56c-19 -35 -28 -90 -28 -163c0 -112 43 -173 123 -173
c40 0 78 19 107 54zM341 652c0 -34 -27 -61 -61 -61s-61 27 -61 60c0 34 27 62 61 62s61 -27 61 -61z" />
    <glyph glyph-name="Ccaron" unicode="&#x10c;" horiz-adv-x="573" 
d="M543 45c-55 -36 -123 -56 -191 -56c-74 0 -147 31 -200 91c-58 66 -82 159 -82 261c0 204 122 354 288 354c66 0 126 -20 173 -56l-44 -53c-41 30 -80 43 -130 43c-79 0 -136 -41 -169 -118c-20 -46 -29 -101 -29 -182c0 -66 6 -105 22 -145c35 -86 106 -128 184 -128
c51 0 90 13 134 44zM522 860l-170 -135l-171 135l36 44l139 -85l135 85z" />
    <glyph glyph-name="ccaron" unicode="&#x10d;" horiz-adv-x="469" 
d="M429 55c-46 -47 -90 -66 -152 -66c-71 0 -124 25 -159 75c-33 48 -48 103 -48 177c0 109 32 169 75 212c39 39 82 58 135 58c63 0 100 -24 136 -54l-43 -54c-35 29 -57 40 -95 40c-39 0 -76 -22 -94 -56c-19 -35 -28 -90 -28 -163c0 -112 43 -173 123 -173
c40 0 78 19 107 54zM451 700l-170 -135l-171 135l36 44l139 -85l135 85z" />
    <glyph glyph-name="Dcaron" unicode="&#x10e;" horiz-adv-x="633" 
d="M573 342c0 -120 -32 -205 -78 -256c-60 -67 -120 -86 -216 -86h-179v686h137c105 0 153 -5 220 -53c78 -56 116 -157 116 -291zM484 332c0 103 -13 169 -59 224c-45 53 -89 63 -161 63h-82v-551h82c71 0 137 8 174 72c31 53 46 120 46 192zM467 860l-170 -135l-171 135
l36 44l139 -85l135 85z" />
    <glyph glyph-name="dcaron" unicode="&#x10f;" horiz-adv-x="571" 
d="M496 0h-80s-10 25 -11 51c-36 -41 -74 -58 -132 -58c-129 0 -203 93 -203 252c0 106 35 184 103 231c32 22 60 31 96 31c56 0 105 -23 135 -63c0 0 -1 41 -1 77v209l78 -13v-556c0 -86 4 -132 15 -161zM402 127v264c-25 35 -62 52 -121 52c-39 0 -72 -18 -93 -52
c-24 -38 -32 -74 -32 -144c0 -58 4 -101 20 -130c23 -41 54 -58 100 -58c41 0 64 9 96 32c21 15 30 36 30 36zM657 649c0 -28 -11 -57 -31 -83c-16 -21 -43 -42 -68 -56l-23 35c32 15 51 41 55 73c0 0 -4 -1 -10 -1c-25 0 -44 24 -44 52c0 33 25 59 57 59
c38 0 64 -33 64 -79z" />
    <glyph glyph-name="Dcroat" unicode="&#x110;" horiz-adv-x="633" 
d="M568 342c0 -120 -32 -205 -78 -256c-60 -67 -120 -86 -216 -86h-179v321h-84v59h84v306h137c105 0 153 -5 220 -53c78 -56 116 -157 116 -291zM479 332c0 103 -13 169 -59 224c-45 53 -89 63 -161 63h-82v-239h159l-24 -59h-135v-253h82c71 0 137 8 174 72
c31 53 46 120 46 192z" />
    <glyph glyph-name="dcroat" unicode="&#x111;" horiz-adv-x="571" 
d="M565 570h-89v-409c0 -86 4 -132 15 -161h-80s-10 25 -11 51c-36 -41 -74 -58 -132 -58c-129 0 -203 93 -203 252c0 106 35 184 103 231c32 22 60 31 96 31c56 0 105 -23 135 -63c0 0 -1 41 -1 77v49h-107v54h107v106l78 -13v-93h89v-54zM397 127v264
c-25 35 -62 52 -121 52c-39 0 -72 -18 -93 -52c-24 -38 -32 -74 -32 -144c0 -58 4 -101 20 -130c23 -41 54 -58 100 -58c41 0 64 9 96 32c21 15 30 36 30 36z" />
    <glyph glyph-name="Emacron" unicode="&#x112;" horiz-adv-x="520" 
d="M485 0h-385v686h375l-11 -68h-281v-225h235v-71h-235v-251h302v-71zM426 751h-274v54h274v-54z" />
    <glyph glyph-name="emacron" unicode="&#x113;" horiz-adv-x="521" 
d="M471 236h-311v-12c0 -47 6 -83 23 -109c28 -43 74 -61 124 -61c48 0 87 15 122 47l30 -50c-44 -40 -104 -62 -168 -62c-138 0 -221 100 -221 265c0 84 18 138 60 188c40 47 89 69 149 69c54 0 101 -19 135 -54c43 -44 57 -91 57 -210v-11zM388 295c-1 54 -8 87 -23 111
c-17 27 -52 44 -90 44c-71 0 -111 -52 -115 -155h228zM414 592h-274v54h274v-54z" />
    <glyph glyph-name="Edotaccent" unicode="&#x116;" horiz-adv-x="520" 
d="M485 0h-385v686h375l-11 -68h-281v-225h235v-71h-235v-251h302v-71zM351 789c0 -34 -27 -61 -61 -61s-61 27 -61 60c0 34 27 62 61 62s61 -27 61 -61z" />
    <glyph glyph-name="edotaccent" unicode="&#x117;" horiz-adv-x="521" 
d="M471 236h-311v-12c0 -47 6 -83 23 -109c28 -43 74 -61 124 -61c48 0 87 15 122 47l30 -50c-44 -40 -104 -62 -168 -62c-138 0 -221 100 -221 265c0 84 18 138 60 188c40 47 89 69 149 69c54 0 101 -19 135 -54c43 -44 57 -91 57 -210v-11zM388 295c-1 54 -8 87 -23 111
c-17 27 -52 44 -90 44c-71 0 -111 -52 -115 -155h228zM336 652c0 -34 -27 -61 -61 -61s-61 27 -61 60c0 34 27 62 61 62s61 -27 61 -61z" />
    <glyph glyph-name="Eogonek" unicode="&#x118;" horiz-adv-x="520" 
d="M510 -173c-20 -11 -52 -24 -82 -24c-64 0 -98 41 -98 87c0 44 27 79 56 110h-291v686h375l-11 -68h-281v-225h235v-71h-235v-251h302v-71c-27 0 -88 -52 -88 -104c0 -19 12 -36 36 -36c22 0 35 2 61 14z" />
    <glyph glyph-name="eogonek" unicode="&#x119;" horiz-adv-x="521" 
d="M466 236h-311v-12c0 -47 6 -83 23 -109c28 -43 74 -61 124 -61c48 0 87 15 122 47l30 -50c-45 -36 -120 -99 -120 -155c0 -19 12 -36 36 -36c22 0 35 2 61 14l21 -47c-20 -11 -52 -24 -82 -24c-64 0 -98 41 -98 87c0 40 22 73 48 101c-11 -1 -22 -2 -34 -2
c-138 0 -221 100 -221 265c0 84 18 138 60 188c40 47 89 69 149 69c54 0 101 -19 135 -54c43 -44 57 -91 57 -210v-11zM383 295c-1 54 -8 87 -23 111c-17 27 -52 44 -90 44c-71 0 -111 -52 -115 -155h228z" />
    <glyph glyph-name="Ecaron" unicode="&#x11a;" horiz-adv-x="520" 
d="M485 0h-385v686h375l-11 -68h-281v-225h235v-71h-235v-251h302v-71zM461 860l-170 -135l-171 135l36 44l139 -85l135 85z" />
    <glyph glyph-name="ecaron" unicode="&#x11b;" horiz-adv-x="521" 
d="M471 236h-311v-12c0 -47 6 -83 23 -109c28 -43 74 -61 124 -61c48 0 87 15 122 47l30 -50c-44 -40 -104 -62 -168 -62c-138 0 -221 100 -221 265c0 84 18 138 60 188c40 47 89 69 149 69c54 0 101 -19 135 -54c43 -44 57 -91 57 -210v-11zM388 295c-1 54 -8 87 -23 111
c-17 27 -52 44 -90 44c-71 0 -111 -52 -115 -155h228zM451 700l-170 -135l-171 135l36 44l139 -85l135 85z" />
    <glyph glyph-name="Gcircumflex" unicode="&#x11c;" horiz-adv-x="639" 
d="M559 41c-49 -32 -123 -52 -193 -52c-86 0 -159 30 -211 86c-58 63 -85 148 -85 266c0 131 35 224 106 288c49 44 108 65 179 65c73 0 136 -23 188 -68l-37 -51c-56 38 -96 53 -149 53c-80 0 -143 -37 -171 -116c-18 -51 -27 -109 -27 -174c0 -90 17 -163 48 -208
s101 -73 166 -73c43 0 80 9 109 27v209h-138l-16 68h231v-320zM527 765l-36 -44l-139 85l-135 -85l-31 44l170 135z" />
    <glyph glyph-name="gcircumflex" unicode="&#x11d;" horiz-adv-x="514" 
d="M519 454c-31 -22 -54 -30 -84 -30c-13 0 -25 2 -34 6c20 -25 30 -53 30 -85c0 -56 -28 -108 -74 -137c-25 -16 -57 -22 -93 -22c-67 -24 -90 -41 -90 -58c0 -15 15 -24 40 -24h80c58 0 90 -7 120 -28c39 -27 55 -62 55 -105c0 -108 -77 -157 -198 -157
c-156 0 -216 56 -216 127c0 18 3 33 10 53l82 7c-7 -11 -14 -29 -14 -45c0 -26 11 -47 29 -58c24 -14 61 -23 101 -23c77 0 121 25 121 87c0 27 -9 48 -27 60c-19 13 -49 18 -98 18c-20 0 -61 -1 -77 -1c-59 0 -94 27 -94 72c0 40 22 64 90 85c-67 21 -112 78 -112 144
c0 100 75 168 184 168c76 0 91 -28 152 -28c26 0 45 6 69 22zM340 344c0 68 -26 100 -92 100c-62 0 -94 -34 -94 -103c0 -64 33 -99 96 -99c60 0 90 35 90 102zM425 605l-36 -44l-139 85l-135 -85l-31 44l170 135z" />
    <glyph glyph-name="Gbreve" unicode="&#x11e;" horiz-adv-x="639" 
d="M559 41c-49 -32 -123 -52 -193 -52c-86 0 -159 30 -211 86c-58 63 -85 148 -85 266c0 131 35 224 106 288c49 44 108 65 179 65c73 0 136 -23 188 -68l-37 -51c-56 38 -96 53 -149 53c-80 0 -143 -37 -171 -116c-18 -51 -27 -109 -27 -174c0 -90 17 -163 48 -208
s101 -73 166 -73c43 0 80 9 109 27v209h-138l-16 68h231v-320zM518 832c-12 -16 -89 -101 -163 -101c-75 0 -152 85 -165 101l35 38c17 -15 73 -56 133 -56c52 0 115 45 130 56z" />
    <glyph glyph-name="gbreve" unicode="&#x11f;" horiz-adv-x="514" 
d="M519 454c-31 -22 -54 -30 -84 -30c-13 0 -25 2 -34 6c20 -25 30 -53 30 -85c0 -56 -28 -108 -74 -137c-25 -16 -57 -22 -93 -22c-67 -24 -90 -41 -90 -58c0 -15 15 -24 40 -24h80c58 0 90 -7 120 -28c39 -27 55 -62 55 -105c0 -108 -77 -157 -198 -157
c-156 0 -216 56 -216 127c0 18 3 33 10 53l82 7c-7 -11 -14 -29 -14 -45c0 -26 11 -47 29 -58c24 -14 61 -23 101 -23c77 0 121 25 121 87c0 27 -9 48 -27 60c-19 13 -49 18 -98 18c-20 0 -61 -1 -77 -1c-59 0 -94 27 -94 72c0 40 22 64 90 85c-67 21 -112 78 -112 144
c0 100 75 168 184 168c76 0 91 -28 152 -28c26 0 45 6 69 22zM340 344c0 68 -26 100 -92 100c-62 0 -94 -34 -94 -103c0 -64 33 -99 96 -99c60 0 90 35 90 102zM422 668c-12 -16 -89 -98 -163 -98c-75 0 -151 82 -164 98l34 39c17 -15 74 -56 134 -56c52 0 114 45 129 56z
" />
    <glyph glyph-name="Gdotaccent" unicode="&#x120;" horiz-adv-x="639" 
d="M559 41c-49 -32 -123 -52 -193 -52c-86 0 -159 30 -211 86c-58 63 -85 148 -85 266c0 131 35 224 106 288c49 44 108 65 179 65c73 0 136 -23 188 -68l-37 -51c-56 38 -96 53 -149 53c-80 0 -143 -37 -171 -116c-18 -51 -27 -109 -27 -174c0 -90 17 -163 48 -208
s101 -73 166 -73c43 0 80 9 109 27v209h-138l-16 68h231v-320zM416 789c0 -34 -27 -61 -61 -61s-61 27 -61 60c0 34 27 62 61 62s61 -27 61 -61z" />
    <glyph glyph-name="gdotaccent" unicode="&#x121;" horiz-adv-x="514" 
d="M519 454c-31 -22 -54 -30 -84 -30c-13 0 -25 2 -34 6c20 -25 30 -53 30 -85c0 -56 -28 -108 -74 -137c-25 -16 -57 -22 -93 -22c-67 -24 -90 -41 -90 -58c0 -15 15 -24 40 -24h80c58 0 90 -7 120 -28c39 -27 55 -62 55 -105c0 -108 -77 -157 -198 -157
c-156 0 -216 56 -216 127c0 18 3 33 10 53l82 7c-7 -11 -14 -29 -14 -45c0 -26 11 -47 29 -58c24 -14 61 -23 101 -23c77 0 121 25 121 87c0 27 -9 48 -27 60c-19 13 -49 18 -98 18c-20 0 -61 -1 -77 -1c-59 0 -94 27 -94 72c0 40 22 64 90 85c-67 21 -112 78 -112 144
c0 100 75 168 184 168c76 0 91 -28 152 -28c26 0 45 6 69 22zM340 344c0 68 -26 100 -92 100c-62 0 -94 -34 -94 -103c0 -64 33 -99 96 -99c60 0 90 35 90 102zM311 652c0 -34 -27 -61 -61 -61s-61 27 -61 60c0 34 27 62 61 62s61 -27 61 -61z" />
    <glyph glyph-name="Gcommaaccent" unicode="&#x122;" horiz-adv-x="639" 
d="M559 41c-49 -32 -123 -52 -193 -52c-86 0 -159 30 -211 86c-58 63 -85 148 -85 266c0 131 35 224 106 288c49 44 108 65 179 65c73 0 136 -23 188 -68l-37 -51c-56 38 -96 53 -149 53c-80 0 -143 -37 -171 -116c-18 -51 -27 -109 -27 -174c0 -90 17 -163 48 -208
s101 -73 166 -73c43 0 80 9 109 27v209h-138l-16 68h231v-320zM405 -138c0 -28 -11 -57 -31 -83c-16 -21 -43 -42 -68 -56l-23 35c32 15 51 41 55 73c0 0 -4 -1 -10 -1c-25 0 -44 24 -44 52c0 33 25 59 57 59c38 0 64 -33 64 -79z" />
    <glyph glyph-name="gcommaaccent" unicode="&#x123;" horiz-adv-x="514" 
d="M519 454c-31 -22 -54 -30 -84 -30c-13 0 -25 2 -34 6c20 -25 30 -53 30 -85c0 -56 -28 -108 -74 -137c-25 -16 -57 -22 -93 -22c-67 -24 -90 -41 -90 -58c0 -15 15 -24 40 -24h80c58 0 90 -7 120 -28c39 -27 55 -62 55 -105c0 -108 -77 -157 -198 -157
c-156 0 -216 56 -216 127c0 18 3 33 10 53l82 7c-7 -11 -14 -29 -14 -45c0 -26 11 -47 29 -58c24 -14 61 -23 101 -23c77 0 121 25 121 87c0 27 -9 48 -27 60c-19 13 -49 18 -98 18c-20 0 -61 -1 -77 -1c-59 0 -94 27 -94 72c0 40 22 64 90 85c-67 21 -112 78 -112 144
c0 100 75 168 184 168c76 0 91 -28 152 -28c26 0 45 6 69 22zM340 344c0 68 -26 100 -92 100c-62 0 -94 -34 -94 -103c0 -64 33 -99 96 -99c60 0 90 35 90 102zM192 648c0 28 11 57 31 83c16 21 43 42 68 56l23 -35c-32 -15 -51 -41 -55 -73c0 0 4 1 10 1
c25 0 44 -24 44 -52c0 -33 -25 -59 -57 -59c-38 0 -64 33 -64 79z" />
    <glyph glyph-name="Hcircumflex" unicode="&#x124;" horiz-adv-x="641" 
d="M551 0h-82v332h-289v-332h-80v686h80v-287h289v287h82v-686zM500 765l-36 -44l-139 85l-135 -85l-31 44l170 135z" />
    <glyph glyph-name="hcircumflex" unicode="&#x125;" horiz-adv-x="567" 
d="M477 0h-77v344c0 37 -5 60 -19 74c-12 12 -33 20 -58 20c-48 0 -102 -31 -145 -84v-354h-78v614c0 65 -13 102 -13 102l78 15s13 -42 13 -118v-116c0 -32 -3 -68 -3 -68c45 42 102 79 166 79c60 0 114 -33 128 -79c6 -20 8 -36 8 -72v-357zM309 778l-36 -44l-139 85
l-135 -85l-31 44l170 135z" />
    <glyph glyph-name="Hbar" unicode="&#x126;" horiz-adv-x="641" 
d="M546 0h-82v332h-289v-332h-80v505h-90v66h90v115h80v-115h289v115h82v-115h90v-66h-90v-505zM175 399h289v106h-289v-106z" />
    <glyph glyph-name="hbar" unicode="&#x127;" horiz-adv-x="567" 
d="M472 0h-77v344c0 37 -5 60 -19 74c-12 12 -33 20 -58 20c-48 0 -102 -31 -145 -84v-354h-78v562h-65v60h65c-1 60 -13 94 -13 94l78 15s12 -39 13 -109h192v-60h-192v-65c0 -32 -3 -68 -3 -68c45 42 102 79 166 79c60 0 114 -33 128 -79c6 -20 8 -36 8 -72v-357z" />
    <glyph glyph-name="Imacron" unicode="&#x12a;" 
d="M180 0h-80v686h80v-686zM277 751h-274v54h274v-54z" />
    <glyph glyph-name="imacron" unicode="&#x12b;" horiz-adv-x="271" 
d="M181 0h-81v496l81 13v-509zM287 592h-274v54h274v-54z" />
    <glyph glyph-name="Iogonek" unicode="&#x12e;" 
d="M218 -173c-20 -11 -52 -24 -82 -24c-64 0 -98 41 -98 87c0 45 28 80 57 111v685h80v-686c-16 -4 -75 -55 -75 -104c0 -19 12 -36 36 -36c22 0 35 2 61 14z" />
    <glyph glyph-name="iogonek" unicode="&#x12f;" horiz-adv-x="271" 
d="M218 -173c-20 -11 -52 -24 -82 -24c-64 0 -98 41 -98 87c0 45 28 80 57 111v495l81 13v-509c-16 -4 -76 -52 -76 -104c0 -19 12 -36 36 -36c22 0 35 2 61 14zM198 652c0 -34 -27 -61 -61 -61s-61 27 -61 60c0 34 27 62 61 62s61 -27 61 -61z" />
    <glyph glyph-name="Idotaccent" unicode="&#x130;" 
d="M180 0h-80v686h80v-686zM201 789c0 -34 -27 -61 -61 -61s-61 27 -61 60c0 34 27 62 61 62s61 -27 61 -61z" />
    <glyph glyph-name="dotlessi" unicode="&#x131;" horiz-adv-x="271" 
d="M176 0h-81v496l81 13v-509z" />
    <glyph glyph-name="Jcircumflex" unicode="&#x134;" horiz-adv-x="279" 
d="M189 117c0 -87 -4 -120 -25 -157c-22 -39 -63 -70 -116 -88l-40 51c37 15 67 41 82 67c13 23 17 55 17 125v571h82v-569zM317 765l-36 -44l-139 85l-135 -85l-31 44l170 135z" />
    <glyph glyph-name="jcircumflex" unicode="&#x135;" 
d="M313 605l-36 -44l-139 85l-135 -85l-31 44l170 135zM180 88c0 -36 -2 -71 -9 -93c-15 -48 -56 -85 -119 -106l-39 47c32 13 58 36 71 57c12 19 16 51 16 96v443h80v-444z" />
    <glyph glyph-name="Kcommaaccent" unicode="&#x136;" horiz-adv-x="556" 
d="M556 686l-276 -322l274 -364h-105l-262 363l264 323h105zM183 0h-83v686h83v-686zM356 -138c0 -28 -11 -57 -31 -83c-16 -21 -43 -42 -68 -56l-23 35c32 15 51 41 55 73c0 0 -4 -1 -10 -1c-25 0 -44 24 -44 52c0 33 25 59 57 59c38 0 64 -33 64 -79z" />
    <glyph glyph-name="kcommaaccent" unicode="&#x137;" horiz-adv-x="514" 
d="M178 0h-78v614c0 65 -13 102 -13 102l78 15s13 -42 13 -118v-613zM514 0h-104l-229 282l190 216h98l-196 -216zM341 -138c0 -28 -11 -57 -31 -83c-16 -21 -43 -42 -68 -56l-23 35c32 15 51 41 55 73c0 0 -4 -1 -10 -1c-25 0 -44 24 -44 52c0 33 25 59 57 59
c38 0 64 -33 64 -79z" />
    <glyph glyph-name="Lacute" unicode="&#x139;" horiz-adv-x="463" 
d="M453 69l-11 -69h-342v686h82v-617h271zM323 825l-224 -100l-26 47l207 130z" />
    <glyph glyph-name="lacute" unicode="&#x13a;" horiz-adv-x="269" 
d="M233 1c-20 -9 -29 -11 -50 -11c-24 0 -44 7 -59 21c-16 14 -24 35 -24 71v528c0 65 -12 102 -12 102l78 15s13 -42 13 -118v-509c0 -39 6 -50 28 -50c3 0 10 2 10 2zM296 851l-224 -100l-26 47l207 130z" />
    <glyph glyph-name="Lcommaaccent" unicode="&#x13b;" horiz-adv-x="463" 
d="M453 69l-11 -69h-342v686h82v-617h271zM332 -138c0 -28 -11 -57 -31 -83c-16 -21 -43 -42 -68 -56l-23 35c32 15 51 41 55 73c0 0 -4 -1 -10 -1c-25 0 -44 24 -44 52c0 33 25 59 57 59c38 0 64 -33 64 -79z" />
    <glyph glyph-name="lcommaaccent" unicode="&#x13c;" horiz-adv-x="269" 
d="M233 1c-20 -9 -29 -11 -50 -11c-24 0 -44 7 -59 21c-16 14 -24 35 -24 71v528c0 65 -12 102 -12 102l78 15s13 -42 13 -118v-509c0 -39 6 -50 28 -50c3 0 10 2 10 2zM229 -138c0 -28 -11 -57 -31 -83c-16 -21 -43 -42 -68 -56l-23 35c32 15 51 41 55 73c0 0 -4 -1 -10 -1
c-25 0 -44 24 -44 52c0 33 25 59 57 59c38 0 64 -33 64 -79z" />
    <glyph glyph-name="Lcaron" unicode="&#x13d;" horiz-adv-x="463" 
d="M453 69l-11 -69h-342v686h82v-617h271zM410 607c0 -28 -11 -57 -31 -83c-16 -21 -43 -42 -68 -56l-23 35c32 15 51 41 55 73c0 0 -4 -1 -10 -1c-25 0 -44 24 -44 52c0 33 25 59 57 59c38 0 64 -33 64 -79z" />
    <glyph glyph-name="lcaron" unicode="&#x13e;" horiz-adv-x="269" 
d="M233 1c-20 -9 -29 -11 -50 -11c-24 0 -44 7 -59 21c-16 14 -24 35 -24 71v528c0 65 -12 102 -12 102l78 15s13 -42 13 -118v-509c0 -39 6 -50 28 -50c3 0 10 2 10 2zM355 649c0 -28 -11 -57 -31 -83c-16 -21 -43 -42 -68 -56l-23 35c32 15 51 41 55 73c0 0 -4 -1 -10 -1
c-25 0 -44 24 -44 52c0 33 25 59 57 59c38 0 64 -33 64 -79z" />
    <glyph glyph-name="Lslash" unicode="&#x141;" horiz-adv-x="463" 
d="M448 69l-11 -69h-342v308l-67 -22v72l67 22v306h82v-280l178 57v-72l-178 -57v-265h271z" />
    <glyph glyph-name="lslash" unicode="&#x142;" horiz-adv-x="269" 
d="M240 358l-73 -26v-232c0 -39 6 -50 28 -50c3 0 10 2 10 2l16 -51c-20 -9 -29 -11 -50 -11c-24 0 -44 7 -59 21c-16 14 -24 35 -24 71v224l-59 -20v72l59 20v232c0 65 -12 102 -12 102l78 15s13 -42 13 -118v-205l73 26v-72z" />
    <glyph glyph-name="Nacute" unicode="&#x143;" horiz-adv-x="646" 
d="M556 0h-86l-220 420c-44 83 -78 165 -78 165s8 -98 9 -187l4 -398h-85v686h95l228 -438c34 -65 61 -137 64 -144c0 2 -8 111 -9 209l-3 373h81v-686zM462 825l-224 -100l-26 47l207 130z" />
    <glyph glyph-name="nacute" unicode="&#x144;" horiz-adv-x="556" 
d="M466 0h-79v337c0 53 -4 66 -18 83c-11 13 -32 21 -55 21c-40 0 -102 -32 -138 -70v-371h-76v384c0 71 -19 105 -19 105l76 21s18 -37 18 -78c52 52 104 77 157 77c54 0 102 -29 122 -73c8 -18 12 -38 12 -58v-378zM410 665l-224 -100l-26 47l207 130z" />
    <glyph glyph-name="Ncommaaccent" unicode="&#x145;" horiz-adv-x="646" 
d="M556 0h-86l-220 420c-44 83 -78 165 -78 165s8 -98 9 -187l4 -398h-85v686h95l228 -438c34 -65 61 -137 64 -144c0 2 -8 111 -9 209l-3 373h81v-686zM390 -138c0 -28 -11 -57 -31 -83c-16 -21 -43 -42 -68 -56l-23 35c32 15 51 41 55 73c0 0 -4 -1 -10 -1
c-25 0 -44 24 -44 52c0 33 25 59 57 59c38 0 64 -33 64 -79z" />
    <glyph glyph-name="ncommaaccent" unicode="&#x146;" horiz-adv-x="556" 
d="M466 0h-79v337c0 53 -4 66 -18 83c-11 13 -32 21 -55 21c-40 0 -102 -32 -138 -70v-371h-76v384c0 71 -19 105 -19 105l76 21s18 -37 18 -78c52 52 104 77 157 77c54 0 102 -29 122 -73c8 -18 12 -38 12 -58v-378zM346 -138c0 -28 -11 -57 -31 -83
c-16 -21 -43 -42 -68 -56l-23 35c32 15 51 41 55 73c0 0 -4 -1 -10 -1c-25 0 -44 24 -44 52c0 33 25 59 57 59c38 0 64 -33 64 -79z" />
    <glyph glyph-name="Ncaron" unicode="&#x147;" horiz-adv-x="646" 
d="M556 0h-86l-220 420c-44 83 -78 165 -78 165s8 -98 9 -187l4 -398h-85v686h95l228 -438c34 -65 61 -137 64 -144c0 2 -8 111 -9 209l-3 373h81v-686zM498 860l-170 -135l-171 135l36 44l139 -85l135 85z" />
    <glyph glyph-name="ncaron" unicode="&#x148;" horiz-adv-x="556" 
d="M466 0h-79v337c0 53 -4 66 -18 83c-11 13 -32 21 -55 21c-40 0 -102 -32 -138 -70v-371h-76v384c0 71 -19 105 -19 105l76 21s18 -37 18 -78c52 52 104 77 157 77c54 0 102 -29 122 -73c8 -18 12 -38 12 -58v-378zM449 700l-170 -135l-171 135l36 44l139 -85l135 85z" />
    <glyph glyph-name="Omacron" unicode="&#x14c;" horiz-adv-x="681" 
d="M621 332c0 -132 -30 -215 -100 -279c-51 -46 -103 -66 -174 -66c-84 0 -149 34 -195 87c-54 62 -82 155 -82 272c0 218 104 352 273 352c119 0 183 -63 216 -112c43 -64 62 -144 62 -254zM529 320c0 101 -10 170 -33 218c-24 51 -74 94 -153 94c-64 0 -121 -31 -147 -80
c-24 -45 -35 -104 -35 -189c0 -103 17 -193 44 -239c26 -44 90 -74 146 -74s97 20 128 59c34 43 50 98 50 211zM481 751h-274v54h274v-54z" />
    <glyph glyph-name="omacron" unicode="&#x14d;" horiz-adv-x="549" 
d="M494 241c0 -166 -89 -254 -214 -254c-137 0 -215 101 -215 265c0 162 81 261 212 261c83 0 137 -38 171 -87c31 -45 46 -104 46 -185zM405 235c0 70 -7 117 -23 150c-21 44 -65 64 -106 64c-44 0 -85 -21 -102 -54c-16 -31 -24 -71 -24 -130c0 -70 12 -132 31 -163
c18 -30 58 -50 101 -50c52 0 91 27 108 75c11 31 15 59 15 108zM415 592h-274v54h274v-54z" />
    <glyph glyph-name="Ohungarumlaut" unicode="&#x150;" horiz-adv-x="681" 
d="M621 332c0 -132 -30 -215 -100 -279c-51 -46 -103 -66 -174 -66c-84 0 -149 34 -195 87c-54 62 -82 155 -82 272c0 218 104 352 273 352c119 0 183 -63 216 -112c43 -64 62 -144 62 -254zM529 320c0 101 -10 170 -33 218c-24 51 -74 94 -153 94c-64 0 -121 -31 -147 -80
c-24 -45 -35 -104 -35 -189c0 -103 17 -193 44 -239c26 -44 90 -74 146 -74s97 20 128 59c34 43 50 98 50 211zM439 902l-147 -177l-46 29l118 194zM654 876l-179 -147l-39 38l152 167z" />
    <glyph glyph-name="ohungarumlaut" unicode="&#x151;" horiz-adv-x="549" 
d="M494 241c0 -166 -89 -254 -214 -254c-137 0 -215 101 -215 265c0 162 81 261 212 261c83 0 137 -38 171 -87c31 -45 46 -104 46 -185zM405 235c0 70 -7 117 -23 150c-21 44 -65 64 -106 64c-44 0 -85 -21 -102 -54c-16 -31 -24 -71 -24 -130c0 -70 12 -132 31 -163
c18 -30 58 -50 101 -50c52 0 91 27 108 75c11 31 15 59 15 108zM330 763l-117 -198l-50 21l86 210zM521 744l-154 -173l-44 31l124 189z" />
    <glyph glyph-name="OE" unicode="&#x152;" horiz-adv-x="881" 
d="M841 0h-440c-105 0 -153 4 -220 52c-78 56 -116 156 -116 290c0 120 32 205 78 256c54 60 109 88 216 88h472l-11 -69h-281v-224h235v-71h-235v-251h302v-71zM456 72v536c-31 4 -61 7 -88 7c-80 0 -134 -16 -168 -71c-32 -52 -46 -120 -46 -192c0 -103 12 -170 59 -224
c36 -42 77 -62 129 -62c27 0 81 1 114 6z" />
    <glyph glyph-name="oe" unicode="&#x153;" horiz-adv-x="849" 
d="M794 236h-311v-12c0 -47 6 -83 23 -109c28 -43 74 -61 124 -61c48 0 87 15 122 47l30 -50c-44 -40 -104 -62 -168 -62c-74 0 -140 33 -167 81c-47 -59 -96 -87 -172 -87c-133 0 -215 101 -215 265c0 162 81 261 212 261c81 0 135 -36 168 -85c40 59 94 88 162 88
c54 0 101 -20 135 -55c43 -44 57 -91 57 -210v-11zM400 231c0 70 -7 117 -23 150c-21 44 -65 64 -106 64c-44 0 -85 -21 -102 -54c-16 -31 -24 -71 -24 -130c0 -70 12 -132 31 -163c18 -30 58 -50 101 -50c52 0 91 27 108 75c11 31 15 59 15 108zM711 295
c-1 54 -8 87 -23 111c-17 27 -52 44 -90 44c-71 0 -111 -52 -115 -155h228z" />
    <glyph glyph-name="Racute" unicode="&#x154;" horiz-adv-x="556" 
d="M536 0h-103c-20 45 -84 150 -175 266c-27 34 -42 43 -76 44v-310h-82v686h160c94 0 140 -17 173 -44c31 -25 68 -71 68 -144c0 -113 -73 -188 -182 -188h-10c32 -26 55 -58 69 -77c29 -39 158 -233 158 -233zM415 499c0 45 -28 88 -67 104c-22 9 -49 14 -86 14h-79v-256
h73c61 0 98 11 124 35c23 21 35 58 35 103zM431 825l-224 -100l-26 47l207 130z" />
    <glyph glyph-name="racute" unicode="&#x155;" horiz-adv-x="324" 
d="M344 508l-32 -85c-5 2 -14 4 -22 4c-30 0 -60 -13 -83 -36s-29 -38 -29 -79v-312h-78v384c0 73 -17 106 -17 106l78 21s19 -39 16 -81c36 51 89 83 140 83c13 0 27 -5 27 -5zM340 665l-224 -100l-26 47l207 130z" />
    <glyph glyph-name="Rcommaaccent" unicode="&#x156;" horiz-adv-x="556" 
d="M536 0h-103c-20 45 -84 150 -175 266c-27 34 -42 43 -76 44v-310h-82v686h160c94 0 140 -17 173 -44c31 -25 68 -71 68 -144c0 -113 -73 -188 -182 -188h-10c32 -26 55 -58 69 -77c29 -39 158 -233 158 -233zM415 499c0 45 -28 88 -67 104c-22 9 -49 14 -86 14h-79v-256
h73c61 0 98 11 124 35c23 21 35 58 35 103zM357 -138c0 -28 -11 -57 -31 -83c-16 -21 -43 -42 -68 -56l-23 35c32 15 51 41 55 73c0 0 -4 -1 -10 -1c-25 0 -44 24 -44 52c0 33 25 59 57 59c38 0 64 -33 64 -79z" />
    <glyph glyph-name="rcommaaccent" unicode="&#x157;" horiz-adv-x="324" 
d="M344 508l-32 -85c-5 2 -14 4 -22 4c-30 0 -60 -13 -83 -36s-29 -38 -29 -79v-312h-78v384c0 73 -17 106 -17 106l78 21s19 -39 16 -81c36 51 89 83 140 83c13 0 27 -5 27 -5zM203 -138c0 -28 -11 -57 -31 -83c-16 -21 -43 -42 -68 -56l-23 35c32 15 51 41 55 73
c0 0 -4 -1 -10 -1c-25 0 -44 24 -44 52c0 33 25 59 57 59c38 0 64 -33 64 -79z" />
    <glyph glyph-name="Rcaron" unicode="&#x158;" horiz-adv-x="556" 
d="M536 0h-103c-20 45 -84 150 -175 266c-27 34 -42 43 -76 44v-310h-82v686h160c94 0 140 -17 173 -44c31 -25 68 -71 68 -144c0 -113 -73 -188 -182 -188h-10c32 -26 55 -58 69 -77c29 -39 158 -233 158 -233zM415 499c0 45 -28 88 -67 104c-22 9 -49 14 -86 14h-79v-256
h73c61 0 98 11 124 35c23 21 35 58 35 103zM450 860l-170 -135l-171 135l36 44l139 -85l135 85z" />
    <glyph glyph-name="rcaron" unicode="&#x159;" horiz-adv-x="324" 
d="M344 508l-32 -85c-5 2 -14 4 -22 4c-30 0 -60 -13 -83 -36s-29 -38 -29 -79v-312h-78v384c0 73 -17 106 -17 106l78 21s19 -39 16 -81c36 51 89 83 140 83c13 0 27 -5 27 -5zM377 700l-170 -135l-171 135l36 44l139 -85l135 85z" />
    <glyph glyph-name="Sacute" unicode="&#x15a;" horiz-adv-x="579" 
d="M529 194c0 -64 -34 -126 -95 -165c-45 -29 -91 -42 -154 -42c-82 0 -152 20 -220 62l36 64c57 -41 115 -59 184 -59c52 0 80 8 109 30c33 25 49 58 49 98c0 61 -40 103 -123 128l-69 21c-62 19 -95 33 -122 61c-28 30 -43 68 -43 112c0 117 89 197 222 197
c74 0 142 -22 207 -66l-36 -59c-66 43 -108 58 -167 58c-86 0 -137 -43 -137 -113c0 -55 33 -86 114 -112l79 -25c61 -19 93 -37 121 -69s45 -78 45 -121zM463 825l-224 -100l-26 47l207 130z" />
    <glyph glyph-name="sacute" unicode="&#x15b;" horiz-adv-x="481" 
d="M431 148c0 -97 -76 -163 -188 -163c-63 0 -132 19 -183 50l30 58c51 -31 103 -47 158 -47c61 0 101 33 101 86c0 45 -25 70 -82 82l-62 13c-82 17 -126 68 -126 137c0 90 73 153 177 153c52 0 110 -16 152 -40l-29 -58c-44 21 -81 36 -125 36c-57 0 -94 -33 -94 -82
c0 -38 19 -61 72 -72l66 -14c90 -19 133 -65 133 -139zM401 665l-224 -100l-26 47l207 130z" />
    <glyph glyph-name="Scircumflex" unicode="&#x15c;" horiz-adv-x="579" 
d="M529 194c0 -64 -34 -126 -95 -165c-45 -29 -91 -42 -154 -42c-82 0 -152 20 -220 62l36 64c57 -41 115 -59 184 -59c52 0 80 8 109 30c33 25 49 58 49 98c0 61 -40 103 -123 128l-69 21c-62 19 -95 33 -122 61c-28 30 -43 68 -43 112c0 117 89 197 222 197
c74 0 142 -22 207 -66l-36 -59c-66 43 -108 58 -167 58c-86 0 -137 -43 -137 -113c0 -55 33 -86 114 -112l79 -25c61 -19 93 -37 121 -69s45 -78 45 -121zM478 765l-36 -44l-139 85l-135 -85l-31 44l170 135z" />
    <glyph glyph-name="scircumflex" unicode="&#x15d;" horiz-adv-x="481" 
d="M431 148c0 -97 -76 -163 -188 -163c-63 0 -132 19 -183 50l30 58c51 -31 103 -47 158 -47c61 0 101 33 101 86c0 45 -25 70 -82 82l-62 13c-82 17 -126 68 -126 137c0 90 73 153 177 153c52 0 110 -16 152 -40l-29 -58c-44 21 -81 36 -125 36c-57 0 -94 -33 -94 -82
c0 -38 19 -61 72 -72l66 -14c90 -19 133 -65 133 -139zM424 605l-36 -44l-139 85l-135 -85l-31 44l170 135z" />
    <glyph glyph-name="Scedilla" unicode="&#x15e;" horiz-adv-x="579" 
d="M524 194c0 -64 -34 -126 -95 -165c-38 -24 -76 -37 -125 -41l-8 -30c51 -7 65 -36 65 -72c0 -38 -34 -83 -98 -83c-30 0 -62 13 -82 24l21 47c26 -12 39 -16 61 -16c18 0 36 11 36 30c0 20 -21 29 -38 29c-12 0 -21 -1 -26 -2l-9 10l17 63c-69 5 -129 25 -188 61l36 64
c57 -41 115 -59 184 -59c52 0 80 8 109 30c33 25 49 58 49 98c0 61 -40 103 -123 128l-69 21c-62 19 -95 33 -122 61c-28 30 -43 68 -43 112c0 117 89 197 222 197c74 0 142 -22 207 -66l-36 -59c-66 43 -108 58 -167 58c-86 0 -137 -43 -137 -113c0 -55 33 -86 114 -112
l79 -25c61 -19 93 -37 121 -69s45 -78 45 -121z" />
    <glyph glyph-name="scedilla" unicode="&#x15f;" horiz-adv-x="481" 
d="M426 148c0 -90 -66 -153 -164 -162l-7 -28c51 -7 65 -36 65 -72c0 -38 -34 -83 -98 -83c-30 0 -62 13 -82 24l21 47c26 -12 39 -16 61 -16c18 0 36 11 36 30c0 20 -21 29 -38 29c-12 0 -21 -1 -26 -2l-9 10l17 62c-52 6 -106 23 -147 48l30 58c51 -31 103 -47 158 -47
c61 0 101 33 101 86c0 45 -25 70 -82 82l-62 13c-82 17 -126 68 -126 137c0 90 73 153 177 153c52 0 110 -16 152 -40l-29 -58c-44 21 -81 36 -125 36c-57 0 -94 -33 -94 -82c0 -38 19 -61 72 -72l66 -14c90 -19 133 -65 133 -139z" />
    <glyph glyph-name="Scaron" unicode="&#x160;" horiz-adv-x="579" 
d="M529 194c0 -64 -34 -126 -95 -165c-45 -29 -91 -42 -154 -42c-82 0 -152 20 -220 62l36 64c57 -41 115 -59 184 -59c52 0 80 8 109 30c33 25 49 58 49 98c0 61 -40 103 -123 128l-69 21c-62 19 -95 33 -122 61c-28 30 -43 68 -43 112c0 117 89 197 222 197
c74 0 142 -22 207 -66l-36 -59c-66 43 -108 58 -167 58c-86 0 -137 -43 -137 -113c0 -55 33 -86 114 -112l79 -25c61 -19 93 -37 121 -69s45 -78 45 -121zM472 858l-170 -135l-171 135l36 44l139 -85l135 85z" />
    <glyph glyph-name="scaron" unicode="&#x161;" horiz-adv-x="481" 
d="M431 148c0 -97 -76 -163 -188 -163c-63 0 -132 19 -183 50l30 58c51 -31 103 -47 158 -47c61 0 101 33 101 86c0 45 -25 70 -82 82l-62 13c-82 17 -126 68 -126 137c0 90 73 153 177 153c52 0 110 -16 152 -40l-29 -58c-44 21 -81 36 -125 36c-57 0 -94 -33 -94 -82
c0 -38 19 -61 72 -72l66 -14c90 -19 133 -65 133 -139zM423 693l-170 -135l-171 135l36 44l139 -85l135 85z" />
    <glyph glyph-name="Tcommaaccent" unicode="&#x162;" horiz-adv-x="464" 
d="M484 686l-5 -69h-186v-617h-79v617h-184v69h454zM318 -138c0 -28 -11 -57 -31 -83c-16 -21 -43 -42 -68 -56l-23 35c32 15 51 41 55 73c0 0 -4 -1 -10 -1c-25 0 -44 24 -44 52c0 33 25 59 57 59c38 0 64 -33 64 -79z" />
    <glyph glyph-name="tcommaaccent" unicode="&#x163;" horiz-adv-x="320" 
d="M305 498l-24 -59h-104v-321c0 -55 15 -74 64 -74c22 0 35 3 49 10l11 -50c-25 -13 -53 -20 -88 -20c-26 0 -46 5 -65 14c-35 17 -48 49 -48 99v342h-65v59h65c0 48 8 126 8 126l82 18s-10 -78 -10 -144h125zM251 -138c0 -28 -11 -57 -31 -83c-16 -21 -43 -42 -68 -56
l-23 35c32 15 51 41 55 73c0 0 -4 -1 -10 -1c-25 0 -44 24 -44 52c0 33 25 59 57 59c38 0 64 -33 64 -79z" />
    <glyph glyph-name="Tcaron" unicode="&#x164;" horiz-adv-x="464" 
d="M484 686l-5 -69h-186v-617h-79v617h-184v69h454zM419 860l-170 -135l-171 135l36 44l139 -85l135 85z" />
    <glyph glyph-name="tcaron" unicode="&#x165;" horiz-adv-x="320" 
d="M305 498l-24 -59h-104v-321c0 -55 15 -74 64 -74c22 0 35 3 49 10l11 -50c-25 -13 -53 -20 -88 -20c-26 0 -46 5 -65 14c-35 17 -48 49 -48 99v342h-65v59h65c0 48 8 126 8 126l82 18s-10 -78 -10 -144h125zM366 669c0 -28 -11 -57 -31 -83c-16 -21 -43 -42 -68 -56
l-23 35c32 15 51 41 55 73c0 0 -4 -1 -10 -1c-25 0 -44 24 -44 52c0 33 25 59 57 59c38 0 64 -33 64 -79z" />
    <glyph glyph-name="Umacron" unicode="&#x16a;" horiz-adv-x="635" 
d="M550 198c0 -83 -11 -122 -52 -157c-42 -36 -97 -53 -180 -53c-106 0 -166 31 -203 99c-18 33 -20 77 -20 107v492h81v-462c0 -34 3 -78 12 -99c13 -30 50 -67 134 -67c57 0 100 15 121 43c23 31 26 61 26 107v478h81v-488zM462 751h-274v54h274v-54z" />
    <glyph glyph-name="umacron" unicode="&#x16b;" horiz-adv-x="557" 
d="M501 32l-50 -53c-33 27 -47 47 -54 80c-38 -51 -90 -76 -158 -76c-63 0 -110 27 -131 71c-9 19 -13 45 -13 74v366l77 15v-358c0 -47 7 -68 30 -84c16 -11 39 -17 61 -17c49 0 100 36 127 90v353l77 13v-363c0 -63 9 -88 34 -111zM421 592h-274v54h274v-54z" />
    <glyph glyph-name="Ubreve" unicode="&#x16c;" horiz-adv-x="635" 
d="M550 198c0 -83 -11 -122 -52 -157c-42 -36 -97 -53 -180 -53c-106 0 -166 31 -203 99c-18 33 -20 77 -20 107v492h81v-462c0 -34 3 -78 12 -99c13 -30 50 -67 134 -67c57 0 100 15 121 43c23 31 26 61 26 107v478h81v-488zM484 832c-12 -16 -89 -101 -163 -101
c-75 0 -152 85 -165 101l35 38c17 -15 73 -56 133 -56c52 0 115 45 130 56z" />
    <glyph glyph-name="ubreve" unicode="&#x16d;" horiz-adv-x="557" 
d="M501 32l-50 -53c-33 27 -47 47 -54 80c-38 -51 -90 -76 -158 -76c-63 0 -110 27 -131 71c-9 19 -13 45 -13 74v366l77 15v-358c0 -47 7 -68 30 -84c16 -11 39 -17 61 -17c49 0 100 36 127 90v353l77 13v-363c0 -63 9 -88 34 -111zM446 669c-12 -16 -89 -98 -163 -98
c-75 0 -151 82 -164 98l34 39c17 -15 74 -56 134 -56c52 0 114 45 129 56z" />
    <glyph glyph-name="Uring" unicode="&#x16e;" horiz-adv-x="635" 
d="M550 198c0 -83 -11 -122 -52 -157c-42 -36 -97 -53 -180 -53c-106 0 -166 31 -203 99c-18 33 -20 77 -20 107v492h81v-462c0 -34 3 -78 12 -99c13 -30 50 -67 134 -67c57 0 100 15 121 43c23 31 26 61 26 107v478h81v-488zM425 819c0 -58 -47 -106 -104 -106
c-58 0 -106 48 -106 106s47 106 104 106s106 -48 106 -106zM380 819c0 32 -28 60 -62 60c-31 0 -57 -28 -57 -60s28 -60 60 -60c31 0 59 28 59 60z" />
    <glyph glyph-name="uring" unicode="&#x16f;" horiz-adv-x="557" 
d="M501 32l-50 -53c-33 27 -47 47 -54 80c-38 -51 -90 -76 -158 -76c-63 0 -110 27 -131 71c-9 19 -13 45 -13 74v366l77 15v-358c0 -47 7 -68 30 -84c16 -11 39 -17 61 -17c49 0 100 36 127 90v353l77 13v-363c0 -63 9 -88 34 -111zM390 659c0 -58 -47 -106 -104 -106
c-58 0 -106 48 -106 106s47 106 104 106s106 -48 106 -106zM345 659c0 32 -28 60 -62 60c-31 0 -57 -28 -57 -60s28 -60 60 -60c31 0 59 28 59 60z" />
    <glyph glyph-name="Uhungarumlaut" unicode="&#x170;" horiz-adv-x="635" 
d="M550 198c0 -83 -11 -122 -52 -157c-42 -36 -97 -53 -180 -53c-106 0 -166 31 -203 99c-18 33 -20 77 -20 107v492h81v-462c0 -34 3 -78 12 -99c13 -30 50 -67 134 -67c57 0 100 15 121 43c23 31 26 61 26 107v478h81v-488zM381 902l-147 -177l-46 29l118 194zM596 876
l-179 -147l-39 38l152 167z" />
    <glyph glyph-name="uhungarumlaut" unicode="&#x171;" horiz-adv-x="557" 
d="M501 32l-50 -53c-33 27 -47 47 -54 80c-38 -51 -90 -76 -158 -76c-63 0 -110 27 -131 71c-9 19 -13 45 -13 74v366l77 15v-358c0 -47 7 -68 30 -84c16 -11 39 -17 61 -17c49 0 100 36 127 90v353l77 13v-363c0 -63 9 -88 34 -111zM354 763l-117 -198l-50 21l86 210z
M545 744l-154 -173l-44 31l124 189z" />
    <glyph glyph-name="Uogonek" unicode="&#x172;" horiz-adv-x="635" 
d="M550 198c0 -83 -11 -122 -52 -157c-26 -22 -56 -36 -95 -45c-33 -8 -83 -48 -83 -100c0 -19 12 -36 36 -36c22 0 35 2 61 14l21 -47c-20 -11 -52 -24 -82 -24c-64 0 -98 41 -98 87c0 39 20 70 45 98c-97 3 -153 34 -188 99c-18 33 -20 77 -20 107v492h81v-462
c0 -34 3 -78 12 -99c13 -30 50 -67 134 -67c57 0 100 15 121 43c23 31 26 61 26 107v478h81v-488z" />
    <glyph glyph-name="uogonek" unicode="&#x173;" horiz-adv-x="557" 
d="M517 -173c-20 -11 -52 -24 -82 -24c-64 0 -98 41 -98 87c0 53 39 93 73 127c-9 12 -15 26 -18 42c-38 -51 -90 -76 -158 -76c-63 0 -110 27 -131 71c-9 19 -13 45 -13 74v366l77 15v-358c0 -47 7 -68 30 -84c16 -11 39 -17 61 -17c49 0 100 36 127 90v353l77 13v-363
c0 -63 9 -88 34 -111c-35 -32 -97 -84 -97 -136c0 -19 12 -36 36 -36c22 0 35 2 61 14z" />
    <glyph glyph-name="Ydieresis" unicode="&#x178;" horiz-adv-x="519" 
d="M529 686l-223 -419v-267h-85v272l-221 414h101l130 -262c19 -39 35 -77 35 -77l37 77l132 262h94zM211 781c0 -29 -22 -53 -51 -53s-52 24 -52 53c0 28 23 51 51 51c29 0 52 -23 52 -51zM418 781c0 -29 -22 -53 -51 -53s-52 24 -52 53c0 28 23 51 51 51
c29 0 52 -23 52 -51z" />
    <glyph glyph-name="Zacute" unicode="&#x179;" horiz-adv-x="518" 
d="M478 70l-21 -70h-407v63l293 489c26 43 44 66 44 66s-29 -1 -71 -1h-256l23 69h391v-70l-285 -481c-23 -39 -42 -66 -42 -66s28 1 59 1h272zM408 825l-224 -100l-26 47l207 130z" />
    <glyph glyph-name="zacute" unicode="&#x17a;" horiz-adv-x="459" 
d="M419 60l-37 -60h-332v60l271 376h-250v62h332v-64l-259 -374h275zM373 665l-224 -100l-26 47l207 130z" />
    <glyph glyph-name="Zdotaccent" unicode="&#x17b;" horiz-adv-x="518" 
d="M478 70l-21 -70h-407v63l293 489c26 43 44 66 44 66s-29 -1 -71 -1h-256l23 69h391v-70l-285 -481c-23 -39 -42 -66 -42 -66s28 1 59 1h272zM336 789c0 -34 -27 -61 -61 -61s-61 27 -61 60c0 34 27 62 61 62s61 -27 61 -61z" />
    <glyph glyph-name="zdotaccent" unicode="&#x17c;" horiz-adv-x="459" 
d="M419 60l-37 -60h-332v60l271 376h-250v62h332v-64l-259 -374h275zM296 652c0 -34 -27 -61 -61 -61s-61 27 -61 60c0 34 27 62 61 62s61 -27 61 -61z" />
    <glyph glyph-name="Zcaron" unicode="&#x17d;" horiz-adv-x="518" 
d="M478 70l-21 -70h-407v63l293 489c26 43 44 66 44 66s-29 -1 -71 -1h-256l23 69h391v-70l-285 -481c-23 -39 -42 -66 -42 -66s28 1 59 1h272zM439 858l-170 -135l-171 135l36 44l139 -85l135 85z" />
    <glyph glyph-name="zcaron" unicode="&#x17e;" horiz-adv-x="459" 
d="M419 60l-37 -60h-332v60l271 376h-250v62h332v-64l-259 -374h275zM411 693l-170 -135l-171 135l36 44l139 -85l135 85z" />
    <glyph glyph-name="longs" unicode="&#x17f;" horiz-adv-x="323" 
d="M375 698l-31 -59c-15 9 -43 25 -73 25c-63 0 -104 -42 -104 -142v-522h-77v439h-74v59h74v13c0 69 5 114 40 154s83 60 147 60c37 0 70 -12 98 -27z" />
    <glyph glyph-name="florin" unicode="&#x192;" horiz-adv-x="324" 
d="M369 695l-33 -55c-17 11 -44 23 -69 23c-42 0 -68 -31 -72 -88l-5 -77h134l-28 -59h-110l-26 -384c-9 -137 -9 -184 -128 -253l-37 56c89 55 82 97 88 190l25 391h-46v59h50l5 78c4 69 29 98 62 122c24 17 51 26 86 26c41 0 90 -20 104 -29z" />
    <glyph glyph-name="Scommaaccent" unicode="&#x218;" horiz-adv-x="579" 
d="M529 194c0 -64 -34 -126 -95 -165c-45 -29 -91 -42 -154 -42c-82 0 -152 20 -220 62l36 64c57 -41 115 -59 184 -59c52 0 80 8 109 30c33 25 49 58 49 98c0 61 -40 103 -123 128l-69 21c-62 19 -95 33 -122 61c-28 30 -43 68 -43 112c0 117 89 197 222 197
c74 0 142 -22 207 -66l-36 -59c-66 43 -108 58 -167 58c-86 0 -137 -43 -137 -113c0 -55 33 -86 114 -112l79 -25c61 -19 93 -37 121 -69s45 -78 45 -121zM356 -138c0 -28 -11 -57 -31 -83c-16 -21 -43 -42 -68 -56l-23 35c32 15 51 41 55 73c0 0 -4 -1 -10 -1
c-25 0 -44 24 -44 52c0 33 25 59 57 59c38 0 64 -33 64 -79z" />
    <glyph glyph-name="scommaaccent" unicode="&#x219;" horiz-adv-x="481" 
d="M431 148c0 -97 -76 -163 -188 -163c-63 0 -132 19 -183 50l30 58c51 -31 103 -47 158 -47c61 0 101 33 101 86c0 45 -25 70 -82 82l-62 13c-82 17 -126 68 -126 137c0 90 73 153 177 153c52 0 110 -16 152 -40l-29 -58c-44 21 -81 36 -125 36c-57 0 -94 -33 -94 -82
c0 -38 19 -61 72 -72l66 -14c90 -19 133 -65 133 -139zM308 -138c0 -28 -11 -57 -31 -83c-16 -21 -43 -42 -68 -56l-23 35c32 15 51 41 55 73c0 0 -4 -1 -10 -1c-25 0 -44 24 -44 52c0 33 25 59 57 59c38 0 64 -33 64 -79z" />
    <glyph glyph-name="uni021A" unicode="&#x21a;" horiz-adv-x="464" 
d="M484 686l-5 -69h-186v-617h-79v617h-184v69h454zM318 -138c0 -28 -11 -57 -31 -83c-16 -21 -43 -42 -68 -56l-23 35c32 15 51 41 55 73c0 0 -4 -1 -10 -1c-25 0 -44 24 -44 52c0 33 25 59 57 59c38 0 64 -33 64 -79z" />
    <glyph glyph-name="uni021B" unicode="&#x21b;" horiz-adv-x="320" 
d="M305 498l-24 -59h-104v-321c0 -55 15 -74 64 -74c22 0 35 3 49 10l11 -50c-25 -13 -53 -20 -88 -20c-26 0 -46 5 -65 14c-35 17 -48 49 -48 99v342h-65v59h65c0 48 8 126 8 126l82 18s-10 -78 -10 -144h125zM251 -138c0 -28 -11 -57 -31 -83c-16 -21 -43 -42 -68 -56
l-23 35c32 15 51 41 55 73c0 0 -4 -1 -10 -1c-25 0 -44 24 -44 52c0 33 25 59 57 59c38 0 64 -33 64 -79z" />
    <glyph glyph-name="dotlessj" unicode="&#x237;" 
d="M175 10c0 -43 -3 -83 -14 -110c-19 -46 -55 -77 -102 -98l-39 52c69 30 75 76 75 163v477l80 16v-500z" />
    <glyph glyph-name="circumflex" unicode="&#x2c6;" horiz-adv-x="411" 
d="M376 605l-36 -44l-139 85l-135 -85l-31 44l170 135z" />
    <glyph glyph-name="caron" unicode="&#x2c7;" horiz-adv-x="411" 
d="M376 693l-170 -135l-171 135l36 44l139 -85l135 85z" />
    <glyph glyph-name="breve" unicode="&#x2d8;" horiz-adv-x="411" 
d="M376 693c-13 -19 -93 -115 -170 -115c-78 0 -157 96 -171 115l36 44c18 -17 76 -65 139 -65c54 0 119 52 135 65z" />
    <glyph glyph-name="dotaccent" unicode="&#x2d9;" horiz-adv-x="252" 
d="M187 652c0 -34 -27 -61 -61 -61s-61 27 -61 60c0 34 27 62 61 62s61 -27 61 -61z" />
    <glyph glyph-name="ring" unicode="&#x2da;" horiz-adv-x="300" 
d="M255 659c0 -58 -47 -106 -104 -106c-58 0 -106 48 -106 106s47 106 104 106s106 -48 106 -106zM210 659c0 32 -28 60 -62 60c-31 0 -57 -28 -57 -60s28 -60 60 -60c31 0 59 28 59 60z" />
    <glyph glyph-name="ogonek" unicode="&#x2db;" horiz-adv-x="290" 
d="M235 -173c-20 -11 -52 -24 -82 -24c-64 0 -98 41 -98 87c0 61 42 109 65 127l51 -29s-54 -42 -54 -92c0 -19 12 -36 36 -36c22 0 35 2 61 14z" />
    <glyph glyph-name="tilde" unicode="&#x2dc;" horiz-adv-x="395" 
d="M370 656c-33 -41 -62 -63 -121 -63c-61 0 -69 37 -127 37c-32 0 -48 -17 -69 -39l-28 45c33 41 61 63 120 63c61 0 69 -37 127 -37c32 0 49 17 70 39z" />
    <glyph glyph-name="hungarumlaut" unicode="&#x2dd;" horiz-adv-x="428" 
d="M202 722l-117 -198l-50 21l86 210zM393 703l-154 -173l-44 31l124 189z" />
    <glyph glyph-name="uni037E" unicode="&#x37e;" horiz-adv-x="320" 
d="M240 29c0 -35 -14 -71 -38 -103c-20 -26 -53 -52 -84 -69l-28 44c39 19 62 50 67 89c0 0 -4 -1 -11 -1c-30 0 -55 29 -55 64c0 40 31 72 70 72c46 0 79 -40 79 -96zM225 372c0 -38 -30 -69 -67 -69s-68 32 -68 71c0 35 30 64 67 64s68 -30 68 -66z" />
    <glyph glyph-name="tonos" unicode="&#x384;" horiz-adv-x="310" 
d="M225 760l-103 -196l-37 16l70 210z" />
    <glyph glyph-name="dieresistonos" unicode="&#x385;" horiz-adv-x="460" 
d="M405 621c0 -29 -23 -53 -51 -53c-29 0 -53 24 -53 53c0 28 23 51 52 51c28 0 52 -23 52 -51zM333 778l-103 -196l-37 16l70 210zM158 621c0 -29 -22 -53 -51 -53s-52 24 -52 53c0 28 23 51 51 51c29 0 52 -23 52 -51z" />
    <glyph glyph-name="Alphatonos" unicode="&#x386;" horiz-adv-x="583" 
d="M573 0h-93l-65 211h-256l-66 -211h-83l229 686h107zM103 668l-103 -196l-37 16l70 210zM394 278l-105 336l-108 -336h213z" />
    <glyph glyph-name="anoteleia" unicode="&#x387;" horiz-adv-x="301" 
d="M216 279c0 -36 -29 -66 -65 -66s-66 30 -66 66c0 37 29 66 65 66s66 -29 66 -66z" />
    <glyph glyph-name="Epsilontonos" unicode="&#x388;" horiz-adv-x="520" 
d="M480 0h-385v686h375l-11 -68h-281v-225h235v-71h-235v-251h302v-71zM13 668l-103 -196l-37 16l70 210z" />
    <glyph glyph-name="Etatonos" unicode="&#x389;" horiz-adv-x="641" 
d="M546 0h-82v332h-289v-332h-80v686h80v-287h289v287h82v-686zM13 668l-103 -196l-37 16l70 210z" />
    <glyph glyph-name="Iotatonos" unicode="&#x38a;" 
d="M13 668l-103 -196l-37 16l70 210zM175 0h-80v686h80v-686z" />
    <glyph glyph-name="Omicrontonos" unicode="&#x38c;" horiz-adv-x="681" 
d="M616 332c0 -132 -30 -215 -100 -279c-51 -46 -103 -66 -174 -66c-84 0 -149 34 -195 87c-54 62 -82 155 -82 272c0 218 104 352 273 352c119 0 183 -63 216 -112c43 -64 62 -144 62 -254zM63 668l-103 -196l-37 16l70 210zM524 320c0 101 -10 170 -33 218
c-24 51 -74 94 -153 94c-64 0 -121 -31 -147 -80c-24 -45 -35 -104 -35 -189c0 -103 17 -193 44 -239c26 -44 90 -74 146 -74s97 20 128 59c34 43 50 98 50 211z" />
    <glyph glyph-name="Upsilontonos" unicode="&#x38e;" horiz-adv-x="519" 
d="M524 686l-223 -419v-267h-85v272l-221 414h101l130 -262c19 -39 35 -77 35 -77l37 77l132 262h94zM-17 668l-103 -196l-37 16l70 210z" />
    <glyph glyph-name="Omegatonos" unicode="&#x38f;" horiz-adv-x="699" 
d="M634 341c0 -117 -47 -220 -127 -270h122l-13 -71h-197v71c69 39 123 104 123 258c0 101 -15 161 -38 209c-24 51 -77 94 -156 94c-64 0 -124 -31 -150 -80c-24 -45 -42 -95 -42 -180c0 -190 63 -259 125 -301v-71h-214l13 71h110c-80 62 -125 171 -125 284
c0 117 33 200 88 261c48 53 116 82 195 82c119 0 186 -63 219 -112c43 -64 67 -135 67 -245zM63 668l-103 -196l-37 16l70 210z" />
    <glyph glyph-name="iotadieresistonos" unicode="&#x390;" horiz-adv-x="262" 
d="M243 778l-103 -196l-37 16l70 210zM295 621c0 -29 -23 -53 -51 -53c-29 0 -53 24 -53 53c0 28 23 51 52 51c28 0 52 -23 52 -51zM78 621c0 -29 -22 -53 -51 -53s-52 24 -52 53c0 28 23 51 51 51c29 0 52 -23 52 -51zM222 1c-20 -9 -29 -11 -50 -11c-24 0 -44 7 -59 21
c-16 14 -24 35 -24 71v311c0 65 -12 102 -12 102l78 15s13 -42 13 -118v-292c0 -39 6 -50 28 -50c3 0 10 2 10 2z" />
    <glyph glyph-name="Alpha" unicode="&#x391;" horiz-adv-x="583" 
d="M573 0h-93l-65 211h-256l-66 -211h-83l229 686h107zM394 278l-105 336l-108 -336h213z" />
    <glyph glyph-name="Beta" unicode="&#x392;" horiz-adv-x="609" 
d="M544 188c0 -75 -40 -142 -107 -168c-37 -14 -63 -20 -165 -20h-177v686h99c136 0 169 -3 204 -15c70 -24 117 -87 117 -157c0 -71 -45 -125 -123 -150c42 -8 67 -18 90 -36c45 -34 62 -90 62 -140zM424 503c0 54 -31 96 -78 108c-19 5 -40 6 -75 6h-97v-226h119
c74 0 100 13 120 59c7 16 11 34 11 53zM458 195c0 60 -34 111 -83 121c-19 4 -46 7 -80 7h-121v-256h146c101 0 138 46 138 128z" />
    <glyph glyph-name="Gamma" unicode="&#x393;" horiz-adv-x="416" 
d="M441 686l-13 -68h-250v-618h-83v686h346z" />
    <glyph glyph-name="uni0394" unicode="&#x394;" horiz-adv-x="604" 
d="M583 70l-16 -70h-549v58l234 628h103zM490 70l-190 544l-195 -544h385z" />
    <glyph glyph-name="Epsilon" unicode="&#x395;" horiz-adv-x="520" 
d="M480 0h-385v686h375l-11 -68h-281v-225h235v-71h-235v-251h302v-71z" />
    <glyph glyph-name="Zeta" unicode="&#x396;" horiz-adv-x="518" 
d="M473 70l-21 -70h-407v63l293 489c26 43 44 66 44 66s-29 -1 -71 -1h-256l23 69h391v-70l-285 -481c-23 -39 -42 -66 -42 -66s28 1 59 1h272z" />
    <glyph glyph-name="Eta" unicode="&#x397;" horiz-adv-x="641" 
d="M546 0h-82v332h-289v-332h-80v686h80v-287h289v287h82v-686z" />
    <glyph glyph-name="Theta" unicode="&#x398;" horiz-adv-x="701" 
d="M636 332c0 -161 -87 -345 -284 -345c-203 0 -287 196 -287 359c0 212 114 352 283 352c212 0 288 -203 288 -366zM541 393c-11 111 -52 239 -193 239c-144 0 -185 -129 -191 -239h384zM544 320v2h-387c6 -117 43 -272 199 -272c154 0 188 158 188 270z" />
    <glyph glyph-name="Iota" unicode="&#x399;" 
d="M175 0h-80v686h80v-686z" />
    <glyph glyph-name="Kappa" unicode="&#x39a;" horiz-adv-x="556" 
d="M551 686l-276 -322l274 -364h-105l-262 363l264 323h105zM178 0h-83v686h83v-686z" />
    <glyph glyph-name="Lambda" unicode="&#x39b;" horiz-adv-x="565" 
d="M552 0h-93l-179 614l-185 -614h-82l217 686h107z" />
    <glyph glyph-name="Mu" unicode="&#x39c;" horiz-adv-x="806" 
d="M736 0h-82l-40 503c-3 43 -5 112 -5 116c-2 -6 -15 -65 -27 -107l-147 -512h-70l-136 487c-20 71 -33 125 -34 133c0 -5 -5 -91 -8 -132l-38 -488h-79l60 686h120l125 -448c18 -63 26 -113 27 -119c1 5 10 57 25 111l129 456h121z" />
    <glyph glyph-name="Nu" unicode="&#x39d;" horiz-adv-x="646" 
d="M551 0h-86l-220 420c-44 83 -78 165 -78 165s8 -98 9 -187l4 -398h-85v686h95l228 -438c34 -65 61 -137 64 -144c0 2 -8 111 -9 209l-3 373h81v-686z" />
    <glyph glyph-name="Xi" unicode="&#x39e;" horiz-adv-x="520" 
d="M470 686l-12 -74h-403v74h415zM422 397l-13 -75h-312l13 75h312zM480 0h-437l13 75h424v-75z" />
    <glyph glyph-name="Omicron" unicode="&#x39f;" horiz-adv-x="681" 
d="M616 332c0 -132 -30 -215 -100 -279c-51 -46 -103 -66 -174 -66c-84 0 -149 34 -195 87c-54 62 -82 155 -82 272c0 218 104 352 273 352c119 0 183 -63 216 -112c43 -64 62 -144 62 -254zM524 320c0 101 -10 170 -33 218c-24 51 -74 94 -153 94c-64 0 -121 -31 -147 -80
c-24 -45 -35 -104 -35 -189c0 -103 17 -193 44 -239c26 -44 90 -74 146 -74s97 20 128 59c34 43 50 98 50 211z" />
    <glyph glyph-name="Pi" unicode="&#x3a0;" horiz-adv-x="631" 
d="M536 0h-82v619h-279v-619h-80v686h441v-686z" />
    <glyph glyph-name="Rho" unicode="&#x3a1;" horiz-adv-x="548" 
d="M523 490c0 -70 -17 -122 -62 -163c-46 -41 -96 -54 -166 -54h-120v-273h-80v686h190c74 0 113 -8 150 -32c58 -38 88 -95 88 -164zM432 474c0 51 -12 85 -40 109s-65 34 -130 34h-87v-277h115c58 0 84 11 107 37c24 27 35 58 35 97z" />
    <glyph glyph-name="Sigma" unicode="&#x3a3;" horiz-adv-x="495" 
d="M455 686l-23 -68h-279l190 -236l-208 -311h317v-71h-407v63l206 313l-197 241l23 69h378z" />
    <glyph glyph-name="Tau" unicode="&#x3a4;" horiz-adv-x="464" 
d="M479 686l-5 -69h-186v-617h-79v617h-184v69h454z" />
    <glyph glyph-name="Upsilon" unicode="&#x3a5;" horiz-adv-x="519" 
d="M524 686l-223 -419v-267h-85v272l-221 414h101l130 -262c19 -39 35 -77 35 -77l37 77l132 262h94z" />
    <glyph glyph-name="Phi" unicode="&#x3a6;" horiz-adv-x="727" 
d="M679 339c0 -97 -33 -160 -103 -207c-50 -33 -102 -50 -171 -50v-82h-80v82c-84 0 -152 26 -198 66c-54 47 -79 116 -79 202c0 163 108 263 277 263v73h80v-73c118 0 181 -47 215 -85c42 -47 59 -106 59 -189zM587 332c0 67 -7 114 -30 146c-24 34 -73 62 -152 62v-387
c56 0 98 14 129 39c34 29 53 65 53 140zM325 153v387c-64 0 -122 -20 -148 -52c-24 -31 -38 -69 -38 -126c0 -69 14 -128 41 -159c26 -30 89 -50 145 -50z" />
    <glyph glyph-name="Chi" unicode="&#x3a7;" horiz-adv-x="546" 
d="M536 0h-99l-170 315l-161 -315h-96l203 368l-182 318h97l137 -254l131 254h96l-172 -312z" />
    <glyph glyph-name="Psi" unicode="&#x3a8;" horiz-adv-x="740" 
d="M675 411c0 -157 -105 -255 -265 -257v-154h-80v154c-134 2 -265 67 -265 268v264h80v-252c0 -110 29 -207 185 -209v461h80v-461c113 2 185 62 185 180v281h80v-275z" />
    <glyph glyph-name="uni03A9" unicode="&#x3a9;" horiz-adv-x="699" 
d="M634 341c0 -117 -47 -220 -127 -270h122l-13 -71h-197v71c69 39 123 104 123 258c0 101 -15 161 -38 209c-24 51 -77 94 -156 94c-64 0 -124 -31 -150 -80c-24 -45 -42 -95 -42 -180c0 -190 63 -259 125 -301v-71h-214l13 71h110c-80 62 -125 171 -125 284
c0 117 33 200 88 261c48 53 116 82 195 82c119 0 186 -63 219 -112c43 -64 67 -135 67 -245z" />
    <glyph glyph-name="Iotadieresis" unicode="&#x3aa;" 
d="M290 781c0 -29 -23 -53 -51 -53c-29 0 -53 24 -53 53c0 28 23 51 52 51c28 0 52 -23 52 -51zM83 781c0 -29 -22 -53 -51 -53s-52 24 -52 53c0 28 23 51 51 51c29 0 52 -23 52 -51zM175 0h-80v686h80v-686z" />
    <glyph glyph-name="Upsilondieresis" unicode="&#x3ab;" horiz-adv-x="519" 
d="M414 781c0 -29 -23 -53 -51 -53c-29 0 -53 24 -53 53c0 28 23 51 52 51c28 0 52 -23 52 -51zM207 781c0 -29 -22 -53 -51 -53s-52 24 -52 53c0 28 23 51 51 51c29 0 52 -23 52 -51zM524 686l-223 -419v-267h-85v272l-221 414h101l130 -262c19 -39 35 -77 35 -77l37 77
l132 262h94z" />
    <glyph glyph-name="alphatonos" unicode="&#x3ac;" horiz-adv-x="574" 
d="M395 760l-103 -196l-37 16l70 210zM514 42l-40 -56c-34 11 -59 38 -68 73c-48 -48 -90 -70 -147 -70c-46 0 -81 13 -114 41c-49 41 -80 103 -80 204c0 99 14 154 47 199c37 51 90 80 149 80c54 0 98 -22 141 -70c1 13 5 44 10 55h77s-15 -45 -15 -128v-206
c0 -81 3 -102 40 -122zM399 132v240c-27 43 -79 71 -127 71c-43 0 -81 -22 -101 -61c-17 -33 -23 -64 -23 -130c0 -109 22 -143 47 -166c21 -20 45 -30 83 -30c51 0 95 27 121 76z" />
    <glyph glyph-name="epsilontonos" unicode="&#x3ad;" horiz-adv-x="505" 
d="M385 760l-103 -196l-37 16l70 210zM459 49c-48 -40 -119 -62 -206 -62c-77 0 -191 27 -191 146c0 73 50 117 118 132c-66 17 -100 57 -100 109c0 77 76 140 181 140c75 0 139 -24 188 -69l-34 -45c-41 31 -95 52 -151 52c-62 0 -101 -33 -101 -76c0 -64 57 -85 108 -85
h58v-57h-56c-60 0 -126 -18 -126 -91c0 -67 65 -91 120 -91c69 0 123 15 162 47z" />
    <glyph glyph-name="etatonos" unicode="&#x3ae;" horiz-adv-x="556" 
d="M395 760l-103 -196l-37 16l70 210zM501 40l-40 -56c-27 9 -52 27 -64 53c-11 22 -15 44 -15 78v222c0 53 -4 66 -18 83c-11 13 -32 21 -55 21c-40 0 -102 -32 -138 -70v-371h-76v384c0 71 -19 105 -19 105l76 21s18 -37 18 -78c52 52 104 77 157 77c54 0 102 -29 122 -73
c8 -18 12 -38 12 -58v-216c0 -81 3 -102 40 -122z" />
    <glyph glyph-name="iotatonos" unicode="&#x3af;" horiz-adv-x="262" 
d="M245 760l-103 -196l-37 16l70 210zM222 1c-20 -9 -29 -11 -50 -11c-24 0 -44 7 -59 21c-16 14 -24 35 -24 71v311c0 65 -12 102 -12 102l78 15s13 -42 13 -118v-292c0 -39 6 -50 28 -50c3 0 10 2 10 2z" />
    <glyph glyph-name="upsilondieresistonos" unicode="&#x3b0;" horiz-adv-x="544" 
d="M447 621c0 -29 -23 -53 -51 -53c-29 0 -53 24 -53 53c0 28 23 51 52 51c28 0 52 -23 52 -51zM375 778l-103 -196l-37 16l70 210zM200 621c0 -29 -22 -53 -51 -53s-52 24 -52 53c0 28 23 51 51 51c29 0 52 -23 52 -51zM458 158c0 -97 -71 -174 -193 -174
c-123 0 -179 63 -179 161v349l77 15v-348c0 -74 21 -117 106 -117c70 0 112 36 112 118v331l77 13v-348z" />
    <glyph glyph-name="alpha" unicode="&#x3b1;" horiz-adv-x="574" 
d="M514 42l-40 -56c-34 11 -59 38 -68 73c-48 -48 -90 -70 -147 -70c-46 0 -81 13 -114 41c-49 41 -80 103 -80 204c0 99 14 154 47 199c37 51 90 80 149 80c54 0 98 -22 141 -70c1 13 5 44 10 55h77s-15 -45 -15 -128v-206c0 -81 3 -102 40 -122zM399 132v240
c-27 43 -79 71 -127 71c-43 0 -81 -22 -101 -61c-17 -33 -23 -64 -23 -130c0 -109 22 -143 47 -166c21 -20 45 -30 83 -30c51 0 95 27 121 76z" />
    <glyph glyph-name="beta" unicode="&#x3b2;" horiz-adv-x="565" 
d="M508 204c0 -94 -67 -217 -211 -217c-43 0 -95 22 -130 58v-238l-77 -15v696c0 137 52 210 197 210c111 0 184 -75 184 -171c0 -71 -34 -125 -109 -146c100 -23 146 -93 146 -177zM420 192c0 103 -55 148 -168 148h-14l15 58c85 0 133 39 133 119c0 65 -34 123 -110 123
c-69 0 -109 -41 -109 -141v-382c37 -42 81 -65 123 -65c90 0 130 76 130 140z" />
    <glyph glyph-name="gamma" unicode="&#x3b3;" horiz-adv-x="486" 
d="M461 498l-175 -498v-193l-79 -15v208l-129 399c-9 29 -18 41 -31 41c-9 0 -17 -2 -25 -7l-22 52c22 14 47 22 69 22c45 0 69 -27 81 -69l80 -266c9 -28 14 -47 19 -74h2c7 28 12 49 20 74l108 326h82z" />
    <glyph glyph-name="delta" unicode="&#x3b4;" horiz-adv-x="549" 
d="M489 241c0 -166 -89 -254 -214 -254c-137 0 -215 101 -215 265c0 150 79 246 210 246c-52 46 -100 86 -154 118l12 70h318l-11 -67h-206c59 -37 110 -79 156 -130c61 -66 104 -146 104 -248zM400 235c0 89 -13 199 -129 199c-110 0 -126 -93 -126 -169
c0 -70 12 -132 31 -163c18 -30 58 -50 101 -50c52 0 91 27 108 75c11 31 15 59 15 108z" />
    <glyph glyph-name="epsilon" unicode="&#x3b5;" horiz-adv-x="505" 
d="M459 49c-48 -40 -119 -62 -206 -62c-77 0 -191 27 -191 146c0 73 50 117 118 132c-66 17 -100 57 -100 109c0 77 76 140 181 140c75 0 139 -24 188 -69l-34 -45c-41 31 -95 52 -151 52c-62 0 -101 -33 -101 -76c0 -64 57 -85 108 -85h58v-57h-56c-60 0 -126 -18 -126 -91
c0 -67 65 -91 120 -91c69 0 123 15 162 47z" />
    <glyph glyph-name="zeta" unicode="&#x3b6;" horiz-adv-x="448" 
d="M443 686l-11 -66c-164 -109 -280 -265 -280 -432c0 -57 22 -109 119 -109h50c80 0 120 -51 120 -126c0 -66 -34 -107 -74 -161l-48 33c29 42 45 61 46 110c0 27 -12 65 -60 65h-57c-125 0 -183 78 -183 172c0 183 111 339 264 447h-248l11 67h351z" />
    <glyph glyph-name="eta" unicode="&#x3b7;" horiz-adv-x="556" 
d="M501 40l-40 -56c-27 9 -52 27 -64 53c-11 22 -15 44 -15 78v222c0 53 -4 66 -18 83c-11 13 -32 21 -55 21c-40 0 -102 -32 -138 -70v-371h-76v384c0 71 -19 105 -19 105l76 21s18 -37 18 -78c52 52 104 77 157 77c54 0 102 -29 122 -73c8 -18 12 -38 12 -58v-216
c0 -81 3 -102 40 -122z" />
    <glyph glyph-name="theta" unicode="&#x3b8;" horiz-adv-x="560" 
d="M490 339c0 -109 -15 -196 -53 -259c-37 -60 -96 -93 -157 -93c-63 0 -120 33 -157 95c-41 68 -53 151 -53 263c0 109 15 197 53 260c36 60 95 93 156 93c64 0 120 -33 158 -95c41 -68 53 -152 53 -264zM403 393c-3 74 -9 117 -22 154c-17 48 -48 87 -102 87
c-45 0 -75 -28 -95 -69s-27 -96 -29 -172h248zM405 322v9h-250c1 -99 9 -150 24 -193c17 -48 47 -87 101 -87c45 0 77 28 97 69c23 46 28 109 28 202z" />
    <glyph glyph-name="iota" unicode="&#x3b9;" horiz-adv-x="262" 
d="M222 1c-20 -9 -29 -11 -50 -11c-24 0 -44 7 -59 21c-16 14 -24 35 -24 71v311c0 65 -12 102 -12 102l78 15s13 -42 13 -118v-292c0 -39 6 -50 28 -50c3 0 10 2 10 2z" />
    <glyph glyph-name="kappa" unicode="&#x3ba;" horiz-adv-x="505" 
d="M488 0h-104l-218 269v-269h-78v393c0 65 -13 97 -13 97l78 20s13 -42 13 -118v-123l201 229h99l-208 -229z" />
    <glyph glyph-name="lambda" unicode="&#x3bb;" horiz-adv-x="493" 
d="M488 1c-20 -9 -29 -11 -50 -11c-35 0 -69 10 -86 68l-81 269l-31 105h-2s-15 -77 -30 -124l-102 -323l-77 26l107 312c24 70 44 147 50 179l32 -5l-20 62c-16 49 -44 105 -101 105c-23 0 -38 -4 -51 -10l-11 50c24 13 54 20 82 20c87 0 121 -62 162 -185l157 -473
c4 -12 13 -16 26 -16c4 0 7 1 10 2z" />
    <glyph glyph-name="uni03BC" unicode="&#x3bc;" horiz-adv-x="563" 
d="M507 32l-50 -53c-33 27 -47 47 -54 80c-38 -51 -90 -76 -158 -76c-25 0 -52 6 -67 19v-195l-78 -15v702l78 16v-359c0 -49 6 -66 29 -82c16 -11 40 -19 62 -19c49 0 100 36 127 90v353l77 13v-353c0 -66 3 -94 34 -121z" />
    <glyph glyph-name="nu" unicode="&#x3bd;" horiz-adv-x="473" 
d="M458 498l-187 -503h-77l-179 499l80 17l116 -343c14 -41 24 -85 24 -85h2s8 39 24 84l114 331h83z" />
    <glyph glyph-name="xi" unicode="&#x3be;" horiz-adv-x="482" 
d="M462 686l-11 -67h-147c-79 0 -115 -73 -115 -125c0 -56 46 -105 119 -105h99l-9 -56h-82c-109 0 -164 -64 -164 -140c0 -57 33 -118 127 -118h60c80 0 120 -47 120 -122c0 -66 -34 -107 -74 -161l-48 33c29 42 45 61 46 110c0 27 -12 65 -60 65h-67
c-113 0 -191 83 -191 177c0 87 66 164 141 186c-68 17 -103 75 -103 129c0 47 29 98 76 127h-98l11 67h370z" />
    <glyph glyph-name="omicron" unicode="&#x3bf;" horiz-adv-x="549" 
d="M489 241c0 -166 -89 -254 -214 -254c-137 0 -215 101 -215 265c0 162 81 261 212 261c83 0 137 -38 171 -87c31 -45 46 -104 46 -185zM400 235c0 70 -7 117 -23 150c-21 44 -65 64 -106 64c-44 0 -85 -21 -102 -54c-16 -31 -24 -71 -24 -130c0 -70 12 -132 31 -163
c18 -30 58 -50 101 -50c52 0 91 27 108 75c11 31 15 59 15 108z" />
    <glyph glyph-name="pi" unicode="&#x3c0;" horiz-adv-x="550" 
d="M520 498l-24 -62h-50v-274c0 -81 3 -102 40 -122l-40 -56c-27 9 -49 27 -61 53c-11 22 -15 44 -15 78v321h-183v-436h-76v436h-66v62h475z" />
    <glyph glyph-name="rho" unicode="&#x3c1;" horiz-adv-x="539" 
d="M479 250c0 -80 -12 -126 -40 -172c-36 -58 -89 -91 -154 -91c-51 0 -102 22 -137 58v-238l-78 -15v489c0 142 64 230 205 230c134 0 204 -96 204 -261zM396 240c0 129 -36 210 -132 210c-69 0 -116 -56 -116 -157v-176c37 -42 80 -65 122 -65c46 0 88 25 105 62
c15 32 21 70 21 126z" />
    <glyph glyph-name="sigma1" unicode="&#x3c2;" horiz-adv-x="451" 
d="M416 -47c0 -66 -34 -107 -74 -161l-48 33c29 42 46 61 46 110c0 57 -42 72 -89 78c-126 17 -191 82 -191 224c0 113 32 173 75 216c39 39 82 58 135 58c63 0 100 -24 136 -54l-43 -54c-35 29 -57 40 -95 40c-39 0 -76 -22 -94 -56c-19 -35 -28 -90 -28 -150
c0 -111 54 -138 122 -152c89 -18 148 -32 148 -132z" />
    <glyph glyph-name="sigma" unicode="&#x3c3;" horiz-adv-x="565" 
d="M537 498l-24 -62h-91c41 -42 67 -102 67 -195c0 -166 -89 -254 -214 -254c-137 0 -215 101 -215 265c0 148 79 246 213 246h264zM400 235c0 90 -9 201 -129 201c-110 0 -126 -83 -126 -171c0 -70 12 -132 31 -163c18 -30 58 -50 101 -50c52 0 91 27 108 75
c11 31 15 59 15 108z" />
    <glyph glyph-name="tau" unicode="&#x3c4;" horiz-adv-x="405" 
d="M377 498l-24 -59h-124v-321c0 -55 15 -74 64 -74c22 0 35 3 49 10l11 -50c-25 -13 -53 -20 -88 -20c-26 0 -46 5 -65 14c-35 17 -48 49 -48 99v342h-132v59h357z" />
    <glyph glyph-name="upsilon" unicode="&#x3c5;" horiz-adv-x="544" 
d="M458 158c0 -97 -71 -174 -193 -174c-123 0 -179 63 -179 161v349l77 15v-348c0 -74 21 -117 106 -117c70 0 112 36 112 118v331l77 13v-348z" />
    <glyph glyph-name="phi" unicode="&#x3c6;" horiz-adv-x="698" 
d="M639 241c0 -163 -100 -252 -248 -254v-180l-79 -15v195c-164 0 -253 100 -253 265c0 140 68 231 184 254v-66c-74 -22 -99 -75 -99 -175c0 -70 16 -132 41 -163c24 -29 70 -49 127 -50v459c20 1 51 2 71 2c99 0 160 -38 201 -87c37 -45 55 -104 55 -185zM551 235
c0 70 -9 117 -30 150c-27 42 -80 64 -130 64v-397c69 0 118 27 140 75c15 31 20 59 20 108z" />
    <glyph glyph-name="chi" unicode="&#x3c7;" horiz-adv-x="467" 
d="M462 0h-95l-135 212l-135 -212h-92l186 276l-154 222h96l99 -166l96 166h91l-148 -222z" />
    <glyph glyph-name="psi" unicode="&#x3c8;" horiz-adv-x="683" 
d="M601 201c0 -127 -78 -206 -220 -214v-180l-79 -15v195c-154 7 -220 85 -220 227v280l77 15v-303c0 -91 36 -145 143 -152v556c0 65 -12 102 -12 102l78 15s13 -42 13 -118v-555c99 5 143 45 143 143v297l77 15v-308z" />
    <glyph glyph-name="omega" unicode="&#x3c9;" horiz-adv-x="693" 
d="M633 192c0 -128 -60 -205 -168 -205c-48 0 -98 37 -118 98c-22 -62 -71 -98 -119 -98c-108 0 -168 77 -168 205c0 136 56 251 127 324l41 -22c-48 -72 -85 -170 -85 -276c0 -103 31 -163 88 -163c47 0 76 53 76 120v196h79v-196c0 -66 26 -120 76 -120c57 0 88 60 88 163
c0 107 -43 209 -84 274l37 27c70 -73 130 -191 130 -327z" />
    <glyph glyph-name="iotadieresis" unicode="&#x3ca;" horiz-adv-x="262" 
d="M262 621c0 -29 -23 -53 -51 -53c-29 0 -53 24 -53 53c0 28 23 51 52 51c28 0 52 -23 52 -51zM105 621c0 -29 -22 -53 -51 -53s-52 24 -52 53c0 28 23 51 51 51c29 0 52 -23 52 -51zM222 1c-20 -9 -29 -11 -50 -11c-24 0 -44 7 -59 21c-16 14 -24 35 -24 71v311
c0 65 -12 102 -12 102l78 15s13 -42 13 -118v-292c0 -39 6 -50 28 -50c3 0 10 2 10 2z" />
    <glyph glyph-name="upsilondieresis" unicode="&#x3cb;" horiz-adv-x="544" 
d="M426 621c0 -29 -23 -53 -51 -53c-29 0 -53 24 -53 53c0 28 23 51 52 51c28 0 52 -23 52 -51zM219 621c0 -29 -22 -53 -51 -53s-52 24 -52 53c0 28 23 51 51 51c29 0 52 -23 52 -51zM458 158c0 -97 -71 -174 -193 -174c-123 0 -179 63 -179 161v349l77 15v-348
c0 -74 21 -117 106 -117c70 0 112 36 112 118v331l77 13v-348z" />
    <glyph glyph-name="omicrontonos" unicode="&#x3cc;" horiz-adv-x="549" 
d="M395 760l-103 -196l-37 16l70 210zM489 241c0 -166 -89 -254 -214 -254c-137 0 -215 101 -215 265c0 162 81 261 212 261c83 0 137 -38 171 -87c31 -45 46 -104 46 -185zM400 235c0 70 -7 117 -23 150c-21 44 -65 64 -106 64c-44 0 -85 -21 -102 -54
c-16 -31 -24 -71 -24 -130c0 -70 12 -132 31 -163c18 -30 58 -50 101 -50c52 0 91 27 108 75c11 31 15 59 15 108z" />
    <glyph glyph-name="upsilontonos" unicode="&#x3cd;" horiz-adv-x="544" 
d="M385 760l-103 -196l-37 16l70 210zM458 158c0 -97 -71 -174 -193 -174c-123 0 -179 63 -179 161v349l77 15v-348c0 -74 21 -117 106 -117c70 0 112 36 112 118v331l77 13v-348z" />
    <glyph glyph-name="omegatonos" unicode="&#x3ce;" horiz-adv-x="693" 
d="M465 760l-103 -196l-37 16l70 210zM633 192c0 -128 -60 -205 -168 -205c-48 0 -98 37 -118 98c-22 -62 -71 -98 -119 -98c-108 0 -168 77 -168 205c0 136 56 251 127 324l41 -22c-48 -72 -85 -170 -85 -276c0 -103 31 -163 88 -163c47 0 76 53 76 120v196h79v-196
c0 -66 26 -120 76 -120c57 0 88 60 88 163c0 107 -43 209 -84 274l37 27c70 -73 130 -191 130 -327z" />
    <glyph glyph-name="beta1" unicode="&#x3d0;" horiz-adv-x="565" 
d="M513 204c0 -93 -66 -217 -208 -217c-51 0 -106 31 -133 67c-2 -21 -4 -34 -14 -54h-78c11 24 15 57 15 124v364c0 137 52 210 197 210c111 0 184 -75 184 -171c0 -71 -34 -125 -109 -146c100 -23 146 -93 146 -177zM425 192c0 103 -55 148 -168 148h-14l15 58
c85 0 133 39 133 119c0 65 -34 123 -110 123c-69 0 -109 -41 -109 -141v-382c37 -42 81 -65 123 -65c90 0 130 76 130 140z" />
    <glyph glyph-name="phi1" unicode="&#x3d5;" horiz-adv-x="704" 
d="M633 241c0 -159 -99 -248 -241 -254v-180l-79 -15v196c-152 8 -238 106 -238 264c0 155 89 252 238 260v98c0 65 -12 102 -12 102l78 15s13 -42 13 -118v-96c76 -3 143 -35 186 -87c37 -45 55 -104 55 -185zM545 235c0 70 -9 117 -30 150c-25 39 -76 61 -123 64v-397
c64 3 112 30 133 75c15 31 20 59 20 108zM313 53v395c-54 -4 -101 -23 -121 -53c-21 -31 -32 -71 -32 -130c0 -70 16 -132 41 -163c21 -26 63 -44 112 -49z" />
    <glyph glyph-name="afii10023" unicode="&#x401;" horiz-adv-x="520" 
d="M480 0h-385v686h375l-11 -70h-282v-223h236v-70h-236v-253h303v-70zM333 805c0 32 23 55 55 55s55 -23 55 -55s-23 -55 -55 -55s-55 23 -55 55zM131 805c0 32 23 55 55 55s55 -23 55 -55s-23 -55 -55 -55s-55 23 -55 55z" />
    <glyph glyph-name="afii10051" unicode="&#x402;" horiz-adv-x="660" 
d="M451 686l-4 -69h-195v-220c49 22 89 36 141 36c64 0 106 -24 130 -47c49 -46 58 -109 58 -168c0 -65 -7 -125 -55 -177c-33 -36 -71 -53 -121 -53c-33 0 -63 7 -96 25l19 63l14 -8c22 -13 46 -16 61 -16c35 -1 56 12 71 38c20 34 20 76 20 112c0 47 -1 92 -22 123
c-25 37 -65 43 -95 43c-41 0 -84 -11 -125 -33v-335h-82v617h-175v69h456z" />
    <glyph glyph-name="afii10052" unicode="&#x403;" horiz-adv-x="460" 
d="M95 686h367l-5 -70h-280v-616h-82v686zM408 829l-224 -100l-26 47l207 130z" />
    <glyph glyph-name="afii10053" unicode="&#x404;" horiz-adv-x="587" 
d="M415 389v-64h-257v-16c0 -47 2 -142 53 -199c25 -28 72 -58 146 -58c32 0 90 7 157 59l36 -62c-17 -12 -37 -24 -63 -35c-44 -18 -87 -26 -126 -26c-77 0 -148 27 -196 72c-52 49 -100 142 -100 288c0 62 8 183 87 268c33 36 96 82 199 82c39 0 116 -7 187 -62l-33 -54
c-53 38 -99 52 -155 52c-30 0 -92 -5 -137 -54c-35 -39 -55 -112 -55 -173v-18h257z" />
    <glyph glyph-name="afii10054" unicode="&#x405;" horiz-adv-x="577" 
d="M503 632l-36 -58c-26 18 -53 32 -77 41c-25 9 -52 16 -87 16c-39 0 -75 -8 -103 -31c-25 -21 -35 -47 -35 -81c0 -24 5 -45 24 -65c18 -20 48 -34 89 -47l79 -25c54 -17 91 -34 120 -68c23 -27 45 -69 45 -121c0 -56 -26 -120 -95 -164c-51 -33 -101 -41 -153 -41
c-58 0 -134 9 -219 62l36 64c63 -47 127 -59 187 -59c32 0 70 3 105 29c32 24 48 59 48 97c0 35 -14 61 -30 78c-26 28 -66 42 -92 50l-69 21c-49 15 -88 26 -121 60c-29 30 -43 67 -43 112c0 51 19 107 69 148c35 28 84 48 152 48c96 0 168 -39 206 -66z" />
    <glyph glyph-name="afii10055" unicode="&#x406;" horiz-adv-x="272" 
d="M177 0h-82v686h82v-686z" />
    <glyph glyph-name="afii10056" unicode="&#x407;" horiz-adv-x="281" 
d="M181 0h-82v686h82v-686zM291 785c0 -29 -23 -53 -51 -53c-29 0 -53 24 -53 53c0 28 23 51 52 51c28 0 52 -23 52 -51zM93 785c0 -29 -22 -53 -51 -53s-52 24 -52 53c0 28 23 51 51 51c29 0 52 -23 52 -51z" />
    <glyph glyph-name="afii10057" unicode="&#x408;" horiz-adv-x="279" 
d="M184 686v-569c0 -74 -2 -117 -25 -157c-20 -35 -56 -67 -116 -88l-40 51c35 14 66 39 82 67c14 24 17 54 17 125v571h82z" />
    <glyph glyph-name="afii10058" unicode="&#x409;" horiz-adv-x="894" 
d="M499 686v-278h101c43 0 119 -2 174 -40c38 -26 80 -78 80 -163c0 -70 -29 -126 -69 -159c-49 -39 -115 -46 -175 -46h-193v622h-171l-9 -165c-12 -213 -24 -358 -80 -417c-30 -32 -66 -39 -100 -43l-34 -4l-15 57l20 6c10 3 30 11 40 16c61 31 84 123 100 450l8 164h323z
M499 65h123c33 0 70 2 102 29c22 19 44 54 44 109c0 72 -36 105 -58 119c-34 21 -69 21 -105 21h-106v-278z" />
    <glyph glyph-name="afii10059" unicode="&#x40a;" horiz-adv-x="929" 
d="M534 686v-283h101c43 0 119 -2 174 -40c39 -27 80 -79 80 -158c0 -69 -29 -127 -69 -159c-49 -39 -115 -46 -175 -46h-193v338h-275v-338h-82v686h82v-283h275v283h82zM534 65h123c33 0 70 2 102 29c7 6 44 40 44 109c0 65 -35 99 -58 114c-34 21 -69 21 -105 21h-106
v-273z" />
    <glyph glyph-name="afii10060" unicode="&#x40b;" horiz-adv-x="656" 
d="M451 686l-4 -69h-195v-221c47 24 88 37 145 37c44 0 93 -10 127 -37c46 -38 52 -92 52 -126v-270h-82v270c0 95 -85 98 -107 98c-50 0 -93 -15 -135 -33v-335h-82v617h-175v69h456z" />
    <glyph glyph-name="afii10061" unicode="&#x40c;" horiz-adv-x="604" 
d="M541 694l16 -57l-33 -8c-10 -3 -25 -8 -32 -14c-5 -4 -17 -14 -25 -45l-27 -98c-7 -25 -13 -45 -30 -68c-14 -19 -29 -31 -47 -39v-2c12 -5 27 -13 41 -30c17 -21 27 -47 34 -73l39 -138c5 -18 7 -37 32 -50c9 -5 31 -13 40 -16l20 -6l-15 -57l-56 6c-48 5 -69 21 -82 37
c-18 23 -23 54 -30 87l-22 111c-2 11 -11 52 -33 73c-12 12 -33 24 -68 24h-86v-331h-82v686h82v-288h96c39 0 59 15 66 22c21 20 29 56 32 70l20 99c4 21 14 54 32 72c24 23 55 26 74 28zM427 829l-224 -100l-26 47l207 130z" />
    <glyph glyph-name="afii10062" unicode="&#x40e;" horiz-adv-x="479" 
d="M72 686l137 -345c13 -32 23 -57 36 -101c8 26 27 84 34 105l113 341h80l-174 -507c-9 -25 -18 -56 -35 -95c-11 -25 -24 -51 -49 -69c-30 -22 -71 -27 -93 -30l-29 -4l-15 58l20 5c10 3 32 11 43 16c18 9 33 22 43 36c11 15 24 46 30 66l10 32l-38 -3l-202 495h89z
M338 861l41 -30c-11 -23 -28 -46 -46 -60c-23 -18 -57 -31 -94 -31s-71 13 -94 31c-18 14 -35 37 -46 60l41 30c12 -16 25 -30 44 -41c18 -10 36 -14 55 -14s37 4 55 14c19 11 32 25 44 41z" />
    <glyph glyph-name="afii10145" unicode="&#x40f;" horiz-adv-x="618" 
d="M523 686v-686h-173v-182h-82v182h-173v686h82v-622h264v622h82z" />
    <glyph glyph-name="afii10017" unicode="&#x410;" horiz-adv-x="583" 
d="M573 0h-93l-65 211h-256l-66 -211h-83l229 686h107zM394 278l-105 336l-108 -336h213z" />
    <glyph glyph-name="afii10018" unicode="&#x411;" horiz-adv-x="599" 
d="M272 0h-177v686h387l-11 -70h-294v-214h113c47 0 123 -2 178 -41c45 -32 76 -90 76 -166c0 -64 -25 -111 -54 -139c-56 -55 -128 -56 -218 -56zM177 67h143c32 0 72 2 102 31c22 21 36 56 36 98c0 49 -17 90 -45 112c-34 27 -77 27 -118 27h-118v-268z" />
    <glyph glyph-name="afii10019" unicode="&#x412;" horiz-adv-x="609" 
d="M95 686h161c62 0 131 0 187 -38c42 -29 72 -78 72 -134c0 -31 -9 -73 -47 -108c-30 -28 -66 -39 -76 -42c32 -5 66 -18 90 -36c41 -31 62 -83 62 -140c0 -61 -25 -107 -54 -134c-55 -52 -129 -54 -218 -54h-177v686zM174 67h146c31 0 73 3 102 29c18 16 36 46 36 93
c0 58 -23 92 -45 109c-33 25 -79 25 -118 25h-121v-256zM174 390h119c22 0 64 -1 96 27c20 18 35 49 35 86c0 38 -16 70 -40 90c-36 29 -78 26 -113 26h-97v-229z" />
    <glyph glyph-name="afii10020" unicode="&#x413;" horiz-adv-x="460" 
d="M95 686h367l-5 -70h-280v-616h-82v686z" />
    <glyph glyph-name="afii10021" unicode="&#x414;" horiz-adv-x="613" 
d="M506 686v-622h70v-246h-80v182h-406v-182h-80v246h43c50 104 74 191 82 222c27 105 36 205 40 296l5 104h326zM249 622l-6 -93c-2 -34 -12 -168 -42 -276c-19 -67 -52 -146 -71 -189h294v558h-175z" />
    <glyph glyph-name="afii10022" unicode="&#x415;" horiz-adv-x="520" 
d="M480 0h-385v686h375l-11 -70h-282v-223h236v-70h-236v-253h303v-70z" />
    <glyph glyph-name="afii10024" unicode="&#x416;" horiz-adv-x="890" 
d="M830 694l16 -57l-33 -8c-10 -3 -25 -8 -32 -14c-5 -4 -17 -14 -25 -45l-27 -98c-7 -25 -13 -45 -30 -68c-14 -19 -29 -31 -47 -39v-2c12 -5 27 -13 41 -30c17 -21 27 -47 34 -73l39 -138c5 -18 7 -37 32 -50c9 -5 31 -13 40 -16l20 -6l-15 -57l-56 6c-48 5 -69 21 -82 37
c-18 23 -23 54 -30 87l-22 111c-2 11 -11 52 -33 73c-12 12 -33 24 -68 24h-66v-331h-82v331h-66c-35 0 -56 -12 -68 -24c-22 -21 -31 -62 -33 -73l-22 -111c-7 -33 -12 -64 -30 -87c-13 -16 -34 -32 -82 -37l-56 -6l-15 57l20 6c9 3 31 11 40 16c25 13 27 32 32 50l39 138
c7 26 17 52 34 73c14 17 29 25 41 30v2c-18 8 -33 20 -47 39c-17 23 -23 43 -30 68l-27 98c-8 31 -20 41 -25 45c-7 6 -22 11 -32 14l-33 8l16 57l44 -5c19 -2 50 -5 74 -28c18 -18 28 -51 32 -72l20 -99c3 -14 11 -50 32 -70c7 -7 27 -22 66 -22h76v288h82v-288h76
c39 0 59 15 66 22c21 20 29 56 32 70l20 99c4 21 14 54 32 72c24 23 55 26 74 28z" />
    <glyph glyph-name="afii10025" unicode="&#x417;" horiz-adv-x="547" 
d="M242 323h-88v64h75c33 0 74 3 105 32c29 27 33 60 33 91c0 29 -4 64 -31 91c-28 28 -67 33 -96 33c-53 0 -108 -16 -155 -57l-36 55c22 17 50 34 79 45c32 12 70 21 113 21c49 0 97 -8 139 -37c53 -37 72 -85 72 -141c0 -47 -13 -85 -47 -117c-21 -19 -47 -33 -75 -41
c8 -1 53 -9 89 -36c42 -31 63 -81 63 -132c0 -45 -13 -112 -88 -163c-41 -28 -88 -43 -155 -43c-111 0 -186 46 -209 62l36 60c67 -51 135 -58 173 -58c30 0 89 4 124 50c21 27 27 61 27 87c0 43 -8 80 -46 108c-35 26 -68 26 -102 26z" />
    <glyph glyph-name="afii10026" unicode="&#x418;" horiz-adv-x="667" 
d="M572 0h-82v476c0 22 2 93 5 131c-6 -23 -18 -55 -27 -72l-288 -535h-85v686h82v-485c0 -19 -3 -69 -8 -109c9 28 28 72 40 95l265 499h98v-686z" />
    <glyph glyph-name="afii10027" unicode="&#x419;" horiz-adv-x="667" 
d="M572 0h-82v476c0 22 2 93 5 131c-6 -23 -18 -55 -27 -72l-288 -535h-85v686h82v-485c0 -19 -3 -69 -8 -109c9 28 28 72 40 95l265 499h98v-686zM436 861l42 -30c-4 -8 -19 -38 -47 -60c-24 -18 -60 -31 -97 -31s-73 13 -97 31c-28 22 -43 52 -47 60l42 30
c11 -15 29 -32 45 -41c15 -9 35 -14 57 -14s42 5 57 14c16 9 34 26 45 41z" />
    <glyph glyph-name="afii10028" unicode="&#x41a;" horiz-adv-x="604" 
d="M541 694l16 -57l-33 -8c-10 -3 -25 -8 -32 -14c-5 -4 -17 -14 -25 -45l-27 -98c-7 -25 -13 -45 -30 -68c-14 -19 -29 -31 -47 -39v-2c12 -5 27 -13 41 -30c17 -21 27 -47 34 -73l39 -138c5 -18 7 -37 32 -50c9 -5 31 -13 40 -16l20 -6l-15 -57l-56 6c-48 5 -69 21 -82 37
c-18 23 -23 54 -30 87l-22 111c-2 11 -11 52 -33 73c-12 12 -33 24 -68 24h-86v-331h-82v686h82v-288h96c39 0 59 15 66 22c21 20 29 56 32 70l20 99c4 21 14 54 32 72c24 23 55 26 74 28z" />
    <glyph glyph-name="afii10029" unicode="&#x41b;" horiz-adv-x="599" 
d="M246 622l-9 -165c-12 -213 -24 -358 -80 -417c-30 -32 -66 -39 -100 -43l-34 -4l-15 57l20 6c10 3 30 11 40 16c61 31 84 123 100 450l8 164h328v-686h-82v622h-176z" />
    <glyph glyph-name="afii10030" unicode="&#x41c;" horiz-adv-x="805" 
d="M133 686h117l122 -448c15 -57 27 -116 29 -126h2c6 28 20 93 27 118l127 456h118l60 -686h-78l-40 503l-3 45c-2 24 -3 49 -5 73h-2l-28 -109l-144 -512h-70l-170 621h-2c-1 -42 -3 -95 -6 -133l-41 -488h-76z" />
    <glyph glyph-name="afii10031" unicode="&#x41d;" horiz-adv-x="642" 
d="M547 0h-82v332h-288v-332h-82v686h82v-287h288v287h82v-686z" />
    <glyph glyph-name="afii10032" unicode="&#x41e;" horiz-adv-x="682" 
d="M341 698c60 0 140 -19 199 -92c32 -40 77 -118 77 -263s-45 -223 -77 -263c-59 -73 -139 -92 -199 -92s-140 19 -199 92c-32 40 -77 118 -77 263s45 223 77 263c59 73 139 92 199 92zM341 634c-62 0 -111 -26 -144 -82c-18 -30 -40 -87 -40 -209s22 -179 40 -209
c33 -56 82 -82 144 -82s111 26 144 82c18 30 40 87 40 209s-22 179 -40 209c-33 56 -82 82 -144 82z" />
    <glyph glyph-name="afii10033" unicode="&#x41f;" horiz-adv-x="626" 
d="M531 0h-82v622h-272v-622h-82v686h436v-686z" />
    <glyph glyph-name="afii10034" unicode="&#x420;" horiz-adv-x="550" 
d="M95 686h192c63 0 106 -3 150 -32c78 -50 88 -123 88 -164c0 -51 -10 -116 -62 -163c-57 -52 -124 -54 -166 -54h-120v-273h-82v686zM177 340h115c66 0 90 18 107 37c21 23 35 50 35 100c0 51 -15 84 -40 106c-33 29 -79 34 -130 34h-87v-277z" />
    <glyph glyph-name="afii10035" unicode="&#x421;" horiz-adv-x="573" 
d="M494 99l44 -55c-65 -42 -135 -56 -191 -56c-102 0 -166 53 -200 92c-52 60 -82 149 -82 261c0 119 39 209 93 269c62 68 135 88 199 88c37 0 105 -7 169 -56l-44 -53c-50 37 -96 43 -130 43c-67 0 -130 -29 -169 -121c-25 -59 -29 -117 -29 -182c0 -38 1 -93 22 -145
c20 -51 73 -129 184 -129c30 0 80 4 134 44z" />
    <glyph glyph-name="afii10036" unicode="&#x422;" horiz-adv-x="460" 
d="M462 686l-5 -69h-186v-617h-82v617h-184v69h457z" />
    <glyph glyph-name="afii10037" unicode="&#x423;" horiz-adv-x="479" 
d="M72 686l137 -345c13 -32 23 -57 36 -101c8 26 27 84 34 105l113 341h80l-174 -507c-9 -25 -18 -56 -35 -95c-11 -25 -24 -51 -49 -69c-30 -22 -71 -27 -93 -30l-29 -4l-15 58l20 5c10 3 32 11 43 16c18 9 33 22 43 36c11 15 24 46 30 66l10 32l-38 -3l-202 495h89z" />
    <glyph glyph-name="afii10038" unicode="&#x424;" horiz-adv-x="722" 
d="M402 0h-82v111h-16c-70 0 -127 22 -163 52c-70 59 -76 157 -76 205s6 146 76 205c36 30 93 52 163 52h16v101h82v-101h16c70 0 127 -22 163 -52c70 -59 76 -157 76 -205s-6 -146 -76 -205c-36 -30 -93 -52 -163 -52h-16v-111zM400 568v-400h16c36 0 79 5 112 37
c46 44 45 109 45 163s1 119 -45 163c-33 32 -76 37 -112 37h-16zM322 568h-16c-36 0 -79 -5 -112 -37c-46 -44 -45 -109 -45 -163s-1 -119 45 -163c33 -32 76 -37 112 -37h16v400z" />
    <glyph glyph-name="afii10039" unicode="&#x425;" horiz-adv-x="546" 
d="M536 0h-99l-170 315l-161 -315h-96l203 368l-182 318h97l137 -254l131 254h96l-172 -312z" />
    <glyph glyph-name="afii10040" unicode="&#x426;" horiz-adv-x="646" 
d="M95 686h82v-622h272v622h82v-622h70v-246h-82v182h-424v686z" />
    <glyph glyph-name="afii10041" unicode="&#x427;" horiz-adv-x="600" 
d="M505 0h-82v308c-50 -23 -102 -33 -156 -33c-30 0 -98 3 -143 48c-24 24 -44 62 -44 118v245h82v-235c0 -18 1 -61 33 -88c24 -20 64 -24 86 -24c48 0 90 10 142 30v317h82v-686z" />
    <glyph glyph-name="afii10042" unicode="&#x428;" horiz-adv-x="848" 
d="M95 686h80v-624h209v624h80v-624h209v624h80v-686h-658v686z" />
    <glyph glyph-name="afii10043" unicode="&#x429;" horiz-adv-x="868" 
d="M753 62h70v-244h-80v182h-648v686h80v-624h209v624h80v-624h209v624h80v-624z" />
    <glyph glyph-name="afii10044" unicode="&#x42a;" horiz-adv-x="676" 
d="M279 408h103c43 0 119 -2 174 -40c38 -26 80 -78 80 -163c0 -70 -29 -126 -69 -159c-49 -39 -115 -46 -175 -46h-195v621h-196l-6 65h284v-278zM279 65h125c33 0 70 2 102 29c22 19 44 54 44 109c0 72 -36 105 -58 119c-34 21 -69 21 -105 21h-108v-278z" />
    <glyph glyph-name="afii10045" unicode="&#x42b;" horiz-adv-x="809" 
d="M177 686v-278h103c43 0 119 -2 174 -40c38 -26 80 -78 80 -163c0 -70 -29 -126 -69 -159c-49 -39 -115 -46 -175 -46h-195v686h82zM177 62h120c37 0 88 5 122 43c22 26 33 65 33 98c0 65 -29 100 -58 118c-35 22 -76 25 -109 25h-108v-284zM714 686v-686h-82v686h82z" />
    <glyph glyph-name="afii10046" unicode="&#x42c;" horiz-adv-x="574" 
d="M177 686v-278h103c43 0 119 -2 174 -40c38 -26 80 -78 80 -163c0 -70 -29 -126 -69 -159c-49 -39 -115 -46 -175 -46h-195v686h82zM177 65h125c33 0 70 2 102 29c22 19 44 54 44 109c0 72 -36 105 -58 119c-34 21 -69 21 -105 21h-108v-278z" />
    <glyph glyph-name="afii10047" unicode="&#x42d;" horiz-adv-x="587" 
d="M172 389h257v18c0 61 -20 134 -55 173c-45 49 -107 54 -137 54c-56 0 -102 -14 -155 -52l-33 54c71 55 148 62 187 62c103 0 166 -46 199 -82c79 -85 87 -206 87 -268c0 -146 -48 -239 -100 -288c-48 -45 -119 -72 -196 -72c-39 0 -82 8 -126 26c-26 11 -46 23 -63 35
l36 62c67 -52 125 -59 157 -59c74 0 121 30 146 58c51 57 53 152 53 199v16h-257v64z" />
    <glyph glyph-name="afii10048" unicode="&#x42e;" horiz-adv-x="891" 
d="M177 399h118c3 38 17 134 74 207c56 73 130 92 189 92c60 0 135 -19 192 -92c42 -53 76 -136 76 -263s-34 -210 -76 -263c-57 -73 -132 -92 -192 -92c-59 0 -133 19 -189 92c-49 63 -77 160 -76 252h-116v-332h-82v686h82v-287zM558 634c-80 0 -121 -47 -140 -81
c-31 -56 -36 -157 -36 -210s5 -154 36 -210c19 -34 60 -81 140 -81s121 47 140 81c31 56 36 157 36 210s-5 154 -36 210c-19 34 -60 81 -140 81z" />
    <glyph glyph-name="afii10049" unicode="&#x42f;" horiz-adv-x="616" 
d="M521 0h-82v310h-107c-35 0 -56 -12 -68 -24c-21 -20 -29 -55 -33 -73l-18 -90c-5 -27 -11 -63 -30 -87c-14 -17 -37 -32 -82 -37l-56 -6l-15 57l20 6c9 3 31 11 40 16c15 8 23 17 32 49l30 112c8 31 19 56 35 73c12 13 32 29 62 36v2c-34 4 -65 18 -86 35
c-36 29 -56 74 -56 121c0 50 21 109 67 144c45 34 96 42 174 42h173v-686zM438 622h-92c-26 0 -63 -3 -96 -22c-36 -21 -57 -55 -57 -107s29 -80 47 -93c37 -26 80 -26 112 -26h86v248z" />
    <glyph glyph-name="afii10065" unicode="&#x430;" horiz-adv-x="529" 
d="M472 37l-40 -56c-34 11 -59 38 -68 73c-55 -58 -107 -66 -144 -66c-101 0 -160 54 -160 141c0 55 22 100 71 133c58 38 138 46 194 46c13 0 24 0 34 -1v55c0 22 -2 41 -18 60c-19 22 -45 25 -65 25c-35 0 -68 -11 -89 -19c-25 -10 -47 -22 -70 -40l-39 56
c28 18 64 37 98 49c32 11 69 18 108 18c94 0 129 -45 141 -78c9 -26 11 -59 11 -87v-23l-4 -164c0 -13 -1 -26 -1 -37c0 -39 5 -68 41 -85zM354 123l3 130l-13 1c-8 1 -17 1 -27 1c-46 0 -108 -7 -139 -37c-28 -26 -31 -61 -31 -82c0 -36 11 -56 22 -67
c14 -14 36 -23 63 -23c45 0 95 25 122 77z" />
    <glyph glyph-name="afii10066" unicode="&#x431;" horiz-adv-x="555" 
d="M446 772l32 -65c-52 -29 -71 -36 -100 -49l-144 -65c-29 -13 -52 -29 -71 -62c-14 -23 -25 -57 -28 -88l-3 -31l5 -1c10 18 27 40 55 58c32 21 64 29 96 29c77 0 127 -35 153 -69c36 -46 54 -119 54 -187c0 -67 -17 -140 -57 -186c-32 -38 -89 -68 -158 -68
c-70 0 -125 30 -158 70c-55 66 -57 158 -57 226c0 124 10 198 33 252c24 59 68 108 146 143l134 60zM280 434c-62 0 -93 -39 -105 -62c-11 -20 -23 -56 -23 -130c0 -73 12 -109 23 -129c17 -30 51 -61 105 -61s88 31 105 61c11 20 23 56 23 129c0 74 -12 110 -23 130
c-12 23 -43 62 -105 62z" />
    <glyph glyph-name="afii10067" unicode="&#x432;" horiz-adv-x="519" 
d="M88 498h197c35 0 68 -3 100 -24c44 -29 51 -77 51 -104c0 -31 -10 -55 -28 -75c-9 -10 -25 -23 -49 -31c25 -5 51 -17 69 -36c22 -22 31 -50 31 -86c0 -53 -23 -85 -41 -102c-39 -36 -97 -40 -128 -40h-202v498zM166 231v-173h123c36 0 57 11 69 23c7 7 22 26 22 64
c0 22 -4 49 -29 68c-15 11 -38 18 -62 18h-123zM166 440v-153h117c21 0 46 9 60 24c9 10 18 26 18 52c0 31 -12 49 -23 59c-12 11 -31 18 -53 18h-119z" />
    <glyph glyph-name="afii10068" unicode="&#x433;" horiz-adv-x="386" 
d="M166 428v-428h-78v498h283l-11 -70h-194z" />
    <glyph glyph-name="afii10069" unicode="&#x434;" horiz-adv-x="518" 
d="M486 60v-203h-76v143h-312v-143h-76v203h36c56 102 81 210 84 346l2 92h280v-438h62zM346 438h-134l-3 -72c-4 -87 -21 -194 -76 -306h213v378z" />
    <glyph glyph-name="afii10070" unicode="&#x435;" horiz-adv-x="521" 
d="M466 235h-311v-11c0 -27 0 -72 23 -109c23 -38 69 -61 124 -61c28 0 78 6 122 47l30 -50c-48 -41 -106 -63 -168 -63c-86 0 -134 38 -162 71c-49 59 -59 126 -59 195c0 52 8 118 51 176c30 41 80 80 158 80c61 0 109 -25 135 -52c28 -28 40 -67 43 -76
c8 -28 14 -66 14 -135v-12zM155 295h228c1 30 -5 83 -23 111c-15 23 -47 44 -90 44c-42 0 -70 -18 -89 -48c-18 -28 -27 -73 -26 -107z" />
    <glyph glyph-name="afii10072" unicode="&#x436;" horiz-adv-x="674" 
d="M376 289h49c20 0 32 2 45 15c4 4 16 16 22 47l15 76c4 19 11 39 23 52c9 10 25 21 60 24l44 4l14 -50l-30 -7c-7 -2 -15 -4 -22 -11c-9 -9 -14 -23 -15 -28l-21 -75c-4 -14 -8 -34 -23 -50c-9 -10 -24 -19 -37 -24v-3c13 -5 24 -12 32 -21c16 -17 22 -35 27 -54l26 -94
c3 -11 9 -26 21 -33c4 -3 11 -5 29 -11l19 -6l-13 -49l-54 4c-18 1 -46 7 -64 30c-12 16 -18 36 -23 64l-13 75c-3 20 -7 35 -23 50c-18 16 -34 15 -46 15h-42v-229h-78v229h-42c-12 0 -28 1 -46 -15c-16 -15 -20 -30 -23 -50l-13 -75c-5 -28 -11 -48 -23 -64
c-18 -23 -46 -29 -64 -30l-54 -4l-13 49l19 6c18 6 25 8 29 11c12 7 18 22 21 33l26 94c5 19 11 37 27 54c8 9 19 16 32 21v3c-13 5 -28 14 -37 24c-15 16 -19 36 -23 50l-21 75c-1 5 -6 19 -15 28c-7 7 -15 9 -22 11l-30 7l14 50l44 -4c35 -3 51 -14 60 -24
c12 -13 19 -33 23 -52l15 -76c6 -31 18 -43 22 -47c13 -13 25 -15 45 -15h49v205l78 15v-220z" />
    <glyph glyph-name="afii10073" unicode="&#x437;" horiz-adv-x="446" 
d="M142 293h43c28 0 67 7 84 20c15 12 27 36 27 62c0 27 -14 44 -26 53c-18 13 -48 18 -71 18c-25 0 -52 -4 -73 -11c-17 -6 -35 -14 -50 -24l-29 55c21 13 42 22 68 30c28 8 59 14 94 14c45 0 89 -10 119 -32c31 -23 49 -59 49 -98c0 -25 -9 -52 -26 -72
c-15 -17 -42 -33 -68 -41c27 -6 55 -21 74 -39c16 -16 34 -42 34 -84c0 -75 -47 -112 -70 -126c-36 -22 -84 -30 -123 -30c-71 0 -131 25 -173 52l30 58c63 -43 117 -46 139 -46c44 0 70 12 85 26c12 11 26 31 26 65c0 32 -8 56 -33 72c-23 15 -54 18 -79 18h-51v60z" />
    <glyph glyph-name="afii10074" unicode="&#x438;" horiz-adv-x="560" 
d="M85 0v494l78 15v-308l-3 -108h3c16 39 32 71 51 102l181 303l80 11v-509h-78v297l3 106h-3c-16 -37 -31 -66 -51 -99l-181 -304h-80z" />
    <glyph glyph-name="afii10075" unicode="&#x439;" horiz-adv-x="560" 
d="M85 0v494l78 15v-308l-3 -108h3c16 39 32 71 51 102l181 303l80 11v-509h-78v297l3 106h-3c-16 -37 -31 -66 -51 -99l-181 -304h-80zM389 724l45 -33c-24 -53 -73 -99 -154 -99c-58 0 -118 23 -154 99l45 33c14 -23 29 -38 48 -49c21 -12 40 -14 61 -14c20 0 40 2 61 14
c18 11 38 32 48 49z" />
    <glyph glyph-name="afii10076" unicode="&#x43a;" horiz-adv-x="501" 
d="M85 0v494l78 15v-220h84c20 0 32 2 45 15c4 4 16 16 22 47l15 76c4 19 11 39 23 52c9 10 25 21 60 24l44 4l14 -50l-30 -7c-7 -2 -15 -4 -22 -11c-9 -9 -14 -23 -15 -28l-21 -75c-4 -14 -8 -34 -23 -50c-9 -10 -24 -19 -37 -24v-3c13 -5 24 -12 32 -21
c16 -17 22 -35 27 -54l26 -94c3 -11 9 -26 21 -33c4 -3 11 -5 29 -11l19 -6l-13 -49l-54 4c-18 1 -46 7 -64 30c-12 16 -18 36 -23 64l-13 75c-3 20 -7 35 -23 50c-18 16 -34 15 -46 15h-77v-229h-78z" />
    <glyph glyph-name="afii10077" unicode="&#x43b;" horiz-adv-x="506" 
d="M149 498h272v-498h-78v438h-129l-6 -77c-2 -32 -12 -115 -16 -147c-4 -35 -9 -66 -15 -96c-9 -45 -14 -74 -41 -97c-25 -22 -60 -26 -72 -27l-33 -3l-13 49l19 6c12 4 20 8 29 13c30 18 40 38 53 142c17 136 16 142 19 179z" />
    <glyph glyph-name="afii10078" unicode="&#x43c;" horiz-adv-x="667" 
d="M107 498h104l92 -286c7 -21 23 -72 30 -112c5 19 21 80 28 103l94 295h104l48 -498h-79l-29 338c-2 23 -3 77 -3 84h-4c-3 -27 -13 -64 -17 -76l-111 -346h-65l-109 342c-6 20 -18 65 -21 80h-4c-1 -48 -2 -59 -2 -63l-28 -359h-75z" />
    <glyph glyph-name="afii10079" unicode="&#x43d;" horiz-adv-x="542" 
d="M163 236v-236h-78v494l78 15v-213h216v198l78 15v-509h-78v236h-216z" />
    <glyph glyph-name="afii10080" unicode="&#x43e;" horiz-adv-x="550" 
d="M275 510c57 0 120 -25 158 -70c40 -47 57 -122 57 -191c0 -82 -21 -148 -57 -190c-39 -47 -100 -71 -158 -71s-119 24 -158 71c-36 42 -57 108 -57 190c0 69 17 144 57 191c38 45 101 70 158 70zM275 446c-62 0 -92 -39 -105 -63c-8 -15 -23 -50 -23 -134
s15 -119 23 -134c13 -24 43 -63 105 -63s92 39 105 63c8 15 23 50 23 134s-15 119 -23 134c-13 24 -43 63 -105 63z" />
    <glyph glyph-name="afii10081" unicode="&#x43f;" horiz-adv-x="531" 
d="M163 438v-438h-78v498h361v-498h-78v438h-205z" />
    <glyph glyph-name="afii10082" unicode="&#x440;" horiz-adv-x="569" 
d="M84 497l80 14c3 -25 5 -50 5 -76c40 53 97 75 147 75c77 0 117 -43 133 -64c39 -49 55 -112 55 -196c0 -45 -3 -114 -40 -172c-25 -40 -76 -90 -154 -90c-41 0 -96 15 -137 57v-238l-78 -15v598c0 45 -3 75 -11 107zM173 368v-251c26 -30 70 -65 122 -65
c47 0 86 24 105 62c20 41 21 99 21 117c0 81 -10 124 -23 151c-9 19 -32 58 -92 58c-48 0 -99 -25 -133 -72z" />
    <glyph glyph-name="afii10083" unicode="&#x441;" horiz-adv-x="469" 
d="M381 105l43 -50c-17 -18 -42 -39 -69 -51c-22 -10 -50 -16 -86 -16c-80 0 -125 33 -156 76c-29 41 -48 96 -48 177c0 108 35 176 79 217c45 43 93 53 132 53c33 0 85 -7 135 -54l-43 -54c-39 38 -76 40 -91 40c-19 0 -59 -3 -88 -42c-26 -34 -37 -90 -37 -168
c0 -44 4 -97 30 -136c26 -38 64 -46 92 -46c27 0 52 9 72 22c13 8 25 20 35 32z" />
    <glyph glyph-name="afii10084" unicode="&#x442;" horiz-adv-x="373" 
d="M222 434v-434h-78v434h-144v64h373l-7 -64h-144z" />
    <glyph glyph-name="afii10085" unicode="&#x443;" horiz-adv-x="459" 
d="M92 513l102 -323c12 -39 23 -85 30 -124h2l31 105l98 327h89l-171 -516c-14 -42 -32 -88 -59 -122c-25 -31 -55 -50 -89 -61l-13 -4l-23 53c27 7 51 22 66 39c11 12 29 38 45 99l4 15l-32 -5c-12 54 -39 147 -50 179l-107 312z" />
    <glyph glyph-name="afii10086" unicode="&#x444;" horiz-adv-x="724" 
d="M401 732v-260c29 27 66 40 93 40c43 0 90 -20 122 -65c28 -39 48 -102 48 -195c0 -53 -7 -131 -46 -191c-40 -63 -93 -75 -132 -75c-26 0 -55 7 -85 32v-215h-78v215c-30 -25 -59 -32 -85 -32c-39 0 -92 12 -132 75c-39 60 -46 138 -46 191c0 93 20 156 48 195
c32 45 79 65 122 65c27 0 64 -13 93 -40v245zM399 415v-339c26 -22 55 -30 79 -30c21 0 50 3 73 32c33 41 31 114 31 170c0 77 -1 134 -29 170c-13 17 -37 34 -71 34c-28 0 -60 -14 -83 -37zM325 76v339c-23 23 -55 37 -83 37c-34 0 -58 -17 -71 -34
c-28 -36 -29 -93 -29 -170c0 -56 -2 -129 31 -170c23 -29 52 -32 73 -32c24 0 53 8 79 30z" />
    <glyph glyph-name="afii10087" unicode="&#x445;" horiz-adv-x="467" 
d="M462 0h-95l-135 212l-135 -212h-92l186 276l-154 222h96l99 -166l96 166h91l-148 -222z" />
    <glyph glyph-name="afii10088" unicode="&#x446;" horiz-adv-x="556" 
d="M85 494l78 15v-449h198v434l78 15v-449h62v-207h-76v147h-340v494z" />
    <glyph glyph-name="afii10089" unicode="&#x447;" horiz-adv-x="503" 
d="M143 509v-189c0 -12 2 -38 26 -56c18 -13 49 -18 71 -18c32 0 70 5 100 20v228l78 15v-509h-78v207c-47 -17 -70 -21 -113 -21c-38 0 -95 7 -131 47c-30 33 -31 69 -31 100v161z" />
    <glyph glyph-name="afii10090" unicode="&#x448;" horiz-adv-x="738" 
d="M85 494l78 15v-451h167v436l78 15v-451h167v436l78 15v-509h-568v494z" />
    <glyph glyph-name="afii10091" unicode="&#x449;" horiz-adv-x="770" 
d="M85 494l78 15v-451h167v436l78 15v-451h167v436l78 15v-451h62v-205h-76v147h-554v494z" />
    <glyph glyph-name="afii10092" unicode="&#x44a;" horiz-adv-x="547" 
d="M229 306h75c40 0 108 -1 157 -44c35 -30 46 -67 46 -111c0 -42 -11 -82 -51 -114c-37 -30 -80 -37 -122 -37h-183v434h-144l-7 64h229v-192zM229 246v-186h93c36 0 60 13 73 24c21 18 30 42 30 68c0 33 -10 56 -28 71c-25 22 -56 23 -85 23h-83z" />
    <glyph glyph-name="afii10093" unicode="&#x44b;" horiz-adv-x="677" 
d="M163 509v-203h83c53 0 102 -8 141 -40c37 -30 50 -67 50 -115c0 -40 -11 -81 -52 -114c-42 -34 -90 -37 -115 -37h-185v494zM514 494l78 15v-509h-78v494zM163 246v-186h92c38 0 62 13 75 24c12 11 28 31 28 68c0 36 -13 58 -27 70c-26 23 -62 24 -89 24h-79z" />
    <glyph glyph-name="afii10094" unicode="&#x44c;" horiz-adv-x="487" 
d="M163 509v-203h75c48 0 114 -1 163 -44c35 -30 46 -67 46 -111c0 -42 -11 -82 -51 -114c-37 -30 -80 -37 -122 -37h-189v494zM162 246v-186h101c36 0 60 13 73 24c21 18 30 42 30 68c0 33 -10 56 -28 71c-25 22 -56 23 -85 23h-91z" />
    <glyph glyph-name="afii10095" unicode="&#x44d;" horiz-adv-x="478" 
d="M48 54l41 47c31 -36 73 -55 122 -55c20 0 56 3 83 31c28 29 37 82 37 122v35h-169v60h169v18c0 35 -10 78 -33 104c-16 18 -45 36 -91 36c-44 0 -78 -18 -104 -42l-42 46c51 47 115 54 150 54c44 0 94 -10 139 -56c37 -38 68 -102 68 -193c0 -131 -43 -189 -61 -209
c-46 -52 -101 -64 -150 -64s-107 12 -159 66z" />
    <glyph glyph-name="afii10096" unicode="&#x44e;" horiz-adv-x="720" 
d="M166 291h84c4 52 23 113 51 149c31 40 85 70 151 70c67 0 121 -30 153 -70c5 -7 55 -70 55 -191s-50 -184 -55 -191c-32 -40 -86 -70 -153 -70c-66 0 -120 30 -151 70s-52 113 -53 173h-82v-231h-78v494l78 15v-218zM452 450c-51 0 -83 -31 -99 -61
c-8 -15 -22 -50 -22 -140c0 -41 4 -103 22 -139c11 -22 40 -62 99 -62c52 0 83 31 99 61c8 15 22 50 22 140c0 95 -16 134 -29 153c-16 24 -47 48 -92 48z" />
    <glyph glyph-name="afii10097" unicode="&#x44f;" horiz-adv-x="516" 
d="M255 498h166v-498h-78v215h-68c-16 0 -33 0 -50 -15c-15 -13 -22 -32 -27 -49l-20 -68c-7 -25 -15 -47 -28 -62c-11 -12 -29 -24 -71 -27l-41 -3l-13 49l19 6c8 2 24 10 30 14c14 10 17 21 23 37l28 73c3 9 14 34 26 49c7 8 18 18 36 24v2c-26 3 -58 15 -79 36
c-20 20 -32 51 -32 79s8 70 49 103c42 34 87 35 130 35zM343 275v163h-87c-28 0 -59 -1 -79 -23c-12 -13 -19 -34 -19 -58c0 -26 6 -46 25 -61c23 -19 57 -21 81 -21h79z" />
    <glyph glyph-name="afii10071" unicode="&#x451;" horiz-adv-x="521" 
d="M466 235h-311v-11c0 -27 0 -72 23 -109c23 -38 69 -61 124 -61c28 0 78 6 122 47l30 -50c-48 -41 -106 -63 -168 -63c-86 0 -134 38 -162 71c-49 59 -59 126 -59 195c0 52 8 118 51 176c30 41 80 80 158 80c61 0 109 -25 135 -52c28 -28 40 -67 43 -76
c8 -28 14 -66 14 -135v-12zM155 295h228c1 30 -5 83 -23 111c-15 23 -47 44 -90 44c-42 0 -70 -18 -89 -48c-18 -28 -27 -73 -26 -107zM425 621c0 -29 -24 -53 -51 -53c-28 0 -53 25 -53 53c0 27 23 51 52 51c28 0 52 -24 52 -51zM218 621c0 -21 -16 -53 -51 -53
c-28 0 -52 24 -52 53c0 27 24 51 51 51c28 0 52 -24 52 -51z" />
    <glyph glyph-name="afii10099" unicode="&#x452;" horiz-adv-x="568" 
d="M173 611h179l-23 -58h-156v-56c0 -16 -2 -48 -3 -68c38 34 98 74 166 74c128 0 137 -101 137 -151v-267c0 -112 -9 -166 -26 -200c-15 -30 -47 -66 -95 -83l-39 52c94 37 82 134 82 236v249c0 40 -4 94 -77 94c-62 0 -116 -46 -145 -79v-354h-78v553h-60v58h60v119
l78 -13v-106z" />
    <glyph glyph-name="afii10100" unicode="&#x453;" horiz-adv-x="386" 
d="M166 428v-428h-78v498h283l-11 -70h-194zM363 665l-224 -100l-26 47l207 130z" />
    <glyph glyph-name="afii10101" unicode="&#x454;" horiz-adv-x="478" 
d="M389 101l41 -47c-52 -54 -110 -66 -159 -66s-104 12 -150 64c-18 20 -61 78 -61 209c0 91 31 155 68 193c45 46 95 56 139 56c35 0 99 -7 150 -54l-42 -46c-26 24 -60 42 -104 42c-46 0 -75 -18 -91 -36c-23 -26 -33 -69 -33 -104v-18h169v-60h-169v-35
c0 -40 9 -93 37 -122c27 -28 63 -31 83 -31c49 0 91 19 122 55z" />
    <glyph glyph-name="afii10102" unicode="&#x455;" horiz-adv-x="481" 
d="M227 301l66 -14c28 -6 70 -18 99 -48c20 -21 34 -51 34 -91c0 -54 -22 -90 -48 -114c-38 -35 -85 -49 -140 -49c-26 0 -101 3 -183 50l30 58c47 -30 106 -47 158 -47c29 0 57 7 79 29c14 15 22 34 22 59c0 19 -4 37 -21 53c-16 15 -41 23 -61 27l-62 13
c-14 3 -57 13 -88 43c-28 27 -38 62 -38 94c0 46 21 91 62 120c27 19 64 33 115 33c63 0 117 -21 152 -40l-29 -58c-59 29 -95 36 -125 36c-20 0 -48 -3 -69 -23c-14 -13 -25 -34 -25 -62c0 -17 4 -32 18 -45c15 -14 39 -21 54 -24z" />
    <glyph glyph-name="afii10103" unicode="&#x456;" horiz-adv-x="271" 
d="M176 0h-78v496l78 13v-509zM198 652c0 -33 -28 -61 -61 -61s-61 27 -61 60s28 62 61 62s61 -28 61 -61z" />
    <glyph glyph-name="afii10104" unicode="&#x457;" horiz-adv-x="271" 
d="M176 0h-81v496l81 13v-509zM84 621c0 -28 -22 -53 -51 -53c-28 0 -53 24 -53 53c0 27 25 51 52 51c28 0 52 -24 52 -51zM291 621c0 -29 -24 -53 -51 -53c-28 0 -53 25 -53 53c0 27 23 51 52 51c28 0 52 -24 52 -51z" />
    <glyph glyph-name="afii10105" unicode="&#x458;" 
d="M175 510v-500c0 -31 0 -74 -14 -110c-15 -39 -51 -76 -102 -98l-39 52c76 27 77 97 77 163v477zM196 652c0 -33 -28 -61 -61 -61s-61 28 -61 61s28 61 61 61s61 -28 61 -61z" />
    <glyph glyph-name="afii10106" unicode="&#x459;" horiz-adv-x="733" 
d="M415 306h69c48 0 114 -1 163 -44c35 -30 46 -67 46 -111c0 -42 -11 -82 -51 -114c-37 -30 -80 -37 -122 -37h-183v438h-123l-7 -77c-4 -45 -7 -82 -15 -147c-4 -31 -8 -60 -15 -96c-9 -45 -14 -74 -41 -97c-25 -22 -60 -26 -72 -27l-33 -3l-13 49l19 6c12 4 20 8 29 13
c30 18 40 38 53 142c17 136 16 142 19 179l11 118h266v-192zM415 246v-186h94c36 0 60 13 73 24c21 18 30 42 30 68c0 33 -10 56 -28 71c-25 22 -56 23 -85 23h-84z" />
    <glyph glyph-name="afii10107" unicode="&#x45a;" horiz-adv-x="769" 
d="M451 301h69c73 0 122 -8 163 -43c35 -29 46 -62 46 -107c0 -42 -11 -82 -51 -114c-37 -30 -80 -37 -122 -37h-183v241h-210v-241h-78v494l78 15v-208h210v193l78 15v-208zM451 241v-181h94c36 0 60 13 73 24c21 18 30 42 30 68c0 27 -7 50 -28 67c-25 20 -56 22 -85 22
h-84z" />
    <glyph glyph-name="afii10108" unicode="&#x45b;" horiz-adv-x="568" 
d="M473 0h-78v339c0 27 1 53 -19 74c-17 18 -41 20 -58 20c-28 0 -53 -10 -75 -22c-27 -15 -52 -36 -70 -57v-354h-78v553h-60v58h60v119l78 -13v-106h188l-23 -58h-165v-56c0 -16 -2 -48 -3 -68c38 34 98 74 166 74c41 0 81 -15 106 -42c31 -34 31 -74 31 -109v-352z" />
    <glyph glyph-name="afii10109" unicode="&#x45c;" horiz-adv-x="501" 
d="M85 0v494l78 15v-220h84c20 0 32 2 45 15c4 4 16 16 22 47l15 76c4 19 11 39 23 52c9 10 25 21 60 24l44 4l14 -50l-30 -7c-7 -2 -15 -4 -22 -11c-9 -9 -14 -23 -15 -28l-21 -75c-4 -14 -8 -34 -23 -50c-9 -10 -24 -19 -37 -24v-3c13 -5 24 -12 32 -21
c16 -17 22 -35 27 -54l26 -94c3 -11 9 -26 21 -33c4 -3 11 -5 29 -11l19 -6l-13 -49l-54 4c-18 1 -46 7 -64 30c-12 16 -18 36 -23 64l-13 75c-3 20 -7 35 -23 50c-18 16 -34 15 -46 15h-77v-229h-78zM375 665l-224 -100l-26 47l207 130z" />
    <glyph glyph-name="afii10110" unicode="&#x45e;" horiz-adv-x="459" 
d="M92 513l102 -323c12 -39 23 -85 30 -124h2l31 105l98 327h89l-171 -516c-14 -42 -32 -88 -59 -122c-25 -31 -55 -50 -89 -61l-13 -4l-23 53c27 7 51 22 66 39c11 12 29 38 45 99l4 15l-32 -5c-12 54 -39 147 -50 179l-107 312zM339 724l45 -33c-24 -53 -73 -99 -154 -99
c-58 0 -118 23 -154 99l45 33c14 -23 29 -38 48 -49c21 -12 40 -14 61 -14c20 0 40 2 61 14c18 11 38 32 48 49z" />
    <glyph glyph-name="afii10193" unicode="&#x45f;" horiz-adv-x="526" 
d="M163 60h200v438h78v-498h-140v-147h-76v147h-140v498h78v-438z" />
    <glyph glyph-name="afii10050" unicode="&#x490;" horiz-adv-x="477" 
d="M95 686h291v116h76v-184h-285v-618h-82v686z" />
    <glyph glyph-name="afii10098" unicode="&#x491;" horiz-adv-x="400" 
d="M166 428v-428h-78v498h224v99h73v-169h-219z" />
    <glyph glyph-name="endash" unicode="&#x2013;" horiz-adv-x="595" 
d="M540 250h-485v59h485v-59z" />
    <glyph glyph-name="emdash" unicode="&#x2014;" horiz-adv-x="822" 
d="M767 250h-712v59h712v-59z" />
    <glyph glyph-name="afii00208" unicode="&#x2015;" horiz-adv-x="822" 
d="M767 250h-712v59h712v-59z" />
    <glyph glyph-name="quoteleft" unicode="&#x2018;" 
d="M215 667c-39 -19 -62 -50 -67 -89c5 1 7 1 11 1c30 0 55 -29 55 -64c0 -40 -31 -72 -70 -72c-46 0 -79 40 -79 96c0 35 14 71 38 103c20 26 53 52 84 69z" />
    <glyph glyph-name="quoteright" unicode="&#x2019;" 
d="M205 602c0 -35 -14 -71 -38 -103c-20 -26 -53 -52 -84 -69l-28 44c39 19 62 50 67 89c-5 -1 -7 -1 -11 -1c-30 0 -55 29 -55 64c0 40 31 72 70 72c46 0 79 -40 79 -96z" />
    <glyph glyph-name="quotesinglbase" unicode="&#x201a;" 
d="M205 29c0 -35 -14 -71 -38 -103c-20 -26 -53 -52 -84 -69l-28 44c39 19 62 50 67 89c-5 -1 -7 -1 -11 -1c-30 0 -55 29 -55 64c0 40 31 72 70 72c46 0 79 -40 79 -96z" />
    <glyph glyph-name="quotedblleft" unicode="&#x201c;" horiz-adv-x="467" 
d="M412 667c-39 -19 -62 -50 -67 -89c5 1 7 1 11 1c30 0 55 -29 55 -64c0 -40 -31 -72 -70 -72c-46 0 -79 40 -79 96c0 35 14 71 38 103c20 26 53 52 84 69zM215 667c-39 -19 -62 -50 -67 -89c5 1 7 1 11 1c30 0 55 -29 55 -64c0 -40 -31 -72 -70 -72c-46 0 -79 40 -79 96
c0 35 14 71 38 103c20 26 53 52 84 69z" />
    <glyph glyph-name="quotedblright" unicode="&#x201d;" horiz-adv-x="467" 
d="M402 602c0 -35 -14 -71 -38 -103c-20 -26 -53 -52 -84 -69l-28 44c39 19 62 50 67 89c-5 -1 -7 -1 -11 -1c-30 0 -55 29 -55 64c0 40 31 72 70 72c46 0 79 -40 79 -96zM205 602c0 -35 -14 -71 -38 -103c-20 -26 -53 -52 -84 -69l-28 44c39 19 62 50 67 89
c-5 -1 -7 -1 -11 -1c-30 0 -55 29 -55 64c0 40 31 72 70 72c46 0 79 -40 79 -96z" />
    <glyph glyph-name="quotedblbase" unicode="&#x201e;" horiz-adv-x="468" 
d="M403 29c0 -35 -14 -71 -38 -103c-20 -26 -53 -52 -84 -69l-28 44c39 19 62 50 67 89c-5 -1 -7 -1 -11 -1c-30 0 -55 29 -55 64c0 40 31 72 70 72c46 0 79 -40 79 -96zM205 29c0 -35 -14 -71 -38 -103c-20 -26 -53 -52 -84 -69l-28 44c39 19 62 50 67 89
c-5 -1 -7 -1 -11 -1c-30 0 -55 29 -55 64c0 40 31 72 70 72c46 0 79 -40 79 -96z" />
    <glyph glyph-name="dagger" unicode="&#x2020;" horiz-adv-x="476" 
d="M441 524l-10 -69h-150v-455h-79v455h-157v69h157v162h79v-162h160z" />
    <glyph glyph-name="daggerdbl" unicode="&#x2021;" horiz-adv-x="489" 
d="M444 524l-10 -69h-150v-224h157v-69h-157v-162h-79v162h-160l10 69h150v224h-157v69h157v162h79v-162h160z" />
    <glyph glyph-name="bullet" unicode="&#x2022;" horiz-adv-x="524" 
d="M439 354c0 -98 -79 -177 -177 -177s-177 79 -177 177s79 177 177 177s177 -79 177 -177z" />
    <glyph glyph-name="ellipsis" unicode="&#x2026;" horiz-adv-x="744" 
d="M669 56c0 -38 -30 -69 -66 -69c-38 0 -68 31 -68 69c0 37 29 66 66 66c38 0 68 -29 68 -66zM439 56c0 -38 -30 -69 -66 -69c-38 0 -68 31 -68 69c0 37 29 66 66 66c38 0 68 -29 68 -66zM209 56c0 -38 -30 -69 -66 -69c-38 0 -68 31 -68 69c0 37 29 66 66 66
c38 0 68 -29 68 -66z" />
    <glyph glyph-name="perthousand" unicode="&#x2030;" horiz-adv-x="1228" 
d="M1183 156c0 -102 -61 -166 -161 -166s-161 66 -161 172s60 170 160 170c111 0 162 -72 162 -176zM813 156c0 -102 -61 -166 -161 -166s-161 66 -161 172s60 170 160 170c111 0 162 -72 162 -176zM367 515c0 -102 -61 -166 -161 -166s-161 66 -161 172s60 170 160 170
c111 0 162 -72 162 -176zM633 686l-335 -686h-66l335 686h66zM746 152c0 59 -11 125 -96 125c-64 0 -91 -39 -91 -107c0 -82 25 -125 96 -125c57 0 91 37 91 107zM1116 152c0 59 -11 125 -96 125c-64 0 -91 -39 -91 -107c0 -82 25 -125 96 -125c57 0 91 37 91 107zM300 511
c0 59 -11 125 -96 125c-64 0 -91 -39 -91 -107c0 -82 25 -125 96 -125c57 0 91 37 91 107z" />
    <glyph glyph-name="guilsinglleft" unicode="&#x2039;" horiz-adv-x="318" 
d="M263 62l-55 -36l-143 214l143 214l55 -36l-117 -178z" />
    <glyph glyph-name="guilsinglright" unicode="&#x203a;" horiz-adv-x="318" 
d="M253 240l-143 -214l-55 36l117 178l-117 178l55 36z" />
    <glyph glyph-name="fraction" unicode="&#x2044;" horiz-adv-x="303" 
d="M448 763l-527 -917h-66l527 917h66z" />
    <glyph glyph-name="uni2070" unicode="&#x2070;" horiz-adv-x="345" 
d="M320 456c0 -118 -58 -206 -150 -206c-109 0 -145 129 -145 211c0 105 64 199 146 199c111 0 149 -120 149 -204zM247 456c0 41 -2 64 -12 92c-13 38 -37 56 -63 56c-19 0 -39 -14 -54 -43c-13 -24 -20 -57 -20 -102c0 -41 5 -75 12 -95c14 -39 39 -60 62 -60
c21 0 46 19 60 50c11 24 15 59 15 102z" />
    <glyph glyph-name="uni2074" unicode="&#x2074;" horiz-adv-x="343" 
d="M318 331h-49c0 -4 1 -8 1 -12v-60l-67 -18v77c0 4 1 9 1 13h-179v47l146 275h75c-26 -50 -94 -185 -145 -269l7 1h96l-1 6c-2 10 1 19 2 32l8 108l57 17v-155l-1 -8h49v-54z" />
    <glyph glyph-name="uni2075" unicode="&#x2075;" horiz-adv-x="300" 
d="M275 385c0 -50 -32 -100 -80 -123c-29 -14 -69 -23 -103 -23c-19 0 -28 1 -53 7l-14 58c34 -14 39 -14 58 -14c69 0 121 42 121 94c0 15 -6 29 -14 40c-12 17 -30 25 -66 25c-28 0 -57 -5 -88 -19l22 218h199l-11 -57h-127l-8 -91c12 1 17 2 29 2c46 0 83 -12 108 -41
c18 -21 27 -49 27 -76z" />
    <glyph glyph-name="uni2076" unicode="&#x2076;" horiz-adv-x="337" 
d="M312 384c0 -76 -62 -134 -142 -134c-89 0 -145 68 -145 165c0 64 19 111 60 157c46 52 101 84 176 105l18 -46c-39 -12 -49 -17 -71 -30c-45 -27 -81 -64 -98 -115c22 13 49 21 73 21c32 0 60 -10 85 -30c31 -24 44 -52 44 -93zM238 383c0 24 -5 39 -17 51
c-11 12 -30 19 -48 19c-23 0 -47 -9 -71 -26c-1 -10 -1 -15 -1 -24c0 -44 11 -99 69 -99c41 0 68 28 68 79z" />
    <glyph glyph-name="uni2077" unicode="&#x2077;" horiz-adv-x="337" 
d="M312 648l-14 -60c-39 -54 -78 -107 -109 -165c-38 -72 -58 -126 -63 -156c0 0 0 -3 -2 -12l-80 -19c10 47 13 60 29 96c37 84 96 191 157 260c-10 0 -21 -1 -33 -1h-172l17 57h270z" />
    <glyph glyph-name="uni2078" unicode="&#x2078;" horiz-adv-x="339" 
d="M314 372c0 -36 -17 -68 -47 -91c-27 -21 -58 -31 -98 -31c-81 0 -144 48 -144 115c0 48 30 81 72 102c-36 21 -58 52 -58 88c0 32 20 67 47 84c20 13 56 20 90 20c72 0 125 -37 125 -96c0 -45 -31 -75 -70 -94c45 -20 83 -44 83 -97zM245 361c0 14 -5 27 -13 35
c-12 12 -32 23 -82 45c-32 -17 -57 -35 -57 -73c0 -39 30 -65 79 -65c45 0 73 24 73 58zM235 559c0 28 -22 48 -65 48c-42 0 -65 -20 -65 -48c0 -35 43 -53 71 -64c45 23 59 43 59 64z" />
    <glyph glyph-name="uni2079" unicode="&#x2079;" horiz-adv-x="357" 
d="M332 512c0 -67 -32 -139 -83 -192c-29 -30 -61 -51 -105 -69c-34 -14 -46 -16 -81 -20l-38 45c42 5 51 7 73 16c52 22 101 56 131 106l3 5c-17 -7 -35 -10 -53 -10c-75 0 -130 55 -130 129c0 78 63 138 144 138c38 0 70 -12 96 -38c29 -29 43 -63 43 -110zM260 512
c0 60 -30 94 -69 94c-40 0 -69 -32 -69 -84c0 -49 25 -76 63 -76c24 0 46 7 68 21c4 17 7 30 7 45z" />
    <glyph glyph-name="uni2080" unicode="&#x2080;" horiz-adv-x="345" 
d="M320 -54c0 -118 -58 -206 -150 -206c-109 0 -145 129 -145 211c0 105 64 199 146 199c111 0 149 -120 149 -204zM247 -54c0 41 -2 64 -12 92c-13 38 -37 56 -63 56c-19 0 -39 -14 -54 -43c-13 -24 -20 -57 -20 -102c0 -41 5 -75 12 -95c14 -39 39 -60 62 -60
c21 0 46 19 60 50c11 24 15 59 15 102z" />
    <glyph glyph-name="uni2081" unicode="&#x2081;" horiz-adv-x="285" 
d="M260 -250h-190v55h62v256c-28 -18 -59 -30 -90 -43l-17 41l124 83h51v-337h60v-55z" />
    <glyph glyph-name="uni2082" unicode="&#x2082;" horiz-adv-x="318" 
d="M293 -194l-15 -56h-247v40c27 18 55 42 93 83c66 70 90 115 90 153s-26 65 -62 65s-65 -22 -94 -39l-33 35c53 44 97 62 143 62c68 0 121 -50 121 -115c0 -67 -49 -121 -94 -167l-63 -62c7 0 14 1 21 1h140z" />
    <glyph glyph-name="uni2083" unicode="&#x2083;" horiz-adv-x="323" 
d="M298 -127c0 -56 -44 -101 -97 -123c-29 -12 -73 -20 -117 -20c-15 0 -19 0 -37 3l-17 51c27 -4 30 -4 45 -4c51 0 90 7 123 36c19 16 28 39 28 62c0 27 -17 48 -43 55c-16 4 -21 5 -70 5h-16v51h16c44 0 64 1 76 6c16 7 28 24 28 45c0 30 -24 52 -62 52s-67 -16 -97 -37
l-33 37c36 32 89 57 139 57c71 0 124 -42 124 -103c0 -37 -20 -67 -54 -84c38 -17 64 -47 64 -89z" />
    <glyph glyph-name="uni2084" unicode="&#x2084;" horiz-adv-x="343" 
d="M318 -179h-49c0 -4 1 -8 1 -12v-60l-67 -18v77c0 4 1 9 1 13h-179v47l146 275h75c-26 -50 -94 -185 -145 -269l7 1h96l-1 6c-2 10 1 19 2 32l8 108l57 17v-155l-1 -8h49v-54z" />
    <glyph glyph-name="uni2085" unicode="&#x2085;" horiz-adv-x="300" 
d="M275 -125c0 -50 -32 -100 -80 -123c-29 -14 -69 -23 -103 -23c-19 0 -28 1 -53 7l-14 58c34 -14 39 -14 58 -14c69 0 121 42 121 94c0 15 -6 29 -14 40c-12 17 -30 25 -66 25c-28 0 -57 -5 -88 -19l22 218h199l-11 -57h-127l-8 -91c12 1 17 2 29 2c46 0 83 -12 108 -41
c18 -21 27 -49 27 -76z" />
    <glyph glyph-name="uni2086" unicode="&#x2086;" horiz-adv-x="337" 
d="M312 -126c0 -76 -62 -134 -142 -134c-89 0 -145 68 -145 165c0 64 19 111 60 157c46 52 101 84 176 105l18 -46c-39 -12 -49 -17 -71 -30c-45 -27 -81 -64 -98 -115c22 13 49 21 73 21c32 0 60 -10 85 -30c31 -24 44 -52 44 -93zM238 -127c0 24 -5 39 -17 51
c-11 12 -30 19 -48 19c-23 0 -47 -9 -71 -26c-1 -10 -1 -15 -1 -24c0 -44 11 -99 69 -99c41 0 68 28 68 79z" />
    <glyph glyph-name="uni2087" unicode="&#x2087;" horiz-adv-x="337" 
d="M312 138l-14 -60c-39 -54 -78 -107 -109 -165c-38 -72 -58 -126 -63 -156c0 0 0 -3 -2 -12l-80 -19c10 47 13 60 29 96c37 84 96 191 157 260c-10 0 -21 -1 -33 -1h-172l17 57h270z" />
    <glyph glyph-name="uni2088" unicode="&#x2088;" horiz-adv-x="339" 
d="M314 -138c0 -36 -17 -68 -47 -91c-27 -21 -58 -31 -98 -31c-81 0 -144 48 -144 115c0 48 30 81 72 102c-36 21 -58 52 -58 88c0 32 20 67 47 84c20 13 56 20 90 20c72 0 125 -37 125 -96c0 -45 -31 -75 -70 -94c45 -20 83 -44 83 -97zM245 -149c0 14 -5 27 -13 35
c-12 12 -32 23 -82 45c-32 -17 -57 -35 -57 -73c0 -39 30 -65 79 -65c45 0 73 24 73 58zM235 49c0 28 -22 48 -65 48c-42 0 -65 -20 -65 -48c0 -35 43 -53 71 -64c45 23 59 43 59 64z" />
    <glyph glyph-name="uni2089" unicode="&#x2089;" horiz-adv-x="357" 
d="M332 2c0 -67 -32 -139 -83 -192c-29 -30 -61 -51 -105 -69c-34 -14 -46 -16 -81 -20l-38 45c42 5 51 7 73 16c52 22 101 56 131 106l3 5c-17 -7 -35 -10 -53 -10c-75 0 -130 55 -130 129c0 78 63 138 144 138c38 0 70 -12 96 -38c29 -29 43 -63 43 -110zM260 2
c0 60 -30 94 -69 94c-40 0 -69 -32 -69 -84c0 -49 25 -76 63 -76c24 0 46 7 68 21c4 17 7 30 7 45z" />
    <glyph glyph-name="Euro" unicode="&#x20ac;" horiz-adv-x="653" 
d="M598 27c-39 -21 -93 -38 -161 -38c-74 0 -147 31 -200 91c-37 42 -60 95 -72 154h-110v59h102c-1 16 -2 32 -2 48c0 11 0 21 1 32h-101v59h109c30 156 139 263 279 263c66 0 123 -21 143 -37l-14 -72c-41 30 -80 43 -130 43c-79 0 -136 -41 -169 -118
c-10 -23 -17 -49 -22 -79h269v-59h-275c-1 -14 -1 -28 -1 -44c0 -13 1 -25 1 -36h275v-59h-269c3 -18 8 -34 15 -50c35 -86 106 -128 184 -128c51 0 90 13 134 44z" />
    <glyph glyph-name="afii61352" unicode="&#x2116;" horiz-adv-x="921" 
d="M95 686h86l252 -492c12 -23 31 -71 39 -90c-4 54 -9 165 -9 209v373h78v-686h-86l-244 477c-14 27 -33 70 -45 97c5 -61 7 -117 7 -176v-398h-78v686zM885 523c0 -114 -65 -152 -129 -152c-79 0 -129 60 -129 159c0 113 64 156 127 156c60 0 131 -35 131 -163zM827 520
c0 55 -6 122 -73 122c-63 0 -72 -56 -72 -106c0 -33 0 -121 76 -121c69 0 69 75 69 105zM882 203h-251v52h251v-52z" />
    <glyph glyph-name="uni2117" unicode="&#x2117;" horiz-adv-x="874" 
d="M809 354c0 -212 -170 -372 -372 -372c-203 0 -372 160 -372 372s169 372 372 372c202 0 372 -160 372 -372zM743 354c0 180 -136 318 -306 318c-171 0 -306 -138 -306 -318s135 -318 306 -318c170 0 306 138 306 318zM596 444c0 -42 -11 -74 -39 -99s-59 -34 -100 -34
h-63v-161h-58v413h116c43 0 66 -3 89 -18c35 -23 55 -59 55 -101zM531 434c0 29 -6 48 -21 61s-35 18 -72 18h-44v-153h60c33 0 47 7 59 21c13 15 18 31 18 53z" />
    <glyph glyph-name="trademark" unicode="&#x2122;" horiz-adv-x="992" 
d="M897 274h-66v346h-2l-136 -346h-45l-136 346h-2v-346h-66v412h105l123 -313l123 313h102v-412zM361 620h-130v-346h-66v346h-130v66h326v-66z" />
    <glyph glyph-name="Omega" unicode="&#x2126;" horiz-adv-x="688" 
d="M633 0h-220v71c68 28 123 86 123 249c0 101 -15 155 -38 203c-24 51 -77 94 -156 94c-64 0 -124 -31 -150 -80c-24 -45 -42 -89 -42 -174c0 -196 61 -265 125 -292v-71h-220v71h129c-86 48 -125 158 -125 275s33 194 88 255c48 53 116 82 195 82c119 0 186 -63 219 -112
c43 -64 67 -129 67 -239c0 -123 -46 -219 -127 -261h132v-71z" />
    <glyph glyph-name="arrowleft" unicode="&#x2190;" horiz-adv-x="1162" 
d="M1137 275c0 -27 -21 -49 -48 -49s-49 22 -49 49s22 48 49 48s48 -21 48 -48zM992 275c0 -27 -21 -49 -48 -49s-49 22 -49 49s22 48 49 48s48 -21 48 -48zM847 275c0 -27 -21 -49 -48 -49s-49 22 -49 49s22 48 49 48s48 -21 48 -48zM371 635c0 -27 -21 -49 -48 -49
s-49 22 -49 49s22 48 49 48s48 -21 48 -48zM702 275c0 -27 -21 -49 -48 -49s-49 22 -49 49s22 48 49 48s48 -21 48 -48zM557 275c0 -27 -21 -49 -48 -49s-49 22 -49 49s22 48 49 48s48 -21 48 -48zM288 515c0 -27 -21 -49 -48 -49s-49 22 -49 49s22 48 49 48s48 -21 48 -48z
M412 275c0 -27 -21 -49 -48 -49s-49 22 -49 49s22 48 49 48s48 -21 48 -48zM205 395c0 -27 -21 -49 -48 -49s-49 22 -49 49s22 48 49 48s48 -21 48 -48zM267 275c0 -27 -21 -49 -48 -49s-49 22 -49 49s22 48 49 48s48 -21 48 -48zM122 275c0 -27 -21 -49 -48 -49
s-49 22 -49 49s22 48 49 48s48 -21 48 -48zM205 155c0 -27 -21 -49 -48 -49s-49 22 -49 49s22 48 49 48s48 -21 48 -48zM288 35c0 -27 -21 -49 -48 -49s-49 22 -49 49s22 48 49 48s48 -21 48 -48zM371 -85c0 -27 -21 -49 -48 -49s-49 22 -49 49s22 48 49 48s48 -21 48 -48z
" />
    <glyph glyph-name="arrowup" unicode="&#x2191;" horiz-adv-x="1162" 
d="M990 533c0 -27 -22 -48 -49 -48s-48 21 -48 48s21 49 48 49s49 -22 49 -49zM870 616c0 -27 -22 -48 -49 -48s-48 21 -48 48s21 49 48 49s49 -22 49 -49zM750 699c0 -27 -22 -48 -49 -48s-48 21 -48 48s21 49 48 49s49 -22 49 -49zM630 782c0 -27 -22 -48 -49 -48
s-48 21 -48 48s21 49 48 49s49 -22 49 -49zM630 637c0 -27 -22 -48 -49 -48s-48 21 -48 48s21 49 48 49s49 -22 49 -49zM510 699c0 -27 -22 -48 -49 -48s-48 21 -48 48s21 49 48 49s49 -22 49 -49zM630 492c0 -27 -22 -48 -49 -48s-48 21 -48 48s21 49 48 49s49 -22 49 -49z
M390 616c0 -27 -22 -48 -49 -48s-48 21 -48 48s21 49 48 49s49 -22 49 -49zM630 347c0 -27 -22 -48 -49 -48s-48 21 -48 48s21 49 48 49s49 -22 49 -49zM630 202c0 -27 -22 -48 -49 -48s-48 21 -48 48s21 49 48 49s49 -22 49 -49zM270 533c0 -27 -22 -48 -49 -48
s-48 21 -48 48s21 49 48 49s49 -22 49 -49zM630 57c0 -27 -22 -48 -49 -48s-48 21 -48 48s21 49 48 49s49 -22 49 -49zM630 -88c0 -27 -22 -48 -49 -48s-48 21 -48 48s21 49 48 49s49 -22 49 -49zM630 -233c0 -27 -22 -48 -49 -48s-48 21 -48 48s21 49 48 49s49 -22 49 -49z
" />
    <glyph glyph-name="arrowright" unicode="&#x2192;" horiz-adv-x="1162" 
d="M888 635c0 -27 -22 -49 -49 -49s-48 22 -48 49s21 48 48 48s49 -21 49 -48zM971 515c0 -27 -22 -49 -49 -49s-48 22 -48 49s21 48 48 48s49 -21 49 -48zM1054 395c0 -27 -22 -49 -49 -49s-48 22 -48 49s21 48 48 48s49 -21 49 -48zM1137 275c0 -27 -22 -49 -49 -49
s-48 22 -48 49s21 48 48 48s49 -21 49 -48zM992 275c0 -27 -22 -49 -49 -49s-48 22 -48 49s21 48 48 48s49 -21 49 -48zM1054 155c0 -27 -22 -49 -49 -49s-48 22 -48 49s21 48 48 48s49 -21 49 -48zM847 275c0 -27 -22 -49 -49 -49s-48 22 -48 49s21 48 48 48s49 -21 49 -48
zM971 35c0 -27 -22 -49 -49 -49s-48 22 -48 49s21 48 48 48s49 -21 49 -48zM702 275c0 -27 -22 -49 -49 -49s-48 22 -48 49s21 48 48 48s49 -21 49 -48zM557 275c0 -27 -22 -49 -49 -49s-48 22 -48 49s21 48 48 48s49 -21 49 -48zM888 -85c0 -27 -22 -49 -49 -49
s-48 22 -48 49s21 48 48 48s49 -21 49 -48zM412 275c0 -27 -22 -49 -49 -49s-48 22 -48 49s21 48 48 48s49 -21 49 -48zM267 275c0 -27 -22 -49 -49 -49s-48 22 -48 49s21 48 48 48s49 -21 49 -48zM122 275c0 -27 -22 -49 -49 -49s-48 22 -48 49s21 48 48 48s49 -21 49 -48z
" />
    <glyph glyph-name="arrowdown" unicode="&#x2193;" horiz-adv-x="1162" 
d="M630 783c0 -27 -22 -49 -49 -49s-48 22 -48 49s21 48 48 48s49 -21 49 -48zM630 638c0 -27 -22 -49 -49 -49s-48 22 -48 49s21 48 48 48s49 -21 49 -48zM630 493c0 -27 -22 -49 -49 -49s-48 22 -48 49s21 48 48 48s49 -21 49 -48zM990 17c0 -27 -22 -49 -49 -49
s-48 22 -48 49s21 48 48 48s49 -21 49 -48zM630 348c0 -27 -22 -49 -49 -49s-48 22 -48 49s21 48 48 48s49 -21 49 -48zM630 203c0 -27 -22 -49 -49 -49s-48 22 -48 49s21 48 48 48s49 -21 49 -48zM870 -66c0 -27 -22 -49 -49 -49s-48 22 -48 49s21 48 48 48s49 -21 49 -48z
M630 58c0 -27 -22 -49 -49 -49s-48 22 -48 49s21 48 48 48s49 -21 49 -48zM750 -149c0 -27 -22 -49 -49 -49s-48 22 -48 49s21 48 48 48s49 -21 49 -48zM630 -87c0 -27 -22 -49 -49 -49s-48 22 -48 49s21 48 48 48s49 -21 49 -48zM630 -232c0 -27 -22 -49 -49 -49
s-48 22 -48 49s21 48 48 48s49 -21 49 -48zM510 -149c0 -27 -22 -49 -49 -49s-48 22 -48 49s21 48 48 48s49 -21 49 -48zM390 -66c0 -27 -22 -49 -49 -49s-48 22 -48 49s21 48 48 48s49 -21 49 -48zM270 17c0 -27 -22 -49 -49 -49s-48 22 -48 49s21 48 48 48s49 -21 49 -48z
" />
    <glyph glyph-name="uni2196" unicode="&#x2196;" horiz-adv-x="1162" 
d="M975 -128c9 -9 14 -22 14 -34c0 -13 -5 -25 -15 -35s-22 -14 -34 -14s-25 4 -34 14c-10 10 -15 22 -15 35c0 12 5 25 14 34s22 14 35 14s25 -5 35 -14zM231 446c9 -9 14 -22 14 -34c0 -13 -5 -25 -15 -35s-22 -14 -34 -14s-25 4 -34 14c-10 10 -15 22 -15 35
c0 12 5 25 14 34s22 14 35 14s25 -5 35 -14zM359 418c-10 -10 -22 -14 -34 -14s-25 4 -34 14c-10 10 -15 22 -15 35c0 12 5 25 14 34s21 14 34 14c12 0 25 -5 35 -14c9 -10 14 -23 14 -35c0 -13 -5 -25 -14 -34zM769 8c-10 -10 -22 -14 -34 -14s-25 4 -34 14
c-10 10 -15 22 -15 35c0 12 5 25 14 34s21 14 34 14c12 0 25 -5 35 -14c9 -10 14 -23 14 -35c0 -13 -5 -25 -14 -34zM687 599c-10 -10 -22 -14 -34 -14s-25 4 -34 14c-10 10 -15 22 -15 35c0 12 5 25 14 34s21 14 34 14c12 0 25 -5 35 -14c9 -10 14 -23 14 -35
c0 -13 -5 -25 -14 -34zM564 213c-10 -10 -22 -14 -34 -14s-25 4 -34 14c-10 10 -15 22 -15 35c0 12 5 25 14 34s21 14 34 14c12 0 25 -5 35 -14c9 -10 14 -23 14 -35c0 -13 -5 -25 -14 -34zM178 90c-10 -10 -22 -14 -34 -14s-25 4 -34 14c-10 10 -15 22 -15 35
c0 12 5 25 14 34s21 14 34 14c12 0 25 -5 35 -14c9 -10 14 -23 14 -35c0 -13 -5 -25 -14 -34zM544 642c9 -9 14 -22 14 -34c0 -13 -5 -25 -15 -35s-22 -14 -34 -14s-25 4 -34 14c-10 9 -14 21 -14 34c0 12 4 25 14 35c9 9 21 14 34 14c12 0 25 -5 35 -14zM257 589
c9 -9 14 -21 14 -33c0 -13 -5 -25 -15 -35s-22 -14 -34 -14s-25 4 -34 14c-10 10 -15 22 -15 35c0 12 5 24 14 33s22 14 35 14s25 -5 35 -14zM204 234c-10 -10 -22 -14 -34 -14s-25 4 -34 14c-10 10 -15 22 -15 35c0 12 5 24 14 33s21 14 34 14c12 0 25 -5 35 -14
c9 -10 14 -22 14 -34s-5 -25 -14 -34zM400 547c-10 -10 -22 -14 -34 -14s-25 4 -34 14c-10 10 -15 22 -15 35c0 12 5 24 14 33s21 14 34 14c12 0 25 -5 35 -14c9 -10 14 -22 14 -34s-5 -25 -14 -34zM872 -26c9 -9 14 -21 14 -33c0 -13 -5 -25 -15 -35s-22 -14 -34 -14
s-25 4 -34 14c-10 9 -14 22 -14 34s4 24 14 34c9 9 21 14 34 14c12 0 25 -5 35 -14zM667 179c9 -9 14 -21 14 -33c0 -13 -5 -25 -15 -35s-22 -14 -34 -14s-25 4 -34 14c-10 9 -14 22 -14 34s4 24 14 34c9 9 21 14 34 14c12 0 25 -5 35 -14zM462 384c9 -9 14 -21 14 -33
c0 -13 -5 -25 -15 -35s-22 -14 -34 -14s-25 4 -34 14c-10 9 -14 22 -14 34s4 24 14 34c9 9 21 14 34 14c12 0 25 -5 35 -14z" />
    <glyph glyph-name="uni2197" unicode="&#x2197;" horiz-adv-x="1162" 
d="M923 446c9 -9 14 -22 14 -34c0 -13 -5 -25 -15 -35s-22 -14 -34 -14s-25 4 -34 14c-10 10 -15 22 -15 35c0 12 5 25 14 34s22 14 35 14s25 -5 35 -14zM179 -128c9 -9 14 -22 14 -34c0 -13 -5 -25 -15 -35s-22 -14 -34 -14s-25 4 -34 14c-10 10 -15 22 -15 35
c0 12 5 25 14 34s22 14 35 14s25 -5 35 -14zM609 573c-10 -10 -22 -14 -34 -14s-25 4 -34 14c-10 10 -15 22 -15 35c0 12 5 25 14 34s21 14 34 14c12 0 25 -5 35 -14c9 -10 14 -23 14 -35c0 -13 -5 -25 -14 -34zM794 487c9 -9 14 -22 14 -34c0 -13 -5 -25 -15 -35
s-22 -14 -34 -14s-25 4 -34 14c-10 9 -14 21 -14 34c0 12 4 25 14 35c9 9 21 14 34 14c12 0 25 -5 35 -14zM466 668c9 -9 14 -22 14 -34c0 -13 -5 -25 -15 -35s-22 -14 -34 -14s-25 4 -34 14c-10 9 -14 21 -14 34c0 12 4 25 14 35c9 9 21 14 34 14c12 0 25 -5 35 -14z
M975 159c9 -9 14 -22 14 -34c0 -13 -5 -25 -15 -35s-22 -14 -34 -14s-25 4 -34 14c-10 9 -14 21 -14 34c0 12 4 25 14 35c9 9 21 14 34 14c12 0 25 -5 35 -14zM589 282c9 -9 14 -22 14 -34c0 -13 -5 -25 -15 -35s-22 -14 -34 -14s-25 4 -34 14c-10 9 -14 21 -14 34
c0 12 4 25 14 35c9 9 21 14 34 14c12 0 25 -5 35 -14zM384 77c9 -9 14 -22 14 -34c0 -13 -5 -25 -15 -35s-22 -14 -34 -14s-25 4 -34 14c-10 9 -14 21 -14 34c0 12 4 25 14 35c9 9 21 14 34 14c12 0 25 -5 35 -14zM897 589c9 -9 14 -21 14 -33c0 -13 -5 -25 -15 -35
s-22 -14 -34 -14s-25 4 -34 14c-10 10 -15 22 -15 35c0 12 5 24 14 33s22 14 35 14s25 -5 35 -14zM691 316c-10 -10 -22 -14 -34 -14s-25 4 -34 14c-10 10 -15 22 -15 35c0 12 5 24 14 33s21 14 34 14c12 0 25 -5 35 -14c9 -10 14 -22 14 -34s-5 -25 -14 -34zM486 111
c-10 -10 -22 -14 -34 -14s-25 4 -34 14c-10 10 -15 22 -15 35c0 12 5 24 14 33s21 14 34 14c12 0 25 -5 35 -14c9 -10 14 -22 14 -34s-5 -25 -14 -34zM281 -94c-10 -10 -22 -14 -34 -14s-25 4 -34 14c-10 10 -15 22 -15 35c0 12 5 24 14 33s21 14 34 14c12 0 25 -5 35 -14
c9 -10 14 -22 14 -34s-5 -25 -14 -34zM949 302c9 -9 14 -21 14 -33c0 -13 -5 -25 -15 -35s-22 -14 -34 -14s-25 4 -34 14c-10 9 -14 22 -14 34s4 24 14 34c9 9 21 14 34 14c12 0 25 -5 35 -14zM753 615c9 -9 14 -21 14 -33c0 -13 -5 -25 -15 -35s-22 -14 -34 -14
s-25 4 -34 14c-10 9 -14 22 -14 34s4 24 14 34c9 9 21 14 34 14c12 0 25 -5 35 -14z" />
    <glyph glyph-name="uni2198" unicode="&#x2198;" horiz-adv-x="1162" 
d="M923 25c-10 -10 -22 -14 -35 -14s-26 4 -35 14c-9 9 -14 22 -14 34c0 13 5 25 15 35c9 9 22 14 34 14s24 -5 34 -14c10 -10 15 -22 15 -35c0 -12 -5 -25 -14 -34zM179 599c-10 -10 -22 -14 -35 -14s-26 4 -35 14c-9 9 -14 22 -14 34c0 13 5 25 15 35c9 9 22 14 34 14
s24 -5 34 -14c10 -10 15 -22 15 -35c0 -12 -5 -25 -14 -34zM609 -171c-10 -10 -23 -14 -35 -14c-13 0 -25 4 -34 14c-9 9 -14 22 -14 34c0 13 5 25 15 35c9 9 22 14 34 14s24 -5 34 -14c9 -10 14 -23 14 -35c0 -13 -5 -25 -14 -34zM466 -197c-10 -10 -23 -14 -35 -14
c-13 0 -25 4 -34 14c-10 9 -14 21 -14 34c0 12 4 25 14 35c9 9 22 14 34 14s24 -5 34 -14c10 -10 15 -22 15 -35c0 -12 -5 -25 -14 -34zM794 -16c-10 -10 -23 -14 -35 -14c-13 0 -25 4 -34 14c-10 9 -14 21 -14 34c0 12 4 25 14 35c9 9 22 14 34 14s24 -5 34 -14
c10 -10 15 -22 15 -35c0 -12 -5 -25 -14 -34zM589 189c-10 -10 -23 -14 -35 -14c-13 0 -25 4 -34 14c-10 9 -14 21 -14 34c0 12 4 25 14 35c9 9 22 14 34 14s24 -5 34 -14c10 -10 15 -22 15 -35c0 -12 -5 -25 -14 -34zM384 394c-10 -10 -23 -14 -35 -14c-13 0 -25 4 -34 14
c-10 9 -14 21 -14 34c0 12 4 25 14 35c9 9 22 14 34 14s24 -5 34 -14c10 -10 15 -22 15 -35c0 -12 -5 -25 -14 -34zM975 312c-10 -10 -23 -14 -35 -14c-13 0 -25 4 -34 14c-10 9 -14 21 -14 34c0 12 4 25 14 35c9 9 22 14 34 14s24 -5 34 -14c10 -10 15 -22 15 -35
c0 -12 -5 -25 -14 -34zM897 -118c-10 -10 -22 -14 -35 -14s-26 4 -35 14c-9 9 -14 21 -14 33c0 13 5 25 15 35c9 9 22 14 34 14s24 -5 34 -14c10 -10 15 -22 15 -35c0 -12 -5 -24 -14 -33zM486 292c-10 -10 -23 -14 -35 -14c-13 0 -25 4 -34 14c-9 9 -14 21 -14 33
c0 13 5 25 15 35c9 9 22 14 34 14s24 -5 34 -14c9 -10 14 -22 14 -34s-5 -25 -14 -34zM281 497c-10 -10 -23 -14 -35 -14c-13 0 -25 4 -34 14c-9 9 -14 21 -14 33c0 13 5 25 15 35c9 9 22 14 34 14s24 -5 34 -14c9 -10 14 -22 14 -34s-5 -25 -14 -34zM691 87
c-10 -10 -23 -14 -35 -14c-13 0 -25 4 -34 14c-9 9 -14 21 -14 33c0 13 5 25 15 35c9 9 22 14 34 14s24 -5 34 -14c9 -10 14 -22 14 -34s-5 -25 -14 -34zM949 169c-10 -10 -23 -14 -35 -14c-13 0 -25 4 -34 14c-10 9 -14 22 -14 34s4 24 14 34c9 9 22 14 34 14s24 -5 34 -14
c10 -10 15 -22 15 -35c0 -12 -5 -24 -14 -33zM753 -144c-10 -10 -23 -14 -35 -14c-13 0 -25 4 -34 14c-10 9 -14 22 -14 34s4 24 14 34c9 9 22 14 34 14s24 -5 34 -14c10 -10 15 -22 15 -35c0 -12 -5 -24 -14 -33z" />
    <glyph glyph-name="uni2199" unicode="&#x2199;" horiz-adv-x="1162" 
d="M975 599c-10 -10 -22 -14 -35 -14s-26 4 -35 14c-9 9 -14 22 -14 34c0 13 5 25 15 35c9 9 22 14 34 14s24 -5 34 -14c10 -10 15 -22 15 -35c0 -12 -5 -25 -14 -34zM231 25c-10 -10 -22 -14 -35 -14s-26 4 -35 14c-9 9 -14 22 -14 34c0 13 5 25 15 35c9 9 22 14 34 14
s24 -5 34 -14c10 -10 15 -22 15 -35c0 -12 -5 -25 -14 -34zM687 -197c-10 -10 -23 -14 -35 -14c-13 0 -25 4 -34 14c-9 9 -14 22 -14 34c0 13 5 25 15 35c9 9 22 14 34 14s24 -5 34 -14c9 -10 14 -23 14 -35c0 -13 -5 -25 -14 -34zM359 -16c-10 -10 -23 -14 -35 -14
c-13 0 -25 4 -34 14c-9 9 -14 22 -14 34c0 13 5 25 15 35c9 9 22 14 34 14s24 -5 34 -14c9 -10 14 -23 14 -35c0 -13 -5 -25 -14 -34zM564 189c-10 -10 -23 -14 -35 -14c-13 0 -25 4 -34 14c-9 9 -14 22 -14 34c0 13 5 25 15 35c9 9 22 14 34 14s24 -5 34 -14
c9 -10 14 -23 14 -35c0 -13 -5 -25 -14 -34zM769 394c-10 -10 -23 -14 -35 -14c-13 0 -25 4 -34 14c-9 9 -14 22 -14 34c0 13 5 25 15 35c9 9 22 14 34 14s24 -5 34 -14c9 -10 14 -23 14 -35c0 -13 -5 -25 -14 -34zM178 312c-10 -10 -23 -14 -35 -14c-13 0 -25 4 -34 14
c-9 9 -14 22 -14 34c0 13 5 25 15 35c9 9 22 14 34 14s24 -5 34 -14c9 -10 14 -23 14 -35c0 -13 -5 -25 -14 -34zM544 -171c-10 -10 -23 -14 -35 -14c-13 0 -25 4 -34 14c-10 9 -14 21 -14 34c0 12 4 25 14 35c9 9 22 14 34 14s24 -5 34 -14c10 -10 15 -22 15 -35
c0 -12 -5 -25 -14 -34zM257 -118c-10 -10 -22 -14 -35 -14s-26 4 -35 14c-9 9 -14 21 -14 33c0 13 5 25 15 35c9 9 22 14 34 14s24 -5 34 -14c10 -10 15 -22 15 -35c0 -12 -5 -24 -14 -33zM400 -144c-10 -10 -23 -14 -35 -14c-13 0 -25 4 -34 14c-9 9 -14 21 -14 33
c0 13 5 25 15 35c9 9 22 14 34 14s24 -5 34 -14c9 -10 14 -22 14 -34s-5 -25 -14 -34zM204 169c-10 -10 -23 -14 -35 -14c-13 0 -25 4 -34 14c-9 9 -14 21 -14 33c0 13 5 25 15 35c9 9 22 14 34 14s24 -5 34 -14c9 -10 14 -22 14 -34s-5 -25 -14 -34zM462 87
c-10 -10 -23 -14 -35 -14c-13 0 -25 4 -34 14c-10 9 -14 22 -14 34s4 24 14 34c9 9 22 14 34 14s24 -5 34 -14c10 -10 15 -22 15 -35c0 -12 -5 -24 -14 -33zM872 497c-10 -10 -23 -14 -35 -14c-13 0 -25 4 -34 14c-10 9 -14 22 -14 34s4 24 14 34c9 9 22 14 34 14
s24 -5 34 -14c10 -10 15 -22 15 -35c0 -12 -5 -24 -14 -33zM667 292c-10 -10 -23 -14 -35 -14c-13 0 -25 4 -34 14c-10 9 -14 22 -14 34s4 24 14 34c9 9 22 14 34 14s24 -5 34 -14c10 -10 15 -22 15 -35c0 -12 -5 -24 -14 -33z" />
    <glyph glyph-name="partialdiff" unicode="&#x2202;" horiz-adv-x="567" 
d="M502 240c0 -162 -91 -254 -216 -254c-121 0 -213 97 -213 224c0 122 84 204 200 204c76 0 117 -24 117 -24c-19 53 -57 109 -108 152c-63 54 -155 104 -227 111l40 48c80 -9 208 -65 287 -157c78 -90 120 -192 120 -304zM417 231c0 32 -8 81 -10 90
c-19 16 -78 33 -124 33c-76 0 -123 -51 -123 -146s53 -157 132 -157c80 0 125 71 125 180z" />
    <glyph glyph-name="Delta" unicode="&#x2206;" horiz-adv-x="624" 
d="M579 0h-534l221 588h88zM477 65l-169 446l-163 -446h332z" />
    <glyph glyph-name="product" unicode="&#x220f;" horiz-adv-x="685" 
d="M640 0h-221v70h69v507h-290v-507h69v-70h-222v70h73v507h-73v68h595v-68h-72v-507h72v-70z" />
    <glyph glyph-name="summation" unicode="&#x2211;" horiz-adv-x="484" 
d="M439 70l-21 -70h-373v63l265 281l-256 273l23 69h359l-23 -69h-264l257 -272l-269 -275h302z" />
    <glyph glyph-name="minus" unicode="&#x2212;" horiz-adv-x="595" 
d="M540 250h-485v59h485v-59z" />
    <glyph glyph-name="uni2219" unicode="&#x2219;" horiz-adv-x="301" 
d="M221 279c0 -36 -29 -66 -65 -66s-66 30 -66 66c0 37 29 66 65 66s66 -29 66 -66z" />
    <glyph glyph-name="radical" unicode="&#x221a;" horiz-adv-x="537" 
d="M532 695l-248 -695h-71l-149 439h-59v59h120l82 -252c20 -60 41 -133 44 -153c4 17 16 69 42 143l160 459h79z" />
    <glyph glyph-name="infinity" unicode="&#x221e;" horiz-adv-x="907" 
d="M872 262c0 -115 -94 -161 -178 -161c-58 0 -112 24 -156 55l-87 61l-84 -60c-53 -38 -103 -57 -160 -57c-70 0 -172 32 -172 154c0 115 95 162 179 162c56 0 113 -26 163 -60l81 -56l84 60c50 35 106 57 159 57c70 0 171 -33 171 -155zM395 255l-80 56
c-30 21 -64 35 -101 35c-76 0 -99 -51 -99 -91c0 -50 39 -90 99 -90c37 0 82 20 118 45zM792 261c0 50 -39 90 -99 90c-37 0 -83 -19 -118 -45l-62 -45l81 -55c30 -21 62 -36 99 -36c76 0 99 51 99 91z" />
    <glyph glyph-name="uni2224" unicode="&#x2224;" horiz-adv-x="301" 
d="M221 279c0 -36 -29 -66 -65 -66s-66 30 -66 66c0 37 29 66 65 66s66 -29 66 -66z" />
    <glyph glyph-name="logicaland" unicode="&#x2227;" horiz-adv-x="301" 
d="M221 279c0 -36 -29 -66 -65 -66s-66 30 -66 66c0 37 29 66 65 66s66 -29 66 -66z" />
    <glyph glyph-name="integral" unicode="&#x222b;" horiz-adv-x="232" 
d="M357 703l-28 -59c-11 9 -35 19 -56 19c-42 0 -68 -31 -72 -88l-42 -620c-5 -69 -29 -98 -62 -122c-24 -17 -51 -26 -86 -26c-28 0 -69 10 -86 21l28 60c11 -9 35 -19 56 -19c42 0 68 30 72 87l42 620c5 69 29 98 62 122c24 17 51 26 86 26c28 0 69 -10 86 -21z" />
    <glyph glyph-name="approxequal" unicode="&#x2248;" horiz-adv-x="570" 
d="M515 384c-31 -42 -64 -68 -126 -68c-77 0 -143 66 -216 66c-44 0 -60 -23 -84 -50l-34 50c30 42 63 68 125 68c77 0 144 -66 216 -66c44 0 62 17 85 50zM515 203c-31 -42 -64 -68 -126 -68c-77 0 -143 66 -216 66c-44 0 -60 -23 -84 -50l-34 50c30 42 63 68 125 68
c77 0 144 -66 216 -66c44 0 62 17 85 50z" />
    <glyph glyph-name="notequal" unicode="&#x2260;" horiz-adv-x="632" 
d="M577 192h-293l-109 -179l-46 30l91 149h-165v66h205l55 90h-260v66h300l109 179l46 -30l-91 -149h158v-66h-198l-55 -90h253v-66z" />
    <glyph glyph-name="lessequal" unicode="&#x2264;" horiz-adv-x="467" 
d="M412 124l-367 139v63l367 172v-75l-276 -124l276 -101v-74zM412 36h-367v71h367v-71z" />
    <glyph glyph-name="greaterequal" unicode="&#x2265;" horiz-adv-x="467" 
d="M412 263l-367 -139v74l276 101l-276 124v75l367 -172v-63zM412 36h-367v71h367v-71z" />
    <glyph glyph-name="dotmath" unicode="&#x22c5;" horiz-adv-x="301" 
d="M221 279c0 -36 -29 -66 -65 -66s-66 30 -66 66c0 37 29 66 65 66s66 -29 66 -66z" />
    <glyph glyph-name="uni25B4" unicode="&#x25b4;" horiz-adv-x="516" 
d="M288 543l178 -386h-356z" />
    <glyph glyph-name="uni25B8" unicode="&#x25b8;" horiz-adv-x="516" 
d="M481 350l-386 -178v356z" />
    <glyph glyph-name="uni25BE" unicode="&#x25be;" horiz-adv-x="516" 
d="M288 157l-178 386h356z" />
    <glyph glyph-name="uni25C2" unicode="&#x25c2;" horiz-adv-x="516" 
d="M95 350l386 178v-356z" />
    <glyph glyph-name="lozenge" unicode="&#x25ca;" horiz-adv-x="592" 
d="M537 344l-200 -344h-86l-196 344l196 343h86zM448 344l-157 271l-153 -271l153 -272z" />
    <glyph glyph-name="uniFB06" unicode="&#xfb06;" horiz-adv-x="786" 
d="M566 498v152c-37 17 -83 27 -121 27c-58 0 -123 -31 -123 -107c0 -43 24 -64 57 -84c7 -3 13 -6 19 -9l-29 -58c-44 21 -81 36 -125 36c-57 0 -94 -33 -94 -82c0 -38 19 -61 72 -72l66 -14c90 -19 133 -65 133 -139c0 -97 -76 -163 -188 -163c-63 0 -132 19 -183 50
l30 58c51 -31 103 -47 158 -47c61 0 101 33 101 86c0 45 -25 70 -82 82l-62 13c-82 17 -126 68 -126 137c0 90 73 153 177 153c13 0 28 -2 42 -4c-15 20 -24 43 -24 73c0 89 91 145 184 145c86 0 170 -24 196 -30v-203h127l-24 -59h-104v-321c0 -55 15 -74 64 -74
c22 0 35 3 49 10l11 -50c-25 -13 -53 -20 -88 -20c-26 0 -46 5 -65 14c-35 17 -48 49 -48 99v342h-65v59h65z" />
    <glyph glyph-name="parenleft.case" horiz-adv-x="325" 
d="M355 -80l-22 -40c-84 32 -155 108 -193 206c-30 78 -40 191 -40 270c0 173 36 271 95 344c37 46 89 86 138 105l19 -38c-67 -40 -121 -90 -146 -179c-17 -61 -26 -142 -26 -230c0 -128 13 -244 60 -326c28 -49 62 -83 115 -112z" />
    <glyph glyph-name="parenright.case" horiz-adv-x="325" 
d="M235 331c0 -173 -36 -271 -95 -344c-37 -46 -89 -86 -138 -105l-19 38c67 40 121 90 146 179c17 61 26 142 26 230c0 128 -13 244 -60 326c-28 49 -62 83 -115 112l22 40c84 -32 155 -108 193 -206c30 -78 40 -191 40 -270z" />
    <glyph glyph-name="hyphen.case" horiz-adv-x="301" 
d="M251 305h-191v76h191v-76z" />
    <glyph glyph-name="bracketleft.case" horiz-adv-x="285" 
d="M265 -101h-165v888h165v-60h-93v-768h93v-60z" />
    <glyph glyph-name="bracketright.case" horiz-adv-x="285" 
d="M195 -101h-165v60h93v768h-93v60h165v-888z" />
    <glyph glyph-name="braceleft.case" horiz-adv-x="331" 
d="M311 -101h-70c-50 0 -105 44 -105 125v175c0 72 -44 114 -86 114v60c42 0 86 44 86 113v176c0 81 58 125 105 125h70v-60h-54c-42 0 -49 -39 -49 -79v-176c0 -90 -63 -122 -86 -128v-2c23 -3 86 -30 86 -129v-175c0 -39 7 -79 49 -79h54v-60z" />
    <glyph glyph-name="braceright.case" horiz-adv-x="331" 
d="M291 313c-42 0 -86 -42 -86 -114v-175c0 -81 -55 -125 -105 -125h-70v60h54c42 0 49 40 49 79v175c0 99 63 126 86 129v2c-23 6 -86 38 -86 128v176c0 40 -7 79 -49 79h-54v60h70c47 0 105 -44 105 -125v-176c0 -69 44 -113 86 -113v-60z" />
    <glyph glyph-name="guillemotleft.case" horiz-adv-x="504" 
d="M454 165l-55 -36l-143 214l143 214l55 -36l-117 -178zM268 165l-55 -36l-143 214l143 214l55 -36l-117 -178z" />
    <glyph glyph-name="uni00AD.case" horiz-adv-x="301" 
d="M251 229h-191v76h191v-76z" />
    <glyph glyph-name="guillemotright.case" horiz-adv-x="504" 
d="M444 343l-143 -214l-55 36l117 178l-117 178l55 36zM258 343l-143 -214l-55 36l117 178l-117 178l55 36z" />
    <glyph glyph-name="endash.case" horiz-adv-x="595" 
d="M545 313h-485v59h485v-59z" />
    <glyph glyph-name="emdash.case" horiz-adv-x="822" 
d="M772 313h-712v59h712v-59z" />
    <glyph glyph-name="guilsinglleft.case" horiz-adv-x="318" 
d="M268 165l-55 -36l-143 214l143 214l55 -36l-117 -178z" />
    <glyph glyph-name="guilsinglright.case" horiz-adv-x="318" 
d="M258 343l-143 -214l-55 36l117 178l-117 178l55 36z" />
    <glyph glyph-name="zero.dnom" horiz-adv-x="345" 
d="M320 196c0 -118 -58 -206 -150 -206c-109 0 -145 129 -145 211c0 105 64 199 146 199c111 0 149 -120 149 -204zM247 196c0 41 -2 64 -12 92c-13 38 -37 56 -63 56c-19 0 -39 -14 -54 -43c-13 -24 -20 -57 -20 -102c0 -41 5 -75 12 -95c14 -39 39 -60 62 -60
c21 0 46 19 60 50c11 24 15 59 15 102z" />
    <glyph glyph-name="one.dnom" horiz-adv-x="285" 
d="M260 0h-190v55h62v256c-28 -18 -59 -30 -90 -43l-17 41l124 83h51v-337h60v-55z" />
    <glyph glyph-name="two.dnom" horiz-adv-x="318" 
d="M293 56l-15 -56h-247v40c27 18 55 42 93 83c66 70 90 115 90 153s-26 65 -62 65s-65 -22 -94 -39l-33 35c53 44 97 62 143 62c68 0 121 -50 121 -115c0 -67 -49 -121 -94 -167l-63 -62c7 0 14 1 21 1h140z" />
    <glyph glyph-name="three.dnom" horiz-adv-x="323" 
d="M298 123c0 -56 -44 -101 -97 -123c-29 -12 -73 -20 -117 -20c-15 0 -19 0 -37 3l-17 51c27 -4 30 -4 45 -4c51 0 90 7 123 36c19 16 28 39 28 62c0 27 -17 48 -43 55c-16 4 -21 5 -70 5h-16v51h16c44 0 64 1 76 6c16 7 28 24 28 45c0 30 -24 52 -62 52s-67 -16 -97 -37
l-33 37c36 32 89 57 139 57c71 0 124 -42 124 -103c0 -37 -20 -67 -54 -84c38 -17 64 -47 64 -89z" />
    <glyph glyph-name="four.dnom" horiz-adv-x="343" 
d="M318 71h-49c0 -4 1 -8 1 -12v-60l-67 -18v77c0 4 1 9 1 13h-179v47l146 275h75c-26 -50 -94 -185 -145 -269l7 1h96l-1 6c-2 10 1 19 2 32l8 108l57 17v-155l-1 -8h49v-54z" />
    <glyph glyph-name="five.dnom" horiz-adv-x="300" 
d="M275 125c0 -50 -32 -100 -80 -123c-29 -14 -69 -23 -103 -23c-19 0 -28 1 -53 7l-14 58c34 -14 39 -14 58 -14c69 0 121 42 121 94c0 15 -6 29 -14 40c-12 17 -30 25 -66 25c-28 0 -57 -5 -88 -19l22 218h199l-11 -57h-127l-8 -91c12 1 17 2 29 2c46 0 83 -12 108 -41
c18 -21 27 -49 27 -76z" />
    <glyph glyph-name="six.dnom" horiz-adv-x="337" 
d="M312 124c0 -76 -62 -134 -142 -134c-89 0 -145 68 -145 165c0 64 19 111 60 157c46 52 101 84 176 105l18 -46c-39 -12 -49 -17 -71 -30c-45 -27 -81 -64 -98 -115c22 13 49 21 73 21c32 0 60 -10 85 -30c31 -24 44 -52 44 -93zM238 123c0 24 -5 39 -17 51
c-11 12 -30 19 -48 19c-23 0 -47 -9 -71 -26c-1 -10 -1 -15 -1 -24c0 -44 11 -99 69 -99c41 0 68 28 68 79z" />
    <glyph glyph-name="seven.dnom" horiz-adv-x="337" 
d="M312 388l-14 -60c-39 -54 -78 -107 -109 -165c-38 -72 -58 -126 -63 -156c0 0 0 -3 -2 -12l-80 -19c10 47 13 60 29 96c37 84 96 191 157 260c-10 0 -21 -1 -33 -1h-172l17 57h270z" />
    <glyph glyph-name="eight.dnom" horiz-adv-x="339" 
d="M314 112c0 -36 -17 -68 -47 -91c-27 -21 -58 -31 -98 -31c-81 0 -144 48 -144 115c0 48 30 81 72 102c-36 21 -58 52 -58 88c0 32 20 67 47 84c20 13 56 20 90 20c72 0 125 -37 125 -96c0 -45 -31 -75 -70 -94c45 -20 83 -44 83 -97zM245 101c0 14 -5 27 -13 35
c-12 12 -32 23 -82 45c-32 -17 -57 -35 -57 -73c0 -39 30 -65 79 -65c45 0 73 24 73 58zM235 299c0 28 -22 48 -65 48c-42 0 -65 -20 -65 -48c0 -35 43 -53 71 -64c45 23 59 43 59 64z" />
    <glyph glyph-name="nine.dnom" horiz-adv-x="357" 
d="M332 252c0 -67 -32 -139 -83 -192c-29 -30 -61 -51 -105 -69c-34 -14 -46 -16 -81 -20l-38 45c42 5 51 7 73 16c52 22 101 56 131 106l3 5c-17 -7 -35 -10 -53 -10c-75 0 -130 55 -130 129c0 78 63 138 144 138c38 0 70 -12 96 -38c29 -29 43 -63 43 -110zM260 252
c0 60 -30 94 -69 94c-40 0 -69 -32 -69 -84c0 -49 25 -76 63 -76c24 0 46 7 68 21c4 17 7 30 7 45z" />
    <glyph glyph-name="germandbls.hist" horiz-adv-x="667" 
d="M375 698l-31 -59c-15 9 -43 25 -73 25c-63 0 -104 -42 -104 -142v-522h-77v439h-74v59h74v13c0 69 5 114 40 154s83 60 147 60c37 0 70 -12 98 -27zM612 148c0 -97 -76 -163 -188 -163c-63 0 -132 19 -183 50l30 58c51 -31 103 -47 158 -47c61 0 101 33 101 86
c0 45 -25 70 -82 82l-62 13c-82 17 -126 68 -126 137c0 90 73 153 177 153c52 0 110 -16 152 -40l-29 -58c-44 21 -81 36 -125 36c-57 0 -94 -33 -94 -82c0 -38 19 -61 72 -72l66 -14c90 -19 133 -65 133 -139z" />
    <glyph glyph-name="grave.lc" horiz-adv-x="549" 
d="M380 612l-26 -47l-224 100l43 77z" />
    <glyph glyph-name="dieresis.lc" horiz-adv-x="549" 
d="M428 621c0 -29 -23 -53 -51 -53c-29 0 -53 24 -53 53c0 28 23 51 52 51c28 0 52 -23 52 -51zM220 621c0 -29 -22 -53 -51 -53s-52 24 -52 53c0 28 23 51 51 51c29 0 52 -23 52 -51z" />
    <glyph glyph-name="macron.lc" horiz-adv-x="324" 
d="M299 568h-274v54h274v-54z" />
    <glyph glyph-name="acute.lc" horiz-adv-x="549" 
d="M424 665l-224 -100l-26 47l207 130z" />
    <glyph glyph-name="circumflex.lc" horiz-adv-x="549" 
d="M446 605l-36 -44l-139 85l-135 -85l-31 44l170 135z" />
    <glyph glyph-name="caron.lc" horiz-adv-x="459" 
d="M406 693l-170 -135l-171 135l36 44l139 -85l135 85z" />
    <glyph glyph-name="breve.lc" horiz-adv-x="411" 
d="M370 669c-12 -16 -89 -98 -163 -98c-75 0 -151 82 -164 98l34 39c17 -15 74 -56 134 -56c52 0 114 45 129 56z" />
    <glyph glyph-name="dotaccent.lc" horiz-adv-x="252" 
d="M187 652c0 -34 -27 -61 -61 -61s-61 27 -61 60c0 34 27 62 61 62s61 -27 61 -61z" />
    <glyph glyph-name="ring.lc" horiz-adv-x="529" 
d="M383 659c0 -58 -47 -106 -104 -106c-58 0 -106 48 -106 106s47 106 104 106s106 -48 106 -106zM338 659c0 32 -28 60 -62 60c-31 0 -57 -28 -57 -60s28 -60 60 -60c31 0 59 28 59 60z" />
    <glyph glyph-name="tilde.lc" horiz-adv-x="549" 
d="M450 656c-33 -41 -62 -63 -121 -63c-61 0 -69 37 -127 37c-32 0 -48 -17 -69 -39l-28 45c33 41 61 63 120 63c61 0 69 -37 127 -37c32 0 49 17 70 39z" />
    <glyph glyph-name="hungarumlaut.lc" horiz-adv-x="428" 
d="M202 763l-117 -198l-50 21l86 210zM393 744l-154 -173l-44 31l124 189z" />
    <glyph glyph-name="diedot.lc" horiz-adv-x="549" 
d="M220 621c0 -29 -22 -53 -51 -53s-52 24 -52 53c0 28 23 51 51 51c29 0 52 -23 52 -51z" />
    <glyph glyph-name="zero.lf" horiz-adv-x="589" 
d="M524 327c0 -204 -95 -343 -233 -343c-170 0 -226 217 -226 352c0 180 104 330 227 330c173 0 232 -199 232 -339zM436 326c0 72 -4 116 -21 167c-23 70 -67 110 -121 110c-40 0 -79 -31 -106 -85c-23 -46 -34 -106 -34 -186c0 -73 7 -134 20 -172
c24 -71 70 -115 119 -115c45 0 91 38 116 96c20 46 27 110 27 185z" />
    <glyph glyph-name="one.lf" horiz-adv-x="394" 
d="M220 0v559s-41 -30 -74 -46c-30 -15 -84 -38 -84 -38l-17 43l192 135h62v-653h-79z" />
    <glyph glyph-name="two.lf" horiz-adv-x="531" 
d="M466 64l-16 -64h-382v45c39 27 86 71 150 143c110 122 155 205 155 279s-51 129 -121 129c-59 0 -100 -31 -153 -63l-34 38c74 64 143 94 214 94c104 0 186 -81 186 -185c0 -57 -24 -122 -64 -177c-24 -33 -53 -67 -88 -104c-66 -70 -127 -131 -144 -139c0 0 48 4 85 4
h212z" />
    <glyph glyph-name="three.lf" horiz-adv-x="526" 
d="M461 200c0 -88 -68 -163 -153 -200c-46 -20 -115 -33 -187 -33c-24 0 -30 0 -49 3l-18 54c19 -3 25 -4 51 -4c87 0 156 14 216 68c36 32 52 75 52 120c0 54 -32 97 -83 112c-29 8 -40 9 -121 9h-10v56h9c71 0 110 1 134 12c34 15 56 53 56 95c0 64 -48 107 -119 107
c-59 0 -112 -25 -159 -59l-35 41c51 48 137 84 208 84c111 0 190 -68 190 -163c0 -72 -46 -128 -121 -148c74 -18 139 -72 139 -154z" />
    <glyph glyph-name="four.lf" horiz-adv-x="565" 
d="M510 125h-55c-14 0 -27 1 -27 1s1 -18 1 -39v-91l-77 -23v113c0 18 1 40 1 40s-18 -1 -40 -1h-258v62l237 468h87l-206 -408c-16 -32 -36 -63 -36 -63s22 3 39 3h155c12 0 22 -1 22 -1s-1 22 -1 28c0 17 2 33 3 55l12 177l62 19v-248c0 -18 -1 -31 -1 -31s12 1 23 1h59
v-62z" />
    <glyph glyph-name="five.lf" horiz-adv-x="487" 
d="M422 203c0 -81 -50 -162 -125 -200c-45 -23 -110 -38 -164 -38c-30 0 -43 1 -74 9l-14 60c28 -12 40 -14 74 -14c122 0 217 80 217 182c0 29 -9 58 -25 80c-25 35 -63 50 -125 50c-48 0 -97 -8 -126 -22l32 337h296l-12 -66h-213l-17 -193c34 4 42 4 68 4
c73 0 128 -22 166 -67c27 -33 42 -78 42 -122z" />
    <glyph glyph-name="six.lf" horiz-adv-x="575" 
d="M510 201c0 -124 -95 -218 -220 -218c-136 0 -225 108 -225 272c0 107 30 185 96 263c74 88 162 142 270 174l19 -50c-93 -30 -184 -94 -238 -173c-22 -32 -34 -68 -47 -123c34 32 92 52 146 52c112 0 199 -84 199 -197zM420 199c0 44 -10 75 -33 100
c-22 24 -57 39 -92 39c-45 0 -92 -19 -135 -53c-3 -23 -3 -32 -3 -51c0 -88 27 -190 133 -190c80 0 130 60 130 155z" />
    <glyph glyph-name="seven.lf" horiz-adv-x="516" 
d="M481 646l-19 -80c-65 -90 -128 -187 -180 -289c-40 -78 -94 -199 -109 -287l-97 -24c14 89 73 217 138 338c60 112 129 217 187 277c0 0 -45 -1 -92 -1h-264l19 66h417z" />
    <glyph glyph-name="eight.lf" horiz-adv-x="578" 
d="M513 180c0 -125 -111 -197 -226 -197c-128 0 -222 79 -222 185c0 88 63 148 141 176c-75 35 -118 91 -118 155c0 122 107 166 211 166c115 0 192 -61 192 -152c0 -85 -69 -134 -140 -162c78 -37 162 -68 162 -171zM431 161c0 28 -9 54 -26 72c-23 24 -62 47 -150 87
c-62 -34 -110 -70 -110 -147c0 -79 59 -131 148 -131c82 0 138 49 138 119zM415 507c0 61 -49 101 -126 101c-76 0 -125 -40 -125 -102c0 -73 79 -107 136 -130c81 43 115 83 115 131z" />
    <glyph glyph-name="nine.lf" horiz-adv-x="577" 
d="M512 426c0 -113 -51 -234 -133 -324c-47 -51 -98 -86 -169 -116c-55 -24 -73 -29 -121 -34l-39 48c41 5 58 10 96 26c89 39 175 100 226 192c6 11 18 34 26 56c-37 -26 -80 -39 -124 -39c-116 0 -200 87 -200 208c0 127 98 224 224 224c137 0 214 -113 214 -241zM426 425
c0 108 -53 180 -132 180s-132 -66 -132 -163c0 -92 46 -148 122 -148c46 0 86 16 132 53c8 35 10 49 10 78z" />
    <glyph glyph-name="g.salt" horiz-adv-x="559" 
d="M484 498c0 0 -15 -45 -15 -128v-233c0 -46 3 -112 3 -140c0 -147 -71 -201 -217 -201c-73 0 -122 14 -184 41l17 68c48 -22 109 -43 167 -43c87 0 140 31 140 121c0 1 0 28 -1 78c-38 -44 -83 -68 -140 -68c-46 0 -81 11 -114 39c-49 41 -80 101 -80 202
c0 99 14 154 47 199c37 51 90 80 149 80c54 0 98 -22 141 -70c1 13 5 44 10 55h77zM394 136v236c-27 43 -79 71 -127 71c-43 0 -81 -22 -101 -61c-17 -33 -23 -64 -23 -130c0 -109 22 -141 47 -164c21 -20 45 -29 83 -29c51 0 95 28 121 77z" />
    <glyph glyph-name="pi.salt" horiz-adv-x="560" 
d="M515 436h-65v-336c0 -39 7 -50 29 -50c5 0 13 2 17 5l16 -51c-17 -9 -33 -14 -57 -14s-44 7 -59 21c-16 14 -24 35 -24 71v354h-183v-320c0 -82 -6 -96 -16 -116h-78c11 24 16 57 16 124v312h-66v62h470v-62z" />
    <glyph glyph-name="arrowleft.salt" horiz-adv-x="872" 
d="M847 275c0 -27 -21 -49 -48 -49s-49 22 -49 49s22 48 49 48s48 -21 48 -48zM702 275c0 -27 -21 -49 -48 -49s-49 22 -49 49s22 48 49 48s48 -21 48 -48zM557 275c0 -27 -21 -49 -48 -49s-49 22 -49 49s22 48 49 48s48 -21 48 -48zM288 515c0 -27 -21 -49 -48 -49
s-49 22 -49 49s22 48 49 48s48 -21 48 -48zM412 275c0 -27 -21 -49 -48 -49s-49 22 -49 49s22 48 49 48s48 -21 48 -48zM205 395c0 -27 -21 -49 -48 -49s-49 22 -49 49s22 48 49 48s48 -21 48 -48zM267 275c0 -27 -21 -49 -48 -49s-49 22 -49 49s22 48 49 48s48 -21 48 -48z
M122 275c0 -27 -21 -49 -48 -49s-49 22 -49 49s22 48 49 48s48 -21 48 -48zM205 155c0 -27 -21 -49 -48 -49s-49 22 -49 49s22 48 49 48s48 -21 48 -48zM288 35c0 -27 -21 -49 -48 -49s-49 22 -49 49s22 48 49 48s48 -21 48 -48z" />
    <glyph glyph-name="arrowup.salt" horiz-adv-x="872" 
d="M725 471c0 -27 -22 -48 -49 -48s-48 21 -48 48s21 49 48 49s49 -22 49 -49zM605 554c0 -27 -22 -48 -49 -48s-48 21 -48 48s21 49 48 49s49 -22 49 -49zM485 637c0 -27 -22 -48 -49 -48s-48 21 -48 48s21 49 48 49s49 -22 49 -49zM485 492c0 -27 -22 -48 -49 -48
s-48 21 -48 48s21 49 48 49s49 -22 49 -49zM365 554c0 -27 -22 -48 -49 -48s-48 21 -48 48s21 49 48 49s49 -22 49 -49zM485 347c0 -27 -22 -48 -49 -48s-48 21 -48 48s21 49 48 49s49 -22 49 -49zM245 471c0 -27 -22 -48 -49 -48s-48 21 -48 48s21 49 48 49s49 -22 49 -49z
M485 202c0 -27 -22 -48 -49 -48s-48 21 -48 48s21 49 48 49s49 -22 49 -49zM485 57c0 -27 -22 -48 -49 -48s-48 21 -48 48s21 49 48 49s49 -22 49 -49zM485 -88c0 -27 -22 -48 -49 -48s-48 21 -48 48s21 49 48 49s49 -22 49 -49z" />
    <glyph glyph-name="arrowright.salt" horiz-adv-x="872" 
d="M681 515c0 -27 -22 -49 -49 -49s-48 22 -48 49s21 48 48 48s49 -21 49 -48zM764 395c0 -27 -22 -49 -49 -49s-48 22 -48 49s21 48 48 48s49 -21 49 -48zM847 275c0 -27 -22 -49 -49 -49s-48 22 -48 49s21 48 48 48s49 -21 49 -48zM702 275c0 -27 -22 -49 -49 -49
s-48 22 -48 49s21 48 48 48s49 -21 49 -48zM764 155c0 -27 -22 -49 -49 -49s-48 22 -48 49s21 48 48 48s49 -21 49 -48zM557 275c0 -27 -22 -49 -49 -49s-48 22 -48 49s21 48 48 48s49 -21 49 -48zM681 35c0 -27 -22 -49 -49 -49s-48 22 -48 49s21 48 48 48s49 -21 49 -48z
M412 275c0 -27 -22 -49 -49 -49s-48 22 -48 49s21 48 48 48s49 -21 49 -48zM267 275c0 -27 -22 -49 -49 -49s-48 22 -48 49s21 48 48 48s49 -21 49 -48zM122 275c0 -27 -22 -49 -49 -49s-48 22 -48 49s21 48 48 48s49 -21 49 -48z" />
    <glyph glyph-name="arrowdown.salt" horiz-adv-x="872" 
d="M485 638c0 -27 -22 -49 -49 -49s-48 22 -48 49s21 48 48 48s49 -21 49 -48zM485 493c0 -27 -22 -49 -49 -49s-48 22 -48 49s21 48 48 48s49 -21 49 -48zM485 348c0 -27 -22 -49 -49 -49s-48 22 -48 49s21 48 48 48s49 -21 49 -48zM725 79c0 -27 -22 -49 -49 -49
s-48 22 -48 49s21 48 48 48s49 -21 49 -48zM485 203c0 -27 -22 -49 -49 -49s-48 22 -48 49s21 48 48 48s49 -21 49 -48zM605 -4c0 -27 -22 -49 -49 -49s-48 22 -48 49s21 48 48 48s49 -21 49 -48zM485 58c0 -27 -22 -49 -49 -49s-48 22 -48 49s21 48 48 48s49 -21 49 -48z
M485 -87c0 -27 -22 -49 -49 -49s-48 22 -48 49s21 48 48 48s49 -21 49 -48zM365 -4c0 -27 -22 -49 -49 -49s-48 22 -48 49s21 48 48 48s49 -21 49 -48zM245 79c0 -27 -22 -49 -49 -49s-48 22 -48 49s21 48 48 48s49 -21 49 -48z" />
    </font>
</defs>
</svg>
